<?xml version="1.0" encoding="UTF-8"?>
<svg id="Capa_1" xmlns="http://www.w3.org/2000/svg" xmlns:xlink="http://www.w3.org/1999/xlink" xmlns:serif="http://www.serif.com/" version="1.1" viewBox="0 0 100 125">
  <!-- Generator: Adobe Illustrator 29.8.2, SVG Export Plug-In . SVG Version: 2.1.1 Build 3)  -->
  <defs>
    <style>
      .st0 {
        fill: none;
      }

      .st1 {
        fill: #295e0a;
      }

      .st2 {
        filter: url(#drop-shadow-1);
      }

      .st2, .st3 {
        fill: #fff;
      }

      .st2, .st4 {
        fill-rule: evenodd;
      }

      .st4 {
        fill: #31c612;
        filter: url(#drop-shadow-2);
        stroke: #295e0a;
        stroke-miterlimit: 10;
      }
    </style>
    <filter id="drop-shadow-1" x="1" y="21" width="102" height="103" filterUnits="userSpaceOnUse">
      <feOffset dx="4" dy="4"/>
      <feGaussianBlur result="blur" stdDeviation="2"/>
      <feFlood flood-color="#000" flood-opacity=".7"/>
      <feComposite in2="blur" operator="in"/>
      <feComposite in="SourceGraphic"/>
    </filter>
    <filter id="drop-shadow-2" x="52" y="-1" width="52" height="51" filterUnits="userSpaceOnUse">
      <feOffset dx="4" dy="4"/>
      <feGaussianBlur result="blur1" stdDeviation="2"/>
      <feFlood flood-color="#000" flood-opacity=".7"/>
      <feComposite in2="blur1" operator="in"/>
      <feComposite in="SourceGraphic"/>
    </filter>
  </defs>
  <rect class="st0" y="0" width="100" height="100" serif:id="62 - accessibility"/>
  <path class="st2" d="M48,23.1C23.2,23.1,3,43.3,3,68.1s20.2,45,45,45,45-20.2,45-45-20.2-45-45-45ZM41.4,65.9c-.8,8.9-2.8,17.6-6,26-.8,2.1.3,4.4,2.3,5.1,2.1.8,4.4-.3,5.1-2.3,2.3-6,4-12,5.1-18.2,1.2,6.2,2.9,12.3,5.1,18.2.8,2.1,3.1,3.1,5.1,2.3,2.1-.8,3.1-3.1,2.3-5.1-3.2-8.4-5.2-17.1-6-26,4.8-.2,9.5-.7,14.3-1.5,2.2-.4,3.6-2.4,3.3-4.6-.4-2.2-2.4-3.6-4.6-3.3-13.1,2.1-26.2,2-39.2,0-2.2-.3-4.2,1.1-4.5,3.3s1.1,4.2,3.3,4.5c4.8.7,9.5,1.2,14.3,1.5h.1ZM48,40.4c4,0,7.2,3.2,7.2,7.2s-3.2,7.2-7.2,7.2-7.2-3.2-7.2-7.2,3.2-7.2,7.2-7.2Z"/>
  <path class="st4" d="M78.4,2.8h-8.6c-8,0-14.6,6.5-14.6,14.6s5.6,13.6,12.8,14.4c-.7,3.2-3.1,5.1-7,7.2,0,0,12.1.7,14.2-7.1h3.3c8,0,14.6-6.5,14.6-14.6s-6.5-14.6-14.6-14.6Z"/>
  <g>
    <path class="st3" d="M66.2,19.4l1.5-1.5c.5-.5,1.1-.7,1.8-.7s1.4.3,1.9.8l.3.3,5.7-6.5c.6-.7,1.4-1,2.3-1h.5c.5.2,1.1.4,1.5.8l1.3,1.1-11,12.6-5.8-5.9Z"/>
    <path class="st1" d="M79.7,11.3h0c.6,0,1.2.2,1.6.6l.9.8-10.3,11.8-5-5.1,1.2-1.1c.4-.4.9-.6,1.5-.6s1.1.2,1.5.6l.7.7,6-6.9c.5-.6,1.2-.8,1.9-.8M79.7,10.3c-1,0-1.9.4-2.6,1.2l-5.3,6.1c-.6-.6-1.3-.9-2.2-.9s-1.6.3-2.2.9l-1.2,1.1-.7.7.7.7,5,5.1.8.8.7-.8,10.3-11.8.7-.8-.8-.7-.9-.8c-.4-.3-.8-.6-1.3-.7h0c0-.1-1-.2-1-.2h0Z"/>
  </g>
</svg>