<?xml version="1.0" encoding="UTF-8"?>
<svg id="Layer_1" xmlns="http://www.w3.org/2000/svg" version="1.1" viewBox="0 0 1196.4 941.8">
  <!-- Generator: Adobe Illustrator 29.0.0, SVG Export Plug-In . SVG Version: 2.1.0 Build 186)  -->
  <defs>
    <style>
      .st0 {
        stroke-dasharray: 6;
      }

      .st0, .st1, .st2, .st3, .st4, .st5, .st6 {
        fill: none;
        stroke: #000;
        stroke-miterlimit: 10;
      }

      .st0, .st1, .st2, .st3, .st4, .st6 {
        stroke-width: 2px;
      }

      .st7 {
        isolation: isolate;
      }

      .st1 {
        stroke-dasharray: 6.1 6.1;
      }

      .st8 {
        fill: #fff;
      }

      .st2 {
        stroke-dasharray: 6.1 6.1;
      }

      .st9 {
        fill: #c73319;
      }

      .st4 {
        stroke-dasharray: 5.9 5.9;
      }

      .st5 {
        stroke-width: 4px;
      }

      .st6 {
        stroke-dasharray: 6 6;
      }
    </style>
  </defs>
  <rect class="st8" width="1196.4" height="941.8"/>
  <rect class="st5" x="542.5" y="642.7" width="90.2" height="90.2"/>
  <circle class="st5" cx="586.4" cy="200.7" r="73.5"/>
  <circle cx="586.4" cy="220.1" r="8.2"/>
  <circle cx="586.4" cy="181.2" r="8.2"/>
  <g>
    <circle cx="389.6" cy="463.7" r="8.2"/>
    <circle cx="389.6" cy="424.8" r="8.2"/>
  </g>
  <g>
    <circle cx="787.6" cy="463.2" r="8.2"/>
    <circle cx="787.6" cy="424.3" r="8.2"/>
  </g>
  <circle class="st5" cx="586.4" cy="687.8" r="73.5"/>
  <circle cx="558.8" cy="663.1" r="8.2"/>
  <circle cx="558.8" cy="707.2" r="8.2"/>
  <circle cx="586.4" cy="663.1" r="8.2"/>
  <circle cx="586.4" cy="690.8" r="8.2"/>
  <circle cx="614.5" cy="715.5" r="8.2"/>
  <circle class="st5" cx="348.9" cy="444.2" r="73.5"/>
  <circle cx="314.2" cy="436" r="8.2"/>
  <circle cx="348.9" cy="444.2" r="8.2"/>
  <circle cx="347.9" cy="402.3" r="8.2"/>
  <circle cx="322.4" cy="488.4" r="8.2"/>
  <circle class="st5" cx="823.9" cy="444.2" r="73.5"/>
  <circle cx="614.5" cy="671.3" r="8.2"/>
  <circle cx="855.7" cy="480.1" r="8.2"/>
  <circle cx="823.9" cy="444.2" r="8.2"/>
  <circle cx="829.4" cy="399" r="8.2"/>
  <g>
    <line class="st3" x1="586.4" y1="181.2" x2="584.5" y2="183.6"/>
    <line class="st6" x1="580.7" y1="188.3" x2="393.4" y2="420.1"/>
    <line class="st3" x1="391.5" y1="422.5" x2="389.6" y2="424.8"/>
  </g>
  <line class="st0" x1="586.4" y1="220.1" x2="389.6" y2="463.7"/>
  <g>
    <line class="st3" x1="787.6" y1="463.2" x2="785.7" y2="465.5"/>
    <line class="st4" x1="781.9" y1="470" x2="619.3" y2="666.7"/>
    <line class="st3" x1="617.4" y1="669" x2="615.5" y2="671.3"/>
  </g>
  <g>
    <line class="st3" x1="823.9" y1="418.4" x2="821.8" y2="420.5"/>
    <line class="st2" x1="817.6" y1="424.9" x2="590.6" y2="657.6"/>
    <line class="st3" x1="588.5" y1="659.8" x2="586.4" y2="661.9"/>
  </g>
  <line class="st0" x1="855.7" y1="480.1" x2="614.5" y2="715.5"/>
  <line class="st3" x1="787.6" y1="424.3" x2="389.6" y2="424.8"/>
  <line class="st3" x1="787.6" y1="462.9" x2="389.6" y2="463.4"/>
  <g>
    <line class="st3" x1="586.4" y1="181.2" x2="588.3" y2="183.6"/>
    <line class="st1" x1="592.2" y1="188.2" x2="783.7" y2="419.6"/>
    <line class="st3" x1="785.7" y1="422" x2="787.6" y2="424.3"/>
  </g>
  <line class="st0" x1="586.4" y1="220.1" x2="787.6" y2="463.2"/>
  <line class="st0" x1="321.8" y1="488.4" x2="558.8" y2="707.2"/>
  <line class="st0" x1="348.9" y1="444.2" x2="558.8" y2="707.2"/>
  <line class="st0" x1="389.6" y1="463.7" x2="558.8" y2="663.1"/>
  <line class="st0" x1="389.6" y1="424.8" x2="586.4" y2="661.9"/>
  <g class="st7">
    <g class="st7">
      <path class="st9" d="M497.2,103.2c-1.1,0-2.2-.2-3.2-.6-1-.4-1.8-1-2.6-1.7-.7-.7-1.3-1.6-1.7-2.6-.4-1-.6-2-.6-3.2s.2-2.2.6-3.1c.4-1,1-1.8,1.7-2.5.7-.7,1.6-1.3,2.6-1.7,1-.4,2-.6,3.2-.6s1.6.1,2.3.3c.7.2,1.4.5,2,.9.6.4,1.1.9,1.5,1.4l-1.6,1.6c-.4-.4-.9-.8-1.4-1.1-.5-.3-.9-.5-1.4-.6-.5-.1-1-.2-1.5-.2-.8,0-1.5.1-2.2.4-.7.3-1.3.7-1.8,1.2-.5.5-.9,1.1-1.2,1.8s-.4,1.4-.4,2.2.1,1.5.4,2.2c.3.7.7,1.3,1.2,1.8.5.5,1.1.9,1.8,1.2.7.3,1.4.4,2.2.4s1.1,0,1.6-.3c.5-.2,1-.4,1.4-.7.4-.3.7-.7.9-1.1.2-.4.3-.8.3-1.3v-.4l.3.3h-4.8v-2.4h6.9c0,.2,0,.3,0,.5,0,.2,0,.3,0,.4,0,.1,0,.3,0,.4,0,1-.2,2-.5,2.8s-.9,1.6-1.5,2.2c-.6.6-1.4,1.1-2.2,1.4s-1.7.5-2.7.5Z"/>
      <path class="st9" d="M508.6,103v-15.6h9.8v2.3h-7.4v11h7.4v2.3h-9.8ZM509.7,96.1v-2.3h7.5v2.3h-7.5Z"/>
      <path class="st9" d="M523.6,103v-15.6h2.2l9.5,12.8-.4.2c0-.4-.1-.8-.2-1.2,0-.4,0-.9-.1-1.4,0-.5,0-1,0-1.6,0-.6,0-1.1,0-1.7,0-.6,0-1.2,0-1.9v-5.1h2.4v15.6h-2.2l-9.4-12.3.2-.3c0,.9.1,1.7.2,2.3,0,.6,0,1.2.1,1.6,0,.4,0,.8,0,1.1,0,.3,0,.5,0,.7,0,.2,0,.3,0,.5v6.5h-2.4Z"/>
      <path class="st9" d="M542.5,103v-15.6h9.8v2.3h-7.4v11h7.4v2.3h-9.8ZM543.6,96.1v-2.3h7.5v2.3h-7.5Z"/>
      <path class="st9" d="M557.5,103v-15.6h6.6c.9,0,1.7.2,2.5.7s1.3,1,1.8,1.8c.4.8.7,1.6.7,2.5s-.2,1.6-.7,2.4c-.4.7-1,1.3-1.8,1.7s-1.6.7-2.5.7h-4.2v5.9h-2.4ZM559.9,94.8h4.5c.4,0,.8-.1,1.2-.3.3-.2.6-.5.8-.9.2-.4.3-.8.3-1.3s-.1-1-.4-1.4c-.2-.4-.6-.7-1-.9-.4-.2-.9-.3-1.5-.3h-3.8v5.1ZM566.8,103l-4-7,2.5-.6,4.4,7.6h-2.9Z"/>
    </g>
    <g class="st7">
      <path class="st9" d="M574,103v-2.2h2.5v-11.1h-2.5v-2.2h7.4v2.2h-2.5v11.1h2.5v2.2h-7.4Z"/>
    </g>
    <g class="st7">
      <path class="st9" d="M592.6,103.2c-1.1,0-2.1-.2-3-.6-.9-.4-1.7-.9-2.4-1.7-.7-.7-1.2-1.6-1.5-2.6-.4-1-.5-2.1-.5-3.2s.2-2.2.6-3.1.9-1.8,1.6-2.5,1.5-1.3,2.4-1.7c.9-.4,1.9-.6,3-.6s1.5.1,2.2.3c.7.2,1.4.5,2,1,.6.4,1.1.9,1.4,1.4l-1.6,1.7c-.4-.4-.9-.8-1.3-1.1-.4-.3-.9-.5-1.3-.7s-.9-.2-1.4-.2c-.7,0-1.4.1-2,.4s-1.2.7-1.6,1.1c-.5.5-.8,1.1-1.1,1.7-.3.7-.4,1.4-.4,2.2s.1,1.6.4,2.3c.3.7.6,1.3,1.1,1.8.5.5,1,.9,1.7,1.1.7.3,1.4.4,2.2.4s1,0,1.4-.2c.5-.1.9-.3,1.3-.6s.8-.5,1.1-.9l1.2,2c-.3.4-.8.8-1.4,1.1-.6.3-1.2.6-2,.8-.7.2-1.4.3-2.2.3Z"/>
      <path class="st9" d="M615,103.2c-.8,0-1.6-.1-2.4-.3-.7-.2-1.4-.6-2-1s-1.1-1-1.6-1.7l1.6-1.9c.7,1,1.4,1.8,2.1,2.2.7.4,1.5.6,2.4.6s1.1,0,1.5-.3c.5-.2.8-.4,1.1-.7.3-.3.4-.7.4-1.1s0-.5-.1-.8c0-.2-.2-.5-.4-.6-.2-.2-.4-.4-.7-.5-.3-.2-.6-.3-1-.4-.4-.1-.8-.2-1.3-.3-.8-.2-1.5-.4-2.1-.6-.6-.3-1.1-.6-1.5-1s-.7-.9-.9-1.4c-.2-.5-.3-1.1-.3-1.7s.1-1.2.4-1.7c.3-.5.7-1,1.1-1.4.5-.4,1-.7,1.7-.9.7-.2,1.4-.3,2.1-.3s1.5.1,2.2.3,1.3.5,1.8.9,1,.9,1.3,1.5l-1.7,1.7c-.3-.5-.6-.9-1-1.2-.4-.3-.8-.6-1.2-.8s-.9-.3-1.4-.3-1.1,0-1.5.3c-.4.2-.8.4-1,.7s-.4.7-.4,1.1,0,.6.2.9c.1.3.3.5.5.7.2.2.6.4,1,.5.4.2.9.3,1.5.4.8.2,1.5.4,2.2.7.6.3,1.2.6,1.6,1,.4.4.8.8,1,1.2.2.5.3,1,.3,1.5,0,1-.2,1.9-.7,2.6-.5.7-1.1,1.3-2,1.7-.8.4-1.9.6-3,.6Z"/>
    </g>
    <g class="st7">
      <path class="st9" d="M625.6,103v-15.6h6.3c.8,0,1.6.2,2.3.6.7.4,1.2,1,1.7,1.7s.6,1.5.6,2.4-.2,1.7-.6,2.4-1,1.3-1.7,1.7c-.7.4-1.5.7-2.3.7h-3.9v6h-2.4ZM628,94.7h3.9c.4,0,.8-.1,1.1-.3.3-.2.6-.5.8-.9.2-.4.3-.8.3-1.3s-.1-.9-.3-1.2c-.2-.4-.5-.7-.8-.9-.3-.2-.7-.3-1.1-.3h-3.9v5Z"/>
    </g>
    <g class="st7">
      <path class="st9" d="M638,103l6-15.6h2.5l6,15.6h-2.6l-3.6-9.4c0-.1-.1-.4-.3-.8-.1-.4-.3-.8-.4-1.3-.2-.5-.3-.9-.4-1.3-.1-.4-.2-.7-.3-.8h.5c0,.2-.2.5-.3.9-.1.4-.3.8-.4,1.2-.1.4-.3.8-.4,1.2-.1.4-.2.7-.3.9l-3.5,9.3h-2.5ZM640.6,99.1l.9-2.3h7.1l1,2.3h-9Z"/>
    </g>
    <g class="st7">
      <path class="st9" d="M662.4,103.2c-1.1,0-2.1-.2-3-.6s-1.7-.9-2.4-1.7c-.7-.7-1.2-1.6-1.5-2.6s-.5-2.1-.5-3.2.2-2.2.6-3.1.9-1.8,1.6-2.5,1.5-1.3,2.4-1.7c.9-.4,1.9-.6,3-.6s1.5.1,2.2.3c.7.2,1.4.5,2,1,.6.4,1.1.9,1.4,1.4l-1.6,1.7c-.4-.4-.9-.8-1.3-1.1-.4-.3-.9-.5-1.3-.7s-.9-.2-1.4-.2c-.7,0-1.4.1-2,.4-.6.3-1.2.7-1.6,1.1s-.8,1.1-1.1,1.7c-.3.7-.4,1.4-.4,2.2s.1,1.6.4,2.3.6,1.3,1.1,1.8c.5.5,1,.9,1.7,1.1.7.3,1.4.4,2.2.4s1,0,1.4-.2.9-.3,1.3-.6.8-.5,1.1-.9l1.2,2c-.3.4-.8.8-1.4,1.1-.6.3-1.2.6-2,.8-.7.2-1.4.3-2.2.3Z"/>
      <path class="st9" d="M672.5,103v-15.6h9.8v2.3h-7.4v11h7.4v2.3h-9.8ZM673.6,96.1v-2.3h7.5v2.3h-7.5Z"/>
    </g>
  </g>
  <g class="st7">
    <g class="st7">
      <path class="st9" d="M490,805.9v-15.6h6.8c1,0,1.9.2,2.6.5.7.3,1.3.7,1.6,1.3s.6,1.3.6,2.1-.2,1.6-.7,2.2c-.4.6-1.1,1-1.9,1.2v-.4c.7.2,1.3.4,1.8.8.5.4.9.8,1.2,1.4.3.5.4,1.2.4,1.9s-.1,1.5-.4,2c-.3.6-.6,1.1-1.1,1.5s-1.1.7-1.7.9c-.7.2-1.4.3-2.2.3h-7ZM493.2,796.7h3.2c.4,0,.8,0,1-.2.3-.1.5-.3.7-.6.2-.3.2-.5.2-.9,0-.5-.2-1-.5-1.3s-.9-.4-1.6-.4h-3v3.4ZM493.2,803h3.7c.5,0,.9,0,1.2-.2.3-.1.6-.4.8-.7.2-.3.3-.6.3-1s0-.7-.3-1c-.2-.3-.5-.5-.8-.6-.3-.1-.8-.2-1.3-.2h-3.5v3.7Z"/>
      <path class="st9" d="M506.8,805.9v-15.6h3.3v12.6h7.1v3h-10.4Z"/>
      <path class="st9" d="M521.6,805.9v-15.6h10.5v2.9h-7.3v9.7h7.4v2.9h-10.7ZM523.2,799.4v-2.9h7.9v2.9h-7.9Z"/>
      <path class="st9" d="M537.1,805.9v-15.6h3l8.6,11.7h-.6c0-.5-.1-.9-.2-1.3,0-.4,0-.9-.1-1.3s0-.9,0-1.4c0-.5,0-1,0-1.5,0-.5,0-1.1,0-1.8v-4.3h3.3v15.6h-3l-8.8-11.8h.8c0,.8.1,1.5.2,2,0,.5,0,1,.1,1.4,0,.4,0,.8,0,1,0,.3,0,.6,0,.8,0,.3,0,.5,0,.8v5.6h-3.3Z"/>
      <path class="st9" d="M556.3,805.9v-15.6h6.4c1.1,0,2.2.2,3.1.6.9.4,1.7.9,2.4,1.6s1.2,1.5,1.5,2.5c.4,1,.5,2,.5,3.2s-.2,2.2-.5,3.2c-.4,1-.9,1.8-1.5,2.5-.7.7-1.5,1.2-2.4,1.6s-2,.6-3.1.6h-6.4ZM559.6,803.5l-.4-.6h3.3c.7,0,1.3-.1,1.8-.3.5-.2,1-.5,1.4-1,.4-.4.7-.9.9-1.5.2-.6.3-1.3.3-2s0-1.4-.3-2c-.2-.6-.5-1.1-.9-1.5s-.8-.7-1.4-1c-.5-.2-1.1-.3-1.8-.3h-3.4l.4-.5v10.7Z"/>
      <path class="st9" d="M574.6,805.9v-15.6h10.5v2.9h-7.3v9.7h7.4v2.9h-10.7ZM576.2,799.4v-2.9h7.9v2.9h-7.9Z"/>
      <path class="st9" d="M590.1,805.9v-15.6h6.4c1.1,0,2.2.2,3.1.6.9.4,1.7.9,2.4,1.6s1.2,1.5,1.5,2.5c.4,1,.5,2,.5,3.2s-.2,2.2-.5,3.2c-.4,1-.9,1.8-1.5,2.5-.7.7-1.5,1.2-2.4,1.6s-2,.6-3.1.6h-6.4ZM593.4,803.5l-.4-.6h3.3c.7,0,1.3-.1,1.8-.3.5-.2,1-.5,1.4-1,.4-.4.7-.9.9-1.5.2-.6.3-1.3.3-2s0-1.4-.3-2-.5-1.1-.9-1.5-.8-.7-1.4-1c-.5-.2-1.1-.3-1.8-.3h-3.4l.4-.5v10.7Z"/>
      <path class="st9" d="M621.6,806.2c-1,0-1.8-.1-2.6-.4s-1.5-.6-2.1-1-1.2-1-1.7-1.7l2.1-2.4c.7,1,1.5,1.7,2.2,2.1s1.5.5,2.4.5.9,0,1.2-.2c.4-.1.6-.3.9-.5s.3-.5.3-.8,0-.5-.2-.7c-.1-.2-.3-.4-.4-.5-.2-.2-.4-.3-.7-.4s-.6-.2-.9-.3c-.3,0-.7-.2-1.1-.2-.8-.2-1.6-.4-2.2-.7-.6-.3-1.1-.6-1.6-1-.4-.4-.7-.9-.9-1.4-.2-.5-.3-1.1-.3-1.8s.1-1.3.4-1.9c.3-.6.7-1.1,1.2-1.5.5-.4,1.1-.7,1.8-1,.7-.2,1.4-.3,2.2-.3s1.8.1,2.5.3c.7.2,1.3.5,1.9.9s1,.9,1.3,1.5l-2.1,2c-.3-.4-.7-.8-1-1-.4-.3-.8-.5-1.2-.6-.4-.1-.9-.2-1.3-.2s-.9,0-1.3.2c-.4.1-.6.3-.8.5-.2.2-.3.5-.3.9s0,.5.2.7.3.4.6.5c.3.2.6.3.9.4.4.1.8.2,1.2.3.8.2,1.6.4,2.2.6.7.3,1.2.6,1.7,1,.5.4.8.8,1.1,1.3.3.5.4,1.1.4,1.7,0,1.1-.3,2-.8,2.7-.5.7-1.2,1.3-2.1,1.7-.9.4-1.9.6-3.1.6Z"/>
    </g>
    <g class="st7">
      <path class="st9" d="M629.3,805.9v-15.6h6.6c.9,0,1.8.2,2.5.7s1.3,1,1.8,1.8c.4.8.7,1.6.7,2.6s-.2,1.8-.7,2.6c-.4.8-1,1.4-1.8,1.8s-1.6.7-2.5.7h-3.3v5.5h-3.3ZM632.6,797.5h2.9c.4,0,.7,0,1-.3.3-.2.5-.4.7-.7.2-.3.3-.7.3-1.1s0-.8-.3-1.1c-.2-.3-.4-.5-.7-.7s-.6-.3-1-.3h-2.9v4.1Z"/>
    </g>
    <g class="st7">
      <path class="st9" d="M641.4,805.9l6.1-15.6h3l6.1,15.6h-3.4l-3.1-8.4c0-.2-.2-.5-.3-.9-.1-.4-.3-.8-.4-1.2-.1-.4-.3-.8-.4-1.2s-.2-.7-.3-.9h.6c0,.3-.2.7-.3,1-.1.4-.2.7-.3,1.1-.1.4-.2.7-.4,1.1s-.3.7-.4,1l-3.1,8.3h-3.3ZM644.3,802.7l1.1-2.7h7.2l1.1,2.7h-9.4Z"/>
    </g>
    <g class="st7">
      <path class="st9" d="M666.6,806.2c-1.1,0-2.2-.2-3.2-.6-1-.4-1.8-1-2.5-1.7-.7-.7-1.3-1.6-1.6-2.6-.4-1-.6-2.1-.6-3.2s.2-2.2.6-3.2,1-1.8,1.7-2.5c.7-.7,1.6-1.3,2.6-1.7,1-.4,2-.6,3.2-.6s1.5,0,2.2.3c.7.2,1.4.5,2,.9.6.4,1.1.8,1.5,1.4l-2.1,2.3c-.4-.4-.7-.7-1.1-.9-.4-.3-.8-.5-1.2-.6-.4-.1-.9-.2-1.3-.2s-1.2.1-1.8.4-1,.6-1.5,1c-.4.4-.7.9-1,1.5-.2.6-.4,1.3-.4,2s.1,1.4.4,2,.6,1.1,1,1.5c.4.4.9.8,1.5,1s1.3.3,2,.3.9,0,1.4-.2.9-.3,1.2-.6.7-.5,1-.8l1.6,2.6c-.4.4-.8.8-1.4,1.1s-1.3.6-2,.8-1.5.3-2.2.3Z"/>
      <path class="st9" d="M676.5,805.9v-15.6h10.5v2.9h-7.3v9.7h7.4v2.9h-10.7ZM678,799.4v-2.9h7.9v2.9h-7.9Z"/>
    </g>
  </g>
  <g class="st7">
    <g class="st7">
      <path class="st9" d="M929.6,444.2v-2.2h2.5v-11.1h-2.5v-2.2h7.4v2.2h-2.5v11.1h2.5v2.2h-7.4Z"/>
      <path class="st9" d="M942.2,444.2v-15.6h2.2l9.5,12.8-.4.2c0-.4-.1-.8-.2-1.2,0-.4,0-.9-.1-1.4,0-.5,0-1,0-1.6,0-.6,0-1.1,0-1.7,0-.6,0-1.2,0-1.9v-5.1h2.4v15.6h-2.2l-9.4-12.3.2-.3c0,.9.1,1.7.2,2.3,0,.6,0,1.2.1,1.6,0,.4,0,.8,0,1.1,0,.3,0,.5,0,.7,0,.2,0,.3,0,.5v6.5h-2.4Z"/>
      <path class="st9" d="M961.2,444.2v-15.6h6.3c.8,0,1.6.2,2.3.6.7.4,1.2,1,1.7,1.7s.6,1.5.6,2.4-.2,1.7-.6,2.4-1,1.3-1.7,1.7c-.7.4-1.5.7-2.3.7h-3.9v6h-2.4ZM963.6,435.9h3.9c.4,0,.8-.1,1.1-.3.3-.2.6-.5.8-.9.2-.4.3-.8.3-1.3s-.1-.9-.3-1.2c-.2-.4-.5-.7-.8-.9-.3-.2-.7-.3-1.1-.3h-3.9v5Z"/>
      <path class="st9" d="M982.7,444.4c-1.2,0-2.3-.3-3.2-.8s-1.7-1.3-2.2-2.2c-.5-.9-.8-2-.8-3.2v-9.6h2.4v9.4c0,.8.2,1.4.5,2s.8,1.1,1.4,1.4c.6.4,1.2.5,1.9.5s1.4-.2,2-.5,1.1-.8,1.4-1.4c.4-.6.5-1.3.5-2v-9.4h2.3v9.6c0,1.2-.3,2.2-.8,3.2-.5.9-1.3,1.7-2.2,2.2-1,.5-2,.8-3.2.8Z"/>
      <path class="st9" d="M997.4,444.2v-13.3h-4.4v-2.3h11.3v2.3h-4.5v13.3h-2.4Z"/>
      <path class="st9" d="M1016,444.2l-.7-1.8,4.8-5.4c.3-.3.5-.6.8-.9.3-.3.5-.7.8-1.1.3-.4.5-.7.6-1.1.2-.4.2-.7.2-1,0-.5,0-.9-.3-1.2-.2-.3-.5-.6-.8-.8-.3-.2-.8-.3-1.3-.3s-.9.1-1.3.4c-.4.3-.8.6-1.1,1.1-.3.5-.6,1-.8,1.6l-1.8-1.2c.3-.9.6-1.6,1.1-2.2.5-.6,1.1-1.1,1.8-1.4.7-.3,1.5-.5,2.4-.5s1.7.2,2.3.5c.7.4,1.2.9,1.6,1.5.4.6.6,1.4.6,2.2s0,.7-.1,1-.2.7-.4,1.1c-.2.4-.4.8-.6,1.2-.3.4-.6.8-.9,1.3-.3.4-.7.9-1.2,1.4l-3.5,3.9-.4-.7h7.7v2.3h-9.4Z"/>
    </g>
  </g>
  <g class="st7">
    <g class="st7">
      <path class="st9" d="M143,452.5v-2.2h2.5v-11.1h-2.5v-2.2h7.4v2.2h-2.5v11.1h2.5v2.2h-7.4Z"/>
      <path class="st9" d="M155.5,452.5v-15.6h2.2l9.5,12.8-.4.2c0-.4-.1-.8-.2-1.2,0-.4,0-.9-.1-1.4,0-.5,0-1,0-1.6,0-.6,0-1.1,0-1.7,0-.6,0-1.2,0-1.9v-5.1h2.4v15.6h-2.2l-9.4-12.3.2-.3c0,.9.1,1.7.2,2.3,0,.6,0,1.2.1,1.6,0,.4,0,.8,0,1.1,0,.3,0,.5,0,.7,0,.2,0,.3,0,.5v6.5h-2.4Z"/>
      <path class="st9" d="M174.5,452.5v-15.6h6.3c.8,0,1.6.2,2.3.6.7.4,1.2,1,1.7,1.7.4.7.6,1.5.6,2.4s-.2,1.7-.6,2.4c-.4.7-1,1.3-1.7,1.7-.7.4-1.5.7-2.3.7h-3.9v6h-2.4ZM176.9,444.2h3.9c.4,0,.8-.1,1.1-.3.3-.2.6-.5.8-.9.2-.4.3-.8.3-1.3s-.1-.9-.3-1.2c-.2-.4-.5-.7-.8-.9-.3-.2-.7-.3-1.1-.3h-3.9v5Z"/>
      <path class="st9" d="M196,452.6c-1.2,0-2.3-.3-3.2-.8-1-.5-1.7-1.3-2.2-2.2-.5-.9-.8-2-.8-3.2v-9.6h2.4v9.4c0,.8.2,1.4.5,2,.4.6.8,1.1,1.4,1.4.6.4,1.2.5,1.9.5s1.4-.2,2-.5,1.1-.8,1.4-1.4c.4-.6.5-1.3.5-2v-9.4h2.3v9.6c0,1.2-.3,2.2-.8,3.2-.5.9-1.3,1.7-2.2,2.2s-2,.8-3.2.8Z"/>
      <path class="st9" d="M210.7,452.5v-13.3h-4.4v-2.3h11.3v2.3h-4.5v13.3h-2.4Z"/>
      <path class="st9" d="M232.1,451.4v-12.7l.8.6-3.1,1.6-.6-2.1,4.2-2.2h1.2v14.7h-2.4ZM229.6,452.5v-2.3h7.4v2.3h-7.4Z"/>
    </g>
  </g>
  <g>
    <path d="M891.2,830.4c.5.1,1,.2,1.5.3.2,0,.3.2.3.5,0,.6,0,1.3.1,2,0,.4-.1.8-.4.8s-.3-.2-.4-.6c-.2-.7-.5-1.2-.9-1.5-.9-.8-2-1.2-3.1-1.2-3.3,0-4.9,2.6-4.9,5.8s.2,2.6.7,3.5c1.2,2.3,3.1,3.1,4.7,3.1s1.3,0,2-.5c.8-.4,1.3-1,1.8-1.9.2-.5.4-.7.6-.7s.2.5.2.8c-.1.5-.4,1.5-.6,1.8,0,.2-.4.5-.8.7-.3,0-1.7.6-3.7.6-3.1,0-5.3-1.4-6.2-2.4-.8-.9-1.8-2.4-1.8-4.7s1.4-4.3,2.3-5c1.8-1.5,4-1.9,5.7-1.9s2,.2,2.7.3h0Z"/>
    <path d="M904.3,839.6c0,1.8-1.1,3.1-1.9,3.6-.9.6-1.9.9-2.9.9s-2.1-.4-2.9-1.1c-.9-.7-1.6-2.1-1.6-3.2s.7-2.6,1.5-3.2c.6-.5,1.8-1.2,3.4-1.2s4.4,1.6,4.4,4.4h0ZM898.5,836.4c-.5.4-.9,1.4-.9,2.8s0,1.5.2,2c.4,1.5,1.4,2.2,2.3,2.2s.6-.2.9-.5c.4-.5.8-1.7.8-2.9s-.2-2.2-.8-3.2c-.4-.5-.9-.8-1.5-.8s-.7.2-1,.5h0Z"/>
    <path d="M906.2,835.9c.4-.2,1.3-.5,1.7-.6s.6-.3.7-.3.2.2.2.3c0,.2,0,.7,0,.9s.1,0,.2,0c.8-.6,1.7-1.1,2.7-1.1s1.6.5,1.9.8c.5.5.8,1.5.8,2.5s0,3.5,0,3.8c0,.3.2.6.7.7.4,0,.5.2.5.4s-.2.3-.6.3-1.3,0-1.9,0-1.4,0-1.7,0-.6,0-.6-.3.2-.3.5-.4c.5-.2.6-.4.6-1.1s0-3.3,0-3.9-.2-1-.5-1.3c-.2-.2-.8-.4-1.2-.4-.7,0-1.1.2-1.4.4,0,0-.2.3-.2.5,0,.4,0,4.9,0,5.1,0,.3,0,.4.7.7.2,0,.4.2.4.4s-.2.3-.6.3-1.2,0-1.6,0c-.8,0-1.6,0-2,0s-.6-.1-.6-.3.2-.3.4-.3c.7-.2.8-.4.9-1.2,0-.6,0-2.3,0-4.4s-.2-.4-.6-.9c-.2-.2-.2-.2-.2-.3,0-.1.2-.4.4-.5h0Z"/>
    <path d="M923.7,835.8c.3.2.4.5.4.8s-.7,1-.8,1c-.2,0-.5-.2-1-.5-.6-.5-1-.9-1.7-.9s-.6.1-.9.5c-.5.5-.8,1.6-.8,2.6,0,1.4.6,2.1.7,2.2.4.5,1.2,1.1,2.3,1.1s1.3-.2,2-.7c.1,0,.3,0,.3.2s-.2.5-.3.7c-.7.8-1.9,1.4-3.2,1.4s-2.7-.8-3.3-1.7c-.4-.7-.7-1.6-.7-2.4,0-1.6.8-2.8,2.1-3.7.7-.5,2.1-.9,3-.9s1.7.2,2.1.5h0Z"/>
    <path d="M931.9,836.1c.5.5.8,1.1.8,1.8s-.2.5-.5.5h-4.6c0,0-.2,0-.2.2,0,.2,0,.5,0,.8,0,.5.2,1.4.7,2,.5.7,1.4,1,2.3,1s1.5-.2,1.9-.7c0-.1.2-.2.3-.2s.2.2.2.3,0,.4-.2.5c-.7,1-1.6,1.8-3.4,1.8s-3.9-1.8-3.9-4.2.9-3.4,2.7-4.2c.5-.2,1.2-.4,1.7-.4.8,0,1.7.3,2.2.9h0ZM927.6,837.6c0,0,0,.2.2.2.5,0,1.2,0,2.2,0s.7-.2.7-.7-.6-1.3-1.2-1.3c-.9,0-1.7.8-2,1.8h0Z"/>
    <path d="M942.2,836.4c.6.7,1,1.6,1,2.8s-.7,2.8-1.8,3.7c-1.2.9-2.5,1.1-3.2,1.1s-.8,0-1,0c0,0-.2.2-.2.3,0,.9,0,2.7,0,3.2,0,.6.2.9,1,1.1.4.1.6.3.6.4s-.3.3-.6.3c-.6,0-2,0-2.8,0s-.8,0-1.7,0-.6-.1-.6-.3.2-.3.5-.4c1-.2,1.1-.5,1.2-1.7,0-.7,0-2.4,0-4.5s0-3.8,0-4.6c0-.4,0-.5-.2-.6-.4-.3-.8-.7-.8-.8s.2-.4.4-.5c.4-.1,1.6-.5,2.1-.8.2-.1.4-.2.4-.2,0,0,.2.2.2.3,0,.4,0,.7,0,1,0,0,.1.2.2.2.4-.2,1-.5,1.2-.7.4-.2.8-.3,1.5-.3s1.8.5,2.4,1.2h0ZM937.3,836.7c0,0-.2.3-.2.5-.1.9-.1,2.6,0,3.7,0,.4,0,.7.2,1,.4.8,1.3,1.2,1.7,1.2s.5,0,.7-.2c1.1-.8,1.3-2.6,1.3-3.2s-.1-1.6-.9-2.5c-.5-.5-1.2-.8-1.6-.8s-.9,0-1.1.2h0Z"/>
    <path d="M950.2,835.4c0,0,.3,0,.3.2,0,0,0,.6,0,.9s-.4.2-.5.2h-2c-.1,0-.2,0-.2.2,0,1,0,3,0,4.2s0,.8.3,1,.7.4,1,.4.7-.2.9-.3c.2,0,.3-.2.4-.2s.2,0,.2.3-.2.5-.3.6c-.6.6-1.4,1-2.4,1s-1.6-.4-2-.9c-.2-.4-.4-.7-.4-1.5s0-3.8,0-4.6-.4-.3-.8-.5c-.2,0-.2-.2-.2-.4s0-.1.1-.2c1-.7,1.7-1.2,2.2-1.7.2-.3.4-.5.5-.5.2,0,.4.2.4.4v1c0,0,0,.2.2.2.5,0,2.1,0,2.2,0h0Z"/>
    <path d="M957.5,842.2c0,0,.2-.4.2-.5v-4.7c0-.2-.1-.4-.4-.5-.3,0-.6-.2-.8-.3-.2,0-.3-.2-.3-.4s.2-.2.4-.2c.8,0,2.2-.2,2.8-.3.2,0,.4,0,.5,0s.2.2.2.3c0,.8,0,6.1,0,6.8s0,.4.3.4c.2,0,.7-.2.9-.2s.2.5.2.5c0,0-.2.2-.2.2-.6,0-1.7.3-2.1.4-.4,0-1,.3-1.1.3s-.2-.2-.2-.3,0-.5,0-.9c0,0-.1-.2-.2-.2-.5.4-1.2.8-1.5.9-.4.2-.7.3-1.3.3-1,0-1.7-.4-2.1-1.1-.2-.2-.2-.8-.2-1.1,0-1.5,0-3.5,0-4.6,0-.6-.4-.7-.7-.9-.2,0-.4-.2-.4-.4s.2-.2.3-.2c.6,0,2.8-.2,2.9-.2s.2.2.2.3c0,1.6,0,4.8,0,5.7s.2.7.4.9c.3.2.8.4,1.2.4s.8-.1,1.3-.5h0Z"/>
    <path d="M968.2,836.3c.2.3.5.9.5,1.8s0,3.3,0,3.5c0,.6.4.8.8.8s.5-.2.7-.2c0,0,0,0,.1,0,0,0,0,.2,0,.3,0,.4-1,1.4-2.2,1.4s-1.3-.2-1.6-1c0,0-.2-.1-.2,0-.5.4-1.4.8-1.7.9-.2,0-.7.2-.9.2-.8,0-1.6-.9-1.6-2.1s.2-.8.4-1.1.6-.4.8-.5c.5-.2,2.4-.7,2.9-.9.2,0,.4-.2.4-.3,0-.2,0-1.3,0-1.6,0-.5-.5-1.3-1.4-1.3s-.5,0-.7.2c0,0-.1.2-.1,1s0,.2,0,.2c-.2.2-1.7.8-1.8.8s-.3-.2-.3-.3c0-.6.5-1.2,1.8-2,.8-.5,1.8-.8,2.1-.8,1.3,0,1.9.7,2.2,1.1h0ZM966.2,842.5c0,0,.2-.3.2-.4,0-.3,0-1.2,0-1.9s0-.2-.2-.2c-.4,0-1.3.3-1.7.5-.2.2-.4.3-.4.8,0,.9.8,1.3,1.2,1.3s.6-.1.8-.2h0Z"/>
    <path d="M971.4,829.8c.9-.2,1.9-.4,2.7-.9,0,0,.2.1.2.2,0,.7-.2,5-.2,8.1s0,4.4,0,5c0,.5.2.7.9,1,.3,0,.4.2.4.4s-.3.2-.6.2c-.5,0-1.7,0-2.1,0s-1.5,0-2,0-.6-.2-.6-.2c0-.2.3-.3.5-.4.7-.2.8-.5.9-1.6,0-.9.1-3.3.1-6.6s0-3.1,0-3.7c0-.2-.1-.4-.5-.7-.3-.2-.4-.3-.4-.4s.2-.3.4-.4h0Z"/>
    <path d="M989.5,836.2c0,0,0,.2,0,.2,1.5.6,2.5,1.6,2.5,3.5s-.8,2.4-1.8,3c-1,.7-2.9.9-3.8.9s-2.9,0-3.8,0c-.8,0-1.3,0-1.6,0s-.7-.2-.7-.3.4-.3.6-.4c1.3-.2,1.4-.6,1.5-1.3,0-.4.2-2.5.2-6.7s0-2.9-.2-3.2c0-.5-.2-.6-1.3-.8-.3,0-.5-.2-.5-.4s.3-.3.6-.3h1.4c.7,0,3.2-.2,4.1-.2,1.2,0,2.4.2,3,.6,1,.6,1.5,1.5,1.5,2.6,0,1.6-1.1,2.3-1.7,2.7h0ZM986,831.1c-.1,0-.5,0-.7.1,0,0-.2.2-.2.3,0,.3,0,.9,0,4.5s.1.2.2.2c.8,0,2,0,2.5-.5.7-.5,1-1.2,1-2,0-1.7-1.2-2.7-2.7-2.7h0ZM987.7,837.3c-.5-.3-1.1-.4-1.8-.4s-.7,0-.7.2-.2.2-.2,1c0,.5,0,3.1,0,3.7,0,.2.1.5.3.7.4.4.9.7,1.3.7,1.3,0,2.6-1.3,2.6-3.1s-.6-2.2-1.5-2.7h0Z"/>
    <path d="M994,829.8c.9-.2,1.9-.4,2.7-.9,0,0,.2.1.2.2,0,.7-.2,5-.2,8.1s0,4.4,0,5c0,.5.2.7.9,1,.3,0,.4.2.4.4s-.3.2-.6.2c-.5,0-1.7,0-2.1,0s-1.5,0-2,0-.6-.2-.6-.2c0-.2.3-.3.5-.4.7-.2.8-.5.9-1.6,0-.9.1-3.3.1-6.6s0-3.1,0-3.7c0-.2-.1-.4-.5-.7-.3-.2-.4-.3-.4-.4s.2-.3.4-.4h0Z"/>
    <path d="M1005.8,836.1c.5.5.8,1.1.8,1.8s-.2.5-.5.5h-4.6c-.1,0-.2,0-.2.2,0,.2,0,.5,0,.8,0,.5.2,1.4.7,2,.5.7,1.4,1,2.3,1s1.5-.2,1.9-.7c0-.1.2-.2.3-.2s.2.2.2.3,0,.4-.2.5c-.7,1-1.6,1.8-3.4,1.8s-3.9-1.8-3.9-4.2.9-3.4,2.7-4.2c.5-.2,1.2-.4,1.7-.4.8,0,1.7.3,2.2.9h0ZM1001.5,837.6c0,0,0,.2.2.2.5,0,1.2,0,2.2,0s.7-.2.7-.7-.6-1.3-1.2-1.3c-.9,0-1.7.8-2,1.8Z"/>
    <path d="M1008.3,835.9c.4-.2,1.3-.5,1.7-.6s.6-.3.7-.3.2.2.2.3c0,.2,0,.7,0,.9s.1,0,.2,0c.8-.6,1.7-1.1,2.7-1.1s1.6.5,1.9.8c.5.5.8,1.5.8,2.5s0,3.5,0,3.8c0,.3.2.6.7.7.4,0,.5.2.5.4s-.2.3-.6.3-1.3,0-1.9,0-1.4,0-1.7,0-.6,0-.6-.3.2-.3.5-.4c.5-.2.6-.4.6-1.1s0-3.3,0-3.9-.2-1-.5-1.3c-.2-.2-.8-.4-1.2-.4-.7,0-1.1.2-1.4.4,0,0-.2.3-.2.5,0,.4,0,4.9,0,5.1,0,.3,0,.4.7.7.2,0,.4.2.4.4s-.2.3-.6.3-1.2,0-1.6,0c-.8,0-1.6,0-2,0s-.6-.1-.6-.3.2-.3.4-.3c.7-.2.8-.4.9-1.2,0-.6.1-2.3.1-4.4s-.2-.4-.6-.9c-.2-.2-.2-.2-.2-.3,0-.1.2-.4.4-.5h0Z"/>
    <path d="M1024.9,835.3c0,0,.2,0,.2-.2.1-.6,0-3.4,0-4,0-.2,0-.5-.9-.9-.2,0-.3-.2-.3-.2,0,0,.3-.4.4-.4.6,0,2.1-.4,2.7-.6.2,0,.3,0,.4,0s.2.2.2.4c0,.8-.2,3.2-.2,8s0,3.7,0,4c0,1.3.2,1.5.4,1.5s.8,0,1.1,0,.1.2.1.2c0,.1-.3.5-.4.6-.6,0-1.8.3-2.2.4-.5.2-.8.2-.9.2s-.2-.2-.2-.3c0-.2,0-.5,0-.8s-.1-.2-.2-.2c-.7.6-1.8,1-2.6,1-1.1,0-1.9-.4-2.5-1-.8-.8-1.2-2-1.2-3,0-2.2,1.2-3.3,2.3-3.9.8-.5,2.1-.8,2.8-.8s.8,0,1.1,0h0ZM1021.8,836.6c-.6.6-.8,1.8-.8,2.6,0,1.8,1.2,3.5,2.8,3.5s.7,0,1-.3c0,0,.3-.7.3-1,0-.7,0-2.8,0-3.6,0,0-.2-.6-.4-.8-.6-.7-1.3-.9-1.7-.9s-.8.2-1.2.6h0Z"/>
    <path d="M1030.2,843.8c-.3,0-.6-.1-.6-.3s.2-.2.6-.4c.5-.2.7-.4.8-.6,0-.3.1-1.8.1-3.3s0-1.6,0-1.9c0-.2-.3-.4-.7-.8-.1-.1-.2-.2-.2-.3,0-.2.2-.3.6-.4.9-.2,2.2-.7,2.5-.8,0,0,.2.2.2.2,0,.7,0,3.5,0,4.8s0,1.4,0,2.1c0,.6.3.7.8.9.3,0,.5.2.5.4s-.3.3-.6.3-1.3,0-1.7,0c-.7,0-1.7,0-2,0h0ZM1033.3,832.1c0,.7-.7,1.3-1.3,1.3s-.6,0-.8-.3c-.2-.2-.4-.5-.4-.9s0-.7.3-.9c.2-.2.7-.4,1.1-.4.7,0,1.1.8,1.1,1.3Z"/>
    <path d="M1036.1,835.9c.4-.2,1.3-.5,1.7-.6s.6-.3.7-.3.2.2.2.3c0,.2,0,.7,0,.9s.1,0,.2,0c.8-.6,1.7-1.1,2.7-1.1s1.6.5,1.9.8c.5.5.8,1.5.8,2.5s0,3.5,0,3.8c0,.3.2.6.7.7.4,0,.6.2.6.4s-.2.3-.6.3-1.3,0-1.9,0-1.4,0-1.7,0-.6,0-.6-.3.2-.3.5-.4c.5-.2.6-.4.6-1.1s0-3.3,0-3.9-.2-1-.5-1.3c-.2-.2-.8-.4-1.2-.4-.7,0-1.1.2-1.4.4,0,0-.2.3-.2.5,0,.4,0,4.9,0,5.1,0,.3,0,.4.7.7.2,0,.4.2.4.4s-.2.3-.6.3-1.2,0-1.6,0c-.8,0-1.6,0-1.9,0s-.6-.1-.6-.3.2-.3.4-.3c.7-.2.8-.4.9-1.2,0-.6.1-2.3.1-4.4s-.2-.4-.6-.9c-.2-.2-.2-.2-.2-.3,0-.1.2-.4.4-.5h0Z"/>
    <path d="M1052.3,835.5c.2,0,.4.1.6.1.5,0,2,0,2.4.2.1,0,.2.2.2.2,0,.3-.4.8-.5.8-.1,0-.7,0-1.2,0,0,0-.2.1-.1.2,0,.2.1.5.1.9,0,1.1-.4,2-1.2,2.6-.9.7-2.1.8-2.5.8s-.6,0-.8,0c-.2,0-.2,0-.3,0-.2,0-.4.4-.4.5,0,.4.5.8.8.8.9,0,3.3,0,3.9.2.2,0,.7.2,1.1.5.6.5.9,1.2.9,1.9,0,1.7-1.3,2.8-2.2,3.4-1.1.7-2.2.9-3.2.9s-1.9-.2-2.6-.7c-.7-.5-1.1-1.2-1.1-1.9s.4-1,.7-1.2c.4-.3,1.1-.7,1.3-.9,0,0,0,0,0-.2-.2,0-.6-.2-.9-.4-.5-.3-.8-.9-.8-1.7s0-.2.1-.2c.2-.2,1.4-.8,1.7-1.2,0,0,0-.2,0-.2-.6-.3-1.7-1.1-1.7-2.7s.4-1.7,1.3-2.3c.6-.5,1.5-.8,2.5-.8s1.4.2,2,.3h0ZM1052.4,848.1c.7-.4.9-1.1.9-1.7s0-.7-.4-1c-.3-.3-.6-.5-1.2-.5-.7,0-1.1,0-2.2,0s-.8.1-1,.2c-.4.4-.6.9-.6,1.3s.3,1.1.7,1.5c.6.4,1.3.6,2,.6s1.2,0,1.6-.4h0ZM1049.3,836.2c-.3.4-.5,1-.5,1.8,0,1.3.7,2.7,1.7,2.7s.4-.1.7-.3c.3-.3.6-1.2.6-2.1s-.2-1.2-.5-1.7c-.3-.5-.7-.8-1.1-.8s-.7.2-.8.4h0Z"/>
    <path d="M1070.1,830.5c.4,0,2.5,0,2.9-.2.2,0,.5-.2.8-.4.3-.2.7-.5.8-.5s.2.2.2.2c0,.5-.2,1.6-.3,2.9,0,1.8,0,3.3,0,3.5s0,.2.2,0c.8-.7,1.7-1.1,2.5-1.1s1.8.4,2.2,1c.4.6.6,1.4.6,2.3,0,1.3,0,2.9,0,3.8,0,.5.3.7.8.9.4,0,.6.2.6.4s-.2.3-.6.3c-.6,0-1.2,0-1.7,0-.8,0-1.2,0-1.9,0s-.5-.2-.5-.3.1-.2.4-.3c.5-.2.6-.4.7-1,0-.5,0-3.1,0-3.5,0-1.1-.2-1.5-.5-1.7-.3-.3-.7-.5-1.3-.5s-1.1.2-1.2.3c0,0-.2.4-.2.7,0,1.1,0,4,0,4.6,0,.7.2,1,.7,1.1.3,0,.5.2.5.4,0,.2-.3.3-.6.3s-.9,0-1.9,0-1.4,0-1.8,0-.5,0-.5-.3.2-.3.6-.4c.6-.2.7-.6.8-1,0-.7.2-3,.2-6.1s0-3.7,0-4c0-.4-.2-.6-.4-.6-.5,0-3.5,0-4.1,0-.1,0-.2.2-.2.3,0,1,0,2.6,0,4.4s0,4.6.1,5.7c0,.7.2,1.1,1.6,1.4.3,0,.5.3.5.4,0,.2-.4.3-.6.3s-2.5,0-3.1,0-2.3.1-2.6.1-.7,0-.7-.2.2-.4.5-.4c1.4-.3,1.5-.6,1.5-2.1,0-1.2.2-5.4.2-7s0-1.9,0-2.4-.2-.3-.2-.3c-.4,0-1.9,0-2.3,0s-.9.2-1.2.5c-.2.2-.4.6-.7,1.1-.2.4-.4.6-.5.6-.2,0-.3-.3-.3-.5,0-.4.4-1.8.4-2.8,0,0,.2-.4.3-.4s.3.2.4.3c0,0,.5.3.9.4.5,0,3.1,0,4.6,0s3.5,0,3.8,0h0Z"/>
    <path d="M1088.8,836.1c.5.5.8,1.1.8,1.8s-.2.5-.5.5h-4.6c0,0-.2,0-.2.2,0,.2,0,.5,0,.8,0,.5.2,1.4.7,2,.5.7,1.4,1,2.3,1s1.5-.2,1.9-.7c0-.1.2-.2.3-.2s.2.2.2.3,0,.4-.2.5c-.7,1-1.6,1.8-3.4,1.8s-3.9-1.8-3.9-4.2.9-3.4,2.7-4.2c.5-.2,1.2-.4,1.7-.4.8,0,1.7.3,2.2.9h0ZM1084.5,837.6c0,0,0,.2.2.2.6,0,1.2,0,2.2,0s.7-.2.7-.7-.6-1.3-1.2-1.3c-.9,0-1.7.8-1.9,1.8h0Z"/>
    <path d="M1100.2,839.6c0,1.8-1.1,3.1-1.9,3.6-.9.6-1.9.9-2.9.9s-2.1-.4-2.9-1.1c-.9-.7-1.6-2.1-1.6-3.2s.7-2.6,1.4-3.2c.6-.5,1.8-1.2,3.4-1.2s4.4,1.6,4.4,4.4h0ZM1094.4,836.4c-.5.4-.9,1.4-.9,2.8s0,1.5.2,2c.4,1.5,1.4,2.2,2.3,2.2s.6-.2.9-.5c.4-.5.8-1.7.8-2.9s-.2-2.2-.8-3.2c-.4-.5-.9-.8-1.5-.8s-.7.2-1,.5h0Z"/>
    <path d="M1101.9,836c.8-.2,1.7-.6,2.1-.8.2-.2.4-.2.5-.2.1,0,.2.2.2.2,0,.4,0,.8,0,1.2s.1.2.2,0c.7-.7,1.6-1.3,2.2-1.3.9,0,1.2.6,1.2.9s0,.2-.1.3c-.2.4-.9,1.2-1,1.2,0,0-.3,0-.4,0-.2-.2-.9-.6-1.3-.6s-.4,0-.5.1c-.1,0-.2.2-.2.4,0,.4,0,4.1.1,4.4,0,.7.2,1,.5,1.1.2,0,.7.2.9.3.3,0,.4.2.4.3,0,.2-.2.2-.6.2-.6,0-1.7,0-3,0s-.9,0-1.4,0-.5,0-.5-.3.3-.2.5-.3c.8-.3.8-.5.8-1.8v-3.5c0-.4,0-.7-.2-.8-.3-.3-.8-.7-.8-.7s0-.3.3-.4h0Z"/>
    <path d="M1109.4,835.4c.7,0,1.4,0,2.1,0s1.4,0,1.7,0,.5,0,.5.2-.1.3-.5.4c-.6.2-.6.3-.4.9.3,1,1.3,3.4,1.6,4,0,0,.2,0,.2,0,.2-.6,1.3-3.3,1.5-3.8.2-.5,0-.8-.8-1-.3,0-.4-.2-.4-.3,0-.2.2-.3.5-.3.4,0,.9,0,1.2,0s.9,0,1.5,0,.4,0,.4.2-.2.3-.5.4c-.4.1-.7.4-1.1,1-.5.9-2,4.7-2.4,5.6-.7,1.7-1.6,4-2.3,5.7-.2.5-.8.7-1.2.7-.8,0-1.1-.7-1.1-1.2s.3-1,1-1,.7,0,.9,0,.3-.2.4-.4c.2-.3.8-2,.9-2.4,0-.2,0-.4,0-.4,0-.2-.3-.7-.4-.9-.5-1.3-2-4.8-2.6-6-.2-.4-.3-.6-.9-.8-.3,0-.5-.2-.5-.4s.2-.2.5-.2h0Z"/>
    <path d="M892.9,853c.2,0,.4,0,.6,0,.2,0,.3-.2.4-.2s0,.2,0,.4c-.4.6-.7,1.4-.8,2.1,0,.2,0,.4-.2.4s-.2,0-.1-.4c.1-.7,0-1.1-.2-1.5-.4-.6-1.2-.9-2.6-.9s-3.8,1.1-4.8,2.3c-1.5,1.8-2.2,4-2.2,5.9s.4,2.7,1.1,3.4c.7.7,1.8,1.1,2.8,1.1s1.7-.3,2.1-1.1c.4-.7,1-3.1,1.1-3.5,0-.5-.3-.7-1.1-.8-.6,0-.5-.3,0-.3s1.4,0,2,0,1.3,0,1.5,0c.6,0,.4.2,0,.4-.5,0-.7.2-1,1.2-.2.4-.4,1.3-.6,2.1-.2.5-.2,1-.2,1.3s0,.2-.7.5c-1.6.6-2.8.7-3.9.7-2.5,0-4.7-2-4.7-5.1s1.7-5.5,3.4-6.7c1.7-1.3,3.5-1.7,5.5-1.7s2.3.3,2.9.4h0Z"/>
    <path d="M896.9,858.4c0,.2-.1.7-.3,1.1-.5,1.2-1.7,4.2-2.2,5.2-.2.3,0,.4,0,.4.3,0,1.2-.8,1.5-1.2s.2,0,.1.2c-.9,1.2-2,1.8-2.6,1.8s-.4-.3-.4-.6c0-.2.2-.8.5-1.6.4-.8,1.2-3,1.9-4.5.1-.2,0-.4,0-.4-.3,0-.8.3-1.4.9-.3.3-.3,0-.2-.2.9-1.2,2-1.8,2.6-1.8s.3.3.4.5h0ZM897.6,855.2c0,.5-.5.8-.7.8s-.6-.3-.6-.7.4-.8.7-.8.6.5.6.7Z"/>
    <path d="M902.7,852c-.6,1.6-3.4,10.8-3.9,12.4,0,.3,0,.5.2.5.4,0,1-.6,1.6-1.3.2-.2.2,0,0,.3-.5.9-1.7,2.2-2.7,2.2s-.5-.3-.5-.5c0-.3.1-.9.2-1.2.5-2,3-9.8,3.5-11.7.2-.5.1-.7-.6-.9-.2,0-.2-.2.1-.2.5,0,1.3-.2,1.7-.2.1,0,.2,0,.3,0,.1,0,0,.3,0,.7h0Z"/>
    <path d="M907,852c-.6,1.6-3.4,10.8-3.9,12.4,0,.3,0,.5.2.5.4,0,1-.6,1.6-1.3.2-.2.2,0,0,.3-.5.9-1.7,2.2-2.6,2.2s-.5-.3-.5-.5c0-.3.1-.9.2-1.2.5-2,3-9.8,3.5-11.7.2-.5.1-.7-.6-.9-.2,0-.2-.2.1-.2.5,0,1.3-.2,1.7-.2.1,0,.2,0,.3,0,0,0,0,.3,0,.7h0Z"/>
    <path d="M911.7,859c0,.4-.3,1.1-1,1.6-.8.6-2,1-2.9,1.1,0,0-.2.1-.2.2-.2.5-.4,1.5-.4,2.2s0,1,.9,1,1.3-.5,1.8-1.1c0,0,.2-.2.2,0,0,0,0,.2-.2.6-.5.9-1.4,1.6-2.5,1.6s-1.4-.8-1.4-2,.8-3.1,1.4-4c.9-1.2,2.2-2.1,3.2-2.1s1.2.5,1.2,1h0ZM907.7,861.3c0,0,0,0,.1,0,1.2-.2,3-1.7,3-2.6s-.2-.6-.4-.6c-.9,0-2,1.3-2.7,3.1Z"/>
    <path d="M916.4,858.3c0,0,.2.2.2.4,0,.3-.4.6-.6.6s-.2,0-.3-.2c-.2-.2-.6-.5-.9-.5s-.9.4-.9,1c0,.5.2,1.1.8,2,.4.7.6,1.4.6,1.9,0,.6-.4,1.3-1.2,1.8-.7.5-1.4.7-1.8.7-.7,0-1.1-.5-1.1-1,0-.2,0-.6.2-.8,0,0,.2,0,.2,0,.3.6.9,1.2,1.6,1.2s1.2-.4,1.1-1.2c0-.4-.2-.9-.6-1.8-.5-1-.7-1.5-.7-1.8,0-.5.3-1.3,1-1.9.5-.5,1.1-.8,1.6-.8s.7.2.8.4h0Z"/>
    <path d="M926.7,852.9c3.1,0,3.8,0,4.2-.2,0,0,0,0,0,.2-.3.5-.7,1.5-.8,2.1,0,.4-.3.4-.3,0,0-1.4.1-1.7-1.5-1.7s-1.9,0-2.6,0c-.2,0-.4.1-.5.5-.3.8-1.4,4.5-1.5,5,0,.1,0,.3,0,.3.4,0,2.5,0,3,0,.5,0,.9-.5,1.1-.9.2-.4.4-.3.3,0,0,.3-.3.8-.4,1.2,0,.4-.2.8-.2,1.2,0,.4-.3.4-.3,0,0-.7-.1-1.1-.9-1.1-1.3,0-2.1,0-2.6,0,0,0-.2,0-.3.2-.3.7-1,3.5-1.3,4.5-.2.9.2,1,1,1.1.4,0,.5.3,0,.3s-1.6,0-2,0c-.6,0-1.5,0-2,0s-.4-.2,0-.3c1,0,1.2-.4,1.5-1.5.6-1.6,2.3-7.5,2.8-9.5.3-1.1,0-1.2-.8-1.3-.5,0-.5-.3,0-.3s1.5,0,2.4,0h1.5Z"/>
    <path d="M934.1,858.6s0,0,0,0c.3-.5.4-.6.5-.6.2,0,.4,0,.5.2,0,0,0,.2,0,.3-.2.5-1.5,3.9-2.2,6.1,0,0,0,.2.1.2.5,0,1.2-.6,1.8-1.3.1-.1.2,0,.2,0,0,0,0,.2-.1.3-.5,1-1.8,2.2-2.9,2.2s-.5-.1-.5-.3c0-.3.6-1.7,1.2-3.2,0,0,0-.2,0,0-2.3,2.6-3.8,3.6-4.5,3.6s-.7-.3-.7-.9.4-1.5,1-2.5c.7-1.1,1.8-2.2,2.9-3.1.8-.7,1.8-1.2,2.1-1.2s.3,0,.4.2h0ZM930.7,860.8c-.8.9-1.7,2.7-1.7,3.7s0,.4.3.4c.4,0,.9-.4,1.5-.9,1.3-1.2,2.3-2.8,2.9-4.4,0,0,0,0,0-.2,0,0-.3-.2-.6-.2-.8,0-1.8.8-2.4,1.5h0Z"/>
    <path d="M943.7,859.3c-.5,1.4-1.2,3.1-1.9,4.9,0,.3,0,.5,0,.5.5,0,1.5-1,1.6-1.2.3-.3.3,0,.1.2-.7,1.2-2.2,2.3-2.9,2.3s-.3-.2-.3-.4,0-.5.2-.8c.2-.4.7-1.5,1.1-2.7,0-.2,0-.2-.2,0-.8,1-2.3,2.7-3.6,3.5-.6.5-1,.5-1.2.5s-.3,0-.4-.3c-.2-.3,0-.8.1-1.5.5-1.4,1.4-3.5,2-4.8,0-.2,0-.3,0-.3-.3,0-.9.5-1.4,1-.4.4-.3,0-.2-.2.5-.8,1.9-2,2.7-2s.5.3.2,1.1c-.2.7-1.8,4.3-2.3,5.6,0,.2,0,.5.2.5.3,0,1.1-.5,2.3-1.9,1.3-1.5,2.5-3.7,3.2-4.8.2-.2.4-.4.7-.4s.3.3,0,1.3h0Z"/>
    <path d="M950.2,858.4c.1.1.2.3.2.5s-.4.6-.6.6-.3-.1-.5-.4c-.3-.4-.5-.6-.8-.6-.5,0-1,.6-1.5,1.6-.6,1-1.1,2.8-1.1,4.2s.3,1.1.7,1.1c.6,0,1.3-.5,2-1.3.2-.2.2-.2.3-.2.1,0,0,.4-.2.6-.5.9-1.5,1.8-2.6,1.8s-1.5-.6-1.5-2.2.1-1.4.6-2.7c.5-1.1,1.3-2.3,2.6-2.9.5-.3.9-.4,1.3-.4s.7.2,1,.4h0Z"/>
    <path d="M956.6,860.4c0,2.2-1.5,4.2-2.4,4.9-.8.6-1.4.8-2,.8s-1.5-.7-1.5-2.3.5-2.9,1.5-4.1c1-1.2,2-1.7,2.9-1.7,1.3,0,1.6,1.5,1.6,2.4h0ZM953.1,860c-.8,1.3-1.5,3.1-1.5,4.5s.2,1.2.7,1.2.8-.3,1.3-1c1-1.3,2-3.8,2-5.2s0-1.3-.5-1.3-1.1.6-1.9,1.8h0Z"/>
    <path d="M961,858.8c0,.2-.2.8-.9,2.3,0,.2,0,.2.2,0,.9-1.2,2.7-3.2,4.3-3.2s.7.4.7.8,0,.7-.4,1.3c-.5,1.3-1.5,3.6-1.8,4.3,0,.2,0,.3,0,.3.2,0,1.1-.7,1.7-1.3.2-.2.2,0,0,.3-.8,1.3-2.5,2.5-3.2,2.5s-.4-.4-.3-.6c0-.2,2.3-5.1,2.6-6.1.1-.4,0-.7-.3-.7-.5,0-1.3.5-2.6,2.1-1,1.5-1.9,3.2-2.9,4.9,0,.2-.4.2-.7.2s-.2,0-.2-.2c0-.2.1-.5.2-.8.6-1.5,2-4.6,2.3-5.4.2-.3,0-.5-.2-.5s-.8.2-1.2.9c0,.2-.2,0-.2-.2.2-.5.8-1.7,2-1.7s.7.6.7.9h0Z"/>
    <path d="M969.5,858.8c0,.2-.2.8-.9,2.3,0,.2,0,.2.2,0,.9-1.2,2.7-3.2,4.3-3.2s.7.4.7.8-.1.7-.4,1.3c-.5,1.3-1.5,3.6-1.8,4.3,0,.2,0,.3.1.3.2,0,1.1-.7,1.7-1.3.2-.2.2,0,0,.3-.8,1.3-2.5,2.5-3.2,2.5s-.4-.4-.3-.6c0-.2,2.3-5.1,2.6-6.1.1-.4,0-.7-.3-.7-.5,0-1.3.5-2.6,2.1-1,1.5-1.9,3.2-2.9,4.9,0,.2-.4.2-.7.2s-.2,0-.2-.2c0-.2.1-.5.2-.8.6-1.5,2-4.6,2.3-5.4.2-.3,0-.5-.2-.5s-.8.2-1.2.9c-.1.2-.2,0-.2-.2.2-.5.8-1.7,2-1.7s.7.6.7.9h0Z"/>
    <path d="M978.3,858.4c0,.2-.1.7-.3,1.1-.5,1.2-1.7,4.2-2.2,5.2-.2.3,0,.4,0,.4.3,0,1.2-.8,1.5-1.2s.2,0,0,.2c-.9,1.2-2,1.8-2.6,1.8s-.4-.3-.4-.6c0-.2.2-.8.5-1.6.4-.8,1.2-3,1.9-4.5,0-.2,0-.4,0-.4-.3,0-.8.3-1.4.9-.3.3-.3,0-.2-.2.9-1.2,2-1.8,2.6-1.8s.3.3.4.5h0ZM979,855.2c0,.5-.5.8-.7.8-.4,0-.6-.3-.6-.7s.4-.8.7-.8.6.5.6.7Z"/>
    <path d="M984.8,859c0,.4-.3,1.1-1,1.6-.8.6-2,1-2.9,1.1,0,0-.2.1-.2.2-.2.5-.4,1.5-.4,2.2s0,1,.9,1,1.3-.5,1.8-1.1c0,0,.2-.2.2,0,0,0,0,.2-.2.6-.5.9-1.4,1.6-2.5,1.6s-1.4-.8-1.4-2,.8-3.1,1.4-4c.9-1.2,2.2-2.1,3.2-2.1s1.2.5,1.2,1h0ZM980.8,861.3c0,0,0,0,.1,0,1.2-.2,3-1.7,3-2.6s-.2-.6-.4-.6c-.9,0-2,1.3-2.7,3.1Z"/>
    <path d="M988.3,858.9c0,.5-.7,2.1-.8,2.5,0,.2,0,.3.2,0,.5-.8,1-1.6,1.5-2.3.6-.8,1.3-1.3,1.8-1.3s.7.4.7.8c0,.8-.7,1.2-.9,1.2s-.2,0-.2-.3c0-.6,0-.9-.3-.9s-1,.7-2,2.8c-.6,1.2-1.4,2.8-2,4.2-.1.3-.3.4-.4.4-.2,0-.4,0-.5-.2,0,0,0-.2,0-.3,0-.3,1.1-3.2,2-5.9.1-.4,0-.5,0-.5-.4,0-1,.7-1.4,1-.1,0-.2,0-.2,0,0-.5.9-2,2.1-2s.7.3.7.8h0Z"/>
    <path d="M1001.1,858c-1,.9-4,2.9-4.5,3.2,0,0-.1.2-.1.3,0,2,1.6,3.4,3.2,3.4,2.9,0,5.5-2.9,5.6-5.6,0-.2,0-.4-.1-.5,0,0-.4-.2-1-.2-1.1,0-1.3.7-1.3,1.1,0,.4.2.8.4,1,0,0,0,.2,0,.2,0,0-.2.2-.4.2-.4,0-.8-.4-.8-.8s.4-1,.9-1.5c.7-.6,1.4-1,2.1-1,1.3,0,2.2,1,2.4,1.3.2.2.3.3.5.3s.4-.2.4-.6-.1-.9-.4-1.3c-.1-.2,0-.2.1-.2.6,0,1,.8,1,1.4,0,.4-.2.6-.3.7-.3.1-1.2.5-1.5.8-.2,0-.2,0-.3,0-.2-.4-.8-.9-1.2-1.1,0,0,0,0,0,0,0,1.9-.8,3.6-1.8,4.8-1.4,1.6-3.2,2.3-4.5,2.3-3.2,0-4-2.6-4-4.2s.6-3.1,2-4.4c.5-.5,1.5-1.2,2.2-1.2s.9.6,1.1,1.6c0,0,0,0,.1,0,1.1-.9,2.7-2.6,2.7-4.2,0-.4-.2-.7-.2-.9,0,0,0-.2,0-.3.1-.2.4-.5.6-.5s.5.5.5,1c0,1.8-1.7,3.5-3.3,4.9h0ZM996.5,860.7c0,0,0,.2.1,0,.5-.2,2.3-1.5,2.5-1.7.2-.2.3-.5.3-.8,0-.4-.1-1.2-.8-1.2s-2.1,1.5-2.2,3.5h0Z"/>
    <path d="M1023.1,865.8c-.5,0-.6-.2,0-.3.9-.1,1.2-.3,1.5-1.8.2-1.3,1.4-6.5,1.7-8.6,0-.2,0-.3,0-.2-1.2,1.6-3.7,5.2-4.9,7-.6.9-1.2,1.7-1.8,2.7-.6.8-.8,1.1-.9,1.1s-.2,0-.2-.4c0-.5-.4-7.8-.5-10.2,0-.3-.2,0-.2,0-.9,1.8-3.2,6.7-4.1,8.8-.5,1.3-.2,1.5.8,1.6.5,0,.5.3,0,.3s-1.1,0-1.7,0-1.3,0-1.7,0-.3-.2,0-.3c1-.2,1.5-.5,2.1-1.7,1.5-3.1,3.7-7.5,4.5-9.3.3-.7.2-1-.3-1.2-.2,0-.5,0-.9-.2-.6,0-.5-.3,0-.3s1.8,0,2.5,0,.2.2.2.3c0,1,.6,7.8.8,9.7,0,.2,0,.2.2,0,.7-1,3.3-4.7,5.3-7.5.7-1,1.3-1.8,1.5-2.2.1-.2.2-.3.4-.3.4,0,2,0,2.3,0,.6,0,.4.3,0,.3-1.5.2-1.6.5-1.9,1.7-.3,1-1.4,7.3-1.6,8.8-.2,1.5,0,1.7,1,1.9.4,0,.5.3,0,.3-.8,0-1.4,0-2.1,0s-1.2,0-1.8,0h0Z"/>
    <path d="M1034.9,858.6s0,0,0,0c.3-.5.4-.6.5-.6.2,0,.4,0,.5.2,0,0,0,.2,0,.3-.2.5-1.4,3.9-2.2,6.1,0,0,0,.2.1.2.5,0,1.2-.6,1.8-1.3.1-.1.2,0,.2,0,0,0,0,.2-.1.3-.6,1-1.8,2.2-2.9,2.2s-.5-.1-.5-.3c0-.3.6-1.7,1.2-3.2,0,0,0-.2,0,0-2.3,2.6-3.8,3.6-4.4,3.6s-.7-.3-.7-.9.4-1.5,1-2.5c.7-1.1,1.8-2.2,2.9-3.1.8-.7,1.8-1.2,2.1-1.2s.3,0,.4.2h0ZM1031.5,860.8c-.8.9-1.7,2.7-1.7,3.7s0,.4.3.4c.4,0,.9-.4,1.5-.9,1.3-1.2,2.3-2.8,2.9-4.4,0,0,0,0,0-.2,0,0-.3-.2-.6-.2-.8,0-1.8.8-2.4,1.5h0Z"/>
    <path d="M1040.1,858.9c0,.5-.7,2.1-.8,2.5,0,.2,0,.3.2,0,.5-.8,1-1.6,1.5-2.3.6-.8,1.3-1.3,1.8-1.3s.7.4.7.8c0,.8-.7,1.2-.9,1.2s-.2,0-.2-.3c0-.6,0-.9-.3-.9s-1,.7-2,2.8c-.6,1.2-1.4,2.8-2,4.2-.1.3-.3.4-.4.4-.2,0-.4,0-.5-.2,0,0,0-.2,0-.3,0-.3,1.1-3.2,2-5.9.1-.4,0-.5,0-.5-.4,0-1.1.7-1.4,1-.1,0-.2,0-.2,0,0-.5.9-2,2.1-2s.7.3.7.8h0Z"/>
    <path d="M1050.3,858.6c0,.8-.8,1.7-1.4,2.1-.5.4-1,.7-1.7,1,0,0,0,.1,0,.2.2.9.4,1.9.7,2.5.2.5.4.7.6.7s.8-.3,1.4-1.1c.2-.2.3-.2.2.2-.6,1.2-1.6,1.9-2,1.9s-.8-.4-1.1-1.2c-.2-.5-.5-1.3-.7-1.9-.2-.5-.4-.7-.6-.7s-.4.3-.5.7c-.2.6-.7,1.7-1,2.6-.2.4-.3.5-.4.5-.3,0-.6-.2-.6-.5,0-.2,0-.4.2-.8,1.2-4,3.2-10.2,3.7-12,.2-.5,0-.8-.5-.8-.2,0-.3,0-.3-.2,0,0,.1,0,.2-.1.8-.1,1.6-.2,1.9-.3.1,0,.2,0,.3,0s0,.2,0,.4c-.4,1.3-2.1,6.2-2.8,8.5,0,0,0,.2.1,0,.8-.9,1.6-1.5,2.2-1.9.5-.3,1.1-.5,1.4-.5.5,0,.9.2.9.7h0ZM1045.7,861.6c0,.2,0,.3.2.3,1.1,0,3.3-1.8,3.3-2.7s-.2-.5-.5-.5c-.7,0-1.9.6-3,2.9h0Z"/>
    <path d="M1065,852.9c1.1,0,1.7,0,1.9-.2.2,0,.2,0,.3,0s0,.2,0,.3c-.3.7-.6,1.4-.8,2.2,0,.2-.3,0-.3-.2,0-1.1.1-1.5-.9-1.6-.6,0-1.2,0-2.5,0s-.2,0-.3.4c-.2.3-2.6,8.1-3.2,10-.4,1.5-.2,1.5.9,1.8.5,0,.4.3,0,.3-.6,0-1.3,0-2.2,0s-1.6,0-2.1,0-.4-.3,0-.3c1-.2,1.4-.2,1.9-1.7.4-1.1,3.2-9.8,3.3-10.2,0-.2,0-.3,0-.3-1.2,0-2.1,0-2.7,0-1,0-1.3.6-2,1.7-.2.3-.4.3-.3-.2.4-.8.7-1.4.9-2.2,0,0,.2-.2.2-.1,0,.2.5.3,1.1.3.5,0,2.3,0,3.6,0h3.3,0Z"/>
    <path d="M1070.9,859.3c-.6,1.4-1.2,3.1-1.9,4.9,0,.3,0,.5,0,.5.5,0,1.4-1,1.6-1.2.3-.3.3,0,.1.2-.7,1.2-2.2,2.3-2.9,2.3s-.3-.2-.3-.4,0-.5.2-.8c.2-.4.7-1.5,1.1-2.7,0-.2,0-.2-.2,0-.8,1-2.3,2.7-3.6,3.5-.6.5-1,.5-1.2.5s-.3,0-.4-.3c-.2-.3,0-.8.1-1.5.5-1.4,1.4-3.5,1.9-4.8,0-.2,0-.3,0-.3-.3,0-.9.5-1.4,1-.4.4-.3,0-.2-.2.5-.8,1.9-2,2.7-2s.5.3.2,1.1c-.2.7-1.8,4.3-2.3,5.6,0,.2,0,.5.2.5.3,0,1.1-.5,2.3-1.9,1.3-1.5,2.5-3.7,3.2-4.8.2-.2.4-.4.7-.4s.3.3,0,1.3h0Z"/>
    <path d="M1075.1,858.9c0,.5-.7,2.1-.8,2.5,0,.2,0,.3.2,0,.5-.8,1-1.6,1.5-2.3.6-.8,1.3-1.3,1.8-1.3s.7.4.7.8c0,.8-.7,1.2-.9,1.2s-.2,0-.2-.3c0-.6,0-.9-.3-.9s-1,.7-2,2.8c-.6,1.2-1.4,2.8-2,4.2-.1.3-.3.4-.4.4-.2,0-.4,0-.5-.2,0,0,0-.2,0-.3,0-.3,1.1-3.2,2-5.9.1-.4,0-.5,0-.5-.4,0-1.1.7-1.4,1-.1,0-.2,0-.2,0,0-.5.9-2,2.1-2s.7.3.7.8h0Z"/>
    <path d="M1082,858.8c0,.2-.2.8-.9,2.3,0,.2,0,.2.2,0,.9-1.2,2.7-3.2,4.3-3.2s.7.4.7.8,0,.7-.4,1.3c-.5,1.3-1.5,3.6-1.8,4.3,0,.2,0,.3,0,.3.2,0,1.1-.7,1.7-1.3.2-.2.2,0,0,.3-.8,1.3-2.5,2.5-3.2,2.5s-.4-.4-.3-.6c0-.2,2.3-5.1,2.6-6.1.1-.4,0-.7-.3-.7-.5,0-1.3.5-2.6,2.1-1,1.5-1.9,3.2-2.9,4.9,0,.2-.4.2-.7.2s-.2,0-.2-.2c0-.2.1-.5.2-.8.6-1.5,1.9-4.6,2.3-5.4.2-.3,0-.5-.2-.5s-.8.2-1.2.9c0,.2-.2,0-.2-.2.2-.5.8-1.7,2-1.7s.7.6.7.9h0Z"/>
    <path d="M1092.9,859c0,.4-.3,1.1-1.1,1.6-.8.6-2,1-2.9,1.1,0,0-.2.1-.2.2-.2.5-.4,1.5-.4,2.2s0,1,.9,1,1.3-.5,1.8-1.1c0,0,.2-.2.2,0,0,0,0,.2-.2.6-.5.9-1.4,1.6-2.5,1.6s-1.4-.8-1.4-2,.8-3.1,1.4-4c.9-1.2,2.2-2.1,3.2-2.1s1.2.5,1.2,1h0ZM1088.9,861.3c0,0,0,0,.1,0,1.2-.2,3-1.7,3-2.6s-.2-.6-.4-.6c-.9,0-2,1.3-2.7,3.1h0Z"/>
    <path d="M1096.4,858.9c0,.5-.7,2.1-.8,2.5,0,.2,0,.3.2,0,.5-.8,1-1.6,1.5-2.3.6-.8,1.3-1.3,1.8-1.3s.7.4.7.8c0,.8-.7,1.2-.9,1.2s-.2,0-.2-.3c0-.6,0-.9-.3-.9s-1,.7-2,2.8c-.6,1.2-1.4,2.8-2,4.2-.1.3-.3.4-.4.4-.2,0-.4,0-.5-.2,0,0,0-.2,0-.3,0-.3,1.1-3.2,2-5.9.1-.4,0-.5,0-.5-.4,0-1.1.7-1.4,1-.1,0-.2,0-.2,0,0-.5.9-2,2.1-2s.7.3.7.8h0Z"/>
    <path d="M1099.7,865.2c0,1.6-2,2.5-2.4,2.6-.3,0-.2,0,0-.2.8-.4,1.6-1.1,1.6-1.8s-.3-.6-.7-.7c-.1,0-.2-.2-.2-.2,0-.4.4-.8.8-.8.8,0,.9.7.9,1.2h0Z"/>
    <path d="M1113.1,856c0,1.5-1.2,2.9-2.3,4-1.3,1.3-3.3,2.9-5.1,4.5,0,0,0,.1,0,.1,1.4,0,4.4,0,5,0,.7,0,1-.3,1.3-.8.3-.4.4-.2.2.2-.2.4-.8,1.4-.9,1.7,0,0-.2.2-.2.2-.5,0-3.9,0-5.1,0s-1,0-1.6,0-.4,0-.4-.2.2-.3.4-.4c.9-.7,2.9-2.4,3.9-3.5,1.8-1.8,3.3-3.3,3.3-5.3s-.8-2.1-1.9-2.1-1.8.5-2.6,1.4c-.2.2-.2.2-.3.2s0-.2,0-.3c.7-1.2,2-2.3,3.6-2.3s2.7,1.2,2.7,2.8h0Z"/>
    <path d="M1122.1,856.9c0,2-1.1,5.4-2.6,7.2-1,1.2-2.1,1.9-3,1.9-2.2,0-2.5-2.2-2.5-3.7,0-2,1.1-5.4,2.5-7.1,1.1-1.3,2.1-2,3.2-2,2,0,2.3,2.2,2.3,3.7ZM1117.5,855.6c-1.2,2.1-2.2,5.5-2.2,8.1s.3,2,1.2,2c1.5,0,2.4-2.5,3.1-4.1.7-1.7,1.2-4.2,1.2-5.9s-.2-2.2-1.1-2.2-1.5.8-2.2,2.1h0Z"/>
    <path d="M1130.8,856.9c0,2-1.1,5.4-2.6,7.2-1,1.2-2.1,1.9-3,1.9-2.2,0-2.5-2.2-2.5-3.7,0-2,1.1-5.4,2.5-7.1,1.1-1.3,2.1-2,3.2-2,2,0,2.3,2.2,2.3,3.7ZM1126.2,855.6c-1.2,2.1-2.2,5.5-2.2,8.1s.3,2,1.2,2c1.5,0,2.4-2.5,3.1-4.1.7-1.7,1.2-4.2,1.2-5.9s-.2-2.2-1.1-2.2-1.5.8-2.2,2.1h0Z"/>
    <path d="M1139.2,856c0,1.5-1.2,2.9-2.3,4-1.3,1.3-3.3,2.9-5.1,4.5,0,0,0,.1,0,.1,1.4,0,4.4,0,5,0,.7,0,1-.3,1.3-.8.3-.4.4-.2.2.2-.2.4-.8,1.4-.9,1.7,0,0-.2.2-.2.2-.5,0-3.9,0-5.1,0s-1,0-1.6,0-.4,0-.4-.2.2-.3.4-.4c.9-.7,2.9-2.4,3.9-3.5,1.8-1.8,3.3-3.3,3.3-5.3s-.8-2.1-1.9-2.1-1.8.5-2.6,1.4c-.2.2-.2.2-.3.2s0-.2,0-.3c.7-1.2,2-2.3,3.6-2.3s2.7,1.2,2.7,2.8h0Z"/>
  </g>
</svg>