<?xml version="1.0" encoding="UTF-8"?>
<svg id="Layer_1" xmlns="http://www.w3.org/2000/svg" version="1.1" viewBox="0 0 1196.4 941.8">
  <!-- Generator: Adobe Illustrator 29.0.0, SVG Export Plug-In . SVG Version: 2.1.0 Build 186)  -->
  <defs>
    <style>
      .st0 {
        isolation: isolate;
      }

      .st1 {
        fill: #fff;
      }

      .st2 {
        fill: #c73319;
      }
    </style>
  </defs>
  <rect class="st1" width="1196.4" height="941.8"/>
  <g class="st0">
    <g class="st0">
      <path class="st2" d="M528.6,689.1c-.8,0-1.6-.1-2.4-.3-.7-.2-1.4-.6-2-1s-1.1-1-1.6-1.7l1.6-1.9c.7,1,1.4,1.8,2.1,2.2s1.5.6,2.4.6,1.1,0,1.5-.3c.5-.2.8-.4,1.1-.7.3-.3.4-.7.4-1.1s0-.5-.1-.8c0-.2-.2-.5-.4-.6-.2-.2-.4-.4-.7-.5-.3-.2-.6-.3-1-.4s-.8-.2-1.3-.3c-.8-.2-1.5-.4-2.1-.6-.6-.3-1.1-.6-1.5-1-.4-.4-.7-.9-.9-1.4-.2-.5-.3-1.1-.3-1.7s.1-1.2.4-1.7c.3-.5.7-1,1.1-1.4.5-.4,1.1-.7,1.7-.9.7-.2,1.4-.3,2.1-.3s1.5.1,2.2.3c.7.2,1.3.5,1.8.9.5.4,1,.9,1.3,1.5l-1.7,1.7c-.3-.5-.6-.9-1-1.2-.4-.3-.8-.6-1.2-.8-.4-.2-.9-.3-1.4-.3s-1.1,0-1.5.3c-.4.2-.8.4-1,.7s-.4.7-.4,1.1,0,.6.2.9c.1.3.3.5.5.7.2.2.6.4,1,.5.4.2.9.3,1.5.4.8.2,1.5.4,2.2.7.6.3,1.2.6,1.6,1,.4.4.8.8,1,1.2.2.5.3,1,.3,1.5,0,1-.2,1.9-.7,2.6-.5.7-1.1,1.3-2,1.7-.8.4-1.9.6-3,.6Z"/>
      <path class="st2" d="M537.3,688.9l6-15.6h2.5l6,15.6h-2.6l-3.6-9.4c0-.1-.1-.4-.3-.8-.1-.4-.3-.8-.4-1.3s-.3-.9-.4-1.3c-.1-.4-.2-.7-.3-.8h.5c0,.2-.2.5-.3.9-.1.4-.3.8-.4,1.2-.1.4-.3.8-.4,1.2-.1.4-.2.7-.3.9l-3.5,9.3h-2.5ZM540,685l.9-2.3h7.1l1,2.3h-9Z"/>
      <path class="st2" d="M555.9,688.9v-15.6h2.4v15.6h-2.4ZM557,675.6v-2.3h9v2.3h-9ZM557,682.2v-2.3h8v2.3h-8Z"/>
      <path class="st2" d="M570.6,688.9v-15.6h9.8v2.3h-7.4v11h7.4v2.3h-9.8ZM571.7,682v-2.3h7.5v2.3h-7.5Z"/>
      <path class="st2" d="M593.2,688.9v-15.6h2.4v15.6h-2.4ZM594.2,682.3v-2.3h10.2v2.3h-10.2ZM603.3,688.9v-15.6h2.4v15.6h-2.4Z"/>
      <path class="st2" d="M618,689.1c-1.1,0-2.1-.2-3-.6-.9-.4-1.7-1-2.4-1.7-.7-.7-1.2-1.6-1.6-2.5-.4-1-.6-2-.6-3.2s.2-2.2.6-3.2c.4-1,.9-1.8,1.6-2.5.7-.7,1.5-1.3,2.4-1.7.9-.4,1.9-.6,3-.6s2.1.2,3,.6c.9.4,1.7,1,2.4,1.7.7.7,1.2,1.6,1.6,2.6s.6,2,.6,3.2-.2,2.2-.6,3.2-.9,1.8-1.6,2.6c-.7.7-1.5,1.3-2.4,1.7-.9.4-1.9.6-3,.6ZM618,686.8c.8,0,1.5-.1,2.1-.4.6-.3,1.2-.7,1.6-1.2.5-.5.8-1.1,1.1-1.8.3-.7.4-1.4.4-2.3s-.1-1.6-.4-2.3-.6-1.3-1.1-1.8c-.5-.5-1-.9-1.6-1.2-.6-.3-1.3-.4-2.1-.4s-1.5.1-2.1.4c-.6.3-1.2.7-1.6,1.2s-.8,1.1-1.1,1.8c-.3.7-.4,1.5-.4,2.3s.1,1.6.4,2.3c.3.7.6,1.3,1.1,1.8s1,.9,1.6,1.2c.6.3,1.3.4,2.1.4Z"/>
    </g>
    <g class="st0">
      <path class="st2" d="M636.5,689c-1.2,0-2.3-.3-3.2-.8s-1.7-1.3-2.2-2.2c-.5-.9-.8-2-.8-3.2v-9.6h2.4v9.4c0,.8.2,1.4.5,2s.8,1.1,1.4,1.4c.6.4,1.2.5,1.9.5s1.4-.2,2-.5,1.1-.8,1.4-1.4c.4-.6.5-1.3.5-2v-9.4h2.3v9.6c0,1.2-.3,2.2-.8,3.2-.5.9-1.3,1.7-2.2,2.2-1,.5-2,.8-3.2.8Z"/>
    </g>
    <g class="st0">
      <path class="st2" d="M652.9,689.1c-.8,0-1.6-.1-2.4-.3-.7-.2-1.4-.6-2-1s-1.1-1-1.6-1.7l1.6-1.9c.7,1,1.4,1.8,2.1,2.2.7.4,1.5.6,2.4.6s1.1,0,1.5-.3c.5-.2.8-.4,1.1-.7.3-.3.4-.7.4-1.1s0-.5-.1-.8c0-.2-.2-.5-.4-.6-.2-.2-.4-.4-.7-.5-.3-.2-.6-.3-1-.4-.4-.1-.8-.2-1.3-.3-.8-.2-1.5-.4-2.1-.6-.6-.3-1.1-.6-1.5-1s-.7-.9-.9-1.4c-.2-.5-.3-1.1-.3-1.7s.1-1.2.4-1.7c.3-.5.7-1,1.1-1.4.5-.4,1-.7,1.7-.9.7-.2,1.4-.3,2.1-.3s1.5.1,2.2.3,1.3.5,1.8.9,1,.9,1.3,1.5l-1.7,1.7c-.3-.5-.6-.9-1-1.2-.4-.3-.8-.6-1.2-.8s-.9-.3-1.4-.3-1.1,0-1.5.3c-.4.2-.8.4-1,.7s-.4.7-.4,1.1,0,.6.2.9c.1.3.3.5.5.7.2.2.6.4,1,.5.4.2.9.3,1.5.4.8.2,1.5.4,2.2.7.6.3,1.2.6,1.6,1,.4.4.8.8,1,1.2.2.5.3,1,.3,1.5,0,1-.2,1.9-.7,2.6-.5.7-1.1,1.3-2,1.7-.8.4-1.9.6-3,.6Z"/>
      <path class="st2" d="M663.3,688.9v-15.6h9.8v2.3h-7.4v11h7.4v2.3h-9.8ZM664.4,682v-2.3h7.5v2.3h-7.5Z"/>
    </g>
  </g>
  <g>
    <path d="M880.6,830.4c.5,0,2.1,0,3.2,0s.4.2.5.3c.3.4.9,1,1.8,2,1,1.3,5.1,5.5,6.3,6.7.1,0,.2,0,.2-.1,0-.6,0-3,0-4.8s0-1.7-.1-2.2c0-.4-.2-.9-1.3-1.2-.4,0-.7-.2-.7-.5s.2-.2.6-.2c.5,0,1,0,1.5,0,1,0,1.8,0,2.4,0s.5.1.5.3-.2.3-.5.4c-1.1.4-1.2.7-1.3,1.6,0,.8-.2,6.1-.2,7.8s.1,2.7.1,3.3-.2.4-.3.4c-.4,0-.9-.5-1.1-.8-.4-.5-.8-1-1.4-1.7-2-2.4-5.4-6-7.3-8.2,0-.1-.2,0-.2,0,0,.6,0,1.1,0,2.7,0,2.9,0,4.5,0,5.5,0,.7.3,1,1.3,1.3.4.1.6.3.6.4,0,.2-.3.3-.7.3-.6,0-1.1,0-1.8,0s-1.6,0-2,0-.5,0-.5-.3.2-.3.5-.4c1-.3,1.5-.5,1.5-2,0-2.3.4-6.4.4-7.9s0-1.1-.1-1.2c-.4-.5-.5-.8-1.6-1-.2,0-.5-.2-.5-.4s.2-.3.6-.3h0Z"/>
    <path d="M904.9,839.6c0,1.8-1.1,3.1-1.9,3.6-.9.6-1.9.9-2.9.9s-2.1-.4-2.9-1.1c-.9-.7-1.6-2.1-1.6-3.2s.7-2.6,1.5-3.2c.6-.5,1.8-1.2,3.4-1.2s4.4,1.6,4.4,4.4h0ZM899,836.4c-.5.4-.9,1.4-.9,2.8s0,1.5.2,2c.4,1.5,1.4,2.2,2.3,2.2s.6-.2.9-.5c.4-.5.8-1.7.8-2.9s-.2-2.2-.8-3.2c-.4-.5-.9-.8-1.5-.8s-.7.2-1,.5h0Z"/>
    <path d="M912.2,842.2c0,0,.2-.4.2-.5v-4.7c0-.2-.1-.4-.4-.5-.3,0-.6-.2-.8-.3-.2,0-.3-.2-.3-.4s.2-.2.4-.2c.8,0,2.2-.2,2.8-.3.2,0,.4,0,.5,0s.2.2.2.3c0,.8-.1,6.1-.1,6.8s0,.4.3.4c.2,0,.7-.2,1-.2s.2.5.2.5c0,0-.2.2-.2.2-.6,0-1.7.3-2.1.4-.4,0-1,.3-1.1.3s-.2-.2-.2-.3,0-.5,0-.9c0-.1,0-.2-.2-.2-.5.4-1.2.8-1.5.9-.4.2-.7.3-1.3.3-1,0-1.7-.4-2.1-1.1-.2-.2-.2-.8-.2-1.1,0-1.5,0-3.5,0-4.6,0-.6-.4-.7-.7-.9-.2,0-.4-.2-.4-.4s.2-.2.3-.2c.6,0,2.8-.2,2.9-.2s.2.2.2.3c0,1.6,0,4.8,0,5.7s.2.7.4.9c.3.2.8.4,1.2.4s.8-.1,1.3-.5h0Z"/>
    <path d="M917.4,835.9c.4-.2,1.3-.5,1.7-.6s.6-.3.7-.3.2.2.2.3c0,.2,0,.7,0,.9s.1,0,.2,0c.8-.6,1.7-1.1,2.7-1.1s1.6.5,1.9.8c.5.5.8,1.5.8,2.5s0,3.5,0,3.8c0,.3.2.6.7.7.4,0,.5.2.5.4s-.2.3-.6.3-1.3,0-1.9,0-1.4,0-1.7,0-.6,0-.6-.3.2-.3.5-.4c.5-.2.6-.4.6-1.1s0-3.3,0-3.9-.2-1-.5-1.3c-.2-.2-.8-.4-1.2-.4-.7,0-1.1.2-1.4.4,0,0-.2.3-.2.5,0,.4,0,4.9,0,5.1,0,.3,0,.4.7.7.2,0,.4.2.4.4s-.2.3-.6.3-1.2,0-1.6,0c-.8,0-1.6,0-2,0s-.6-.1-.6-.3.2-.3.4-.3c.7-.2.8-.4.9-1.2,0-.6,0-2.3,0-4.4s-.2-.4-.6-.9c-.2-.2-.2-.2-.2-.3,0-.1.2-.4.4-.5h0Z"/>
    <path d="M937.2,831c-.2,0-.5,0-.6.2s-.2.3-.2.8c0,.4,0,3,0,5.4,0,1.9,0,3.3,0,3.8,0,1.3,0,1.7,1.3,2,.4,0,.6.2.6.4s-.4.3-.7.3c-.5,0-1.7,0-2.7,0s-1.6,0-2.3,0-.8,0-.8-.3.3-.3.5-.4c1-.2,1.3-.5,1.4-1.5,0-.8,0-2.2,0-3.3s0-5.4,0-6c0-.7-.2-1.1-1.3-1.2-.3,0-.5-.2-.5-.3s.2-.3.4-.3c.2,0,.5,0,.7,0,1.3,0,3.1-.2,4-.2,2,0,3.4.4,4.2,1.2,1,1,1.2,2.1,1.2,2.8,0,1.7-.8,2.7-1.4,3.2-.5.5-1.7.9-2.5.9s-.8,0-1.1-.2c-.3-.1-.4-.2-.4-.4s.2-.2.3-.2h.3c.9,0,2.2-1,2.2-3.2s-1.1-3.4-2.9-3.4h0Z"/>
    <path d="M944,836c.8-.2,1.7-.6,2.1-.8.2-.2.4-.2.5-.2.1,0,.2.2.2.2,0,.4,0,.8,0,1.2s0,.2.2,0c.7-.7,1.6-1.3,2.2-1.3.9,0,1.2.6,1.2.9s0,.2-.1.3c-.2.4-.9,1.2-1,1.2,0,0-.3,0-.4,0-.2-.2-.9-.6-1.3-.6s-.4,0-.5.1c-.1.1-.2.2-.2.4,0,.4.1,4.1.1,4.4,0,.7.2,1,.5,1.1.2,0,.7.2.9.3.3.1.4.2.4.3,0,.2-.2.2-.6.2-.6,0-1.7,0-3,0s-.9,0-1.4,0-.5,0-.5-.3.3-.2.5-.3c.8-.3.8-.5.8-1.8v-3.5c0-.4,0-.7-.2-.8-.3-.3-.8-.7-.8-.7s0-.3.3-.4h0Z"/>
    <path d="M960.1,839.6c0,1.8-1.1,3.1-1.9,3.6-.9.6-1.9.9-2.9.9s-2.1-.4-2.9-1.1c-.9-.7-1.6-2.1-1.6-3.2s.7-2.6,1.5-3.2c.6-.5,1.8-1.2,3.4-1.2s4.4,1.6,4.4,4.4h0ZM954.3,836.4c-.5.4-.9,1.4-.9,2.8s0,1.5.2,2c.4,1.5,1.4,2.2,2.3,2.2s.6-.2.9-.5c.4-.5.8-1.7.8-2.9s-.2-2.2-.8-3.2c-.4-.5-.9-.8-1.5-.8s-.7.2-1,.5h0Z"/>
    <path d="M961.8,836.1c.6-.2,1.9-.5,2.5-.8.2,0,.3-.1.4-.1s.2.2.2.3c0,1.1,0,6.8,0,7.3,0,1.5-.3,2.7-.9,3.6-.5.9-1.2,1.7-1.8,2.2-.5.5-1.3.8-1.4.8s-.4,0-.5-.2c0,0,0-.2,0-.2,1-.6,1.2-.9,1.3-1,.6-.7,1-2.4,1-5.1s0-4.4,0-5c0-.3,0-.5-.8-1,0,0-.2-.2-.2-.4s.1-.2.4-.2h0ZM964.8,832.1c0,1-.8,1.3-1.3,1.3s-1.2-.5-1.2-1.3c0-.4.2-.8.5-1,.2-.2.3-.2.6-.2,1.1,0,1.4.9,1.4,1.3h0Z"/>
    <path d="M973.4,836.1c.5.5.8,1.1.8,1.8s-.2.5-.5.5h-4.6c-.1,0-.2,0-.2.2,0,.2,0,.5,0,.8,0,.5.2,1.4.7,2,.5.7,1.4,1,2.3,1s1.5-.2,1.9-.7c0-.1.2-.2.3-.2s.2.2.2.3,0,.4-.2.5c-.7,1-1.6,1.8-3.4,1.8s-3.9-1.8-3.9-4.2.9-3.4,2.7-4.2c.5-.2,1.2-.4,1.7-.4.8,0,1.7.3,2.2.9h0ZM969.1,837.6c0,0,0,.2.2.2.5,0,1.2,0,2.2,0s.7-.2.7-.7-.6-1.3-1.2-1.3c-.9,0-1.7.8-2,1.8h0Z"/>
    <path d="M982.7,835.8c.3.2.4.5.4.8s-.7,1-.8,1c-.2,0-.5-.2-1-.5-.6-.5-1-.9-1.7-.9s-.6.1-.9.5c-.5.5-.8,1.6-.8,2.6,0,1.4.6,2.1.7,2.2.4.5,1.2,1.1,2.3,1.1s1.3-.2,2-.7c.1,0,.3,0,.3.2s-.2.5-.3.7c-.7.8-1.9,1.4-3.2,1.4s-2.7-.8-3.3-1.7c-.4-.7-.7-1.6-.7-2.4,0-1.6.8-2.8,2.1-3.7.7-.5,2.1-.9,3-.9s1.7.2,2.1.5h0Z"/>
    <path d="M989.8,835.4c0,0,.3,0,.3.2,0,0,0,.6,0,.9s-.4.2-.5.2h-2c-.1,0-.2,0-.2.2,0,1,0,3,0,4.2s0,.8.3,1,.7.4,1,.4.7-.2.9-.3c.2,0,.3-.2.4-.2s.2,0,.2.3-.2.5-.3.6c-.6.6-1.4,1-2.4,1s-1.6-.4-2-.9c-.2-.4-.4-.7-.4-1.5s0-3.8,0-4.6-.4-.3-.8-.5c-.2,0-.2-.2-.2-.4s0-.1.1-.2c1-.7,1.7-1.2,2.2-1.7.2-.3.4-.5.5-.5.2,0,.4.2.4.4v1c0,0,0,.2.2.2.5,0,2.1,0,2.2,0h0Z"/>
    <path d="M888.7,853.4c.8.6,1.1,1.3,1.1,2,0,1.8-1.2,2.8-2.9,3.3,0,0,0,0,0,0,1.4.6,2.3,1.5,2.3,3,0,1.4-.8,2.6-2.1,3.2-1,.6-2.3.7-3.4.7s-1.7,0-2.5,0-1.7,0-2.1,0-.4-.2,0-.3c1.3-.1,1.5-.5,2-2.1.5-1.8,1.9-6.2,2.7-9.3.2-.8-.1-.9-1.1-1-.4,0-.4-.3,0-.3h1.2c.6,0,1.4-.1,2.2-.1s2,.2,2.7.6h0ZM883.9,859.1c-.1,0-.2.3-.3.5-.3,1.1-1.2,4-1.3,4.8,0,.4,0,.6.2.7.3.2,1,.4,1.6.4,1.6,0,3.6-1.1,3.6-3.6s-.3-1.5-.9-2.1c-.6-.6-1.5-.9-2.3-.9s-.4,0-.5,0h0ZM885.3,853.7c-.2.7-1,3.4-1.4,4.8,0,.1,0,.2,0,.2,1.4,0,2.3-.2,2.9-.6.8-.5,1.5-1.4,1.5-2.7,0-1-.7-2.3-2.4-2.3s-.5.2-.7.5h0Z"/>
    <path d="M891.6,865.1c0,.5-.5.9-.9.9s-.7-.3-.7-.7.5-1,.9-1,.7.3.7.8h0Z"/>
    <path d="M903.6,852.9c3.1,0,3.8,0,4.2-.2,0,0,.1,0,0,.2-.3.5-.7,1.5-.8,2.1,0,.4-.3.4-.3,0,0-1.4,0-1.7-1.5-1.7s-1.9,0-2.6,0c-.2,0-.4.1-.5.5-.3.8-1.4,4.5-1.5,5,0,.1,0,.3,0,.3.4,0,2.5,0,3,0,.5,0,.9-.5,1.1-.9.2-.4.4-.3.3,0,0,.3-.3.8-.4,1.2,0,.4-.2.8-.2,1.2,0,.4-.3.4-.3,0,0-.7,0-1.1-.9-1.1-1.3,0-2.1,0-2.6,0,0,0-.2,0-.3.2-.3.7-1,3.5-1.3,4.5-.2.9.2,1,1,1.1.4,0,.5.3,0,.3s-1.6,0-2,0c-.6,0-1.5,0-2,0s-.4-.2,0-.3c1,0,1.2-.4,1.5-1.5.6-1.6,2.3-7.5,2.8-9.5.3-1.1.1-1.2-.8-1.3-.5,0-.5-.3,0-.3s1.5,0,2.4,0h1.6Z"/>
    <path d="M910.9,858.6s0,0,.1,0c.3-.5.4-.6.5-.6.2,0,.4.1.5.2,0,0,0,.2,0,.3-.2.5-1.5,3.9-2.2,6.1,0,.1,0,.2.1.2.5,0,1.2-.6,1.8-1.3.1-.1.2-.1.2,0,0,0,0,.2-.1.3-.5,1-1.8,2.2-2.9,2.2s-.5-.1-.5-.3c0-.3.6-1.7,1.2-3.2,0-.1,0-.2,0,0-2.3,2.6-3.8,3.6-4.5,3.6s-.7-.3-.7-.9.4-1.5,1-2.5c.7-1.1,1.8-2.2,2.9-3.1.8-.7,1.8-1.2,2.1-1.2s.3.1.4.2h0ZM907.5,860.8c-.8.9-1.7,2.7-1.7,3.7s0,.4.3.4c.4,0,.9-.4,1.5-.9,1.3-1.2,2.3-2.8,2.9-4.4,0,0,0,0,0-.2,0,0-.3-.2-.6-.2-.8,0-1.8.8-2.4,1.5h0Z"/>
    <path d="M916.1,858.9c0,.5-.7,2.1-.8,2.5,0,.2,0,.3.2.1.5-.8,1-1.6,1.5-2.3.6-.8,1.3-1.3,1.8-1.3s.7.4.7.8c0,.8-.7,1.2-.9,1.2s-.2,0-.2-.3c0-.6,0-.9-.3-.9s-1,.7-2,2.8c-.6,1.2-1.4,2.8-2,4.2-.1.3-.3.4-.4.4-.2,0-.4,0-.5-.2,0,0,0-.2,0-.3,0-.3,1.1-3.2,2-5.9.1-.4,0-.5,0-.5-.4,0-1,.7-1.4,1-.1,0-.2,0-.2,0,0-.5.9-2,2.1-2s.7.3.7.8h0Z"/>
    <path d="M923.2,858.4c0,.2-.1.7-.3,1.1-.5,1.2-1.7,4.2-2.2,5.2-.2.3,0,.4,0,.4.3,0,1.2-.8,1.5-1.2.3-.4.2,0,0,.2-.8,1.2-1.9,1.8-2.6,1.8s-.4-.3-.4-.6c0-.2.2-.8.5-1.6.4-.8,1.2-3,1.9-4.5,0-.2,0-.4,0-.4-.3,0-.8.3-1.4.9-.3.3-.3,0-.2-.2.9-1.1,2-1.7,2.6-1.7s.3.3.4.5ZM924.6,853.8c.2,0,.2.4.2.6s-.1.3-.2.4c-.5.6-1.2,1.5-1.7,2.1,0,0-.2.2-.3.2s0-.2,0-.3c.4-.6,1.3-2.1,1.7-2.8.2-.2.2-.2.3-.2Z"/>
    <path d="M929.8,858.6s0,0,0,0c.3-.5.4-.6.5-.6.2,0,.4.1.5.2,0,0,0,.2,0,.3-.2.5-1.5,3.9-2.2,6.1,0,.1,0,.2.1.2.5,0,1.2-.6,1.8-1.3.1-.1.2-.1.2,0,0,0,0,.2-.1.3-.5,1-1.8,2.2-2.9,2.2s-.5-.1-.5-.3c0-.3.6-1.7,1.2-3.2,0-.1,0-.2,0,0-2.3,2.6-3.8,3.6-4.5,3.6s-.7-.3-.7-.9.4-1.5,1-2.5c.7-1.1,1.8-2.2,2.9-3.1.8-.7,1.8-1.2,2.1-1.2s.3.1.4.2h0ZM926.4,860.8c-.8.9-1.7,2.7-1.7,3.7s0,.4.3.4c.4,0,.9-.4,1.5-.9,1.3-1.2,2.3-2.8,2.9-4.4,0,0,0,0,0-.2,0,0-.3-.2-.6-.2-.8,0-1.8.8-2.4,1.5h0Z"/>
    <path d="M936.3,858.3c0,.1.2.2.2.4,0,.3-.4.6-.6.6s-.2,0-.3-.2c-.2-.2-.6-.5-.9-.5s-.9.4-.9,1c0,.5.2,1.1.8,2,.4.7.6,1.4.6,1.9,0,.6-.4,1.3-1.2,1.8-.7.5-1.4.7-1.8.7-.7,0-1.1-.5-1.1-1,0-.2,0-.6.2-.8,0,0,.2,0,.2,0,.3.6.9,1.2,1.6,1.2s1.2-.4,1.1-1.2c0-.4-.2-.9-.6-1.8-.5-1-.7-1.5-.7-1.8,0-.5.3-1.3,1-1.9.5-.5,1.1-.8,1.6-.8s.7.2.8.4h0Z"/>
    <path d="M938.1,865.2c0,1.6-2,2.5-2.4,2.6-.3,0-.2,0,0-.2.8-.4,1.6-1.1,1.6-1.8s-.3-.6-.7-.7c-.1,0-.2-.2-.2-.2,0-.4.4-.8.8-.8.8,0,.9.7.9,1.2h0Z"/>
    <path d="M951.4,856c0,1.5-1.2,2.9-2.3,4-1.3,1.3-3.3,2.9-5.1,4.5,0,0,0,.1,0,.1,1.4,0,4.4,0,5,0,.7,0,1-.3,1.3-.8.3-.4.4-.2.2.2-.2.4-.8,1.4-.9,1.7,0,0-.2.2-.2.2-.5,0-3.9,0-5.1,0s-1,0-1.5,0-.4,0-.4-.2.2-.3.4-.4c.9-.7,2.9-2.4,3.9-3.5,1.8-1.8,3.3-3.3,3.3-5.3s-.8-2.1-1.9-2.1-1.8.5-2.6,1.4c-.2.2-.2.2-.3.2s0-.2,0-.3c.7-1.2,2-2.3,3.6-2.3s2.7,1.2,2.7,2.8h0Z"/>
    <path d="M960.5,856.9c0,2-1,5.4-2.6,7.2-1,1.2-2.1,1.9-3,1.9-2.2,0-2.5-2.2-2.5-3.7,0-2,1.1-5.4,2.5-7.1,1.1-1.3,2.1-2,3.2-2,2,0,2.3,2.2,2.3,3.7ZM955.8,855.6c-1.2,2.1-2.2,5.5-2.2,8.1s.3,2,1.2,2c1.5,0,2.4-2.5,3.1-4.1.7-1.7,1.2-4.2,1.2-5.9s-.2-2.2-1-2.2-1.5.8-2.2,2.1h0Z"/>
    <path d="M968.8,856c0,1.5-1.2,2.9-2.3,4-1.3,1.3-3.3,2.9-5.1,4.5,0,0,0,.1,0,.1,1.4,0,4.4,0,5,0,.7,0,1-.3,1.3-.8.3-.4.4-.2.2.2-.2.4-.8,1.4-.9,1.7,0,0-.2.2-.2.2-.5,0-3.9,0-5.1,0s-1,0-1.5,0-.4,0-.4-.2.2-.3.4-.4c.9-.7,2.9-2.4,3.9-3.5,1.8-1.8,3.3-3.3,3.3-5.3s-.8-2.1-1.9-2.1-1.8.5-2.6,1.4c-.2.2-.2.2-.3.2s0-.2,0-.3c.7-1.2,2-2.3,3.6-2.3s2.7,1.2,2.7,2.8h0Z"/>
    <path d="M977.8,856.9c0,2-1,5.4-2.6,7.2-1,1.2-2.1,1.9-3,1.9-2.2,0-2.5-2.2-2.5-3.7,0-2,1.1-5.4,2.5-7.1,1.1-1.3,2.1-2,3.2-2,2,0,2.3,2.2,2.3,3.7ZM973.2,855.6c-1.2,2.1-2.2,5.5-2.2,8.1s.3,2,1.2,2c1.5,0,2.4-2.5,3.1-4.1.7-1.7,1.2-4.2,1.2-5.9s-.2-2.2-1-2.2-1.5.8-2.2,2.1h0Z"/>
  </g>
  <path d="M631.6,404.4v36h-52.8v-36c0-14.6,11.9-26.4,26.4-26.4s26.4,11.9,26.4,26.4ZM619.6,482.5c0-8.1-6.6-14.7-14.7-14.7s-14.7,6.6-14.7,14.7,2.2,8.9,5.7,11.6l-5.7,27.8h29.4l-5.7-27.9c3.4-2.7,5.7-6.9,5.7-11.6h0ZM794.7,452.6c-3.2,7.8-10.8,12.8-19.2,12.8h-28.9v108.4c0,11.5-9.3,20.8-20.8,20.8h-239.8c-11.5,0-20.8-9.3-20.8-20.8v-108.4h-28.9c-8.4,0-16-5.1-19.2-12.8-3.2-7.8-1.4-16.7,4.5-22.7l169.6-169.6c8.1-8.1,21.3-8.1,29.4,0l169.5,169.6c6,6,7.7,14.9,4.5,22.7h0ZM668.2,446.5c0-3.4-2.7-6.1-6.1-6.1h-11.6v-36c0-25-20.3-45.3-45.3-45.3s-45.3,20.3-45.3,45.3v36h-10.1c-3.4,0-6.1,2.7-6.1,6.1v99.8c0,3.4,2.7,6.1,6.1,6.1h112.3c3.4,0,6.1-2.7,6.1-6.1v-99.8h0Z"/>
</svg>