<?xml version="1.0" encoding="UTF-8"?>
<svg id="Layer_1" xmlns="http://www.w3.org/2000/svg" version="1.1" viewBox="0 0 1196.4 941.8">
  <!-- Generator: Adobe Illustrator 29.0.0, SVG Export Plug-In . SVG Version: 2.1.0 Build 186)  -->
  <defs>
    <style>
      .st0 {
        isolation: isolate;
      }

      .st1 {
        fill: #fff;
      }

      .st2 {
        fill: #c73319;
      }
    </style>
  </defs>
  <rect class="st1" width="1196.4" height="941.8"/>
  <g>
    <path d="M880.6,830.4c.5,0,2.1,0,3.2,0s.4.2.5.3c.3.4.9,1,1.8,2,1,1.3,5.1,5.5,6.3,6.7.1,0,.2,0,.2-.1,0-.6,0-3,0-4.8s0-1.7-.1-2.2c0-.4-.2-.9-1.3-1.2-.4,0-.7-.2-.7-.5s.2-.2.6-.2c.5,0,1,0,1.5,0,1,0,1.8,0,2.4,0s.5.1.5.3-.2.3-.5.4c-1.1.4-1.2.7-1.3,1.6,0,.8-.2,6.1-.2,7.8s.1,2.7.1,3.3-.2.4-.3.4c-.4,0-.9-.5-1.1-.8-.4-.5-.8-1-1.4-1.7-2-2.4-5.4-6-7.3-8.2,0-.1-.2,0-.2,0,0,.6,0,1.1,0,2.7,0,2.9,0,4.5,0,5.5,0,.7.3,1,1.3,1.3.4.1.6.3.6.4,0,.2-.3.3-.7.3-.6,0-1.1,0-1.8,0s-1.6,0-2,0-.5,0-.5-.3.2-.3.5-.4c1-.3,1.5-.5,1.5-2,0-2.3.4-6.4.4-7.9s0-1.1-.1-1.2c-.4-.5-.5-.8-1.6-1-.2,0-.5-.2-.5-.4s.2-.3.6-.3h0Z"/>
    <path d="M904.9,839.6c0,1.8-1.1,3.1-1.9,3.6-.9.6-1.9.9-2.9.9s-2.1-.4-2.9-1.1c-.9-.7-1.6-2.1-1.6-3.2s.7-2.6,1.5-3.2c.6-.5,1.8-1.2,3.4-1.2s4.4,1.6,4.4,4.4h0ZM899,836.4c-.5.4-.9,1.4-.9,2.8s0,1.5.2,2c.4,1.5,1.4,2.2,2.3,2.2s.6-.2.9-.5c.4-.5.8-1.7.8-2.9s-.2-2.2-.8-3.2c-.4-.5-.9-.8-1.5-.8s-.7.2-1,.5h0Z"/>
    <path d="M912.2,842.2c0,0,.2-.4.2-.5v-4.7c0-.2-.1-.4-.4-.5-.3,0-.6-.2-.8-.3-.2,0-.3-.2-.3-.4s.2-.2.4-.2c.8,0,2.2-.2,2.8-.3.2,0,.4,0,.5,0s.2.2.2.3c0,.8-.1,6.1-.1,6.8s0,.4.3.4c.2,0,.7-.2,1-.2s.2.5.2.5c0,0-.2.2-.2.2-.6,0-1.7.3-2.1.4-.4,0-1,.3-1.1.3s-.2-.2-.2-.3,0-.5,0-.9c0,0,0-.2-.2-.2-.5.4-1.2.8-1.5.9-.4.2-.7.3-1.3.3-1,0-1.7-.4-2.1-1.1-.2-.2-.2-.8-.2-1.1,0-1.5,0-3.5,0-4.6,0-.6-.4-.7-.7-.9-.2,0-.4-.2-.4-.4s.2-.2.3-.2c.6,0,2.8-.2,2.9-.2s.2.2.2.3c0,1.6,0,4.8,0,5.7s.2.7.4.9c.3.2.8.4,1.2.4s.8-.1,1.3-.5h0Z"/>
    <path d="M917.4,835.9c.4-.2,1.3-.5,1.7-.6s.6-.3.7-.3.2.2.2.3c0,.2,0,.7,0,.9s.1,0,.2,0c.8-.6,1.7-1.1,2.7-1.1s1.6.5,1.9.8c.5.5.8,1.5.8,2.5s0,3.5,0,3.8c0,.3.2.6.7.7.4,0,.5.2.5.4s-.2.3-.6.3-1.3,0-1.9,0-1.4,0-1.7,0-.6,0-.6-.3.2-.3.5-.4c.5-.2.6-.4.6-1.1s0-3.3,0-3.9-.2-1-.5-1.3c-.2-.2-.8-.4-1.2-.4-.7,0-1.1.2-1.4.4,0,0-.2.3-.2.5,0,.4,0,4.9,0,5.1,0,.3,0,.4.7.7.2,0,.4.2.4.4s-.2.3-.6.3-1.2,0-1.6,0c-.8,0-1.6,0-2,0s-.6-.1-.6-.3.2-.3.4-.3c.7-.2.8-.4.9-1.2,0-.6,0-2.3,0-4.4s-.2-.4-.6-.9c-.2-.2-.2-.2-.2-.3,0-.1.2-.4.4-.5h0Z"/>
    <path d="M937.2,831c-.2,0-.5,0-.6.2s-.2.3-.2.8c0,.4,0,3,0,5.4,0,1.9,0,3.3,0,3.8,0,1.3,0,1.7,1.3,2,.4,0,.6.2.6.4s-.4.3-.7.3c-.5,0-1.7,0-2.7,0s-1.6,0-2.3,0-.8,0-.8-.3.3-.3.5-.4c1-.2,1.3-.5,1.4-1.5,0-.8,0-2.2,0-3.3s0-5.4,0-6c0-.7-.2-1.1-1.3-1.2-.3,0-.5-.2-.5-.3,0-.2.2-.3.4-.3.2,0,.5,0,.7,0,1.3,0,3.1-.2,4-.2,2,0,3.4.4,4.2,1.2,1,1,1.2,2.1,1.2,2.8,0,1.7-.8,2.7-1.4,3.2-.5.5-1.7.9-2.5.9s-.8,0-1.1-.2c-.3-.1-.4-.2-.4-.4s.2-.2.3-.2h.3c.9,0,2.2-1,2.2-3.2s-1.1-3.4-2.9-3.4h0Z"/>
    <path d="M944,836c.8-.2,1.7-.6,2.1-.8.2-.2.4-.2.5-.2.1,0,.2.2.2.2,0,.4,0,.8,0,1.2s0,.2.2,0c.7-.7,1.6-1.3,2.2-1.3.9,0,1.2.6,1.2.9s0,.2-.1.3c-.2.4-.9,1.2-1,1.2,0,0-.3,0-.4,0-.2-.2-.9-.6-1.3-.6s-.4,0-.5.1c-.1,0-.2.2-.2.4,0,.4.1,4.1.1,4.4,0,.7.2,1,.5,1.1.2,0,.7.2.9.3.3,0,.4.2.4.3,0,.2-.2.2-.6.2-.6,0-1.7,0-3,0s-.9,0-1.4,0-.5,0-.5-.3.3-.2.5-.3c.8-.3.8-.5.8-1.8v-3.5c0-.4,0-.7-.2-.8-.3-.3-.8-.7-.8-.7s0-.3.3-.4h0Z"/>
    <path d="M960.1,839.6c0,1.8-1.1,3.1-1.9,3.6-.9.6-1.9.9-2.9.9s-2.1-.4-2.9-1.1c-.9-.7-1.6-2.1-1.6-3.2s.7-2.6,1.5-3.2c.6-.5,1.8-1.2,3.4-1.2s4.4,1.6,4.4,4.4h0ZM954.3,836.4c-.5.4-.9,1.4-.9,2.8s0,1.5.2,2c.4,1.5,1.4,2.2,2.3,2.2s.6-.2.9-.5c.4-.5.8-1.7.8-2.9s-.2-2.2-.8-3.2c-.4-.5-.9-.8-1.5-.8s-.7.2-1,.5h0Z"/>
    <path d="M961.8,836.1c.6-.2,1.9-.5,2.5-.8.2,0,.3-.1.4-.1s.2.2.2.3c0,1.1,0,6.8,0,7.3,0,1.5-.3,2.7-.9,3.6-.5.9-1.2,1.7-1.8,2.2-.5.5-1.3.8-1.4.8s-.4,0-.5-.2c0,0,0-.2,0-.2,1-.6,1.2-.9,1.3-1,.6-.7,1-2.4,1-5.1s0-4.4,0-5c0-.3,0-.5-.8-1,0,0-.2-.2-.2-.4s.1-.2.4-.2h0ZM964.8,832.1c0,.9-.8,1.3-1.3,1.3s-1.2-.5-1.2-1.3c0-.4.2-.8.5-1,.2-.2.3-.2.6-.2,1.1,0,1.4.9,1.4,1.3h0Z"/>
    <path d="M973.4,836.1c.5.5.8,1.1.8,1.8s-.2.5-.5.5h-4.6c-.1,0-.2,0-.2.2,0,.2,0,.5,0,.8,0,.5.2,1.4.7,2,.5.7,1.4,1,2.3,1s1.5-.2,1.9-.7c0-.1.2-.2.3-.2s.2.2.2.3,0,.4-.2.5c-.7,1-1.6,1.8-3.4,1.8s-3.9-1.8-3.9-4.2.9-3.4,2.7-4.2c.5-.2,1.2-.4,1.7-.4.8,0,1.7.3,2.2.9h0ZM969.1,837.6c0,0,0,.2.2.2.5,0,1.2,0,2.2,0s.7-.2.7-.7-.6-1.3-1.2-1.3c-.9,0-1.7.8-2,1.8Z"/>
    <path d="M982.7,835.8c.3.2.4.5.4.8s-.7,1-.8,1c-.2,0-.5-.2-1-.5-.6-.5-1-.9-1.7-.9s-.6.1-.9.5c-.5.5-.8,1.6-.8,2.6,0,1.4.6,2.1.7,2.2.4.5,1.2,1.1,2.3,1.1s1.3-.2,2-.7c.1,0,.3,0,.3.2s-.2.5-.3.7c-.7.8-1.9,1.4-3.2,1.4s-2.7-.8-3.3-1.7c-.4-.7-.7-1.6-.7-2.4,0-1.6.8-2.8,2.1-3.7.7-.5,2.1-.9,3-.9s1.7.2,2.1.5h0Z"/>
    <path d="M989.8,835.4c0,0,.3,0,.3.2,0,0,0,.6,0,.9s-.4.2-.5.2h-2c-.1,0-.2,0-.2.2,0,1,0,3,0,4.2s0,.8.3,1,.7.4,1,.4.7-.2.9-.3c.2,0,.3-.2.4-.2s.2,0,.2.3-.2.5-.3.6c-.6.6-1.4,1-2.4,1s-1.6-.4-2-.9c-.2-.4-.4-.7-.4-1.5s0-3.8,0-4.6-.4-.3-.8-.5c-.2,0-.2-.2-.2-.4s0-.1.1-.2c1-.7,1.7-1.2,2.2-1.7.2-.3.4-.5.5-.5.2,0,.4.2.4.4v1c0,0,0,.2.2.2.5,0,2.1,0,2.2,0h0Z"/>
    <path d="M892.6,858c0,2.3-1.1,4.5-2.6,6s-3.3,2.1-4.6,2.1-2.5-.6-3.3-1.7c-.7-.9-1-2-1-3.4s.8-4,2.1-5.6c1.4-1.7,3.3-2.8,5.1-2.8,2.7,0,4.4,2.5,4.4,5.4h0ZM884.6,855.5c-1.1,1.5-2,4.4-2,6.7s1.2,3.4,2.5,3.4,2.4-.4,3.8-2.1c1.2-1.5,2.4-4.6,2.4-6.7s-.4-3.8-2.7-3.8-2.8.9-4,2.5h0Z"/>
    <path d="M900.3,858.6c0,.8-.8,1.7-1.4,2.1-.5.4-1,.7-1.7,1,0,0,0,.1,0,.2.2.9.4,1.9.7,2.5.2.5.4.7.6.7s.8-.3,1.4-1.1c.2-.2.3-.2.2.2-.6,1.2-1.5,1.9-2,1.9s-.8-.4-1.1-1.2c-.2-.5-.5-1.3-.7-1.9-.2-.5-.4-.7-.6-.7s-.4.3-.5.7c-.2.6-.7,1.7-1,2.6-.2.4-.3.5-.4.5-.3,0-.6-.2-.6-.5,0-.2,0-.4.2-.8,1.2-4,3.2-10.2,3.7-12,.2-.5,0-.8-.5-.8-.2,0-.3,0-.3-.2,0,0,.1,0,.2-.1.8-.1,1.5-.2,1.9-.3.1,0,.2,0,.3,0s0,.2,0,.4c-.4,1.3-2.1,6.2-2.8,8.5,0,0,0,.2.1,0,.8-.9,1.5-1.5,2.2-1.9.5-.3,1.1-.5,1.4-.5.5,0,.9.2.9.7h0ZM895.6,861.6c0,.2,0,.3.2.3,1.1,0,3.3-1.8,3.3-2.7s-.2-.5-.5-.5c-.7,0-1.9.6-3,2.9h0Z"/>
    <path d="M905.8,858.3c0,0,.2.2.2.4,0,.3-.4.6-.6.6s-.2,0-.3-.2c-.2-.2-.6-.5-.9-.5s-.9.4-.9,1c0,.5.2,1.1.8,2,.4.7.6,1.4.6,1.9,0,.6-.4,1.3-1.2,1.8-.7.5-1.4.7-1.8.7-.7,0-1.1-.5-1.1-1,0-.2,0-.6.2-.8,0,0,.2,0,.2,0,.3.6.9,1.2,1.6,1.2s1.2-.4,1.1-1.2c0-.4-.2-.9-.6-1.8-.5-1-.7-1.5-.7-1.8,0-.5.3-1.3,1-1.9.5-.5,1.1-.8,1.6-.8s.7.2.8.4h0Z"/>
    <path d="M912.4,858.6s0,0,0,0c.3-.5.4-.6.5-.6.2,0,.4,0,.5.2,0,0,0,.2,0,.3-.2.5-1.5,3.9-2.2,6.1,0,0,0,.2.1.2.5,0,1.2-.6,1.8-1.3.1-.1.2,0,.2,0,0,0,0,.2-.1.3-.5,1-1.8,2.2-2.9,2.2s-.5-.1-.5-.3c0-.3.6-1.7,1.2-3.2,0,0,0-.2,0,0-2.3,2.6-3.8,3.6-4.5,3.6s-.7-.3-.7-.9.4-1.5,1-2.5c.7-1.1,1.8-2.2,2.9-3.1.8-.7,1.8-1.2,2.1-1.2s.3,0,.4.2h0ZM909,860.8c-.8.9-1.7,2.7-1.7,3.7s0,.4.3.4c.4,0,.9-.4,1.5-.9,1.3-1.2,2.3-2.8,2.9-4.4,0,0,0,0,0-.2,0,0-.3-.2-.6-.2-.8,0-1.8.8-2.4,1.5h0Z"/>
    <path d="M917.8,858.8c0,.2-.2.8-.9,2.3,0,.2,0,.2.2,0,.9-1.2,2.7-3.2,4.3-3.2s.7.4.7.8-.1.7-.4,1.3c-.5,1.3-1.5,3.6-1.8,4.3,0,.2,0,.3.1.3.2,0,1.1-.7,1.7-1.3.2-.2.2,0,0,.3-.8,1.3-2.5,2.5-3.2,2.5s-.4-.4-.3-.6c0-.2,2.3-5.1,2.6-6.1.1-.4,0-.7-.3-.7-.5,0-1.3.5-2.6,2.1-1,1.5-1.9,3.2-2.9,4.9,0,.2-.4.2-.7.2s-.2,0-.2-.2c0-.2.1-.5.2-.8.6-1.5,2-4.6,2.3-5.4.2-.3,0-.5-.2-.5s-.8.2-1.2.9c-.1.2-.2,0-.2-.2.2-.5.8-1.7,2-1.7s.7.6.7.9h0Z"/>
    <path d="M929,858.6s0,0,0,0c.3-.5.4-.6.5-.6.2,0,.4,0,.5.2,0,0,0,.2,0,.3-.2.5-1.5,3.9-2.2,6.1,0,0,0,.2.1.2.5,0,1.2-.6,1.8-1.3.1-.1.2,0,.2,0,0,0,0,.2-.1.3-.5,1-1.8,2.2-2.9,2.2s-.5-.1-.5-.3c0-.3.6-1.7,1.2-3.2,0,0,0-.2,0,0-2.3,2.6-3.8,3.6-4.5,3.6s-.7-.3-.7-.9.4-1.5,1-2.5c.7-1.1,1.8-2.2,2.9-3.1.8-.7,1.8-1.2,2.1-1.2s.3,0,.4.2h0ZM925.6,860.8c-.8.9-1.7,2.7-1.7,3.7s0,.4.3.4c.4,0,.9-.4,1.5-.9,1.3-1.2,2.3-2.8,2.9-4.4,0,0,0,0,0-.2,0,0-.3-.2-.6-.2-.8,0-1.8.8-2.4,1.5h0Z"/>
    <path d="M939.5,852.9c.9,0,1.2,0,1.9,0s.4.3,0,.3c-.9,0-1,.2-1.4,1.2-.4,1-3,8.5-3.5,10.2,0,.4,0,.7.3.8.2,0,1.3.1,2.3.1,2.2,0,2.6,0,3.2-.4.5-.3,1-.8,1.4-1.6.2-.5.4-.5.2,0-.2.7-.8,1.7-1.1,2-.1.2-.3.3-.4.3-.3,0-.5,0-1,0-1.2,0-4.5-.2-5.8-.2s-1.9,0-2.3,0-.4-.2,0-.3c1-.1,1.3-.2,1.8-1.5.5-1.3,2.8-8,3.2-9.3.3-1.2.3-1.4-.7-1.5-.5,0-.4-.3,0-.3.6,0,1.1,0,1.8,0h0Z"/>
    <path d="M951.2,858.6s0,0,.1,0c.3-.5.4-.6.5-.6.2,0,.4,0,.5.2,0,0,0,.2,0,.3-.2.5-1.5,3.9-2.2,6.1,0,0,0,.2.1.2.5,0,1.2-.6,1.8-1.3.1-.1.2,0,.2,0,0,0,0,.2-.1.3-.5,1-1.8,2.2-2.9,2.2s-.5-.1-.5-.3c0-.3.6-1.7,1.2-3.2,0,0,0-.2,0,0-2.3,2.6-3.8,3.6-4.5,3.6s-.7-.3-.7-.9.4-1.5,1-2.5c.7-1.1,1.8-2.2,2.9-3.1.8-.7,1.8-1.2,2.1-1.2s.3,0,.4.2h0ZM947.8,860.8c-.8.9-1.7,2.7-1.7,3.7s0,.4.3.4c.4,0,.9-.4,1.5-.9,1.3-1.2,2.3-2.8,2.9-4.4,0,0,0,0,0-.2,0,0-.3-.2-.6-.2-.8,0-1.8.8-2.4,1.5h0Z"/>
    <path d="M956.7,858.7c0,0-.2.2-.2.3-.2.7-1.2,3.5-1.8,5.3,0,.2,0,.3,0,.3.2,0,.9-.4,1.6-1.2.4-.4.2,0,.1.2-.8,1.2-2.2,2.3-2.9,2.3s-.4-.2-.4-.5.1-.7.2-1c.2-.7,1.2-3.7,1.9-5.6,0,0,0-.2,0-.2-.3,0-.6,0-.8,0-.2,0-.2,0-.2,0,0,0,.2-.2.3-.2,0,0,.4,0,.9,0,0,0,.1,0,.2-.2.2-.4.5-1.2.8-1.5.1-.2.5-.4.9-.4s.1.2,0,.4c-.2.6-.3,1.2-.5,1.5,0,0,0,.1,0,.1.4,0,1,0,1.6,0s.2,0,.2,0,0,.2-.5.3c-.4,0-1.2,0-1.4,0h0Z"/>
    <path d="M961.7,859.1c.3.8.3,2,.3,3.1s0,1.8-.2,2.7c0,.3,0,.2.2,0,1.1-2.2,2.1-5.6,2.1-6.8,0,0,.1-.2.2-.2.3,0,.5.5.5.8,0,1.3-1.8,5.1-2.5,6.5-.4.8-.8,1.3-.9,1.5-.8,1.4-2.2,3.1-3.1,3.8-1.1.9-1.8,1.1-2.4,1.1s-1-.3-1-.9.4-.9.7-.9.2,0,.3.3c.2.4.4.7.8.7.7,0,1.3-.4,2.1-1.3.6-.8,1.3-1.7,1.9-3.7.4-1.9.5-4.5,0-6.1-.2-.6-.4-.8-.7-.8-.5,0-.9.9-1,1.3-.1.4-.2.3-.2,0,0-1.1.9-2.3,1.8-2.3s1,.5,1.2,1.2h0Z"/>
    <path d="M969.9,858.3c0,0,.2.2.2.4,0,.3-.4.6-.6.6s-.2,0-.3-.2c-.2-.2-.6-.5-.9-.5s-.9.4-.9,1c0,.5.2,1.1.8,2,.4.7.6,1.4.6,1.9,0,.6-.4,1.3-1.2,1.8-.7.5-1.4.7-1.8.7-.7,0-1.1-.5-1.1-1,0-.2,0-.6.2-.8,0,0,.2,0,.2,0,.3.6.9,1.2,1.6,1.2s1.2-.4,1.1-1.2c0-.4-.2-.9-.6-1.8-.5-1-.7-1.5-.7-1.8,0-.5.3-1.3,1-1.9.5-.5,1.1-.8,1.6-.8s.7.2.8.4h0Z"/>
    <path d="M977.8,859.5c0,1.8-1.2,4.3-1.9,5.1-.3.4-.6.6-.9.8-.3.2-1.2.7-1.5.7s-.5-.2-.5-.4.1-.4.3-.6c0,0,.1,0,.2,0,.4.2.6.4.8.4s.5-.3.7-.6c.7-1.2,1.6-4,1.6-5.2s-.2-.9-.6-.9c-.8,0-1.9,1.2-2.9,2.8-.9,1.5-1.7,3.4-2,4-.2.3-.3.4-.4.4-.2,0-.5-.1-.5-.2,0-.1,0-.3,0-.4.9-3,3.2-11.4,3.5-12.4.1-.6,0-.7-.6-1-.2,0-.2-.1-.2-.2s0,0,.3,0c.7,0,1.5-.2,1.8-.3.2,0,.2,0,.3,0,.1,0,.2.2,0,.6-.4,1.2-1.9,6.2-2.9,9.7,0,.1,0,.2.2,0,.8-1.2,1.8-2.3,2.8-3,.8-.6,1.3-.6,1.6-.6.8,0,1,.9,1,1.5h0Z"/>
    <path d="M984.4,859c0,.4-.3,1.1-1,1.6-.8.6-2,1-2.9,1.1,0,0-.2.1-.2.2-.2.5-.4,1.5-.4,2.2s0,1,.9,1,1.3-.5,1.8-1.1c0,0,.2-.2.2,0,0,0,0,.2-.2.6-.5.9-1.4,1.6-2.5,1.6s-1.4-.8-1.4-2,.8-3.1,1.4-4c.9-1.2,2.2-2.1,3.2-2.1s1.2.5,1.2,1h0ZM980.5,861.3c0,0,0,0,.1,0,1.2-.2,3-1.7,3-2.6s-.2-.6-.4-.6c-.9,0-2,1.3-2.7,3.1Z"/>
    <path d="M988.1,858.4c0,.2,0,.7-.2,1.2-.4,1.1-1.5,3.8-1.7,4.5-.2.6,0,1,.5,1,1.5,0,3.6-3.2,3.6-5.1,0-.5,0-.7-.3-1.1,0,0,0-.2,0-.3,0-.3.4-.7.8-.7s.5.4.5,1.1c0,1.7-1.3,3.9-2.3,5.1-.7.8-1.5,1.4-2.1,1.7-.4.2-.8.3-1,.3-.4,0-.8-.4-.8-1.1,0-.3.2-1,.3-1.4.3-.9,1.1-3,1.6-4,0-.2,0-.4,0-.4-.3,0-1,.6-1.5,1.1-.3.3-.2,0-.1-.2.3-.7,1.6-1.9,2.5-1.9s.3.2.4.4h0Z"/>
    <path d="M997.5,858.6s0,0,.1,0c.3-.5.4-.6.5-.6.2,0,.4,0,.5.2,0,0,0,.2,0,.3-.2.5-1.5,3.9-2.2,6.1,0,0,0,.2.1.2.5,0,1.2-.6,1.8-1.3.1-.1.2,0,.2,0,0,0,0,.2-.1.3-.5,1-1.8,2.2-2.9,2.2s-.5-.1-.5-.3c0-.3.6-1.7,1.2-3.2,0,0,0-.2,0,0-2.3,2.6-3.8,3.6-4.5,3.6s-.7-.3-.7-.9.4-1.5,1-2.5c.7-1.1,1.8-2.2,2.9-3.1.8-.7,1.8-1.2,2.1-1.2s.3,0,.4.2h0ZM994.1,860.8c-.8.9-1.7,2.7-1.7,3.7s0,.4.3.4c.4,0,.9-.4,1.5-.9,1.3-1.2,2.3-2.8,2.9-4.4,0,0,0,0,0-.2,0,0-.3-.2-.6-.2-.8,0-1.8.8-2.4,1.5h0Z"/>
    <path d="M1000.9,865.2c0,1.6-2,2.5-2.4,2.6-.3,0-.2,0,0-.2.8-.4,1.6-1.1,1.6-1.8s-.3-.6-.7-.7c-.1,0-.2-.2-.2-.2,0-.4.4-.8.8-.8.8,0,.9.7.9,1.2h0Z"/>
    <path d="M1014.2,856c0,1.5-1.2,2.9-2.3,4-1.3,1.3-3.3,2.9-5.1,4.5,0,0,0,.1,0,.1,1.4,0,4.4,0,5,0,.7,0,1-.3,1.3-.8.3-.4.4-.2.2.2-.2.4-.8,1.4-.9,1.7,0,0-.2.2-.2.2-.5,0-3.9,0-5.1,0s-1,0-1.5,0-.4,0-.4-.2.2-.3.4-.4c.9-.7,2.9-2.4,3.9-3.5,1.8-1.8,3.3-3.3,3.3-5.3s-.8-2.1-1.9-2.1-1.8.5-2.6,1.4c-.2.2-.2.2-.3.2s0-.2,0-.3c.7-1.2,2-2.3,3.6-2.3s2.7,1.2,2.7,2.8h0Z"/>
    <path d="M1023.3,856.9c0,2-1,5.4-2.6,7.2-1,1.2-2.1,1.9-3,1.9-2.2,0-2.5-2.2-2.5-3.7,0-2,1.1-5.4,2.5-7.1,1.1-1.3,2.1-2,3.2-2,2,0,2.3,2.2,2.3,3.7ZM1018.6,855.6c-1.2,2.1-2.2,5.5-2.2,8.1s.3,2,1.2,2c1.5,0,2.4-2.5,3.1-4.1.7-1.7,1.2-4.2,1.2-5.9s-.2-2.2-1-2.2-1.5.8-2.2,2.1h0Z"/>
    <path d="M1030.6,853.4c0,.2-.3.9-.8,2.3-.4,1.5-1.8,5.8-2.3,7.9-.5,1.7-.3,1.8.9,1.9.4,0,.5.3,0,.3s-1.3,0-1.9,0c-1,0-1.5,0-2.3,0s-.4-.2,0-.3c1.2-.2,1.3-.2,1.8-1.5.2-.7.8-2.5,1.8-5.7.6-2,.9-2.9,1.1-3.5.2-.5.2-.7-.1-.7-.2,0-.7,0-1,0s-.4-.2,0-.2c1,0,1.8-.3,2.4-.5.2,0,.4-.2.5-.2s.1,0,0,.2h0Z"/>
    <path d="M1042.2,853.5c0,0-.1.4-.5,1-2.3,3.2-6.9,9.8-8.2,11.6-.2.2-.2.3-.3.3s-.2-.2-.2-.2.2-.4.2-.5c2.8-3.9,5.3-7.4,7.8-10.9,0,0,0,0,0,0-.3,0-.9,0-1.6,0-1.3,0-3.2,0-3.8,0-.7,0-1.1.4-1.4.9,0,.2-.2.2-.2,0,0,0,0-.3.1-.5,0-.2.6-1.4.9-1.7,0,0,.2-.1.2-.2.2,0,.7,0,2.9,0s3.4,0,3.9,0,.2,0,.2,0h0Z"/>
  </g>
  <g class="st0">
    <g class="st0">
      <path class="st2" d="M574.7,689.1c-1.1,0-2.1-.2-3-.6-.9-.4-1.7-.9-2.4-1.7-.7-.7-1.2-1.6-1.5-2.6-.4-1-.5-2.1-.5-3.2s.2-2.2.6-3.1.9-1.8,1.6-2.5,1.5-1.3,2.4-1.7c.9-.4,1.9-.6,3-.6s1.5.1,2.2.3c.7.2,1.4.5,2,1,.6.4,1.1.9,1.4,1.4l-1.6,1.7c-.4-.4-.9-.8-1.3-1.1-.4-.3-.9-.5-1.3-.7s-.9-.2-1.4-.2c-.7,0-1.4.1-2,.4s-1.2.7-1.6,1.1c-.5.5-.8,1.1-1.1,1.7-.3.7-.4,1.4-.4,2.2s.1,1.6.4,2.3c.3.7.6,1.3,1.1,1.8.5.5,1,.9,1.7,1.1.7.3,1.4.4,2.2.4s1,0,1.4-.2c.5-.1.9-.3,1.3-.6s.8-.5,1.1-.9l1.2,2c-.3.4-.8.8-1.4,1.1-.6.3-1.2.6-2,.8-.7.2-1.4.3-2.2.3Z"/>
      <path class="st2" d="M583.2,688.9l6-15.6h2.5l6,15.6h-2.6l-3.6-9.4c0-.1-.1-.4-.3-.8-.1-.4-.3-.8-.4-1.3s-.3-.9-.4-1.3c-.1-.4-.2-.7-.3-.8h.5c0,.2-.2.5-.3.9-.1.4-.3.8-.4,1.2-.1.4-.3.8-.4,1.2-.1.4-.2.7-.3.9l-3.5,9.3h-2.5ZM585.9,685l.9-2.3h7.1l1,2.3h-9Z"/>
      <path class="st2" d="M601.8,688.9v-15.6h6.6c.9,0,1.7.2,2.5.7s1.3,1,1.8,1.8c.4.8.7,1.6.7,2.5s-.2,1.6-.7,2.4c-.4.7-1,1.3-1.8,1.7-.7.4-1.6.7-2.5.7h-4.2v5.9h-2.4ZM604.2,680.7h4.5c.4,0,.8-.1,1.2-.3.3-.2.6-.5.8-.9.2-.4.3-.8.3-1.3s-.1-1-.4-1.4c-.2-.4-.6-.7-1-.9-.4-.2-.9-.3-1.5-.3h-3.8v5.1ZM611,688.9l-4-7,2.5-.6,4.4,7.6h-2.9Z"/>
      <path class="st2" d="M618.6,688.9v-15.6h9.8v2.3h-7.4v11h7.4v2.3h-9.8ZM619.7,682v-2.3h7.5v2.3h-7.5Z"/>
    </g>
  </g>
  <g>
    <path d="M616,417.5l.7-.7.7.7,77.3-77.3c21.3-21.4,21.3-56,0-77.3-10.7-10.7-24.7-16-38.7-16s-28,5.3-38.7,16l-.7.7-.7-.7c-10.7-10.7-24.7-16-38.7-16s-28,5.3-38.7,16c-21.3,21.4-21.3,56,0,77.3l77.3,77.3h0ZM606.2,272.6l.7.7,9.8,9.8,9.8-9.8.7-.7c7.7-7.7,18-12,28.9-12s21.2,4.2,28.9,12c7.7,7.7,12,18,12,28.9s-4.2,21.2-12,28.9l-67.6,67.6-.7-.7-.7.7-67.6-67.6c-15.9-15.9-15.9-41.9,0-57.8,7.7-7.7,18-12,28.9-12s21.2,4.2,28.9,12h0Z"/>
    <path d="M447.4,615.5c3.3,0,6.7-1.1,9.5-3.2l54.9-42c4,.6,8.1.7,12.5.7h121.7c3.4,0,6.9,0,10.4-.4,2.5-.3,4.6-1.9,5.5-4,2.3-1.3,4.5-2.9,6.5-4.8l110.7-110.7c6.7-6.7,10.2-15.9,9.8-25.4-.5-9.5-4.9-18.4-12.2-24.4-13.2-10.9-33.5-9.5-46.3,3.2l-49.6,49.6c-4.6-2.8-9.9-4.3-15.2-4.3h0c-1,0-24.4-1-30-1-3.9,0-8,.1-12.1.2-20.4.4-41.5.8-60.6-4.1-4.4-1.1-8.5-2.4-12.6-3.5-20.4-5.9-39.6-11.5-64.2-3-21.5,7.4-42,21.8-64.5,45.3l-42.1,38.2c-6.2,5.6-6.8,15.4-1.3,21.7l57.3,66.7c3.1,3.6,7.4,5.4,11.8,5.4h0ZM388.9,531.9l42.3-38.4c.1-.1.2-.2.4-.4,20.9-21.9,39.7-35.3,59.1-41.9,20.5-7.1,36.1-2.5,55.9,3.2,4.2,1.2,8.5,2.5,13,3.6,20.9,5.4,44,5,64.4,4.6,4,0,8-.2,11.9-.2,5.2-.1,29,1,29.5,1,4.4,0,8.6,1.7,11.8,4.9s4.9,7.4,4.9,11.8c0,9.2-7.5,16.7-16.7,16.7h-107.8c-3.2,0-6,2.2-6.7,5.3-.2,1-.5,2.4-.5,4.3,0,3.8,3.1,6.8,6.9,6.8s4.1-1,5.4-2.6h102.8c16.8,0,30.5-13.7,30.5-30.5s-1.7-11.7-5-16.6l49.4-49.4c7.7-7.7,19.9-8.8,27.7-2.3,4.4,3.6,6.9,8.7,7.2,14.4.3,5.6-1.8,11.1-5.8,15l-110.7,110.7c-3.3,3.3-8.1,4.6-12.6,3.9v1.2h-121.8c-4.7,0-9,0-12.7-.9-2-.5-4.1,0-5.8,1.2l-57.3,43.9c-.8.6-1.9.5-2.5-.2l-57.3-66.7c-.6-.7-.6-1.8.1-2.5h0Z"/>
  </g>
</svg>