<?xml version="1.0" encoding="UTF-8"?>
<svg id="ccn-pictogram" xmlns="http://www.w3.org/2000/svg"
     version="1.1" viewBox="0 0 195.2 190.1" role="img"
     aria-labelledby="title desc" lang="en-NZ" style="font-size:12px">
  <title id="title">People with Complex Communication Needs (CCN)</title>
  <desc id="desc">
    Human head in right profile with an inner tangle, several question marks,
    a speech bubble near the mouth, and an open circular frame.
  </desc>

  <defs>
    <style>
      /* Canonical stroke: typographic, homogeneous */
      .line {fill: none; stroke: #000; stroke-width: .5ex;
        stroke-linecap: round; stroke-linejoin: round;
        vector-effect: non-scaling-stroke;
      }

      /* High-contrast when the SVG itself carries class="hc" */
      svg.hc .line { stroke: CanvasText; }

      /* System forced colours */
      @media (forced-colors: active) {
        .line { stroke: CanvasText; }
      }
    </style>
  </defs>

  <!-- 1) FRAME (context ring, split in two arcs in your drawing) -->
  <g id="g-frame" class="line" role="group" aria-label="Open circular frame">
    <!-- Path indices refer to your original file for traceability -->
    <path id="frame-outer-1" d="M173.9,105.8c.8-5.2.9-10.5.7-15.8-.1-3.6-.4-7.3-1.2-10.8-.4-2-.7-4-1.3-5.9-.8-2.8-1.7-5.6-2.7-8.4-1.2-3.3-2.6-6.6-4.3-9.6-2.2-3.9-4.5-7.7-7.3-11.2-1.5-1.8-2.9-3.7-4.5-5.4-1.4-1.5-2.9-2.9-4.4-4.4-1.5-1.4-2.9-2.7-4.4-4-3-2.6-6.3-4.9-9.6-6.9-3.3-2-6.8-3.8-10.3-5.3-5-2.1-10-3.8-15.2-4.7-2.3-.4-4.7-.8-7-1.1-4.3-.7-8.5-.7-12.8-.5-3.5.1-7.1.6-10.6,1.2-3.7.7-7.3,1.7-10.9,2.7"/>
    <path id="frame-outer-2" d="M21.9,138.1c.8,1.3.5.8,1.1,1.8,2.6,4.1,5.3,8,8.5,11.6,2.5,2.9,5.2,5.6,8.1,7.9,2.7,2.1,5.3,4.3,8.1,6.2,3.7,2.5,7.6,4.6,11.6,6.4,3.5,1.5,7,2.8,10.6,3.9,4.8,1.5,9.7,2.4,14.6,3,1.8.2,3.6.3,5.4.4,1.9,0,3.7.1,5.6,0,4.3,0,8.5-.5,12.7-1.2,4.7-.8,9.3-2,13.7-3.7,3.5-1.3,6.9-2.7,10.1-4.6"/>
  </g>

  <!-- 2) SPEECH BUBBLE -->
  <g id="g-bubble" class="line" role="group" aria-label="Speech bubble">
    <path id="bubble" d="M105.7,142.2c1.1,1.3,3.7,3.9,4.6,4.7,1.1,1.1,2.2,2.1,3.3,3.2.9.9,1.8,1.9,2.7,2.9.3.4.6,1,.6,1.6.2,2.7,1.4,4.8,3.4,6.3,1.8,1.3,3.8,1.8,5.9,1.8,15.8,0,31.6,0,47.3,0,3.4,0,6.1-1.8,7.7-5.3.5-1,.7-2.3.7-3.5,0-9.5,0-19,0-28.6,0-3.2-1.5-5.6-3.9-7.3-1.6-1.1-3.4-1.5-5.2-1.5-15.7,0-31.4,0-47.1,0-3.6,0-6.5,1.5-8.1,5.2-.4,1-.7,2.2-.7,3.3,0,4.9,0,9.8,0,14.7s-1.2,3.6-3.1,3.5c-2.8-.1-5.5-.2-8-1Z"/>
  </g>

  <!-- 3) HEAD + TANGLE (kept as drawn; paths marked for later fine sorting) -->
  <!-- HEAD (container only; not interactive) -->
<g id="g-head"
   class="line"
   role="group"
   aria-label="Head in profile with internal tangle"
   data-scope="container"
   style="pointer-events:none">

  <!-- 1A) PROFILE (cheek/jaw/forehead/neck) -->
  <g id="g-head-profile" role="group" aria-label="Head profile" style="pointer-events:auto">
    <path id="p-cheek-chin"
          d="M71.4,65.3c11.8,3.7,10.4,13.9,3.7,22.5-3.5,4-7.9,6.2-12.7,7.8-4.6,1.6-9.4,2.2-14.2,1.9-1.5,0-3-.4-4.4-.8-.9-.2-1.6-.9-2-1.9-.2-.4-.4-.6-.7-.8-.6-.4-1.2-.8-1.8-1.3-.1-.1-.3-.4-.2-.6.2-1.7.4-3.5.9-5.1,1.6-4.8,5.5-9,6.7-14.2"/>
    <path id="p-forehead"
          d="M30.5,55.7c-1.8.4-3.1,1.6-4.3,3.1-1.3,1.8-2.2,3.8-2.3,6.1,0,2.4.5,4.6,1.9,6.5,1.1,1.4,2.3,2.7,3.4,4,.3.3,1.1.3,1.3,0,.9-1.7,2.5-2.1,4-2.5,3.7-1.1,7.5.4,10.9-.8"/>
    <path id="p-cheek-jaw"
          d="M29.4,75.7c-1.6,2.1-2.5,4.5-2.2,7.2.2,2,.9,3.8,2.1,5.3,1.8,2.4,4.2,3.8,6.9,4.5,1,.3,1.9.2,2.9-.2"/>
    <path id="p-neck"
          d="M29.2,136.3c.4-1.4.8-2.8,1.3-4.2,1.4-3.8,1.7-7.9,1.5-11.9,0-1.6-.4-3.2-.9-4.6-1.4-4-3.7-7.4-6.2-10.7-2.3-2.9-4.2-5.9-6-9.2-2-3.9-3.4-8.1-4.5-12.4-.8-3.1-1-6.3-1.1-9.4,0-2,0-4.1.2-6.1.2-2.1.4-4.3.9-6.4.6-2.6,1.5-5.1,2.3-7.7,1.3-3.7,3.2-7.1,5.4-10.2,2.8-4,6.2-7.3,10.1-10,4-2.7,8.3-4.7,12.8-6,2.8-.8,5.7-1.5,8.6-1.7,2-.1,4-.5,5.9-.5,3.2-.1,6.4,0,9.6.5,1.7.3,3.5.4,5.2.8,3.3.7,6.5,1.6,9.6,2.8,4.1,1.6,7.8,3.8,11.3,6.7,1.8,1.5,3.3,3.2,4.9,5,3.3,3.8,5.6,8.2,7.1,13.2.8,2.6,1.4,5.3,1.9,8,.4,2.3.6,4.7.7,7.1,0,2.1-.5,4.2-.6,6.3-.1,2.3,0,4.5,1.2,6.6,1.7,2.8,3.4,5.7,5,8.5,1.1,1.8,2.2,3.6,3.2,5.5.9,1.7.4,4-1,5.1-.6.5-1.4.8-2.2,1-1.3.4-2.6.6-3.9,1-1.2.4-1.5,1-1.5,2.3,0,.6,0,1.2.2,1.8.1.9.2,1.9.3,2.8l-.2.7c-.6,1.7-1.8,2-3.3,2.3-1.2.3-4.7.7-5.4,2,.1,0,.2,0,.3,0,1.5,0,2.8.8,4.4,2.1s.8,3.1-.5,4.5c-.4.5-.9.9-1.4,1.3-1,.8-1.3,1.9-1.3,3.2,0,1.7,0,3.5-.3,5.2-.4,2.7-2.1,4.3-4.3,5.3-2.2.9-4.4.8-6.7.4-2.9-.6-5.8-1.2-8.7-1.7-1.2-.2-2.3-.5-3.5-.5-2.8-.1-4.8,1.3-6.1,4-1.7,3.3-3,6.8-4.1,10.4-.8,2.9-1.5,5.8-1.9,8.8,0,.8.2,1.3.5,1.9"/>
    <!-- (Optional context stroke near temple/ear; it reads as contour) -->
    <path id="p-temple"
          d="M125.8,50.9c-.2-3.2,1.6-5.1,3.6-7,1.3-1.2,2.6-2.3,3.3-4.1,1-2.3.6-5.8-1.7-7.6-1.5-1.2-3-1.9-4.8-1.8-2.8.1-5.5,1.6-6.6,4.9-.3.8-.2.5-.4,1.1"/>
  </g>

  <!-- 1B) EYE (placeholder; add your path/circle here when you draw it) -->
  <g id="g-eye" role="group" aria-label="Eye" style="pointer-events:auto">
    <!-- Intentionally empty: add <path id="p-eye" d="..."/> later -->
  </g>

  <!-- 1C) BRAIN / TANGLE -->
  <g id="g-brain" role="group" aria-label="Internal tangle" style="pointer-events:auto">
    <path id="t-1" d="M80.6,73.6c1,0,1.9-.5,2.7-1.1..."/>
    <path id="t-2" d="M70.9,64.6c5-7,11.3-10.8,9.8-20.4..."/>
    <path id="t-3" d="M62.6,41.8c-.8-1-1.5-2.1-2.4-3..."/>
    <path id="t-4" d="M62.4,43.2c1.5,5.6,3.5,11,5.8,16.2..."/>
    <path id="t-5" d="M42.8,43.2c-2.2-1.5-4.8-1.4-7.2-.3..."/>
    <path id="t-6" d="M80.6,49.8c-5.1-1.6-10.4-1.7-15.5,0"/>
    <path id="t-7" d="M70.4,79.3c-5-.9-10.2-1-15.2-2.3"/>
    <path id="t-8" d="M68.3,64c-2.9,3.7-6.9,8-11.8,8.2"/>
    <path id="t-9" d="M60.1,59.1c-1.4,2.6-2.4,5.4-3,8.3..."/>
    <path id="t-10" d="M43.7,42.9c7.7,5.4,17.1,10.6,6.2,18.5"/>
    <path id="t-11" d="M30.5,75.6c1.3,1.9,3.3,2.9,5,4,1.9,1.2,3.8,2.4,5.7,3.5"/>
    <path id="t-12" d="M31.2,54.4c1.4-.4,2.7-.9,4.1-1.1..."/>
    <path id="t-13" d="M47.5,72.4c3.6-7.7,2.6-16.1-6.4-18.9"/>
    <path id="t-14" d="M42.2,82.9c2.6,1.9,5.9,2.4,8.6,4"/>
    <path id="t-15" d="M66.5,61.5c-4.8,0-7.2-4.4-10.9-6.7"/>
  </g>

  <!-- 1D) MOUTH / GESTURE (kept separate so it can be toggled) -->
  <g id="g-mouth" role="group" aria-label="Mouth gesture" style="pointer-events:auto">
    <path id="p-mouth"
          d="M103.5,76.4c-2.3.3-7.5,2.7-8.4,3.1,0,0,4.3-2.1,4,.2s-4-.2-4-.2c0,.9,6.8,2.9,6.8,3.7,0,.4,0,1.3,0,1.7"/>
  </g>
</g>

  <!-- 4) QUESTION MARKS (three clusters + dots) -->
  <g id="g-queries" class="line" role="group" aria-label="Question marks">
    <path id="qm-1-curve" d="M147.5,69.2c-.2-3.2,1.6-5.1,3.6-7,1.3-1.2,2.6-2.3,3.3-4.1,1-2.3.6-5.8-1.7-7.6-1.5-1.2-3-1.9-4.8-1.8-2.8.1-5.5,1.6-6.6,4.9-.3.8-.2.5-.4,1.1"/>
    <path id="qm-1-dot"   d="M148.3,74.4c.1.6.1.8.1.8"/>
    <path id="qm-2-curve" d="M131.7,94.1c-.2-2.6,1.3-4.1,2.8-5.6,1-1,2.1-1.9,2.7-3.3.8-1.9.5-4.6-1.3-6.1-1.2-.9-2.4-1.5-3.8-1.4-2.2,0-4.4,1.3-5.3,3.9-.2.6-.1.4-.3.9"/>
    <path id="qm-2-dot"   d="M132.3,98.2c0,.5.1.7.1.7"/>
    <path id="qm-3-curve" d="M155.4,101.5c0-2.3,1.4-3.6,3-4.9,1-.8,2.1-1.6,2.8-2.8.8-1.6.7-4.1-1.1-5.5-1.1-.9-2.3-1.4-3.7-1.4-2.2,0-4.4,1-5.4,3.2-.2.5-.2.4-.3.8"/>
    <path id="qm-3-dot"   d="M155.8,105.2c0,.5,0,.6,0,.6"/>
    <!-- Small ticks from your source, retained -->
    <path id="qm-aux-1" d="M126.5,56.1c.1.6.1.8.1.8"/>
  </g>

</svg>