<?xml version="1.0" encoding="UTF-8"?>
<svg id="Capa_1" xmlns="http://www.w3.org/2000/svg" version="1.1" viewBox="0 0 512 640">
  <!-- Generator: Adobe Illustrator 29.8.2, SVG Export Plug-In . SVG Version: 2.1.1 Build 3)  -->
  <path d="M35.3,155.3h19.9c3.1,0,5.5-2.5,5.5-5.5v-83.4c0-3.1,2.5-5.5,5.5-5.5h83.4c3.1,0,5.5-2.5,5.5-5.5v-19.9c0-3.1-2.5-5.5-5.5-5.5H56.2c-14.6,0-26.4,11.8-26.4,26.4v93.6c0,3.1,2.5,5.5,5.5,5.5h0Z"/>
  <path d="M149.8,451.2h-83.4c-3.1,0-5.5-2.5-5.5-5.5v-83.4c0-3.1-2.5-5.5-5.5-5.5h-19.9c-3.1,0-5.5,2.5-5.5,5.5v93.6c0,14.6,11.8,26.4,26.4,26.4h93.6c3.1,0,5.5-2.5,5.5-5.5v-19.9c0-3.1-2.5-5.5-5.5-5.5Z"/>
  <path d="M362.2,60.8h83.4c3.1,0,5.5,2.5,5.5,5.5v83.4c0,3.1,2.5,5.5,5.5,5.5h19.9c3.1,0,5.5-2.5,5.5-5.5V56.2c0-14.6-11.8-26.4-26.4-26.4h-93.6c-3.1,0-5.5,2.5-5.5,5.5v19.9c0,3.1,2.5,5.5,5.5,5.5h0Z"/>
  <path d="M476.7,356.7h-19.9c-3.1,0-5.5,2.5-5.5,5.5v83.4c0,3.1-2.5,5.5-5.5,5.5h-83.4c-3.1,0-5.5,2.5-5.5,5.5v19.9c0,3.1,2.5,5.5,5.5,5.5h93.6c14.6,0,26.4-11.8,26.4-26.4v-93.6c0-3.1-2.5-5.5-5.5-5.5Z"/>
  <path d="M256,59.4c1.9,0,3.5-1.6,3.5-3.5V16c0-1.9-1.6-3.5-3.5-3.5s-3.5,1.6-3.5,3.5v39.9c0,1.9,1.6,3.5,3.5,3.5Z"/>
  <path d="M256,452.6c-1.9,0-3.5,1.6-3.5,3.5v39.9c0,1.9,1.6,3.5,3.5,3.5s3.5-1.6,3.5-3.5v-39.9c0-1.9-1.6-3.5-3.5-3.5Z"/>
  <path d="M496,252.5h-39.9c-1.9,0-3.5,1.6-3.5,3.5s1.6,3.5,3.5,3.5h39.9c1.9,0,3.5-1.6,3.5-3.5s-1.6-3.5-3.5-3.5Z"/>
  <path d="M59.4,256c0-1.9-1.6-3.5-3.5-3.5H16c-1.9,0-3.5,1.6-3.5,3.5s1.6,3.5,3.5,3.5h39.9c1.9,0,3.5-1.6,3.5-3.5Z"/>
  <path d="M16,226.2h72c-1.7,9.8-2.6,19.8-2.6,29.8,0,94.1,76.5,170.6,170.6,170.6s170.6-76.5,170.6-170.6-.9-20-2.6-29.8h72c1.9,0,3.5-1.6,3.5-3.5s-1.6-3.5-3.5-3.5h-119.2c-7.7-25.2-23.5-47.9-44.6-63.9-22.1-16.7-48.4-25.6-76.2-25.6s-54.1,8.9-76.2,25.6c-21.1,16-36.9,38.7-44.6,63.9h-38.7c8.1-35.1,27.8-66.9,55.8-89.8,29.1-23.9,65.9-37,103.6-37s69.4,11.2,97.8,32.4c27.5,20.5,48.2,49.7,58.4,82.3.6,1.8,2.5,2.9,4.4,2.3,1.8-.6,2.9-2.5,2.3-4.4-10.6-33.9-32.2-64.4-60.9-85.8-29.6-22.1-64.9-33.8-102-33.8s-77.7,13.7-108.1,38.6c-29.6,24.3-50.4,58.1-58.6,95.3H16c-1.9,0-3.5,1.6-3.5,3.5s1.6,3.5,3.5,3.5h0ZM184,160.9c20.9-15.8,45.7-24.2,72-24.2s51.1,8.4,72,24.2c19.4,14.7,34,35.3,41.5,58.3h-226.9c7.5-23,22.1-43.6,41.5-58.3ZM300.4,281.4c-8.8,15.4-25.4,25.7-44.4,25.7-28.2,0-51.2-23-51.2-51.2s1.9-16,5.5-23.1c6.6,32.3,35.1,56.5,69.3,56.5s.2,0,.2,0c7.9,0,15.1-3.1,20.6-8ZM95.1,226.2h110.9c-5.4,9-8.2,19.2-8.2,29.8,0,32.1,26.1,58.2,58.2,58.2s58.2-26.1,58.2-58.2-2.8-20.8-8.2-29.8h65.5c2.5,9.7,3.8,19.7,3.8,29.8,0,65.8-53.5,119.2-119.2,119.2s-119.2-53.5-119.2-119.2.5-12.8,1.5-19.1c.3-1.9-1-3.7-2.9-4-1.9-.3-3.7,1-4,2.9-1.1,6.6-1.6,13.4-1.6,20.2,0,69.6,56.6,126.2,126.2,126.2s126.2-56.6,126.2-126.2-1.2-20.1-3.6-29.8h38.2c1.8,9.8,2.7,19.8,2.7,29.8,0,90.2-73.4,163.6-163.6,163.6s-163.6-73.4-163.6-163.6.9-20,2.7-29.8Z"/>
</svg>