<?xml version="1.0" encoding="UTF-8"?>
<svg id="Capa_1" xmlns="http://www.w3.org/2000/svg" version="1.1" viewBox="0 0 512 640">
  <!-- Generator: Adobe Illustrator 29.8.2, SVG Export Plug-In . SVG Version: 2.1.1 Build 3)  -->
  <path d="M467.7,120.2c-2.2-.3-3.8-2.1-3.8-4.3v-49c0-10.4-8.4-18.8-18.9-18.8h-170.2c-7.5,0-13.9,4.3-16.9,10.6-3.3-8.3-11.4-14.1-20.8-14.1h-49c-.4,0-.7-.3-.8-.7-2.1-17.9-17.3-31.3-35.3-31.3s-33.2,13.5-35.3,31.3c0,.4-.4.7-.8.7h-49c-12.3,0-22.4,10-22.4,22.4v170.2c0,7.9,4.1,14.9,10.4,18.9-6.2,4-10.4,10.9-10.4,18.9v49c0,.4-.3.7-.7.8-17.9,2.1-31.3,17.3-31.3,35.3s13.5,33.2,31.3,35.3c.4,0,.7.4.7.8v49c0,12.3,10,22.4,22.4,22.4h170.2c1.9,0,3.5-1.6,3.5-3.5s-1.6-3.5-3.5-3.5H66.9c-8.5,0-15.4-6.9-15.4-15.4v-49c0-3.9-3-7.3-6.9-7.7-14.3-1.7-25.2-13.9-25.2-28.4s10.8-26.7,25.2-28.4c3.9-.5,6.9-3.8,6.9-7.7v-49c0-8.5,6.9-15.4,15.4-15.4h49c3.9,0,7.3-3,7.7-6.9,1.7-14.3,13.9-25.2,28.4-25.2s26.7,10.8,28.4,25.2c.5,3.9,3.8,6.9,7.7,6.9h64.4v64.4c0,.4-.3.7-.7.8-17.9,2.1-31.3,17.3-31.3,35.3s13.5,33.2,31.3,35.3c.4,0,.7.4.7.8v49c0,12.3,10,22.4,22.3,22.4h49c.4,0,.7.3.8.7,2.1,17.9,17.3,31.3,35.3,31.3s33.2-13.5,35.3-31.3c0-.4.4-.7.8-.7h49c12.3,0,22.3-10,22.3-22.4v-170.2c0-9.4-5.9-17.5-14.1-20.8,6.3-3.1,10.6-9.5,10.6-16.9v-49c0-2.2,1.6-4,3.8-4.3,15.9-1.9,28.3-15.4,28.3-31.8s-12.3-30-28.3-31.8ZM320.9,141.8l24.7-3.6c.7,0,1.2-.5,1.5-1.1l11-22.4c.7-1.5,2.9-1.5,3.6,0l11,22.4c.3.6.9,1,1.5,1.1l24.7,3.6c1.7.2,2.3,2.3,1.1,3.5l-17.9,17.4c-.5.5-.7,1.1-.6,1.8l4.2,24.6c.3,1.7-1.5,2.9-2.9,2.1l-22.1-11.6c-.6-.3-1.3-.3-1.9,0l-22.1,11.6c-1.5.8-3.2-.5-2.9-2.1l4.2-24.6c.1-.7-.1-1.3-.6-1.8l-17.9-17.4c-1.2-1.2-.5-3.2,1.1-3.5ZM188.1,252.5c-.4,0-.7-.3-.8-.7-2.1-17.9-17.3-31.3-35.3-31.3s-33.2,13.5-35.3,31.3c0,.4-.4.7-.8.7h-49c-8.5,0-15.4-6.9-15.4-15.4V66.9c0-8.5,6.9-15.4,15.4-15.4h49c3.9,0,7.3-3,7.7-6.9,1.7-14.3,13.9-25.2,28.4-25.2s26.7,10.8,28.4,25.2c.5,3.9,3.8,6.9,7.7,6.9h49c8.5,0,15.3,6.9,15.3,15.4v49c0,3.9,3,7.3,6.9,7.7,14.3,1.7,25.2,13.9,25.2,28.4s-10.8,26.7-25.2,28.4c-3.9.5-6.9,3.8-6.9,7.7v64.4h-64.4ZM460.4,274.9v170.2c0,8.5-6.9,15.4-15.3,15.4h-49c-3.9,0-7.3,3-7.7,6.9-1.7,14.3-13.9,25.2-28.4,25.2s-26.7-10.8-28.4-25.2c-.5-3.9-3.8-6.9-7.7-6.9h-49c-8.5,0-15.3-6.9-15.3-15.4v-49c0-3.9-3-7.3-6.9-7.7-14.3-1.7-25.2-13.9-25.2-28.4s10.8-26.7,25.2-28.4c3.9-.5,6.9-3.8,6.9-7.7v-64.4h64.4c.4,0,.7.3.8.7,2.1,17.9,17.3,31.3,35.3,31.3s33.2-13.5,35.3-31.3c0-.4.4-.7.8-.7h49c8.5,0,15.3,6.9,15.3,15.4Z"/>
  <path d="M152,315.4c-24.6,0-44.5,20-44.5,44.5s20,44.5,44.5,44.5,44.5-20,44.5-44.5-20-44.5-44.5-44.5ZM165.2,330.6c-.6,0-1.2,0-1.7,0-22.4,0-40.8,18.5-40.9,40.9,0,.2,0,.4,0,.5,0,6.4,2.2,12.3,5.7,17.1-8.4-6.9-13.8-17.4-13.8-29.1,0-20.7,16.8-37.5,37.5-37.5s21.9,5.3,28.8,13.5c-4.5-3.2-9.8-5.1-15.6-5.4h0Z"/>
  <path d="M181.6,107.5h-59.1c-8.3,0-15,6.7-15,15v59.1c0,8.3,6.7,15,15,15h49.5c1.9,0,3.5-1.6,3.5-3.5s-1.6-3.5-3.5-3.5h-49.5c-4.4,0-8-3.6-8-8v-59.1c0-4.4,3.6-8,8-8h59.1c4.4,0,8,3.6,8,8v59.1c0,1.9,1.6,3.5,3.5,3.5s3.5-1.6,3.5-3.5v-59.1c0-8.3-6.7-15-15-15Z"/>
  <path d="M365,320.6c-1-1.8-2.9-2.9-5-2.9s-4,1.1-5,2.9l-43.4,75.1c-1.1,1.8-1.1,4,0,5.8,1,1.8,2.9,2.9,5,2.9h86.8c2.1,0,4-1.1,5-2.9,1.1-1.8,1.1-4,0-5.8l-43.4-75.1ZM318.6,397.5l41.3-71.6,41.3,71.6h-82.6Z"/>
</svg>