<?xml version="1.0" encoding="UTF-8"?>
<svg id="Capa_1" xmlns="http://www.w3.org/2000/svg" version="1.1" viewBox="0 0 512 640">
  <!-- Generator: Adobe Illustrator 29.8.2, SVG Export Plug-In . SVG Version: 2.1.1 Build 3)  -->
  <path d="M348.4,400.8l36.4,16.6c3.4,1.6,7.3-1.2,6.8-5l-4.5-35.9c-.1-1-.1-2.1,0-3.1l13.7-83.7c1-6.3-3.5-12.1-9.8-12.7l-179.4-17c-7-.7-12.9,5.4-11.9,12.4l18.7,134.6c.8,6,6.4,10.2,12.4,9.3l111.2-16.4c2.1-.3,4.2,0,6.1.9ZM358.1,320.6c8.1,0,14.6,6.5,14.6,14.6s-6.5,14.6-14.6,14.6-14.6-6.5-14.6-14.6,6.5-14.6,14.6-14.6ZM242.7,349.8c-8.1,0-14.6-6.5-14.6-14.6s6.5-14.6,14.6-14.6,14.6,6.5,14.6,14.6-6.5,14.6-14.6,14.6ZM300.4,349.8c-8.1,0-14.6-6.5-14.6-14.6s6.5-14.6,14.6-14.6,14.6,6.5,14.6,14.6-6.5,14.6-14.6,14.6Z"/>
  <path d="M495.5,288c-3.1-3.2-7.4-4.8-11.8-4.4l-68.7,6.5c-1.9.2-3.3,1.9-3.2,3.8.2,1.9,1.9,3.3,3.8,3.2l68.7-6.5c2.3-.2,4.5.6,6.1,2.3,1.6,1.7,2.3,3.9,2,6.2l-18.7,134.6c-.3,2-1.3,3.7-2.9,4.9-1.6,1.2-3.6,1.7-5.5,1.4l-111.2-16.3c-2.8-.4-5.6,0-8.1,1.1l-36.4,16.6c-.6.3-1.1,0-1.3-.1-.2-.2-.6-.6-.5-1.2l2.7-21.7c.2-1.9-1.1-3.7-3-3.9-1.9-.2-3.7,1.1-3.9,3l-2.7,21.7c-.4,3,.9,5.9,3.3,7.8,1.5,1.1,3.2,1.6,4.9,1.6s2.4-.3,3.5-.8l36.4-16.6c1.3-.6,2.8-.8,4.2-.6l111.2,16.4c3.8.6,7.7-.4,10.8-2.7,3.1-2.3,5.1-5.7,5.6-9.6l18.7-134.6c.6-4.4-.8-8.8-3.9-12Z"/>
  <path d="M154.5,353l33.4-16.3,3.3,6.7c.6,1.2,1.9,2,3.1,2,.5,0,1-.1,1.5-.4,1.7-.8,2.5-2.9,1.6-4.7l-74.1-151.6c-1.2-2.4-.7-5.3,1.3-7.2l93.7-88.9c2.9-2.7,6.8-4.1,10.8-3.8,3.9.3,7.6,2.4,9.9,5.5,22.8,30.5,43.4,64.7,61.5,101.6,10.6,21.6,20,43.7,28,65.7.6,1.6,2.3,2.6,4,2.2,4-.9,9.8-2.6,13.6-4.4,15.1-7.4,25.7-21.6,29.8-40,4.1-18.1,1.4-38.2-7.6-56.6-18.7-38.1-59-56.9-89.9-41.8-3.1,1.5-6,3.3-8.7,5.4-8-12.6-16.4-24.7-25-36.3-3.6-4.8-9-7.8-15-8.3-6-.5-11.9,1.6-16.2,5.7l-93.7,88.9c-4.2,4-5.3,10.1-2.8,15.3l3.3,6.7-90.2,44.1c-3.9,1.9-6.8,5.2-8.3,9.3-1.4,4.1-1.1,8.5.8,12.4l8.2,16.8-12.8,9.9c-5.5,4.2-7.2,11.8-4.2,18.1l21.2,43.4c2.5,5.1,7.7,8.2,13.2,8.2s2.4-.1,3.6-.4c1.9-.5,3-2.4,2.5-4.3-.5-1.9-2.4-3-4.3-2.5-3.5.9-7.2-.8-8.8-4.1l-21.2-43.4c-1.6-3.3-.7-7.2,2.2-9.5l11.6-9,41.9,85.6c2.8,5.8,8.6,9.1,14.7,9.1s4.8-.5,7.1-1.7l9.2-4.5,46.5,95.1c2.6,5.3,7.1,9.2,12.6,11.1,2.3.8,4.8,1.2,7.2,1.2s6.6-.8,9.6-2.2l8-3.9c5.3-2.6,9.2-7.1,11.1-12.6,1.9-5.6,1.5-11.5-1-16.8l-46.5-95.1ZM281.5,127.5c23.7-11.6,54-.2,72.7,25.5-23.4-13.7-49.8-17.2-72.9-7.5-2.6-4.3-5.2-8.6-7.8-12.9,2.5-2,5.2-3.7,8.1-5.1ZM94.6,374.5c-2.2,1.1-4.7,1.2-7.1.4-2.3-.8-4.2-2.5-5.3-4.7l-53.2-108.8c-1.1-2.2-1.2-4.8-.4-7.1.8-2.3,2.5-4.2,4.7-5.3l90.2-44.1,61.4,125.5s-90.2,44.1-90.2,44.1ZM142.8,377.9c-.1.1-.2.2-.4.4-8.2,8.3-12.2,19.5-11.8,30.7l-17.5-35.7,35-17.1,9.1,18.7c-4.8-1.9-10.5-1-14.6,3.1Z"/>
  <path d="M217.6,116.9l-74.4,70.6c-1.4,1.3-1.5,3.5-.1,4.9.7.7,1.6,1.1,2.5,1.1s1.7-.3,2.4-1l74.4-70.6c1.4-1.3,1.5-3.5.1-4.9-1.3-1.4-3.5-1.5-4.9-.1Z"/>
  <path d="M381.8,159.8c.5,0,1-.1,1.5-.4l66.9-32.7c1.7-.8,2.5-2.9,1.6-4.7-.8-1.7-2.9-2.5-4.7-1.6l-66.9,32.7c-1.7.8-2.5,2.9-1.6,4.7.6,1.2,1.9,2,3.1,2h0Z"/>
  <path d="M338.4,101.5c.4.1.8.2,1.1.2,1.5,0,2.8-.9,3.3-2.4l22.8-66.5c.6-1.8-.3-3.8-2.2-4.4-1.8-.6-3.8.3-4.4,2.2l-22.8,66.5c-.6,1.8.3,3.8,2.2,4.4Z"/>
  <path d="M398.6,224.5c-.6,1.8.3,3.8,2.2,4.4l66.5,22.8c.4.1.8.2,1.1.2,1.5,0,2.8-.9,3.3-2.4.6-1.8-.3-3.8-2.2-4.4l-66.5-22.8c-1.8-.6-3.8.3-4.4,2.2Z"/>
  <path d="M403.9,363.8h19.3c1.9,0,3.5-1.6,3.5-3.5s-1.6-3.5-3.5-3.5h-19.3c-1.9,0-3.5,1.6-3.5,3.5s1.6,3.5,3.5,3.5Z"/>
  <path d="M462.7,363.8c1.9,0,3.5-1.6,3.5-3.5s-1.6-3.5-3.5-3.5h-19.9c-1.9,0-3.5,1.6-3.5,3.5s1.6,3.5,3.5,3.5h19.9Z"/>
</svg>