<?xml version="1.0" encoding="UTF-8"?>
<svg id="Capa_2" data-name="Capa 2" xmlns="http://www.w3.org/2000/svg" viewBox="0 0 337.05 337.05">
  <defs>
    <style>
      .cls-1 {
        fill: #fff;
        stroke: #000;
      }

      .cls-1, .cls-2 {
        stroke-width: 4px;
      }

      .cls-3 {
        fill: #969696;
        stroke: #5b5b5b;
        stroke-width: 5px;
      }

      .cls-2 {
        stroke: #fff;
      }
    </style>
  </defs>
  <g id="Layer_1" data-name="Layer 1">
    <g>
      <rect class="cls-3" x="2.5" y="2.5" width="332.05" height="332.05" rx="41.74" ry="41.74"/>
      <g id="bed">
        <path id="bed_frame" data-name="bed frame" class="cls-1" d="M285.4,219.91l20.91,34.01v22.16h-15.92v15.92c0,2.81-2.18,4.99-4.99,4.99h-7.18c-2.81,0-4.99-2.18-4.99-4.99v-15.92h-119.21v15.92c0,2.81-2.18,4.99-4.99,4.99h-7.18c-2.81,0-4.99-2.18-4.99-4.99v-15.92h-15.92v-22.16l20.91-34.01v-57.73c0-4.06,3.43-7.49,7.49-7.49h128.88c4.06,0,7.49,3.43,7.49,7.49v57.73h-.31Z"/>
        <path id="mattress" class="cls-1" d="M283.22,258.91h-138.56c-9.36,0-16.85-7.49-16.85-16.85v-5.93c0-4.68,2.18-9.36,5.62-12.48l24.03-21.22c3.12-2.81,7.18-4.37,11.23-4.37h90.5c4.06,0,8.11,1.56,11.23,4.37l24.03,21.22c3.74,3.12,5.62,7.8,5.62,12.48v5.93c0,9.36-7.49,16.85-16.85,16.85Z"/>
        <path id="pillow" class="cls-1" d="M178.05,180.59h69.9c7.18,0,12.79,5.62,12.79,12.48h0c0,6.87-5.62,12.48-12.79,12.48h-69.9c-7.18,0-12.79-5.62-12.79-12.48h0c0-6.87,5.62-12.48,12.79-12.48Z"/>
        <path id="sheet" class="cls-1" d="M173.06,137.21c6.55,4.06,47.75,17.16,47.75,17.16,0,0-4.06,29.96-12.17,39.01-19.66,22.16-53.67,25.9-64.6,31.83s-10.61,30.27,2.5,33.7c-23.72.94-21.53-27.77-13.11-35.26s24.65-20.91,33.39-36.51c12.79-23.09,7.18-43.06,6.24-49.93Z"/>
      </g>
      <g id="person">
        <path id="arm" class="cls-2" d="M108.46,130.66l13.11,24.34,20.91,11.55c3.43,1.87,4.68,6.55,2.18,9.99h0c-1.87,2.5-5.31,3.43-8.11,2.18l-28.4-12.17-12.79-19.97"/>
        <path id="body" class="cls-2" d="M105.66,296.05l-15.29.62-15.6-111.09-9.36,58.98-13.11,53.36h-15.6l13.42-61.48,1.87-60.54c.62-6.55.62-9.99,1.87-15.6,0,0,2.5-11.55,6.24-21.53,3.74-9.99,10.92-22.47,16.23-29.02l7.18-8.43c7.49-8.74,20.91-9.67,29.65-2.18l6.55,5.62,23.72,28.71c2.5,2.81,5.62,4.99,9.36,6.24l31.21,9.36c4.37,1.25,6.87,6.24,4.99,10.61h0c-1.56,3.43-5.31,5.62-9.05,4.68l-42.75-10.3-28.4-23.4-15.29,23.4,12.48,141.99h-.31Z"/>
        <circle id="head" class="cls-2" cx="136.55" cy="75.73" r="17.16"/>
      </g>
    </g>
  </g>
</svg>