<?xml version="1.0" encoding="UTF-8"?>
<svg id="Capa_1" xmlns="http://www.w3.org/2000/svg" version="1.1" viewBox="0 0 1280 900">
  <!-- Generator: Adobe Illustrator 29.7.1, SVG Export Plug-In . SVG Version: 2.1.1 Build 8)  -->
  <defs>
    <style>
      .st0 {
        fill: none;
        stroke-miterlimit: 10;
        stroke-width: 7.9px;
      }

      .st0, .st1, .st2, .st3, .st4 {
        stroke: #fff;
      }

      .st1 {
        fill: #ffa1f4;
      }

      .st1, .st2, .st3, .st4 {
        stroke-linejoin: round;
        stroke-width: 5.91px;
      }

      .st2 {
        fill: #fdffb3;
      }

      .st3 {
        fill: #70d6f9;
      }

      .st4, .st5 {
        fill: #fff;
      }
    </style>
  </defs>
  <g>
    <line class="st0" x1="294.1" y1="379.73" x2="978.96" y2="379.73"/>
    <polygon class="st5" points="960.64 402.35 956.87 398.3 976.84 379.74 956.87 361.17 960.64 357.12 984.96 379.74 960.64 402.35"/>
  </g>
  <circle class="st4" cx="228.47" cy="379.73" r="65.64"/>
  <g>
    <path d="M200.26,394.29v-21.83h-7.88v-5.22h21.79v5.22h-8.12v21.83h-5.8Z"/>
    <path d="M215.72,394.29l10.32-14.72,4.41,3.05-8,11.67h-6.72ZM235.04,394.29l-8.39-12.13-10.74-14.92h7.11l8.19,11.98,10.94,15.07h-7.11ZM231.83,381.74l-4.37-2.94,7.57-11.55h6.72l-9.93,14.49Z"/>
    <path d="M251.58,394.29v-21.83h-7.88v-5.22h21.79v5.22h-8.12v21.83h-5.8Z"/>
  </g>
  <circle class="st3" cx="434" cy="379.73" r="65.64"/>
  <g>
    <path d="M404.71,394.29l-10.78-27.05h6.14l5.64,14.65c.31.8.57,1.5.79,2.11.22.61.41,1.17.58,1.7.17.53.33,1.04.48,1.55s.31,1.05.46,1.64l-1.12.04c.21-.8.41-1.54.6-2.22.19-.68.42-1.4.7-2.16.27-.76.6-1.64.99-2.65l5.33-14.65h6.11l-10.86,27.05h-5.06Z"/>
    <path d="M432.26,394.29l-10.78-27.05h6.14l5.64,14.65c.31.8.57,1.5.79,2.11.22.61.41,1.17.58,1.7.17.53.33,1.04.48,1.55s.31,1.05.46,1.64l-1.12.04c.21-.8.41-1.54.6-2.22.19-.68.42-1.4.7-2.16.27-.76.6-1.64.99-2.65l5.33-14.65h6.11l-10.86,27.05h-5.06Z"/>
    <path d="M452.13,394.29v-27.05h11.75c1.8,0,3.33.26,4.58.79,1.25.53,2.2,1.29,2.84,2.3.64,1,.97,2.2.97,3.59,0,1.55-.39,2.83-1.16,3.86-.77,1.03-1.88,1.74-3.32,2.13l-.04-.77c1.21.28,2.26.75,3.15,1.39.89.64,1.58,1.44,2.07,2.4s.73,2.04.73,3.25c0,1.34-.22,2.52-.66,3.54-.44,1.02-1.08,1.86-1.93,2.53-.85.67-1.85,1.18-3,1.53-1.15.35-2.43.52-3.84.52h-12.13ZM457.69,378.22h5.49c.7,0,1.3-.13,1.82-.39.52-.26.91-.6,1.18-1.04.27-.44.41-.95.41-1.55,0-.95-.31-1.69-.93-2.2-.62-.52-1.56-.77-2.82-.77h-5.14v5.95ZM457.69,389.27h6.34c.82,0,1.53-.12,2.11-.37.58-.24,1.02-.62,1.33-1.14.31-.52.46-1.12.46-1.82s-.17-1.24-.5-1.7c-.33-.46-.8-.82-1.41-1.06-.61-.24-1.33-.37-2.18-.37h-6.14v6.45Z"/>
  </g>
  <circle class="st1" cx="639.53" cy="379.73" r="65.64"/>
  <g>
    <path d="M598.96,394.29v-27.05h5.18l14.96,20.21h-1.08c-.1-.8-.19-1.58-.27-2.34-.08-.76-.15-1.53-.21-2.32-.06-.79-.12-1.6-.15-2.43-.04-.84-.07-1.73-.1-2.67s-.04-1.96-.04-3.07v-7.38h5.68v27.05h-5.26l-15.26-20.4,1.47.04c.13,1.34.24,2.48.33,3.42.09.94.17,1.76.23,2.45.06.7.11,1.3.14,1.82.03.52.04,1,.06,1.47.01.46.02.95.02,1.47v9.74h-5.68Z"/>
    <path d="M638.72,394.68c-1.67,0-3.2-.21-4.58-.62-1.38-.41-2.6-1.02-3.67-1.82-1.07-.8-2.03-1.76-2.88-2.9l3.63-4.14c1.26,1.75,2.52,2.94,3.77,3.57,1.25.63,2.61.95,4.08.95.8,0,1.51-.12,2.14-.35.63-.23,1.13-.55,1.49-.95.36-.4.54-.88.54-1.45,0-.41-.09-.79-.27-1.14-.18-.35-.44-.66-.77-.93s-.73-.52-1.2-.73c-.46-.22-.98-.41-1.55-.58-.57-.17-1.19-.3-1.86-.41-1.44-.33-2.71-.74-3.79-1.22-1.08-.48-1.98-1.07-2.71-1.78-.72-.71-1.26-1.51-1.6-2.42s-.52-1.92-.52-3.05.26-2.23.77-3.23c.52-.99,1.23-1.85,2.14-2.57.92-.72,1.97-1.28,3.17-1.66,1.2-.39,2.47-.58,3.81-.58,1.65,0,3.09.18,4.33.54,1.24.36,2.31.9,3.23,1.6.92.71,1.68,1.56,2.3,2.57l-3.67,3.56c-.54-.72-1.13-1.33-1.76-1.82-.63-.49-1.31-.86-2.05-1.1-.73-.24-1.49-.37-2.26-.37-.85,0-1.58.11-2.2.33-.62.22-1.1.54-1.45.97-.35.43-.52.92-.52,1.49,0,.46.12.88.35,1.24.23.36.57.68,1,.95.44.27.97.51,1.58.71.62.21,1.3.39,2.05.54,1.42.28,2.69.66,3.83,1.12,1.13.46,2.11,1.02,2.92,1.68s1.44,1.43,1.87,2.32c.44.89.66,1.89.66,2.99,0,1.83-.44,3.39-1.31,4.68-.88,1.29-2.09,2.27-3.63,2.96-1.55.68-3.35,1.02-5.41,1.02Z"/>
    <path d="M654.34,394.29v-27.05h5.29l9.85,16.04-3.48-.04,9.97-16h5.06v27.05h-5.68v-9.27c0-2.32.06-4.41.17-6.26s.32-3.7.6-5.53l.7,1.82-7.92,12.29h-2.55l-7.77-12.21.66-1.89c.28,1.73.48,3.5.6,5.31s.17,3.97.17,6.47v9.27h-5.68Z"/>
  </g>
  <circle class="st2" cx="845.07" cy="379.73" r="65.64"/>
  <g>
    <path d="M818.12,394.68c-1.98,0-3.81-.34-5.47-1.02-1.66-.68-3.1-1.65-4.33-2.9-1.22-1.25-2.17-2.73-2.84-4.44-.67-1.71-1-3.59-1-5.62s.35-3.82,1.04-5.51c.7-1.69,1.67-3.16,2.94-4.41,1.26-1.25,2.74-2.22,4.44-2.92,1.7-.7,3.54-1.04,5.53-1.04,1.29,0,2.56.17,3.81.52,1.25.35,2.4.86,3.44,1.53,1.04.67,1.94,1.47,2.69,2.4l-3.63,4.02c-.59-.62-1.22-1.15-1.89-1.6-.67-.45-1.37-.8-2.11-1.04-.73-.24-1.51-.37-2.34-.37-1.11,0-2.15.21-3.11.62-.97.41-1.81.99-2.53,1.72-.72.73-1.29,1.62-1.72,2.67s-.64,2.2-.64,3.46.21,2.45.62,3.5.99,1.93,1.74,2.67,1.64,1.3,2.69,1.7c1.04.4,2.2.6,3.46.6.82,0,1.62-.12,2.4-.35.77-.23,1.49-.55,2.15-.97.66-.41,1.24-.89,1.76-1.43l2.86,4.52c-.64.7-1.49,1.33-2.53,1.89-1.04.57-2.21,1.01-3.5,1.33s-2.59.48-3.9.48Z"/>
    <path d="M832.88,394.29v-27.05h5.29l9.85,16.04-3.48-.04,9.97-16h5.06v27.05h-5.68v-9.27c0-2.32.06-4.41.17-6.26s.32-3.7.6-5.53l.7,1.82-7.92,12.29h-2.55l-7.77-12.21.66-1.89c.28,1.73.48,3.5.6,5.31s.17,3.97.17,6.47v9.27h-5.68Z"/>
    <path d="M866.61,394.29v-27.05h11.48c1.62,0,3.08.38,4.37,1.14,1.29.76,2.31,1.8,3.07,3.11s1.14,2.8,1.14,4.44-.38,3.18-1.14,4.52c-.76,1.34-1.78,2.4-3.07,3.19-1.29.79-2.74,1.18-4.37,1.18h-5.68v9.47h-5.8ZM872.33,379.61h5.1c.62,0,1.17-.16,1.66-.48.49-.32.88-.75,1.18-1.29.3-.54.44-1.16.44-1.85s-.15-1.3-.44-1.82c-.3-.52-.69-.93-1.18-1.24-.49-.31-1.04-.46-1.66-.46h-5.1v7.15Z"/>
  </g>
  <circle class="st4" cx="1050.6" cy="379.73" r="65.64"/>
  <g>
    <path d="M1022.95,394.68c-1.67,0-3.2-.21-4.58-.62-1.38-.41-2.6-1.02-3.67-1.82-1.07-.8-2.03-1.76-2.88-2.9l3.63-4.14c1.26,1.75,2.52,2.94,3.77,3.57,1.25.63,2.61.95,4.08.95.8,0,1.51-.12,2.14-.35.63-.23,1.13-.55,1.49-.95.36-.4.54-.88.54-1.45,0-.41-.09-.79-.27-1.14-.18-.35-.44-.66-.77-.93s-.73-.52-1.2-.73c-.46-.22-.98-.41-1.55-.58-.57-.17-1.19-.3-1.86-.41-1.44-.33-2.71-.74-3.79-1.22-1.08-.48-1.98-1.07-2.71-1.78-.72-.71-1.26-1.51-1.6-2.42s-.52-1.92-.52-3.05.26-2.23.77-3.23c.52-.99,1.23-1.85,2.14-2.57.92-.72,1.97-1.28,3.17-1.66,1.2-.39,2.47-.58,3.81-.58,1.65,0,3.09.18,4.33.54,1.24.36,2.31.9,3.23,1.6.92.71,1.68,1.56,2.3,2.57l-3.67,3.56c-.54-.72-1.13-1.33-1.76-1.82-.63-.49-1.31-.86-2.05-1.1-.73-.24-1.49-.37-2.26-.37-.85,0-1.58.11-2.2.33-.62.22-1.1.54-1.45.97-.35.43-.52.92-.52,1.49,0,.46.12.88.35,1.24.23.36.57.68,1,.95.44.27.97.51,1.58.71.62.21,1.3.39,2.05.54,1.42.28,2.69.66,3.83,1.12,1.13.46,2.11,1.02,2.92,1.68s1.44,1.43,1.87,2.32c.44.89.66,1.89.66,2.99,0,1.83-.44,3.39-1.31,4.68-.88,1.29-2.09,2.27-3.63,2.96-1.55.68-3.35,1.02-5.41,1.02Z"/>
    <path d="M1046.25,394.29l-10.78-27.05h6.14l5.64,14.65c.31.8.57,1.5.79,2.11.22.61.41,1.17.58,1.7.17.53.33,1.04.48,1.55s.31,1.05.46,1.64l-1.12.04c.21-.8.41-1.54.6-2.22.19-.68.42-1.4.7-2.16.27-.76.6-1.64.99-2.65l5.33-14.65h6.11l-10.86,27.05h-5.06Z"/>
    <path d="M1077.36,394.68c-2.09,0-4-.35-5.74-1.06s-3.24-1.69-4.5-2.96c-1.26-1.26-2.24-2.74-2.92-4.44s-1.02-3.54-1.02-5.53.35-3.82,1.06-5.51c.71-1.69,1.71-3.16,3.01-4.41,1.3-1.25,2.83-2.22,4.58-2.92,1.75-.7,3.67-1.04,5.76-1.04,1.44,0,2.82.19,4.13.58,1.31.39,2.51.91,3.59,1.58,1.08.67,1.98,1.44,2.71,2.32l-3.59,3.79c-.67-.64-1.37-1.19-2.09-1.64-.72-.45-1.49-.8-2.3-1.04-.81-.24-1.64-.37-2.49-.37-1.21,0-2.33.22-3.34.66-1.02.44-1.91,1.04-2.69,1.82-.77.77-1.37,1.69-1.8,2.74-.42,1.06-.64,2.2-.64,3.44s.23,2.35.68,3.42c.45,1.07,1.07,2,1.85,2.78.79.79,1.71,1.4,2.76,1.85,1.06.45,2.19.68,3.4.68.88,0,1.69-.13,2.45-.39.76-.26,1.43-.62,2.01-1.1.58-.48,1.03-1.04,1.35-1.68.32-.64.48-1.33.48-2.05v-.93l.77,1.08h-7.73v-4.83h12.52c.03.28.06.63.1,1.04.04.41.06.82.08,1.22.01.4.02.71.02.95,0,1.75-.32,3.36-.95,4.83-.63,1.47-1.51,2.73-2.63,3.79-1.12,1.06-2.44,1.87-3.96,2.45-1.52.58-3.17.87-4.95.87Z"/>
  </g>
  <g>
    <path class="st5" d="M407.7,491.96l-5.98-15.01h3.41l3.13,8.13c.17.44.32.83.44,1.17s.23.65.32.94.18.58.27.86.17.58.26.91l-.62.02c.11-.44.22-.85.33-1.23s.24-.78.39-1.2c.15-.42.33-.91.55-1.47l2.96-8.13h3.39l-6.03,15.01h-2.81Z"/>
    <path class="st5" d="M420.05,478.31c-.59,0-1.04-.15-1.37-.44s-.49-.7-.49-1.23c0-.49.17-.88.5-1.19s.79-.46,1.36-.46,1.04.15,1.37.44c.33.29.49.7.49,1.21,0,.49-.17.89-.5,1.2s-.79.47-1.36.47ZM418.55,491.96v-11.34h3.04v11.34h-3.04Z"/>
    <path class="st5" d="M428.67,492.18c-1.06,0-2-.18-2.82-.53-.82-.35-1.48-.83-1.98-1.45l1.91-1.63c.43.47.92.81,1.46,1.02s1.09.31,1.63.31c.21,0,.41-.02.59-.08.18-.05.33-.12.46-.21.13-.09.23-.21.29-.34s.1-.28.1-.44c0-.31-.13-.56-.39-.73-.14-.09-.36-.18-.66-.29-.3-.11-.69-.23-1.16-.35-.73-.19-1.35-.4-1.85-.65-.51-.25-.91-.53-1.21-.85-.26-.3-.45-.62-.59-.98-.14-.35-.2-.74-.2-1.17,0-.51.11-.98.34-1.4s.55-.78.95-1.08c.41-.3.88-.53,1.41-.7.53-.16,1.09-.25,1.67-.25s1.16.07,1.72.21c.56.14,1.08.35,1.55.61.48.26.9.58,1.25.93l-1.63,1.8c-.26-.24-.55-.46-.87-.67s-.65-.36-1-.47-.65-.17-.92-.17c-.24,0-.46.02-.65.06-.19.04-.35.11-.48.2-.13.09-.22.2-.29.33s-.1.27-.1.43.04.31.12.45c.08.14.19.26.33.36.16.09.39.19.7.3.31.11.72.24,1.25.39.69.19,1.27.39,1.75.62.48.23.86.49,1.15.79.24.26.42.55.54.88.11.33.17.69.17,1.09,0,.7-.2,1.32-.59,1.87-.39.54-.93.97-1.62,1.29-.69.31-1.46.47-2.32.47Z"/>
    <path class="st5" d="M439.26,492.18c-.83,0-1.54-.18-2.13-.55-.59-.37-1.05-.89-1.37-1.57s-.48-1.5-.48-2.46v-6.99h3.04v6.5c0,.51.09.96.26,1.34.17.38.42.67.73.87.31.2.7.3,1.16.3.33,0,.63-.05.91-.16.28-.11.52-.26.73-.46s.37-.44.48-.71.17-.57.17-.88v-6.8h3.04v11.34h-2.89l-.11-2.34.56-.26c-.17.53-.46,1.01-.86,1.44-.4.43-.88.77-1.44,1.01-.56.24-1.16.37-1.8.37Z"/>
    <path class="st5" d="M453.11,492.18c-.94,0-1.79-.26-2.55-.77s-1.36-1.21-1.8-2.1c-.44-.89-.67-1.9-.67-3.04s.23-2.16.68-3.04c.45-.89,1.06-1.58,1.83-2.08.77-.5,1.65-.75,2.64-.75.56,0,1.07.08,1.53.25.46.17.87.39,1.22.68s.65.61.89.99.42.77.51,1.2l-.64-.11v-2.77h3.02v11.34h-3.07v-2.72l.69-.06c-.11.4-.3.78-.56,1.14-.26.36-.58.68-.95.95-.38.28-.8.5-1.28.67s-.97.25-1.5.25ZM453.94,489.54c.57,0,1.07-.14,1.5-.41s.76-.65,1-1.15c.24-.49.35-1.07.35-1.73s-.12-1.21-.35-1.69c-.24-.49-.57-.87-1-1.15-.43-.28-.93-.42-1.5-.42s-1.05.14-1.47.42c-.42.28-.75.66-1,1.15-.24.49-.36,1.05-.36,1.69s.12,1.23.36,1.73.58.88,1,1.15c.42.27.91.41,1.47.41Z"/>
    <path class="st5" d="M462.84,491.96v-15.87h3.04v15.87h-3.04Z"/>
    <path class="st5" d="M370.94,517.69l-5.98-15.01h3.41l3.13,8.13c.17.44.32.83.44,1.17s.23.65.32.94.18.58.27.86.17.58.26.91l-.62.02c.11-.44.22-.85.33-1.23s.24-.78.39-1.2c.15-.42.33-.91.55-1.47l2.96-8.13h3.39l-6.03,15.01h-2.81Z"/>
    <path class="st5" d="M385.52,517.91c-1.16,0-2.19-.25-3.1-.76-.91-.51-1.62-1.2-2.14-2.09-.52-.89-.78-1.9-.78-3.04s.26-2.16.78-3.04c.52-.89,1.24-1.58,2.14-2.09.91-.51,1.94-.76,3.1-.76s2.17.25,3.08.76c.91.51,1.62,1.21,2.13,2.09.51.89.77,1.9.77,3.04s-.26,2.16-.77,3.04c-.51.89-1.23,1.58-2.13,2.09-.91.51-1.93.76-3.08.76ZM385.52,515.25c.56,0,1.06-.14,1.5-.42.44-.28.79-.67,1.04-1.16.25-.49.37-1.05.35-1.66.01-.63-.1-1.19-.35-1.68-.25-.49-.6-.88-1.04-1.16-.44-.28-.94-.42-1.5-.42s-1.08.14-1.52.43-.79.67-1.05,1.16c-.26.49-.38,1.04-.36,1.67-.01.61.11,1.17.36,1.66.26.49.61.88,1.05,1.16.44.28.95.42,1.52.42Z"/>
    <path class="st5" d="M398.75,517.91c-1.09,0-2.06-.26-2.92-.77-.86-.51-1.53-1.21-2.03-2.1-.49-.89-.74-1.89-.74-3.02s.25-2.14.74-3.02c.49-.89,1.17-1.59,2.03-2.1.86-.51,1.83-.77,2.92-.77,1.01,0,1.94.19,2.79.56.84.37,1.5.89,1.97,1.54l-1.67,2.01c-.2-.27-.45-.52-.75-.74s-.63-.4-.98-.53c-.35-.13-.71-.19-1.08-.19-.59,0-1.1.14-1.55.42-.45.28-.8.66-1.06,1.15-.26.49-.39,1.04-.39,1.67s.13,1.14.4,1.63c.26.49.63.87,1.08,1.16.46.29.97.43,1.54.43.37,0,.72-.05,1.05-.15.33-.1.64-.26.93-.47.29-.21.56-.47.8-.77l1.65,2.02c-.47.61-1.14,1.11-2,1.49-.87.38-1.78.57-2.73.57Z"/>
    <path class="st5" d="M409.68,517.91c-.94,0-1.79-.26-2.55-.77s-1.36-1.21-1.8-2.1c-.44-.89-.67-1.9-.67-3.04s.23-2.16.68-3.04c.45-.89,1.06-1.58,1.83-2.08.77-.5,1.65-.75,2.64-.75.56,0,1.07.08,1.53.25.46.17.87.39,1.22.68s.65.61.89.99.42.77.51,1.2l-.64-.11v-2.77h3.02v11.34h-3.07v-2.72l.69-.06c-.11.4-.3.78-.56,1.14-.26.36-.58.68-.95.95-.38.28-.8.5-1.28.67s-.97.25-1.5.25ZM410.52,515.27c.57,0,1.07-.14,1.5-.41s.76-.65,1-1.15c.24-.49.35-1.07.35-1.73s-.12-1.21-.35-1.69c-.24-.49-.57-.87-1-1.15-.43-.28-.93-.42-1.5-.42s-1.05.14-1.47.42c-.42.28-.75.66-1,1.15-.24.49-.36,1.05-.36,1.69s.12,1.23.36,1.73.58.88,1,1.15c.42.27.91.41,1.47.41Z"/>
    <path class="st5" d="M425.93,517.91c-.5,0-.99-.07-1.46-.21s-.9-.34-1.29-.59-.71-.54-.96-.86c-.26-.32-.42-.65-.49-1l.69-.26-.15,2.66h-2.87v-15.82h3.07v7.18l-.6-.24c.09-.34.25-.67.49-1,.24-.32.55-.61.92-.86.37-.25.78-.45,1.22-.59.44-.14.9-.21,1.37-.21.99,0,1.87.25,2.65.76.78.51,1.39,1.21,1.83,2.09.44.89.67,1.9.67,3.04s-.22,2.16-.65,3.04c-.44.89-1.04,1.58-1.81,2.09-.77.51-1.64.76-2.62.76ZM425.2,515.31c.57,0,1.07-.14,1.49-.42.42-.28.75-.67,1-1.16.24-.49.36-1.07.36-1.73s-.12-1.21-.35-1.72c-.24-.5-.57-.89-1-1.16s-.93-.41-1.5-.41-1.07.14-1.5.41-.76.66-1,1.16c-.24.5-.35,1.07-.35,1.72s.12,1.23.35,1.73c.24.49.57.88,1,1.16.43.28.93.42,1.5.42Z"/>
    <path class="st5" d="M437.21,517.91c-.83,0-1.54-.18-2.13-.55-.59-.37-1.05-.89-1.37-1.57s-.48-1.5-.48-2.46v-6.99h3.04v6.5c0,.51.09.96.26,1.34.17.38.42.67.73.87.31.2.7.3,1.16.3.33,0,.63-.05.91-.16.28-.11.52-.26.73-.46s.37-.44.48-.71.17-.57.17-.88v-6.8h3.04v11.34h-2.89l-.11-2.34.56-.26c-.17.53-.46,1.01-.86,1.44-.4.43-.88.77-1.44,1.01-.56.24-1.16.37-1.8.37Z"/>
    <path class="st5" d="M446.84,517.69v-15.87h3.04v15.87h-3.04Z"/>
    <path class="st5" d="M457,517.91c-.94,0-1.79-.26-2.55-.77s-1.36-1.21-1.8-2.1c-.44-.89-.67-1.9-.67-3.04s.23-2.16.68-3.04c.45-.89,1.06-1.58,1.83-2.08.77-.5,1.65-.75,2.64-.75.56,0,1.07.08,1.53.25.46.17.87.39,1.22.68s.65.61.89.99.42.77.51,1.2l-.64-.11v-2.77h3.02v11.34h-3.07v-2.72l.69-.06c-.11.4-.3.78-.56,1.14-.26.36-.58.68-.95.95-.38.28-.8.5-1.28.67s-.97.25-1.5.25ZM457.84,515.27c.57,0,1.07-.14,1.5-.41s.76-.65,1-1.15c.24-.49.35-1.07.35-1.73s-.12-1.21-.35-1.69c-.24-.49-.57-.87-1-1.15-.43-.28-.93-.42-1.5-.42s-1.05.14-1.47.42c-.42.28-.75.66-1,1.15-.24.49-.36,1.05-.36,1.69s.12,1.23.36,1.73.58.88,1,1.15c.42.27.91.41,1.47.41Z"/>
    <path class="st5" d="M466.71,517.69v-11.34h2.94l.11,3.65-.51-.75c.17-.59.45-1.12.84-1.6.39-.48.84-.85,1.36-1.13s1.07-.41,1.64-.41c.24,0,.48.02.71.06s.42.09.58.15l-.81,3.35c-.16-.09-.36-.16-.61-.23s-.5-.1-.76-.1c-.34,0-.66.06-.95.18-.29.12-.55.29-.76.51-.21.22-.38.48-.5.78-.12.3-.18.63-.18.99v5.88h-3.07Z"/>
    <path class="st5" d="M477.86,504.04c-.59,0-1.04-.15-1.37-.44s-.49-.7-.49-1.23c0-.49.17-.88.5-1.19s.79-.46,1.36-.46,1.04.15,1.37.44c.33.29.49.7.49,1.21,0,.49-.17.89-.5,1.2s-.79.47-1.36.47ZM476.36,517.69v-11.34h3.04v11.34h-3.04Z"/>
    <path class="st5" d="M488.05,517.91c-1.23,0-2.3-.25-3.23-.75-.92-.5-1.64-1.19-2.14-2.06-.51-.87-.76-1.87-.76-3,0-.89.14-1.69.43-2.42.29-.73.69-1.36,1.2-1.9.51-.54,1.13-.95,1.83-1.24.71-.29,1.48-.44,2.31-.44.77,0,1.49.14,2.14.43s1.23.68,1.71,1.19c.48.51.85,1.11,1.1,1.8.26.69.37,1.44.34,2.24l-.02.94h-9.11l-.49-1.87h7.1l-.34.39v-.47c-.03-.39-.15-.73-.38-1.04-.22-.31-.5-.55-.85-.73s-.73-.27-1.16-.27c-.63,0-1.16.12-1.6.36-.44.24-.77.6-1,1.07-.23.47-.34,1.04-.34,1.71s.15,1.28.44,1.78c.29.5.71.89,1.24,1.17s1.17.42,1.9.42c.5,0,.96-.08,1.37-.24.42-.16.86-.43,1.33-.82l1.46,2.04c-.42.37-.87.68-1.37.93-.5.25-1.01.44-1.54.57-.53.13-1.05.19-1.57.19Z"/>
    <path class="st5" d="M499.04,517.91c-1.06,0-2-.18-2.82-.53-.82-.35-1.48-.83-1.98-1.45l1.91-1.63c.43.47.92.81,1.46,1.02s1.09.31,1.63.31c.21,0,.41-.02.59-.08.18-.05.33-.12.46-.21.13-.09.23-.21.29-.34s.1-.28.1-.44c0-.31-.13-.56-.39-.73-.14-.09-.36-.18-.66-.29-.3-.11-.69-.23-1.16-.35-.73-.19-1.35-.4-1.85-.65-.51-.25-.91-.53-1.21-.85-.26-.3-.45-.62-.59-.98-.14-.35-.2-.74-.2-1.17,0-.51.11-.98.34-1.4s.55-.78.95-1.08c.41-.3.88-.53,1.41-.7.53-.16,1.09-.25,1.67-.25s1.16.07,1.72.21c.56.14,1.08.35,1.55.61.48.26.9.58,1.25.93l-1.63,1.8c-.26-.24-.55-.46-.87-.67s-.65-.36-1-.47-.65-.17-.92-.17c-.24,0-.46.02-.65.06-.19.04-.35.11-.48.2-.13.09-.22.2-.29.33s-.1.27-.1.43.04.31.12.45c.08.14.19.26.33.36.16.09.39.19.7.3.31.11.72.24,1.25.39.69.19,1.27.39,1.75.62.48.23.86.49,1.15.79.24.26.42.55.54.88.11.33.17.69.17,1.09,0,.7-.2,1.32-.59,1.87-.39.54-.93.97-1.62,1.29-.69.31-1.46.47-2.32.47Z"/>
    <path class="st5" d="M380.12,543.64c-.94,0-1.79-.26-2.55-.77s-1.36-1.21-1.8-2.1c-.44-.89-.67-1.9-.67-3.04s.23-2.16.68-3.04c.45-.89,1.06-1.58,1.83-2.08.77-.5,1.65-.75,2.64-.75.56,0,1.07.08,1.53.25.46.17.87.39,1.22.68s.65.61.89.99.42.77.51,1.2l-.64-.11v-2.77h3.02v11.34h-3.07v-2.72l.69-.06c-.11.4-.3.78-.56,1.14-.26.36-.58.68-.95.95-.38.28-.8.5-1.28.67s-.97.25-1.5.25ZM380.96,541c.57,0,1.07-.14,1.5-.41s.76-.65,1-1.15c.24-.49.35-1.07.35-1.73s-.12-1.21-.35-1.69c-.24-.49-.57-.87-1-1.15-.43-.28-.93-.42-1.5-.42s-1.05.14-1.47.42c-.42.28-.75.66-1,1.15-.24.49-.36,1.05-.36,1.69s.12,1.23.36,1.73.58.88,1,1.15c.42.27.91.41,1.47.41Z"/>
    <path class="st5" d="M389.84,543.42v-11.34h2.92l.09,2.32-.6.26c.16-.51.44-.98.85-1.4s.9-.76,1.47-1.02c.57-.26,1.17-.39,1.8-.39.86,0,1.58.17,2.16.51s1.01.86,1.31,1.55.44,1.55.44,2.56v6.95h-3.04v-6.71c0-.51-.07-.94-.21-1.29-.14-.34-.36-.59-.65-.75s-.65-.23-1.08-.21c-.34,0-.66.05-.95.16-.29.11-.54.26-.75.46s-.37.43-.49.69c-.12.26-.18.54-.18.84v6.82h-3.04Z"/>
    <path class="st5" d="M407.61,543.64c-1,0-1.89-.25-2.67-.76-.78-.51-1.39-1.2-1.84-2.08-.45-.88-.68-1.9-.68-3.05s.23-2.14.68-3.03,1.06-1.59,1.84-2.1c.78-.51,1.67-.76,2.67-.76.53,0,1.04.08,1.53.25.49.17.94.39,1.33.68.39.29.71.6.95.95s.38.71.41,1.08l-.77.15v-7.4h3.07v15.87h-2.89l-.13-2.62.6.06c-.03.36-.16.7-.39,1.03-.23.33-.53.63-.91.89-.38.26-.81.47-1.29.62-.48.15-.98.23-1.51.23ZM408.3,541.11c.57,0,1.07-.14,1.5-.43s.76-.68,1.01-1.18c.24-.5.36-1.09.36-1.76s-.12-1.24-.36-1.74c-.24-.5-.58-.89-1.01-1.18s-.93-.43-1.5-.43-1.07.14-1.49.43-.75.68-.99,1.18c-.24.5-.35,1.08-.35,1.74s.12,1.26.35,1.76c.24.5.56.89.99,1.18s.92.43,1.49.43Z"/>
    <path class="st5" d="M423.69,543.42v-2.77h2.51v-9.48h-2.51v-2.77h8.23v2.77h-2.51v9.48h2.51v2.77h-8.23Z"/>
    <path class="st5" d="M434.99,543.42v-11.34h2.94l.06,2.17-.45.09c.16-.37.37-.71.63-1.01.26-.3.57-.56.91-.77.34-.21.71-.38,1.09-.5.39-.12.77-.18,1.16-.18.59,0,1.12.09,1.59.28.47.19.87.48,1.2.87.33.39.59.91.77,1.55l-.47-.04.15-.34c.19-.34.42-.66.71-.94.29-.29.61-.53.96-.73.36-.2.73-.36,1.11-.47.39-.11.76-.17,1.14-.17.89,0,1.62.17,2.21.53.59.35,1.03.88,1.32,1.58.29.7.44,1.56.44,2.57v6.88h-3.04v-6.67c0-.51-.07-.94-.21-1.27-.14-.33-.35-.58-.62-.74s-.62-.25-1.05-.25c-.33,0-.63.05-.91.16s-.52.26-.73.45c-.21.19-.37.42-.48.69s-.17.55-.17.85v6.78h-3.07v-6.69c0-.47-.07-.88-.21-1.21-.14-.33-.35-.59-.62-.76-.27-.17-.61-.26-1.01-.26-.33,0-.63.05-.91.16-.28.11-.52.26-.72.45-.2.19-.36.42-.47.68-.11.26-.17.54-.17.84v6.8h-3.07Z"/>
    <path class="st5" d="M459.61,543.64c-.94,0-1.79-.26-2.55-.77s-1.36-1.21-1.8-2.1c-.44-.89-.67-1.9-.67-3.04s.23-2.16.68-3.04c.45-.89,1.06-1.58,1.83-2.08.77-.5,1.65-.75,2.64-.75.56,0,1.07.08,1.53.25.46.17.87.39,1.22.68s.65.61.89.99.42.77.51,1.2l-.64-.11v-2.77h3.02v11.34h-3.07v-2.72l.69-.06c-.11.4-.3.78-.56,1.14-.26.36-.58.68-.95.95-.38.28-.8.5-1.28.67s-.97.25-1.5.25ZM460.44,541c.57,0,1.07-.14,1.5-.41s.76-.65,1-1.15c.24-.49.35-1.07.35-1.73s-.12-1.21-.35-1.69c-.24-.49-.57-.87-1-1.15-.43-.28-.93-.42-1.5-.42s-1.05.14-1.47.42c-.42.28-.75.66-1,1.15-.24.49-.36,1.05-.36,1.69s.12,1.23.36,1.73.58.88,1,1.15c.42.27.91.41,1.47.41Z"/>
    <path class="st5" d="M474.49,548.36c-.9,0-1.79-.13-2.66-.4-.87-.26-1.59-.61-2.14-1.04l1.09-2.17c.29.2.61.38.99.54.37.16.76.28,1.17.36.41.09.83.13,1.25.13.74,0,1.35-.11,1.83-.34.48-.23.84-.57,1.08-1.03.24-.46.36-1.03.36-1.71v-1.97l.51.11c-.09.47-.33.9-.72,1.3s-.88.71-1.46.94c-.58.24-1.18.35-1.81.35-1.04,0-1.97-.24-2.79-.73-.81-.49-1.46-1.16-1.93-2.02-.47-.86-.71-1.85-.71-2.98s.23-2.13.7-3.01c.46-.88,1.1-1.57,1.91-2.08.81-.51,1.73-.76,2.75-.76.43,0,.84.05,1.23.15.39.1.76.24,1.09.42.33.18.64.38.9.6.26.22.48.46.65.72.17.26.28.51.32.77l-.62.17.09-2.59h2.92v10.49c0,.93-.14,1.75-.41,2.47-.27.71-.67,1.32-1.19,1.81s-1.16.87-1.91,1.13c-.75.26-1.59.39-2.52.39ZM474.57,540.98c.6,0,1.13-.14,1.58-.41s.8-.65,1.04-1.14c.24-.49.36-1.06.36-1.71s-.12-1.21-.36-1.71c-.24-.49-.59-.88-1.04-1.15s-.98-.41-1.58-.41-1.1.14-1.54.42c-.44.28-.79.66-1.04,1.16s-.38,1.05-.38,1.68.12,1.21.38,1.7.6.88,1.04,1.15.96.41,1.54.41Z"/>
    <path class="st5" d="M488.92,543.64c-1.23,0-2.3-.25-3.23-.75-.92-.5-1.64-1.19-2.14-2.06-.51-.87-.76-1.87-.76-3,0-.89.14-1.69.43-2.42.29-.73.69-1.36,1.2-1.9.51-.54,1.13-.95,1.83-1.24.71-.29,1.48-.44,2.31-.44.77,0,1.49.14,2.14.43s1.23.68,1.71,1.19c.48.51.85,1.11,1.1,1.8.26.69.37,1.44.34,2.24l-.02.94h-9.11l-.49-1.87h7.1l-.34.39v-.47c-.03-.39-.15-.73-.38-1.04-.22-.31-.5-.55-.85-.73s-.73-.27-1.16-.27c-.63,0-1.16.12-1.6.36-.44.24-.77.6-1,1.07-.23.47-.34,1.04-.34,1.71s.15,1.28.44,1.78c.29.5.71.89,1.24,1.17s1.17.42,1.9.42c.5,0,.96-.08,1.37-.24.42-.16.86-.43,1.33-.82l1.46,2.04c-.42.37-.87.68-1.37.93-.5.25-1.01.44-1.54.57-.53.13-1.05.19-1.57.19Z"/>
    <path class="st5" d="M400.89,569.15v-15.01h6.52c1,0,1.85.15,2.54.44s1.22.72,1.58,1.28c.36.56.54,1.22.54,1.99,0,.86-.21,1.57-.64,2.14s-1.04.96-1.84,1.18l-.02-.43c.67.16,1.25.42,1.75.77s.88.8,1.15,1.33c.27.53.41,1.13.41,1.8,0,.74-.12,1.4-.36,1.96-.24.57-.6,1.03-1.07,1.4-.47.37-1.03.65-1.66.85-.64.19-1.35.29-2.13.29h-6.73ZM403.98,560.23h3.04c.39,0,.72-.07,1.01-.21s.5-.34.65-.58.22-.53.22-.86c0-.53-.17-.94-.51-1.22-.34-.29-.87-.43-1.57-.43h-2.85v3.3ZM403.98,566.37h3.52c.46,0,.85-.07,1.17-.2s.57-.35.74-.63c.17-.29.26-.62.26-1.01s-.09-.69-.28-.94c-.19-.26-.45-.45-.78-.59s-.74-.2-1.21-.2h-3.41v3.58Z"/>
    <path class="st5" d="M415.3,569.15v-15.87h3.04v15.87h-3.04Z"/>
    <path class="st5" d="M426.6,569.37c-1.23,0-2.3-.25-3.23-.75-.92-.5-1.64-1.19-2.14-2.06-.51-.87-.76-1.87-.76-3,0-.89.14-1.69.43-2.42.29-.73.69-1.36,1.2-1.9.51-.54,1.13-.95,1.83-1.24.71-.29,1.48-.44,2.31-.44.77,0,1.49.14,2.14.43s1.23.68,1.71,1.19c.48.51.85,1.11,1.1,1.8.26.69.37,1.44.34,2.24l-.02.94h-9.11l-.49-1.87h7.1l-.34.39v-.47c-.03-.39-.15-.73-.38-1.04-.22-.31-.5-.55-.85-.73s-.73-.27-1.16-.27c-.63,0-1.16.12-1.6.36-.44.24-.77.6-1,1.07-.23.47-.34,1.04-.34,1.71s.15,1.28.44,1.78c.29.5.71.89,1.24,1.17s1.17.42,1.9.42c.5,0,.96-.08,1.37-.24.42-.16.86-.43,1.33-.82l1.46,2.04c-.42.37-.87.68-1.37.93-.5.25-1.01.44-1.54.57-.53.13-1.05.19-1.57.19Z"/>
    <path class="st5" d="M433.78,569.15v-11.34h2.92l.09,2.32-.6.26c.16-.51.44-.98.85-1.4s.9-.76,1.47-1.02c.57-.26,1.17-.39,1.8-.39.86,0,1.58.17,2.16.51s1.01.86,1.31,1.55.44,1.55.44,2.56v6.95h-3.04v-6.71c0-.51-.07-.94-.21-1.29-.14-.34-.36-.59-.65-.75s-.65-.23-1.08-.21c-.34,0-.66.05-.95.16-.29.11-.54.26-.75.46s-.37.43-.49.69c-.12.26-.18.54-.18.84v6.82h-3.04Z"/>
    <path class="st5" d="M451.55,569.37c-1,0-1.89-.25-2.67-.76-.78-.51-1.39-1.2-1.84-2.08-.45-.88-.68-1.9-.68-3.05s.23-2.14.68-3.03,1.06-1.59,1.84-2.1c.78-.51,1.67-.76,2.67-.76.53,0,1.04.08,1.53.25.49.17.94.39,1.33.68.39.29.71.6.95.95s.38.71.41,1.08l-.77.15v-7.4h3.07v15.87h-2.89l-.13-2.62.6.06c-.03.36-.16.7-.39,1.03-.23.33-.53.63-.91.89-.38.26-.81.47-1.29.62-.48.15-.98.23-1.51.23ZM452.24,566.84c.57,0,1.07-.14,1.5-.43s.76-.68,1.01-1.18c.24-.5.36-1.09.36-1.76s-.12-1.24-.36-1.74c-.24-.5-.58-.89-1.01-1.18s-.93-.43-1.5-.43-1.07.14-1.49.43-.75.68-.99,1.18c-.24.5-.35,1.08-.35,1.74s.12,1.26.35,1.76c.24.5.56.89.99,1.18s.92.43,1.49.43Z"/>
    <path class="st5" d="M464.83,569.37c-1.06,0-2-.18-2.82-.53-.82-.35-1.48-.83-1.98-1.45l1.91-1.63c.43.47.92.81,1.46,1.02s1.09.31,1.63.31c.21,0,.41-.02.59-.08.18-.05.33-.12.46-.21.13-.09.23-.21.29-.34s.1-.28.1-.44c0-.31-.13-.56-.39-.73-.14-.09-.36-.18-.66-.29-.3-.11-.69-.23-1.16-.35-.73-.19-1.35-.4-1.85-.65-.51-.25-.91-.53-1.21-.85-.26-.3-.45-.62-.59-.98-.14-.35-.2-.74-.2-1.17,0-.51.11-.98.34-1.4s.55-.78.95-1.08c.41-.3.88-.53,1.41-.7.53-.16,1.09-.25,1.67-.25s1.16.07,1.72.21c.56.14,1.08.35,1.55.61.48.26.9.58,1.25.93l-1.63,1.8c-.26-.24-.55-.46-.87-.67s-.65-.36-1-.47-.65-.17-.92-.17c-.24,0-.46.02-.65.06-.19.04-.35.11-.48.2-.13.09-.22.2-.29.33s-.1.27-.1.43.04.31.12.45c.08.14.19.26.33.36.16.09.39.19.7.3.31.11.72.24,1.25.39.69.19,1.27.39,1.75.62.48.23.86.49,1.15.79.24.26.42.55.54.88.11.33.17.69.17,1.09,0,.7-.2,1.32-.59,1.87-.39.54-.93.97-1.62,1.29-.69.31-1.46.47-2.32.47Z"/>
  </g>
  <g>
    <path class="st5" d="M600.88,491.96v-15.01h2.87l8.3,11.21h-.6c-.06-.44-.11-.88-.15-1.3-.04-.42-.08-.85-.12-1.29-.04-.44-.06-.89-.09-1.35s-.04-.96-.05-1.48c-.01-.52-.02-1.09-.02-1.71v-4.09h3.15v15.01h-2.92l-8.47-11.32.81.02c.07.74.13,1.38.18,1.9.05.52.09.98.13,1.36.04.39.06.72.08,1.01.01.29.02.56.03.82,0,.26,0,.53,0,.81v5.4h-3.15Z"/>
    <path class="st5" d="M621.89,492.18c-.94,0-1.79-.26-2.55-.77s-1.36-1.21-1.8-2.1c-.44-.89-.67-1.9-.67-3.04s.23-2.16.68-3.04c.45-.89,1.06-1.58,1.83-2.08.77-.5,1.65-.75,2.64-.75.56,0,1.07.08,1.53.25.46.17.87.39,1.22.68s.65.61.89.99.42.77.51,1.2l-.64-.11v-2.77h3.02v11.34h-3.07v-2.72l.69-.06c-.11.4-.3.78-.56,1.14-.26.36-.58.68-.95.95-.38.28-.8.5-1.28.67s-.97.25-1.5.25ZM622.73,489.54c.57,0,1.07-.14,1.5-.41s.76-.65,1-1.15c.24-.49.35-1.07.35-1.73s-.12-1.21-.35-1.69c-.24-.49-.57-.87-1-1.15-.43-.28-.93-.42-1.5-.42s-1.05.14-1.47.42c-.42.28-.75.66-1,1.15-.24.49-.36,1.05-.36,1.69s.12,1.23.36,1.73.58.88,1,1.15c.42.27.91.41,1.47.41Z"/>
    <path class="st5" d="M630.57,483.35v-2.72h7.5v2.72h-7.5ZM632.7,491.96v-14.22h3.04v14.22h-3.04Z"/>
    <path class="st5" d="M643.95,492.18c-.83,0-1.54-.18-2.13-.55-.59-.37-1.05-.89-1.37-1.57s-.48-1.5-.48-2.46v-6.99h3.04v6.5c0,.51.09.96.26,1.34.17.38.42.67.73.87.31.2.7.3,1.16.3.33,0,.63-.05.91-.16.28-.11.52-.26.73-.46s.37-.44.48-.71.17-.57.17-.88v-6.8h3.04v11.34h-2.89l-.11-2.34.56-.26c-.17.53-.46,1.01-.86,1.44-.4.43-.88.77-1.44,1.01-.56.24-1.16.37-1.8.37Z"/>
    <path class="st5" d="M653.56,491.96v-11.34h2.94l.11,3.65-.51-.75c.17-.59.45-1.12.84-1.6.39-.48.84-.85,1.36-1.13s1.07-.41,1.64-.41c.24,0,.48.02.71.06s.42.09.58.15l-.81,3.35c-.16-.09-.36-.16-.61-.23s-.5-.1-.76-.1c-.34,0-.66.06-.95.18-.29.12-.55.29-.76.51-.21.22-.38.48-.5.78-.12.3-.18.63-.18.99v5.88h-3.07Z"/>
    <path class="st5" d="M666.72,492.18c-.94,0-1.79-.26-2.55-.77s-1.36-1.21-1.8-2.1c-.44-.89-.67-1.9-.67-3.04s.23-2.16.68-3.04c.45-.89,1.06-1.58,1.83-2.08.77-.5,1.65-.75,2.64-.75.56,0,1.07.08,1.53.25.46.17.87.39,1.22.68s.65.61.89.99.42.77.51,1.2l-.64-.11v-2.77h3.02v11.34h-3.07v-2.72l.69-.06c-.11.4-.3.78-.56,1.14-.26.36-.58.68-.95.95-.38.28-.8.5-1.28.67s-.97.25-1.5.25ZM667.56,489.54c.57,0,1.07-.14,1.5-.41s.76-.65,1-1.15c.24-.49.35-1.07.35-1.73s-.12-1.21-.35-1.69c-.24-.49-.57-.87-1-1.15-.43-.28-.93-.42-1.5-.42s-1.05.14-1.47.42c-.42.28-.75.66-1,1.15-.24.49-.36,1.05-.36,1.69s.12,1.23.36,1.73.58.88,1,1.15c.42.27.91.41,1.47.41Z"/>
    <path class="st5" d="M676.46,491.96v-15.87h3.04v15.87h-3.04Z"/>
    <path class="st5" d="M596.63,517.91c-.93,0-1.78-.12-2.54-.34s-1.44-.56-2.04-1.01c-.59-.44-1.12-.98-1.6-1.61l2.02-2.29c.7.97,1.4,1.63,2.09,1.98.69.35,1.45.53,2.26.53.44,0,.84-.06,1.19-.19.35-.13.62-.3.83-.53s.3-.49.3-.8c0-.23-.05-.44-.15-.63-.1-.19-.24-.37-.43-.51-.19-.15-.41-.29-.67-.41-.26-.12-.54-.23-.86-.32-.31-.09-.66-.17-1.03-.22-.8-.19-1.5-.41-2.1-.68-.6-.26-1.1-.59-1.5-.99-.4-.39-.7-.84-.89-1.34-.19-.5-.29-1.06-.29-1.69s.14-1.24.43-1.79c.29-.55.68-1.03,1.19-1.43.51-.4,1.09-.71,1.76-.92.67-.21,1.37-.32,2.11-.32.91,0,1.71.1,2.4.3.69.2,1.28.5,1.79.89.51.39.93.87,1.28,1.43l-2.04,1.97c-.3-.4-.63-.74-.98-1.01-.35-.27-.73-.47-1.14-.61-.41-.14-.83-.2-1.25-.2-.47,0-.88.06-1.22.18-.34.12-.61.3-.8.54-.19.24-.29.51-.29.83,0,.26.06.49.19.69s.31.38.56.53.54.28.88.4c.34.12.72.21,1.14.3.79.16,1.49.36,2.12.62.63.26,1.17.57,1.62.93.45.36.8.79,1.04,1.29s.36,1.05.36,1.66c0,1.02-.24,1.88-.73,2.59-.49.71-1.16,1.26-2.02,1.64-.86.38-1.86.57-3,.57Z"/>
    <path class="st5" d="M610.25,517.91c-1.23,0-2.3-.25-3.23-.75-.92-.5-1.64-1.19-2.14-2.06-.51-.87-.76-1.87-.76-3,0-.89.14-1.69.43-2.42.29-.73.69-1.36,1.2-1.9.51-.54,1.13-.95,1.83-1.24.71-.29,1.48-.44,2.31-.44.77,0,1.49.14,2.14.43s1.23.68,1.71,1.19c.48.51.85,1.11,1.1,1.8.26.69.37,1.44.34,2.24l-.02.94h-9.11l-.49-1.87h7.1l-.34.39v-.47c-.03-.39-.15-.73-.38-1.04-.22-.31-.5-.55-.85-.73s-.73-.27-1.16-.27c-.63,0-1.16.12-1.6.36-.44.24-.77.6-1,1.07-.23.47-.34,1.04-.34,1.71s.15,1.28.44,1.78c.29.5.71.89,1.24,1.17s1.17.42,1.9.42c.5,0,.96-.08,1.37-.24.42-.16.86-.43,1.33-.82l1.46,2.04c-.42.37-.87.68-1.37.93-.5.25-1.01.44-1.54.57-.53.13-1.05.19-1.57.19Z"/>
    <path class="st5" d="M617.41,517.69v-11.34h2.94l.06,2.17-.45.09c.16-.37.37-.71.63-1.01.26-.3.57-.56.91-.77.34-.21.71-.38,1.09-.5.39-.12.77-.18,1.16-.18.59,0,1.12.09,1.59.28.47.19.87.48,1.2.87.33.39.59.91.77,1.55l-.47-.04.15-.34c.19-.34.42-.66.71-.94.29-.29.61-.53.96-.73.36-.2.73-.36,1.11-.47.39-.11.76-.17,1.14-.17.89,0,1.62.17,2.21.53.59.35,1.03.88,1.32,1.58.29.7.44,1.56.44,2.57v6.88h-3.04v-6.67c0-.51-.07-.94-.21-1.27-.14-.33-.35-.58-.62-.74s-.62-.25-1.05-.25c-.33,0-.63.05-.91.16s-.52.26-.73.45c-.21.19-.37.42-.48.69s-.17.55-.17.85v6.78h-3.07v-6.69c0-.47-.07-.88-.21-1.21-.14-.33-.35-.59-.62-.76-.27-.17-.61-.26-1.01-.26-.33,0-.63.05-.91.16-.28.11-.52.26-.72.45-.2.19-.36.42-.47.68-.11.26-.17.54-.17.84v6.8h-3.07Z"/>
    <path class="st5" d="M642.02,517.91c-.94,0-1.79-.26-2.55-.77s-1.36-1.21-1.8-2.1c-.44-.89-.67-1.9-.67-3.04s.23-2.16.68-3.04c.45-.89,1.06-1.58,1.83-2.08.77-.5,1.65-.75,2.64-.75.56,0,1.07.08,1.53.25.46.17.87.39,1.22.68s.65.61.89.99.42.77.51,1.2l-.64-.11v-2.77h3.02v11.34h-3.07v-2.72l.69-.06c-.11.4-.3.78-.56,1.14-.26.36-.58.68-.95.95-.38.28-.8.5-1.28.67s-.97.25-1.5.25ZM642.86,515.27c.57,0,1.07-.14,1.5-.41s.76-.65,1-1.15c.24-.49.35-1.07.35-1.73s-.12-1.21-.35-1.69c-.24-.49-.57-.87-1-1.15-.43-.28-.93-.42-1.5-.42s-1.05.14-1.47.42c-.42.28-.75.66-1,1.15-.24.49-.36,1.05-.36,1.69s.12,1.23.36,1.73.58.88,1,1.15c.42.27.91.41,1.47.41Z"/>
    <path class="st5" d="M651.74,517.69v-11.34h2.92l.09,2.32-.6.26c.16-.51.44-.98.85-1.4s.9-.76,1.47-1.02c.57-.26,1.17-.39,1.8-.39.86,0,1.58.17,2.16.51s1.01.86,1.31,1.55.44,1.55.44,2.56v6.95h-3.04v-6.71c0-.51-.07-.94-.21-1.29-.14-.34-.36-.59-.65-.75s-.65-.23-1.08-.21c-.34,0-.66.05-.95.16-.29.11-.54.26-.75.46s-.37.43-.49.69c-.12.26-.18.54-.18.84v6.82h-3.04Z"/>
    <path class="st5" d="M664.04,509.08v-2.72h7.5v2.72h-7.5ZM666.17,517.69v-14.22h3.04v14.22h-3.04Z"/>
    <path class="st5" d="M675.28,504.04c-.59,0-1.04-.15-1.37-.44s-.49-.7-.49-1.23c0-.49.17-.88.5-1.19s.79-.46,1.36-.46,1.04.15,1.37.44c.33.29.49.7.49,1.21,0,.49-.17.89-.5,1.2s-.79.47-1.36.47ZM673.78,517.69v-11.34h3.04v11.34h-3.04Z"/>
    <path class="st5" d="M685.01,517.91c-1.09,0-2.06-.26-2.92-.77-.86-.51-1.53-1.21-2.03-2.1-.49-.89-.74-1.89-.74-3.02s.25-2.14.74-3.02c.49-.89,1.17-1.59,2.03-2.1.86-.51,1.83-.77,2.92-.77,1.01,0,1.94.19,2.79.56.84.37,1.5.89,1.97,1.54l-1.67,2.01c-.2-.27-.45-.52-.75-.74s-.63-.4-.98-.53c-.35-.13-.71-.19-1.08-.19-.59,0-1.1.14-1.55.42-.45.28-.8.66-1.06,1.15-.26.49-.39,1.04-.39,1.67s.13,1.14.4,1.63c.26.49.63.87,1.08,1.16.46.29.97.43,1.54.43.37,0,.72-.05,1.05-.15.33-.1.64-.26.93-.47.29-.21.56-.47.8-.77l1.65,2.02c-.47.61-1.14,1.11-2,1.49-.87.38-1.78.57-2.73.57Z"/>
    <path class="st5" d="M563.7,543.42v-15.01h2.94l5.47,8.9-1.93-.02,5.53-8.88h2.81v15.01h-3.15v-5.15c0-1.29.03-2.44.1-3.47s.17-2.05.33-3.07l.39,1.01-4.4,6.82h-1.42l-4.31-6.78.36-1.05c.16.96.27,1.94.33,2.95s.1,2.21.1,3.59v5.15h-3.15Z"/>
    <path class="st5" d="M586.23,543.64c-.94,0-1.79-.26-2.55-.77s-1.36-1.21-1.8-2.1c-.44-.89-.67-1.9-.67-3.04s.23-2.16.68-3.04c.45-.89,1.06-1.58,1.83-2.08.77-.5,1.65-.75,2.64-.75.56,0,1.07.08,1.53.25.46.17.87.39,1.22.68s.65.61.89.99.42.77.51,1.2l-.64-.11v-2.77h3.02v11.34h-3.07v-2.72l.69-.06c-.11.4-.3.78-.56,1.14-.26.36-.58.68-.95.95-.38.28-.8.5-1.28.67s-.97.25-1.5.25ZM587.07,541c.57,0,1.07-.14,1.5-.41s.76-.65,1-1.15c.24-.49.35-1.07.35-1.73s-.12-1.21-.35-1.69c-.24-.49-.57-.87-1-1.15-.43-.28-.93-.42-1.5-.42s-1.05.14-1.47.42c-.42.28-.75.66-1,1.15-.24.49-.36,1.05-.36,1.69s.12,1.23.36,1.73.58.88,1,1.15c.42.27.91.41,1.47.41Z"/>
    <path class="st5" d="M594.92,534.8v-2.72h7.5v2.72h-7.5ZM597.04,543.42v-14.22h3.04v14.22h-3.04Z"/>
    <path class="st5" d="M608.53,543.64c-.94,0-1.79-.26-2.55-.77s-1.36-1.21-1.8-2.1c-.44-.89-.67-1.9-.67-3.04s.23-2.16.68-3.04c.45-.89,1.06-1.58,1.83-2.08.77-.5,1.65-.75,2.64-.75.56,0,1.07.08,1.53.25.46.17.87.39,1.22.68s.65.61.89.99.42.77.51,1.2l-.64-.11v-2.77h3.02v11.34h-3.07v-2.72l.69-.06c-.11.4-.3.78-.56,1.14-.26.36-.58.68-.95.95-.38.28-.8.5-1.28.67s-.97.25-1.5.25ZM609.37,541c.57,0,1.07-.14,1.5-.41s.76-.65,1-1.15c.24-.49.35-1.07.35-1.73s-.12-1.21-.35-1.69c-.24-.49-.57-.87-1-1.15-.43-.28-.93-.42-1.5-.42s-1.05.14-1.47.42c-.42.28-.75.66-1,1.15-.24.49-.36,1.05-.36,1.69s.12,1.23.36,1.73.58.88,1,1.15c.42.27.91.41,1.47.41Z"/>
    <path class="st5" d="M618.27,543.42v-15.87h3.04v15.87h-3.04Z"/>
    <path class="st5" d="M628.43,543.64c-.94,0-1.79-.26-2.55-.77s-1.36-1.21-1.8-2.1c-.44-.89-.67-1.9-.67-3.04s.23-2.16.68-3.04c.45-.89,1.06-1.58,1.83-2.08.77-.5,1.65-.75,2.64-.75.56,0,1.07.08,1.53.25.46.17.87.39,1.22.68s.65.61.89.99.42.77.51,1.2l-.64-.11v-2.77h3.02v11.34h-3.07v-2.72l.69-.06c-.11.4-.3.78-.56,1.14-.26.36-.58.68-.95.95-.38.28-.8.5-1.28.67s-.97.25-1.5.25ZM629.27,541c.57,0,1.07-.14,1.5-.41s.76-.65,1-1.15c.24-.49.35-1.07.35-1.73s-.12-1.21-.35-1.69c-.24-.49-.57-.87-1-1.15-.43-.28-.93-.42-1.5-.42s-1.05.14-1.47.42c-.42.28-.75.66-1,1.15-.24.49-.36,1.05-.36,1.69s.12,1.23.36,1.73.58.88,1,1.15c.42.27.91.41,1.47.41Z"/>
    <path class="st5" d="M638.14,543.42v-11.34h2.92l.09,2.32-.6.26c.16-.51.44-.98.85-1.4s.9-.76,1.47-1.02c.57-.26,1.17-.39,1.8-.39.86,0,1.58.17,2.16.51s1.01.86,1.31,1.55.44,1.55.44,2.56v6.95h-3.04v-6.71c0-.51-.07-.94-.21-1.29-.14-.34-.36-.59-.65-.75s-.65-.23-1.08-.21c-.34,0-.66.05-.95.16-.29.11-.54.26-.75.46s-.37.43-.49.69c-.12.26-.18.54-.18.84v6.82h-3.04Z"/>
    <path class="st5" d="M656.65,548.36c-.9,0-1.79-.13-2.66-.4-.87-.26-1.59-.61-2.14-1.04l1.09-2.17c.29.2.61.38.99.54.37.16.76.28,1.17.36.41.09.83.13,1.25.13.74,0,1.35-.11,1.83-.34.48-.23.84-.57,1.08-1.03.24-.46.36-1.03.36-1.71v-1.97l.51.11c-.09.47-.33.9-.72,1.3s-.88.71-1.46.94c-.58.24-1.18.35-1.81.35-1.04,0-1.97-.24-2.79-.73-.81-.49-1.46-1.16-1.93-2.02-.47-.86-.71-1.85-.71-2.98s.23-2.13.7-3.01c.46-.88,1.1-1.57,1.91-2.08.81-.51,1.73-.76,2.75-.76.43,0,.84.05,1.23.15.39.1.76.24,1.09.42.33.18.64.38.9.6.26.22.48.46.65.72.17.26.28.51.32.77l-.62.17.09-2.59h2.92v10.49c0,.93-.14,1.75-.41,2.47-.27.71-.67,1.32-1.19,1.81s-1.16.87-1.91,1.13c-.75.26-1.59.39-2.52.39ZM656.73,540.98c.6,0,1.13-.14,1.58-.41s.8-.65,1.04-1.14c.24-.49.36-1.06.36-1.71s-.12-1.21-.36-1.71c-.24-.49-.59-.88-1.04-1.15s-.98-.41-1.58-.41-1.1.14-1.54.42c-.44.28-.79.66-1.04,1.16s-.38,1.05-.38,1.68.12,1.21.38,1.7.6.88,1.04,1.15.96.41,1.54.41Z"/>
    <path class="st5" d="M669.43,543.64c-.83,0-1.54-.18-2.13-.55-.59-.37-1.05-.89-1.37-1.57s-.48-1.5-.48-2.46v-6.99h3.04v6.5c0,.51.09.96.26,1.34.17.38.42.67.73.87.31.2.7.3,1.16.3.33,0,.63-.05.91-.16.28-.11.52-.26.73-.46s.37-.44.48-.71.17-.57.17-.88v-6.8h3.04v11.34h-2.89l-.11-2.34.56-.26c-.17.53-.46,1.01-.86,1.44-.4.43-.88.77-1.44,1.01-.56.24-1.16.37-1.8.37Z"/>
    <path class="st5" d="M683.28,543.64c-.94,0-1.79-.26-2.55-.77s-1.36-1.21-1.8-2.1c-.44-.89-.67-1.9-.67-3.04s.23-2.16.68-3.04c.45-.89,1.06-1.58,1.83-2.08.77-.5,1.65-.75,2.64-.75.56,0,1.07.08,1.53.25.46.17.87.39,1.22.68s.65.61.89.99.42.77.51,1.2l-.64-.11v-2.77h3.02v11.34h-3.07v-2.72l.69-.06c-.11.4-.3.78-.56,1.14-.26.36-.58.68-.95.95-.38.28-.8.5-1.28.67s-.97.25-1.5.25ZM684.11,541c.57,0,1.07-.14,1.5-.41s.76-.65,1-1.15c.24-.49.35-1.07.35-1.73s-.12-1.21-.35-1.69c-.24-.49-.57-.87-1-1.15-.43-.28-.93-.42-1.5-.42s-1.05.14-1.47.42c-.42.28-.75.66-1,1.15-.24.49-.36,1.05-.36,1.69s.12,1.23.36,1.73.58.88,1,1.15c.42.27.91.41,1.47.41Z"/>
    <path class="st5" d="M698.16,548.36c-.9,0-1.79-.13-2.66-.4-.87-.26-1.59-.61-2.14-1.04l1.09-2.17c.29.2.61.38.99.54.37.16.76.28,1.17.36.41.09.83.13,1.25.13.74,0,1.35-.11,1.83-.34.48-.23.84-.57,1.08-1.03.24-.46.36-1.03.36-1.71v-1.97l.51.11c-.09.47-.33.9-.72,1.3s-.88.71-1.46.94c-.58.24-1.18.35-1.81.35-1.04,0-1.97-.24-2.79-.73-.81-.49-1.46-1.16-1.93-2.02-.47-.86-.71-1.85-.71-2.98s.23-2.13.7-3.01c.46-.88,1.1-1.57,1.91-2.08.81-.51,1.73-.76,2.75-.76.43,0,.84.05,1.23.15.39.1.76.24,1.09.42.33.18.64.38.9.6.26.22.48.46.65.72.17.26.28.51.32.77l-.62.17.09-2.59h2.92v10.49c0,.93-.14,1.75-.41,2.47-.27.71-.67,1.32-1.19,1.81s-1.16.87-1.91,1.13c-.75.26-1.59.39-2.52.39ZM698.24,540.98c.6,0,1.13-.14,1.58-.41s.8-.65,1.04-1.14c.24-.49.36-1.06.36-1.71s-.12-1.21-.36-1.71c-.24-.49-.59-.88-1.04-1.15s-.98-.41-1.58-.41-1.1.14-1.54.42c-.44.28-.79.66-1.04,1.16s-.38,1.05-.38,1.68.12,1.21.38,1.7.6.88,1.04,1.15.96.41,1.54.41Z"/>
    <path class="st5" d="M712.59,543.64c-1.23,0-2.3-.25-3.23-.75-.92-.5-1.64-1.19-2.14-2.06-.51-.87-.76-1.87-.76-3,0-.89.14-1.69.43-2.42.29-.73.69-1.36,1.2-1.9.51-.54,1.13-.95,1.83-1.24.71-.29,1.48-.44,2.31-.44.77,0,1.49.14,2.14.43s1.23.68,1.71,1.19c.48.51.85,1.11,1.1,1.8.26.69.37,1.44.34,2.24l-.02.94h-9.11l-.49-1.87h7.1l-.34.39v-.47c-.03-.39-.15-.73-.38-1.04-.22-.31-.5-.55-.85-.73s-.73-.27-1.16-.27c-.63,0-1.16.12-1.6.36-.44.24-.77.6-1,1.07-.23.47-.34,1.04-.34,1.71s.15,1.28.44,1.78c.29.5.71.89,1.24,1.17s1.17.42,1.9.42c.5,0,.96-.08,1.37-.24.42-.16.86-.43,1.33-.82l1.46,2.04c-.42.37-.87.68-1.37.93-.5.25-1.01.44-1.54.57-.53.13-1.05.19-1.57.19Z"/>
  </g>
  <g>
    <path class="st5" d="M801.72,492.18c-.93,0-1.78-.12-2.54-.34s-1.44-.56-2.04-1.01c-.59-.44-1.12-.98-1.6-1.61l2.02-2.29c.7.97,1.4,1.63,2.09,1.98.69.35,1.45.53,2.26.53.44,0,.84-.06,1.19-.19.35-.13.62-.3.83-.53s.3-.49.3-.8c0-.23-.05-.44-.15-.63-.1-.19-.24-.37-.43-.51-.19-.15-.41-.29-.67-.41-.26-.12-.54-.23-.86-.32-.31-.09-.66-.17-1.03-.22-.8-.19-1.5-.41-2.1-.68-.6-.26-1.1-.59-1.5-.99-.4-.39-.7-.84-.89-1.34-.19-.5-.29-1.06-.29-1.69s.14-1.24.43-1.79c.29-.55.68-1.03,1.19-1.43.51-.4,1.09-.71,1.76-.92.67-.21,1.37-.32,2.11-.32.91,0,1.71.1,2.4.3.69.2,1.28.5,1.79.89.51.39.93.87,1.28,1.43l-2.04,1.97c-.3-.4-.63-.74-.98-1.01-.35-.27-.73-.47-1.14-.61-.41-.14-.83-.2-1.25-.2-.47,0-.88.06-1.22.18-.34.12-.61.3-.8.54-.19.24-.29.51-.29.83,0,.26.06.49.19.69s.31.38.56.53.54.28.88.4c.34.12.72.21,1.14.3.79.16,1.49.36,2.12.62.63.26,1.17.57,1.62.93.45.36.8.79,1.04,1.29s.36,1.05.36,1.66c0,1.02-.24,1.88-.73,2.59-.49.71-1.16,1.26-2.02,1.64-.86.38-1.86.57-3,.57Z"/>
    <path class="st5" d="M808.92,483.35v-2.72h7.5v2.72h-7.5ZM811.05,491.96v-14.22h3.04v14.22h-3.04Z"/>
    <path class="st5" d="M819.99,496.9l2.49-5.83.04,1.76-5.53-12.2h3.45l2.77,6.54c.11.24.23.53.33.85.11.32.2.63.27.91l-.51.24c.1-.24.2-.52.31-.84s.22-.65.33-1.01l2.38-6.69h3.47l-4.76,11.34-1.95,4.93h-3.09Z"/>
    <path class="st5" d="M831.44,491.96v-15.87h3.04v15.87h-3.04Z"/>
    <path class="st5" d="M842.74,492.18c-1.23,0-2.3-.25-3.23-.75-.92-.5-1.64-1.19-2.14-2.06-.51-.87-.76-1.87-.76-3,0-.89.14-1.69.43-2.42.29-.73.69-1.36,1.2-1.9.51-.54,1.13-.95,1.83-1.24.71-.29,1.48-.44,2.31-.44.77,0,1.49.14,2.14.43s1.23.68,1.71,1.19c.48.51.85,1.11,1.1,1.8.26.69.37,1.44.34,2.24l-.02.94h-9.11l-.49-1.87h7.1l-.34.39v-.47c-.03-.39-.15-.73-.38-1.04-.22-.31-.5-.55-.85-.73s-.73-.27-1.16-.27c-.63,0-1.16.12-1.6.36-.44.24-.77.6-1,1.07-.23.47-.34,1.04-.34,1.71s.15,1.28.44,1.78c.29.5.71.89,1.24,1.17s1.17.42,1.9.42c.5,0,.96-.08,1.37-.24.42-.16.86-.43,1.33-.82l1.46,2.04c-.42.37-.87.68-1.37.93-.5.25-1.01.44-1.54.57-.53.13-1.05.19-1.57.19Z"/>
    <path class="st5" d="M860.75,492.18c-.94,0-1.79-.26-2.55-.77s-1.36-1.21-1.8-2.1c-.44-.89-.67-1.9-.67-3.04s.23-2.16.68-3.04c.45-.89,1.06-1.58,1.83-2.08.77-.5,1.65-.75,2.64-.75.56,0,1.07.08,1.53.25.46.17.87.39,1.22.68s.65.61.89.99.42.77.51,1.2l-.64-.11v-2.77h3.02v11.34h-3.07v-2.72l.69-.06c-.11.4-.3.78-.56,1.14-.26.36-.58.68-.95.95-.38.28-.8.5-1.28.67s-.97.25-1.5.25ZM861.58,489.54c.57,0,1.07-.14,1.5-.41s.76-.65,1-1.15c.24-.49.35-1.07.35-1.73s-.12-1.21-.35-1.69c-.24-.49-.57-.87-1-1.15-.43-.28-.93-.42-1.5-.42s-1.05.14-1.47.42c-.42.28-.75.66-1,1.15-.24.49-.36,1.05-.36,1.69s.12,1.23.36,1.73.58.88,1,1.15c.42.27.91.41,1.47.41Z"/>
    <path class="st5" d="M870.46,491.96v-11.34h2.92l.09,2.32-.6.26c.16-.51.44-.98.85-1.4s.9-.76,1.47-1.02c.57-.26,1.17-.39,1.8-.39.86,0,1.58.17,2.16.51s1.01.86,1.31,1.55.44,1.55.44,2.56v6.95h-3.04v-6.71c0-.51-.07-.94-.21-1.29-.14-.34-.36-.59-.65-.75s-.65-.23-1.08-.21c-.34,0-.66.05-.95.16-.29.11-.54.26-.75.46s-.37.43-.49.69c-.12.26-.18.54-.18.84v6.82h-3.04Z"/>
    <path class="st5" d="M888.23,492.18c-1,0-1.89-.25-2.67-.76-.78-.51-1.39-1.2-1.84-2.08-.45-.88-.68-1.9-.68-3.05s.23-2.14.68-3.03,1.06-1.59,1.84-2.1c.78-.51,1.67-.76,2.67-.76.53,0,1.04.08,1.53.25.49.17.94.39,1.33.68.39.29.71.6.95.95s.38.71.41,1.08l-.77.15v-7.4h3.07v15.87h-2.89l-.13-2.62.6.06c-.03.36-.16.7-.39,1.03-.23.33-.53.63-.91.89-.38.26-.81.47-1.29.62-.48.15-.98.23-1.51.23ZM888.92,489.65c.57,0,1.07-.14,1.5-.43s.76-.68,1.01-1.18c.24-.5.36-1.09.36-1.76s-.12-1.24-.36-1.74c-.24-.5-.58-.89-1.01-1.18s-.93-.43-1.5-.43-1.07.14-1.49.43-.75.68-.99,1.18c-.24.5-.35,1.08-.35,1.74s.12,1.26.35,1.76c.24.5.56.89.99,1.18s.92.43,1.49.43Z"/>
    <path class="st5" d="M786.47,517.91c-1.1,0-2.11-.19-3.03-.57-.92-.38-1.72-.92-2.4-1.61-.68-.69-1.21-1.51-1.58-2.47-.37-.95-.56-1.99-.56-3.12s.19-2.12.58-3.06.93-1.75,1.63-2.44,1.52-1.23,2.47-1.62,1.97-.58,3.07-.58c.71,0,1.42.1,2.11.29.69.19,1.33.48,1.91.85.58.37,1.08.81,1.49,1.33l-2.02,2.23c-.33-.34-.68-.64-1.05-.89-.37-.25-.76-.44-1.17-.58-.41-.14-.84-.2-1.3-.2-.61,0-1.19.12-1.73.34-.54.23-1,.55-1.4.96-.4.41-.72.9-.95,1.48-.24.58-.35,1.22-.35,1.92s.11,1.36.34,1.94c.23.58.55,1.07.96,1.48.41.41.91.72,1.49.94.58.22,1.22.33,1.92.33.46,0,.9-.06,1.33-.19s.83-.31,1.19-.54c.37-.23.69-.49.98-.79l1.59,2.51c-.36.39-.83.74-1.4,1.05s-1.23.56-1.94.74-1.44.27-2.17.27Z"/>
    <path class="st5" d="M799.51,517.91c-1.16,0-2.19-.25-3.1-.76-.91-.51-1.62-1.2-2.14-2.09-.52-.89-.78-1.9-.78-3.04s.26-2.16.78-3.04c.52-.89,1.24-1.58,2.14-2.09.91-.51,1.94-.76,3.1-.76s2.17.25,3.08.76c.91.51,1.62,1.21,2.13,2.09.51.89.77,1.9.77,3.04s-.26,2.16-.77,3.04c-.51.89-1.23,1.58-2.13,2.09-.91.51-1.93.76-3.08.76ZM799.51,515.25c.56,0,1.06-.14,1.5-.42.44-.28.79-.67,1.04-1.16.25-.49.37-1.05.35-1.66.01-.63-.1-1.19-.35-1.68-.25-.49-.6-.88-1.04-1.16-.44-.28-.94-.42-1.5-.42s-1.08.14-1.52.43-.79.67-1.05,1.16c-.26.49-.38,1.04-.36,1.67-.01.61.11,1.17.36,1.66.26.49.61.88,1.05,1.16.44.28.95.42,1.52.42Z"/>
    <path class="st5" d="M807.79,517.69v-11.34h2.94l.06,2.17-.45.09c.16-.37.37-.71.63-1.01.26-.3.57-.56.91-.77.34-.21.71-.38,1.09-.5.39-.12.77-.18,1.16-.18.59,0,1.12.09,1.59.28.47.19.87.48,1.2.87.33.39.59.91.77,1.55l-.47-.04.15-.34c.19-.34.42-.66.71-.94.29-.29.61-.53.96-.73.36-.2.73-.36,1.11-.47.39-.11.76-.17,1.14-.17.89,0,1.62.17,2.21.53.59.35,1.03.88,1.32,1.58.29.7.44,1.56.44,2.57v6.88h-3.04v-6.67c0-.51-.07-.94-.21-1.27-.14-.33-.35-.58-.62-.74s-.62-.25-1.05-.25c-.33,0-.63.05-.91.16s-.52.26-.73.45c-.21.19-.37.42-.48.69s-.17.55-.17.85v6.78h-3.07v-6.69c0-.47-.07-.88-.21-1.21-.14-.33-.35-.59-.62-.76-.27-.17-.61-.26-1.01-.26-.33,0-.63.05-.91.16-.28.11-.52.26-.72.45-.2.19-.36.42-.47.68-.11.26-.17.54-.17.84v6.8h-3.07Z"/>
    <path class="st5" d="M828.16,522.41v-16.06h2.94l.09,2.55-.56-.19c.1-.46.35-.88.74-1.27.39-.39.88-.7,1.47-.94s1.2-.36,1.84-.36c.99,0,1.87.25,2.64.76.77.51,1.38,1.2,1.82,2.08s.67,1.89.67,3.03-.22,2.14-.67,3.02c-.44.89-1.05,1.58-1.82,2.09-.77.51-1.65.76-2.64.76-.66,0-1.28-.13-1.88-.38-.59-.25-1.09-.58-1.5-1-.41-.41-.67-.86-.78-1.33l.71-.3v7.53h-3.07ZM833.99,515.27c.56,0,1.05-.14,1.48-.41s.76-.65,1.01-1.15c.24-.49.36-1.06.36-1.7s-.12-1.21-.36-1.69c-.24-.49-.58-.86-1-1.14-.42-.27-.92-.41-1.49-.41s-1.07.13-1.5.4-.76.64-1.01,1.14-.36,1.06-.36,1.71.12,1.21.36,1.7.58.88,1.01,1.15.93.41,1.5.41Z"/>
    <path class="st5" d="M847.37,517.91c-1.16,0-2.19-.25-3.1-.76-.91-.51-1.62-1.2-2.14-2.09-.52-.89-.78-1.9-.78-3.04s.26-2.16.78-3.04c.52-.89,1.24-1.58,2.14-2.09.91-.51,1.94-.76,3.1-.76s2.17.25,3.08.76c.91.51,1.62,1.21,2.13,2.09.51.89.77,1.9.77,3.04s-.26,2.16-.77,3.04c-.51.89-1.23,1.58-2.13,2.09-.91.51-1.93.76-3.08.76ZM847.37,515.25c.56,0,1.06-.14,1.5-.42.44-.28.79-.67,1.04-1.16.25-.49.37-1.05.35-1.66.01-.63-.1-1.19-.35-1.68-.25-.49-.6-.88-1.04-1.16-.44-.28-.94-.42-1.5-.42s-1.08.14-1.52.43-.79.67-1.05,1.16c-.26.49-.38,1.04-.36,1.67-.01.61.11,1.17.36,1.66.26.49.61.88,1.05,1.16.44.28.95.42,1.52.42Z"/>
    <path class="st5" d="M859.48,517.91c-1.06,0-2-.18-2.82-.53-.82-.35-1.48-.83-1.98-1.45l1.91-1.63c.43.47.92.81,1.46,1.02s1.09.31,1.63.31c.21,0,.41-.02.59-.08.18-.05.33-.12.46-.21.13-.09.23-.21.29-.34s.1-.28.1-.44c0-.31-.13-.56-.39-.73-.14-.09-.36-.18-.66-.29-.3-.11-.69-.23-1.16-.35-.73-.19-1.35-.4-1.85-.65-.51-.25-.91-.53-1.21-.85-.26-.3-.45-.62-.59-.98-.14-.35-.2-.74-.2-1.17,0-.51.11-.98.34-1.4s.55-.78.95-1.08c.41-.3.88-.53,1.41-.7.53-.16,1.09-.25,1.67-.25s1.16.07,1.72.21c.56.14,1.08.35,1.55.61.48.26.9.58,1.25.93l-1.63,1.8c-.26-.24-.55-.46-.87-.67s-.65-.36-1-.47-.65-.17-.92-.17c-.24,0-.46.02-.65.06-.19.04-.35.11-.48.2-.13.09-.22.2-.29.33s-.1.27-.1.43.04.31.12.45c.08.14.19.26.33.36.16.09.39.19.7.3.31.11.72.24,1.25.39.69.19,1.27.39,1.75.62.48.23.86.49,1.15.79.24.26.42.55.54.88.11.33.17.69.17,1.09,0,.7-.2,1.32-.59,1.87-.39.54-.93.97-1.62,1.29-.69.31-1.46.47-2.32.47Z"/>
    <path class="st5" d="M867.93,504.04c-.59,0-1.04-.15-1.37-.44s-.49-.7-.49-1.23c0-.49.17-.88.5-1.19s.79-.46,1.36-.46,1.04.15,1.37.44c.33.29.49.7.49,1.21,0,.49-.17.89-.5,1.2s-.79.47-1.36.47ZM866.43,517.69v-11.34h3.04v11.34h-3.04Z"/>
    <path class="st5" d="M871.7,509.08v-2.72h7.5v2.72h-7.5ZM873.82,517.69v-14.22h3.04v14.22h-3.04Z"/>
    <path class="st5" d="M882.94,504.04c-.59,0-1.04-.15-1.37-.44s-.49-.7-.49-1.23c0-.49.17-.88.5-1.19s.79-.46,1.36-.46,1.04.15,1.37.44c.33.29.49.7.49,1.21,0,.49-.17.89-.5,1.2s-.79.47-1.36.47ZM881.44,517.69v-11.34h3.04v11.34h-3.04Z"/>
    <path class="st5" d="M893.01,517.91c-1.16,0-2.19-.25-3.1-.76-.91-.51-1.62-1.2-2.14-2.09-.52-.89-.78-1.9-.78-3.04s.26-2.16.78-3.04c.52-.89,1.24-1.58,2.14-2.09.91-.51,1.94-.76,3.1-.76s2.17.25,3.08.76c.91.51,1.62,1.21,2.13,2.09.51.89.77,1.9.77,3.04s-.26,2.16-.77,3.04c-.51.89-1.23,1.58-2.13,2.09-.91.51-1.93.76-3.08.76ZM893.01,515.25c.56,0,1.06-.14,1.5-.42.44-.28.79-.67,1.04-1.16.25-.49.37-1.05.35-1.66.01-.63-.1-1.19-.35-1.68-.25-.49-.6-.88-1.04-1.16-.44-.28-.94-.42-1.5-.42s-1.08.14-1.52.43-.79.67-1.05,1.16c-.26.49-.38,1.04-.36,1.67-.01.61.11,1.17.36,1.66.26.49.61.88,1.05,1.16.44.28.95.42,1.52.42Z"/>
    <path class="st5" d="M901.31,517.69v-11.34h2.92l.09,2.32-.6.26c.16-.51.44-.98.85-1.4s.9-.76,1.47-1.02c.57-.26,1.17-.39,1.8-.39.86,0,1.58.17,2.16.51s1.01.86,1.31,1.55.44,1.55.44,2.56v6.95h-3.04v-6.71c0-.51-.07-.94-.21-1.29-.14-.34-.36-.59-.65-.75s-.65-.23-1.08-.21c-.34,0-.66.05-.95.16-.29.11-.54.26-.75.46s-.37.43-.49.69c-.12.26-.18.54-.18.84v6.82h-3.04Z"/>
  </g>
</svg>