<?xml version="1.0" encoding="UTF-8"?>
<svg id="Layer_1" xmlns="http://www.w3.org/2000/svg" version="1.1" viewBox="0 0 1196.4 941.8">
  <!-- Generator: Adobe Illustrator 29.0.0, SVG Export Plug-In . SVG Version: 2.1.0 Build 186)  -->
  <defs>
    <style>
      .st0 {
        isolation: isolate;
      }

      .st1 {
        fill: #fff;
      }

      .st2 {
        fill: #c73319;
      }
    </style>
  </defs>
  <rect class="st1" width="1196.4" height="941.8"/>
  <g class="st0">
    <g class="st0">
      <path class="st2" d="M523.3,688.9v-15.6h6.3c.8,0,1.6.2,2.3.6.7.4,1.2,1,1.7,1.7.4.7.6,1.5.6,2.4s-.2,1.7-.6,2.4c-.4.7-1,1.3-1.7,1.7-.7.4-1.5.7-2.3.7h-3.9v6h-2.4ZM525.7,680.6h3.9c.4,0,.8-.1,1.1-.3.3-.2.6-.5.8-.9.2-.4.3-.8.3-1.3s-.1-.9-.3-1.2c-.2-.4-.5-.7-.8-.9-.3-.2-.7-.3-1.1-.3h-3.9v5Z"/>
    </g>
    <g class="st0">
      <path class="st2" d="M535.7,688.9l6-15.6h2.5l6,15.6h-2.6l-3.6-9.4c0-.1-.1-.4-.3-.8-.1-.4-.3-.8-.4-1.3s-.3-.9-.4-1.3c-.1-.4-.2-.7-.3-.8h.5c0,.2-.2.5-.3.9-.1.4-.3.8-.4,1.2-.1.4-.3.8-.4,1.2-.1.4-.2.7-.3.9l-3.5,9.3h-2.5ZM538.4,685l.9-2.3h7.1l1,2.3h-9Z"/>
      <path class="st2" d="M554.3,688.9v-15.6h9.8v2.3h-7.4v11h7.4v2.3h-9.8ZM555.3,682v-2.3h7.5v2.3h-7.5Z"/>
    </g>
    <g class="st0">
      <path class="st2" d="M569.3,688.9v-15.6h6.1c1.1,0,2.1.2,3,.6.9.4,1.7.9,2.3,1.6.6.7,1.1,1.5,1.5,2.5.3,1,.5,2,.5,3.2s-.2,2.2-.5,3.2-.8,1.8-1.5,2.5c-.6.7-1.4,1.2-2.3,1.6-.9.4-1.9.6-3,.6h-6.1ZM571.7,686.8v-.2c0,0,3.6,0,3.6,0,.8,0,1.5-.1,2.1-.4.6-.3,1.1-.6,1.6-1.1s.7-1,1-1.7.3-1.4.3-2.3-.1-1.6-.3-2.3c-.2-.7-.5-1.3-1-1.7-.4-.5-1-.8-1.6-1.1-.6-.3-1.3-.4-2.1-.4h-3.7v-.2c.1,0,.1,11.4.1,11.4Z"/>
    </g>
    <g class="st0">
      <path class="st2" d="M586.4,688.9v-2.2h2.5v-11.1h-2.5v-2.2h7.4v2.2h-2.5v11.1h2.5v2.2h-7.4Z"/>
    </g>
    <g class="st0">
      <path class="st2" d="M597.4,688.9l6-15.6h2.5l6,15.6h-2.6l-3.6-9.4c0-.1-.1-.4-.3-.8-.1-.4-.3-.8-.4-1.3-.2-.5-.3-.9-.4-1.3-.1-.4-.2-.7-.3-.8h.5c0,.2-.2.5-.3.9-.1.4-.3.8-.4,1.2-.1.4-.3.8-.4,1.2s-.2.7-.3.9l-3.5,9.3h-2.5ZM600.1,685l.9-2.3h7.1l1,2.3h-9Z"/>
    </g>
    <g class="st0">
      <path class="st2" d="M617.8,688.9v-13.3h-4.4v-2.3h11.3v2.3h-4.5v13.3h-2.4Z"/>
      <path class="st2" d="M629,688.9v-15.6h6.6c.9,0,1.7.2,2.5.7s1.3,1,1.8,1.8.7,1.6.7,2.5-.2,1.6-.7,2.4-1,1.3-1.8,1.7c-.7.4-1.6.7-2.5.7h-4.2v5.9h-2.4ZM631.4,680.7h4.5c.4,0,.8-.1,1.2-.3.3-.2.6-.5.8-.9.2-.4.3-.8.3-1.3s-.1-1-.4-1.4c-.2-.4-.6-.7-1-.9-.4-.2-.9-.3-1.5-.3h-3.8v5.1ZM638.3,688.9l-4-7,2.5-.6,4.4,7.6h-2.9Z"/>
    </g>
    <g class="st0">
      <path class="st2" d="M645.3,688.9v-2.2h2.5v-11.1h-2.5v-2.2h7.4v2.2h-2.5v11.1h2.5v2.2h-7.4Z"/>
    </g>
    <g class="st0">
      <path class="st2" d="M663.9,689.1c-1.1,0-2.1-.2-3-.6s-1.7-.9-2.4-1.7c-.7-.7-1.2-1.6-1.5-2.6s-.5-2.1-.5-3.2.2-2.2.6-3.1.9-1.8,1.6-2.5,1.5-1.3,2.4-1.7c.9-.4,1.9-.6,3-.6s1.5.1,2.2.3c.7.2,1.4.5,2,1,.6.4,1.1.9,1.4,1.4l-1.6,1.7c-.4-.4-.9-.8-1.3-1.1-.4-.3-.9-.5-1.3-.7s-.9-.2-1.4-.2c-.7,0-1.4.1-2,.4-.6.3-1.2.7-1.6,1.1s-.8,1.1-1.1,1.7c-.3.7-.4,1.4-.4,2.2s.1,1.6.4,2.3.6,1.3,1.1,1.8c.5.5,1,.9,1.7,1.1.7.3,1.4.4,2.2.4s1,0,1.4-.2.9-.3,1.3-.6.8-.5,1.1-.9l1.2,2c-.3.4-.8.8-1.4,1.1-.6.3-1.2.6-2,.8-.7.2-1.4.3-2.2.3Z"/>
      <path class="st2" d="M678.8,689.1c-.8,0-1.6-.1-2.4-.3s-1.4-.6-2-1-1.1-1-1.6-1.7l1.6-1.9c.7,1,1.4,1.8,2.1,2.2.7.4,1.5.6,2.4.6s1.1,0,1.5-.3c.5-.2.8-.4,1.1-.7.3-.3.4-.7.4-1.1s0-.5-.1-.8-.2-.5-.4-.6c-.2-.2-.4-.4-.7-.5-.3-.2-.6-.3-1-.4-.4-.1-.8-.2-1.3-.3-.8-.2-1.5-.4-2.1-.6s-1.1-.6-1.5-1c-.4-.4-.7-.9-.9-1.4-.2-.5-.3-1.1-.3-1.7s.1-1.2.4-1.7c.3-.5.7-1,1.1-1.4s1.1-.7,1.7-.9c.7-.2,1.4-.3,2.1-.3s1.5.1,2.2.3c.7.2,1.3.5,1.8.9.5.4,1,.9,1.3,1.5l-1.7,1.7c-.3-.5-.6-.9-1-1.2-.4-.3-.8-.6-1.2-.8-.4-.2-.9-.3-1.4-.3s-1.1,0-1.5.3c-.4.2-.8.4-1,.7s-.4.7-.4,1.1,0,.6.2.9.3.5.5.7c.2.2.6.4,1,.5s.9.3,1.5.4c.8.2,1.5.4,2.2.7.6.3,1.2.6,1.6,1,.4.4.8.8,1,1.2.2.5.3,1,.3,1.5,0,1-.2,1.9-.7,2.6-.5.7-1.1,1.3-2,1.7-.8.4-1.9.6-3,.6Z"/>
    </g>
  </g>
  <g>
    <path d="M464,282.7h267.8c20,2.2,37.3,19.2,39.9,39.2.5,89.7.5,179.5,0,269.2-2.8,20.1-20.1,37.1-40.4,39h-265.9c-21.5-2-39.9-21-40.9-42.6v-262.3c1-21.2,18.6-39.9,39.6-42.5h0ZM622.2,327.8c-.3.2-4.2-2.1-4.9-2.4-7.7-3.5-19.7-3.3-28.1-2.6-5.9.5-11,2-16.1,5-4.3-10.5-17.9-14.7-28.3-14.2-14.1.8-24.1,12.6-23.4,26.5.6,11.8,8.7,28.3,22.1,28.9-.5,1.8-.5,3.5-.5,5.4.4,20.9,8.2,38.8,26.4,49.9,36.4,22.2,82.3-3.4,83.8-45.6.1-3.7,0-7.2-1.2-10.7,11.3-.4,19.9-12.8,22-23,3.6-17.8-8.2-32.4-26.5-31.5-9.2.5-22.2,4.6-25.3,14.2h0ZM547,421.9c-10.3.9-15.1,8.5-20.7,16-10.4,14-19.8,29.7-22,47.4-1.6,13.3.6,38.8,11.1,48.3,10.8,9.8,28.4,4.2,34.1-8.4,5-11.2-2-18.6-1.3-29.4,1-16.1,14.1-26.8,21.4-39.8,10.3-18.5-2.1-36-22.7-34.2h0ZM680.7,533.8c11.5-10.6,13.3-39.6,10.3-54-3.6-17.8-15-34.7-26.2-48.6-3.8-4.7-7.5-8-13.7-9.1-19.8-3.4-35,13.8-25.3,32.5,7.1,13.7,20.1,23.2,22.1,39.8,1.4,12-6.9,19.8-.5,32.2,6,11.5,23.2,16.4,33.3,7.2h0ZM608.7,460.5h-20.8l-.4.4v18.2l-.4.4h-18.4v20.8l.4.4h18.4v18.4l.4.4h20.8v-18.7h18.7v-21.1h-18.4l-.4-.4v-18.6h0ZM583.9,543.6c-15.7-14.9-42.2-8.5-49.1,12-7.7,22.8,13.2,44.9,36.4,38.6,22.2-6,29.5-34.7,12.7-50.6h0ZM610.5,545.5c-14.1,15.9-7.2,41.6,12.9,48.2,24.5,8.1,47.3-16.5,37.1-40.2-8.7-20.1-35.5-24.4-50-8h0Z"/>
    <path d="M601.1,397.4v9.4c3.5,3,8.7,2.9,11.9-.5.9-1,2.2-3.8,2.9-4.3,1.8-1.3,4.4-.2,4.6,2s-3.7,6.8-5.5,8.1c-5.1,3.9-11.9,3-17.1-.3-4.8,2.9-11.4,3.6-16.5,1-2.5-1.3-5.9-4.5-7.2-7-1.1-2.2.2-4.6,2.7-4.4,2,.1,2.6,2.4,3.7,3.7,2.5,2.9,5.4,3.8,9.2,3.5,1.5-.1,5.2-.9,5.4-2.7.3-2.4-.2-5.4,0-7.9l-.2-.3c-5.9,0-6.7-9-1.2-10.1,1.3-.3,5.8-.3,7.3-.3,6.6.3,6.6,10.2,0,10h0Z"/>
    <path d="M575.6,368.9c7.5-.9,8.6,10.7,1.1,11.2s-8.3-10.4-1.1-11.2Z"/>
    <path d="M619,368.9c7.4-.9,8.6,10.6,1.1,11.2s-8.4-10.4-1.1-11.2Z"/>
  </g>
  <g>
    <path d="M885.5,831c-.2,0-.5,0-.6.2s-.2.3-.2.8c0,.4,0,3,0,5.4,0,1.9,0,3.3,0,3.8,0,1.3,0,1.7,1.3,2,.4,0,.6.2.6.4s-.4.3-.7.3c-.5,0-1.7,0-2.7,0s-1.6,0-2.3,0-.8,0-.8-.3.3-.3.5-.4c1-.2,1.3-.5,1.4-1.5,0-.8,0-2.2,0-3.3s0-5.4,0-6c0-.7-.2-1.1-1.3-1.2-.3,0-.5-.2-.5-.3,0-.2.2-.3.4-.3.2,0,.5,0,.7,0,1.3,0,3.1-.2,4-.2,2,0,3.4.4,4.2,1.2,1,1,1.2,2.1,1.2,2.8,0,1.7-.8,2.7-1.4,3.2-.5.5-1.7.9-2.5.9s-.8,0-1.1-.2c-.3-.1-.4-.2-.4-.4s.2-.2.3-.2h.3c.9,0,2.2-1,2.2-3.2s-1.1-3.4-2.9-3.4h0Z"/>
    <path d="M898.1,842.2c0,0,.2-.4.2-.5v-4.7c0-.2-.1-.4-.4-.5-.3,0-.6-.2-.8-.3-.2,0-.3-.2-.3-.4s.2-.2.4-.2c.8,0,2.2-.2,2.8-.3.2,0,.4,0,.5,0s.2.2.2.3c0,.8-.1,6.1-.1,6.8s0,.4.3.4c.2,0,.7-.2,1-.2s.2.5.2.5c0,0-.2.2-.2.2-.6,0-1.7.3-2.1.4-.4,0-1,.3-1.1.3s-.2-.2-.2-.3,0-.5,0-.9c0,0,0-.2-.2-.2-.5.4-1.2.8-1.5.9-.4.2-.7.3-1.3.3-1,0-1.7-.4-2.1-1.1-.2-.2-.2-.8-.2-1.1,0-1.5,0-3.5,0-4.6,0-.6-.4-.7-.7-.9-.2,0-.4-.2-.4-.4s.2-.2.3-.2c.6,0,2.8-.2,2.9-.2s.2.2.2.3c0,1.6,0,4.8,0,5.7s.2.7.4.9c.3.2.8.4,1.2.4s.8-.1,1.3-.5h0Z"/>
    <path d="M910.2,843.1c-.9.7-2.3.9-3.1.9s-2.1-.2-2.8-.4c0,0-.2,0-.4,0-.1,0-.2,0-.3,0,0,0-.2-.1-.2-.3.1-1.6.1-5.3.1-7s0-4.7,0-5c0-.1,0-.4-.4-.7-.4-.3-.6-.4-.6-.5,0-.2.2-.4.3-.4.7-.2,1.6-.4,2.3-.7.4-.2.6-.2.7-.2s.2.2.2.3c0,1.5-.2,3.2-.2,4.8s0,1.1,0,1.6c0,0,0,.1,0,0,.7-.4,1.6-.6,2.2-.6,1.1,0,2,.3,2.7.9.9.8,1.4,1.9,1.4,3.3s-1,2.9-2,3.7h0ZM908.7,837.2c-.4-.4-1.2-.9-2-.9s-.6,0-.8.2c0,0-.2.2-.2.2,0,.3,0,.7,0,1.2,0,1.6,0,2.9.2,3.7,0,.2.2.8.6,1.2.4.4,1,.6,1.3.6s.6-.2,1-.6c.5-.6.8-1.8.8-2.8s-.3-2-.9-2.7h0Z"/>
    <path d="M913.9,829.8c.9-.2,1.9-.4,2.7-.9,0,0,.2.1.2.2,0,.7-.2,5-.2,8.1s0,4.4,0,5c0,.5.2.7.9,1,.3,0,.4.2.4.4s-.3.2-.6.2c-.5,0-1.7,0-2.1,0s-1.5,0-2,0-.6-.2-.6-.2c0-.2.3-.3.5-.4.7-.2.8-.5.9-1.6,0-.9.1-3.3.1-6.6s0-3.1,0-3.7c0-.2-.1-.4-.5-.7-.3-.2-.4-.3-.4-.4s.2-.3.4-.4h0Z"/>
    <path d="M919.5,843.8c-.3,0-.6-.1-.6-.3s.2-.2.6-.4c.5-.2.7-.4.8-.6,0-.3.1-1.8.1-3.3s0-1.6,0-1.9c0-.2-.3-.4-.7-.8-.1-.1-.2-.2-.2-.3,0-.2.2-.3.6-.4.9-.2,2.2-.7,2.5-.8.1,0,.2.2.2.2,0,.7-.1,3.5-.1,4.8s0,1.4,0,2.1c0,.6.3.7.8.9.3,0,.5.2.5.4s-.3.3-.6.3-1.3,0-1.7,0c-.7,0-1.7,0-2,0h0ZM922.7,832.1c0,.7-.7,1.3-1.3,1.3s-.6,0-.8-.3c-.2-.2-.4-.5-.4-.9s.1-.7.3-.9c.2-.2.7-.4,1-.4.7,0,1.1.8,1.1,1.3h0Z"/>
    <path d="M932,835.8c.3.2.4.5.4.8s-.7,1-.8,1c-.2,0-.5-.2-1-.5-.6-.5-1-.9-1.7-.9s-.6.1-.9.5c-.5.5-.8,1.6-.8,2.6,0,1.4.6,2.1.7,2.2.4.5,1.2,1.1,2.3,1.1s1.3-.2,2-.7c.1,0,.3,0,.3.2s-.2.5-.3.7c-.7.8-1.9,1.4-3.2,1.4s-2.7-.8-3.3-1.7c-.4-.7-.7-1.6-.7-2.4,0-1.6.8-2.8,2.1-3.7.7-.5,2.1-.9,3-.9s1.7.2,2.1.5h0Z"/>
    <path d="M950,832.3c1.1,1.1,2,2.9,2,4.6,0,3-1.9,5.1-3.3,5.9-1.2.7-3,1.2-4.8,1.2s-3,0-4.2-.1c-.6,0-1.1,0-1.4,0s-.7-.2-.7-.3.3-.3.5-.4c1.3-.2,1.4-.5,1.5-2.4,0-1.2,0-2,0-2.9,0-1.1,0-3.4,0-4.8,0-1.3-.1-1.7-1.3-1.8-.2,0-.5-.2-.5-.4s.2-.3.6-.3h1.1c1,0,3.4-.2,5-.2,2.9,0,4.8,1.2,5.6,2h0ZM942.4,831.3c-.1,0-.2.2-.2.3,0,.5,0,1.8,0,3.7v3c0,1.5,0,2.5,0,3.4,0,.5.2.7.4.9.3.3,1.1.6,1.4.6.9,0,2-.3,3.2-1.2,1.3-1.1,2-3.1,2-5.1s-.6-3.3-1.7-4.4c-.9-.9-2.5-1.5-4-1.5s-.8,0-1.1.2h0Z"/>
    <path d="M963,839.6c0,1.8-1.1,3.1-1.9,3.6-.9.6-1.9.9-2.9.9s-2.1-.4-2.9-1.1c-.9-.7-1.6-2.1-1.6-3.2s.7-2.6,1.5-3.2c.6-.5,1.8-1.2,3.4-1.2s4.4,1.6,4.4,4.4h0ZM957.1,836.4c-.5.4-.9,1.4-.9,2.8s0,1.5.2,2c.4,1.5,1.4,2.2,2.3,2.2s.6-.2.9-.5c.4-.5.8-1.7.8-2.9s-.2-2.2-.8-3.2c-.4-.5-.9-.8-1.5-.8s-.7.2-1,.5h0Z"/>
    <path d="M964.8,836.1c.5-.2,1.8-.7,2.3-.9.1,0,.2,0,.2,0,0,0,.2.2.2.3,0,.3,0,.7,0,.9s0,.2.2.1c.8-.7,1.8-1.2,2.8-1.2s1.2.2,1.5.4c.4.2.6.6.7.8,0,0,.1,0,.2,0,.4-.3.8-.6,1.4-.9.5-.2,1-.4,1.4-.4.8,0,1.3.2,1.8.7.6.5.8,1.3.8,2.1,0,.7,0,3,0,4.3,0,.4.2.7.7.8.3,0,.4.2.4.3s-.2.3-.6.3-1.1,0-1.7,0-1.2,0-1.7,0-.5-.2-.5-.3.2-.2.4-.3c.5-.2.6-.4.7-1.2,0-.5,0-3,0-3.7s0-.8-.3-1.2c-.2-.4-.7-.7-1.3-.7s-1.1.3-1.3.5c0,0-.2.4-.2.7s0,4.1,0,4.5c0,.7.2.9.9,1.1.2,0,.4.2.4.3s-.2.3-.5.3-1.4,0-1.9,0-1.3,0-1.7,0-.6-.2-.6-.3.2-.2.4-.3c.6-.2.8-.4.8-1.1v-3.6c0-.8-.1-1.2-.2-1.3-.3-.4-.7-.7-1.4-.7s-.9.2-1.3.5c0,0-.2.3-.2.5,0,1.4,0,3.2,0,4.8s.2.7.7.9c.4.1.5.2.5.4s-.3.3-.6.3-1.3,0-2.1,0-1.3,0-1.8,0-.6,0-.6-.3.2-.2.5-.4c.7-.2.8-.4.9-1.3,0-.6,0-2.2,0-4s0-.4-.1-.5c-.5-.5-.8-.8-.8-.9s.2-.3.4-.4h0Z"/>
    <path d="M986.5,836.3c.2.3.5.9.5,1.8s0,3.3,0,3.5c0,.6.4.8.8.8s.5-.2.7-.2c0,0,0,0,.1,0,0,0,0,.2,0,.3,0,.4-1,1.4-2.2,1.4s-1.3-.2-1.6-1c0,0-.2-.1-.2,0-.5.4-1.4.8-1.7.9-.2,0-.7.2-.9.2-.8,0-1.6-.9-1.6-2.1s.2-.8.4-1.1.6-.4.8-.5c.5-.2,2.4-.7,2.9-.9.2,0,.4-.2.4-.3,0-.2,0-1.3,0-1.6,0-.5-.5-1.3-1.4-1.3s-.5,0-.7.2c0,0-.1.2-.1,1s0,.2,0,.2c-.2.2-1.7.8-1.8.8s-.3-.2-.3-.3c0-.6.5-1.2,1.8-2,.8-.5,1.8-.8,2.1-.8,1.3,0,1.9.7,2.2,1.1h0ZM984.6,842.5c0,0,.2-.3.2-.4,0-.3,0-1.2,0-1.9s0-.2-.2-.2c-.4,0-1.3.3-1.7.5-.2.2-.4.3-.4.8,0,.9.8,1.3,1.2,1.3s.6-.1.8-.2h0Z"/>
    <path d="M989.7,843.8c-.3,0-.6-.1-.6-.3s.2-.2.6-.4c.5-.2.7-.4.8-.6,0-.3.1-1.8.1-3.3s0-1.6,0-1.9c0-.2-.3-.4-.7-.8-.1-.1-.2-.2-.2-.3,0-.2.2-.3.6-.4.9-.2,2.2-.7,2.5-.8.1,0,.2.2.2.2,0,.7-.1,3.5-.1,4.8s0,1.4,0,2.1c0,.6.3.7.8.9.3,0,.5.2.5.4s-.3.3-.6.3-1.3,0-1.7,0c-.7,0-1.7,0-2,0h0ZM992.9,832.1c0,.7-.7,1.3-1.3,1.3s-.6,0-.8-.3c-.2-.2-.4-.5-.4-.9s.1-.7.3-.9c.2-.2.7-.4,1-.4.7,0,1.1.8,1.1,1.3h0Z"/>
    <path d="M995.6,835.9c.4-.2,1.3-.5,1.7-.6s.6-.3.7-.3.2.2.2.3c0,.2,0,.7,0,.9s.1,0,.2,0c.8-.6,1.7-1.1,2.7-1.1s1.6.5,1.9.8c.5.5.8,1.5.8,2.5s0,3.5,0,3.8c0,.3.2.6.7.7.4,0,.5.2.5.4s-.2.3-.6.3-1.3,0-1.9,0-1.4,0-1.7,0-.6,0-.6-.3.2-.3.5-.4c.5-.2.6-.4.6-1.1s0-3.3,0-3.9-.2-1-.5-1.3c-.2-.2-.8-.4-1.2-.4-.7,0-1.1.2-1.4.4,0,0-.2.3-.2.5,0,.4,0,4.9,0,5.1,0,.3,0,.4.7.7.2,0,.4.2.4.4s-.2.3-.6.3-1.2,0-1.6,0c-.8,0-1.6,0-2,0s-.6-.1-.6-.3.2-.3.4-.3c.7-.2.8-.4.9-1.2,0-.6,0-2.3,0-4.4s-.2-.4-.6-.9c-.2-.2-.2-.2-.2-.3,0-.1.2-.4.4-.5h0Z"/>
    <path d="M885.7,865.9c-.5,0-.5-.2,0-.3,1.1-.1,1.2-.5,1.6-1.6.2-.6.7-2.4,1-3.6,0,0,0-.2,0-.2-1.1,0-2.6,0-3.1.2-.2,0-.4.2-.5.3-.8.9-2.2,2.5-3,3.4-.8,1.1-.5,1.3.4,1.4.5,0,.4.3,0,.3s-.9,0-1.3,0-1.7,0-2.1,0-.4-.2,0-.3c.8-.2,1.4-.4,2.7-1.8,2.9-3.2,6.1-6.7,9-10,.2-.2.3-.3.4-.3.1,0,.4,0,.7-.5.1-.1.2-.3.3-.3s0,.2,0,.7c-.9,2.8-2.3,8.2-2.8,10.8-.2.9,0,1.2.8,1.3.5,0,.4.3,0,.3-.8,0-1.2,0-1.6,0-.6,0-1.9,0-2.2,0h0ZM888.5,859.4c.3-.9,1-3.4,1.3-4.3,0-.3,0-.3-.1-.1-1.4,1.6-3.2,3.6-4.1,4.7,0,.1,0,.2,0,.2.5,0,2.2,0,2.7-.2.1,0,.2-.1.2-.2h0Z"/>
    <path d="M894.8,858.8c0,.2-.2.8-.9,2.3,0,.2,0,.2.2,0,.9-1.2,2.7-3.2,4.3-3.2s.7.4.7.8,0,.7-.4,1.3c-.5,1.3-1.5,3.6-1.8,4.3,0,.2,0,.3,0,.3.2,0,1.1-.7,1.7-1.3.2-.2.2,0,0,.3-.8,1.3-2.5,2.5-3.2,2.5s-.4-.4-.3-.6c0-.2,2.3-5.1,2.6-6.1.1-.4,0-.7-.3-.7-.5,0-1.3.5-2.6,2.1-1,1.5-1.9,3.2-2.9,4.9,0,.2-.4.2-.7.2s-.2,0-.2-.2c0-.2.1-.5.2-.8.6-1.5,2-4.6,2.3-5.4.2-.3,0-.5-.2-.5s-.8.2-1.2.9c0,.2-.2,0-.2-.2.2-.5.8-1.7,2-1.7s.7.6.7.9h0Z"/>
    <path d="M906.1,860.4c0,2.2-1.5,4.2-2.4,4.9-.8.6-1.4.8-2,.8s-1.5-.7-1.5-2.3.5-2.9,1.5-4.1c1-1.2,2-1.7,2.9-1.7,1.3,0,1.6,1.5,1.6,2.4h0ZM902.6,860c-.8,1.3-1.5,3.1-1.5,4.5s.2,1.2.7,1.2.8-.3,1.3-1c1-1.3,2-3.8,2-5.2s0-1.3-.5-1.3-1.1.6-1.9,1.8h0Z"/>
    <path d="M910.5,858.8c0,.2-.2.8-.9,2.3,0,.2,0,.2.2,0,.9-1.2,2.7-3.2,4.3-3.2s.7.4.7.8,0,.7-.4,1.3c-.5,1.3-1.5,3.6-1.8,4.3,0,.2,0,.3,0,.3.2,0,1.1-.7,1.7-1.3.2-.2.2,0,0,.3-.8,1.3-2.5,2.5-3.2,2.5s-.4-.4-.3-.6c0-.2,2.3-5.1,2.6-6.1.1-.4,0-.7-.3-.7-.5,0-1.3.5-2.6,2.1-1,1.5-1.9,3.2-2.9,4.9,0,.2-.4.2-.7.2s-.2,0-.2-.2c0-.2.1-.5.2-.8.6-1.5,2-4.6,2.3-5.4.2-.3,0-.5-.2-.5s-.8.2-1.2.9c0,.2-.2,0-.2-.2.2-.5.8-1.7,2-1.7s.7.6.7.9h0Z"/>
    <path d="M918.7,859.1c.3.8.3,2,.3,3.1s-.1,1.8-.2,2.7c0,.3,0,.2.2,0,1.1-2.2,2.1-5.6,2.1-6.8,0,0,0-.2.2-.2.3,0,.5.5.5.8,0,1.3-1.8,5.1-2.5,6.5-.4.8-.8,1.3-.9,1.5-.8,1.4-2.2,3.1-3.1,3.8-1.1.9-1.8,1.1-2.4,1.1s-1-.3-1-.9.4-.9.7-.9.2,0,.3.3c.2.4.4.7.8.7.7,0,1.3-.4,2.1-1.3.6-.8,1.3-1.7,1.9-3.7.4-1.9.5-4.5,0-6.1-.2-.6-.4-.8-.7-.8-.5,0-.9.9-1,1.3,0,.4-.2.3-.2,0,0-1.1.9-2.3,1.8-2.3s1,.5,1.2,1.2h0Z"/>
    <path d="M925.9,859.1c0,.2-.3.7-.7,1.7,0,.2,0,.2.2,0,.6-.8,1.6-1.9,2.5-2.5.5-.3.9-.5,1.3-.5.6,0,.8.6.8.9s-.2.8-.7,2.1c0,0,0,.2.1,0,1-1.2,1.8-2,2.7-2.6.6-.4,1-.5,1.4-.5s.7.5.7.8,0,.7-.2,1.1c-.5,1.3-1.5,3.6-1.8,4.3,0,.1,0,.3,0,.3.3,0,1-.5,1.8-1.3.2-.2.2,0,0,.3-1,1.4-2.7,2.5-3.3,2.5s-.4-.5-.3-.6c.6-1.5,2.4-5.4,2.6-6,.2-.5,0-.8-.3-.8-.5,0-1.4.6-2.8,2.6-.9,1.2-1.8,3.2-2.5,4.4-.2.2-.5.4-.8.4s-.2-.4-.2-.6c.6-1.6,2-4.8,2.5-6.1.2-.4,0-.8-.2-.8-.8,0-1.4.5-2.9,2.6-.8,1.2-1.9,3.3-2.5,4.4-.1.2-.4.4-.8.4s-.2-.2-.2-.3c0,0,.2-.5.3-.9.6-1.4,2-4.2,2.3-5.1.2-.6,0-.9-.2-.9-.4,0-.9.4-1.3.9,0,0-.1.2-.2.2s0,0,0-.2c.1-.6,1.1-1.8,2.1-1.8s.9.8.8,1.1h0Z"/>
    <path d="M941,860.4c0,2.2-1.5,4.2-2.4,4.9-.8.6-1.4.8-2,.8s-1.5-.7-1.5-2.3.5-2.9,1.5-4.1c1-1.2,2-1.7,2.9-1.7,1.3,0,1.6,1.5,1.6,2.4h0ZM937.5,860c-.8,1.3-1.5,3.1-1.5,4.5s.2,1.2.7,1.2.8-.3,1.3-1c1-1.3,2-3.8,2-5.2s0-1.3-.5-1.3-1.1.6-1.9,1.8h0Z"/>
    <path d="M949.6,859.3c-.5,1.4-1.2,3.1-1.9,4.9,0,.3,0,.5,0,.5.5,0,1.5-1,1.6-1.2.3-.3.3,0,.1.2-.7,1.2-2.2,2.3-2.9,2.3s-.3-.2-.3-.4,0-.5.2-.8c.2-.4.7-1.5,1.1-2.7,0-.2,0-.2-.2,0-.8,1-2.3,2.7-3.6,3.5-.6.5-1,.5-1.2.5s-.3,0-.4-.3c-.2-.3,0-.8.1-1.5.5-1.4,1.4-3.5,2-4.8,0-.2,0-.3,0-.3-.3,0-.9.5-1.4,1-.4.4-.3,0-.2-.2.5-.8,1.9-2,2.7-2s.5.3.2,1.1c-.2.7-1.8,4.3-2.3,5.6,0,.2,0,.5.2.5.3,0,1.1-.5,2.3-1.9,1.3-1.5,2.5-3.7,3.2-4.8.2-.2.4-.4.7-.4s.3.3,0,1.3h0Z"/>
    <path d="M955.2,858.3c0,0,.2.2.2.4,0,.3-.4.6-.6.6s-.2,0-.3-.2c-.2-.2-.6-.5-.9-.5s-.9.4-.9,1c0,.5.2,1.1.8,2,.4.7.6,1.4.6,1.9,0,.6-.4,1.3-1.2,1.8-.7.5-1.4.7-1.8.7-.7,0-1.1-.5-1.1-1,0-.2,0-.6.2-.8,0,0,.2,0,.2,0,.3.6.9,1.2,1.6,1.2s1.2-.4,1.1-1.2c0-.4-.2-.9-.6-1.8-.5-1-.7-1.5-.7-1.8,0-.5.3-1.3,1-1.9.5-.5,1.1-.8,1.6-.8s.7.2.8.4h0Z"/>
  </g>
</svg>