<?xml version="1.0" encoding="UTF-8"?>
<svg id="Layer_1" xmlns="http://www.w3.org/2000/svg" version="1.1" viewBox="0 0 1196.4 941.8">
  <!-- Generator: Adobe Illustrator 29.8.2, SVG Export Plug-In . SVG Version: 2.1.1 Build 3)  -->
  <defs>
    <style>
      .st0, .st1 {
        fill: #fff;
      }

      .st0, .st2 {
        stroke: #000;
        stroke-miterlimit: 10;
        stroke-width: 3px;
      }

      .st3 {
        fill: #c73319;
      }

      .st2 {
        fill: none;
      }
    </style>
  </defs>
  <rect class="st1" width="1196.4" height="941.8"/>
  <g>
    <path class="st3" d="M481.3,212.4c-.8,0-1.6-.1-2.4-.3s-1.4-.6-2-1c-.6-.5-1.1-1-1.6-1.7l1.6-1.9c.7,1,1.4,1.8,2.1,2.2.7.4,1.5.6,2.4.6s1.1,0,1.5-.3c.5-.2.8-.4,1.1-.7.3-.3.4-.7.4-1.1s0-.5-.1-.8c0-.2-.2-.5-.4-.6-.2-.2-.4-.4-.7-.5-.3-.2-.6-.3-1-.4-.4-.1-.8-.2-1.3-.3-.8-.2-1.5-.4-2.1-.6-.6-.3-1.1-.6-1.5-1-.4-.4-.7-.9-.9-1.4-.2-.5-.3-1.1-.3-1.7s.1-1.2.4-1.7c.3-.5.7-1,1.1-1.4.5-.4,1.1-.7,1.7-.9.7-.2,1.4-.3,2.1-.3s1.5.1,2.2.3c.7.2,1.3.5,1.8.9.5.4,1,.9,1.3,1.5l-1.7,1.7c-.3-.5-.6-.9-1-1.2-.4-.3-.8-.6-1.2-.8-.4-.2-.9-.3-1.4-.3s-1.1,0-1.5.3c-.4.2-.8.4-1,.7-.2.3-.4.7-.4,1.1s0,.6.2.9c.1.3.3.5.5.7s.6.4,1,.5.9.3,1.5.4c.8.2,1.5.4,2.2.7.6.3,1.2.6,1.6,1,.4.4.8.8,1,1.2.2.5.3,1,.3,1.5,0,1-.2,1.9-.7,2.6-.5.7-1.1,1.3-2,1.7-.8.4-1.9.6-3,.6Z"/>
    <path class="st3" d="M491.8,212.2v-15.6h9.8v2.3h-7.4v11h7.4v2.3h-9.8ZM492.9,205.3v-2.3h7.5v2.3h-7.5Z"/>
    <path class="st3" d="M506.8,212.2v-15.6h2.2l9.5,12.8-.4.2c0-.4-.1-.8-.2-1.2,0-.4,0-.9-.1-1.4,0-.5,0-1,0-1.6s0-1.1,0-1.7c0-.6,0-1.2,0-1.9v-5.1h2.4v15.6h-2.2l-9.4-12.3.2-.3c0,.9.1,1.7.2,2.3,0,.6,0,1.2.1,1.6,0,.4,0,.8,0,1.1,0,.3,0,.5,0,.7,0,.2,0,.3,0,.5v6.5h-2.4Z"/>
    <path class="st3" d="M530.6,212.4c-.8,0-1.6-.1-2.4-.3s-1.4-.6-2-1c-.6-.5-1.1-1-1.6-1.7l1.6-1.9c.7,1,1.4,1.8,2.1,2.2.7.4,1.5.6,2.4.6s1.1,0,1.5-.3c.5-.2.8-.4,1.1-.7.3-.3.4-.7.4-1.1s0-.5-.1-.8c0-.2-.2-.5-.4-.6-.2-.2-.4-.4-.7-.5-.3-.2-.6-.3-1-.4-.4-.1-.8-.2-1.3-.3-.8-.2-1.5-.4-2.1-.6-.6-.3-1.1-.6-1.5-1-.4-.4-.7-.9-.9-1.4-.2-.5-.3-1.1-.3-1.7s.1-1.2.4-1.7c.3-.5.7-1,1.1-1.4.5-.4,1.1-.7,1.7-.9.7-.2,1.4-.3,2.1-.3s1.5.1,2.2.3c.7.2,1.3.5,1.8.9.5.4,1,.9,1.3,1.5l-1.7,1.7c-.3-.5-.6-.9-1-1.2-.4-.3-.8-.6-1.2-.8-.4-.2-.9-.3-1.4-.3s-1.1,0-1.5.3c-.4.2-.8.4-1,.7-.2.3-.4.7-.4,1.1s0,.6.2.9c.1.3.3.5.5.7s.6.4,1,.5.9.3,1.5.4c.8.2,1.5.4,2.2.7.6.3,1.2.6,1.6,1,.4.4.8.8,1,1.2.2.5.3,1,.3,1.5,0,1-.2,1.9-.7,2.6-.5.7-1.1,1.3-2,1.7-.8.4-1.9.6-3,.6Z"/>
    <path class="st3" d="M547.6,212.4c-1.1,0-2.1-.2-3-.6-.9-.4-1.7-1-2.4-1.7-.7-.7-1.2-1.6-1.6-2.5-.4-1-.6-2-.6-3.2s.2-2.2.6-3.2c.4-1,.9-1.8,1.6-2.5.7-.7,1.5-1.3,2.4-1.7.9-.4,1.9-.6,3-.6s2.1.2,3,.6c.9.4,1.7,1,2.4,1.7.7.7,1.2,1.6,1.6,2.6.4,1,.6,2,.6,3.2s-.2,2.2-.6,3.2c-.4,1-.9,1.8-1.6,2.6-.7.7-1.5,1.3-2.4,1.7-.9.4-1.9.6-3,.6ZM547.6,210c.8,0,1.5-.1,2.1-.4.6-.3,1.2-.7,1.6-1.2.5-.5.8-1.1,1.1-1.8s.4-1.4.4-2.3-.1-1.6-.4-2.3-.6-1.3-1.1-1.8c-.5-.5-1-.9-1.6-1.2-.6-.3-1.3-.4-2.1-.4s-1.5.1-2.1.4c-.6.3-1.2.7-1.6,1.2-.5.5-.8,1.1-1.1,1.8-.3.7-.4,1.5-.4,2.3s.1,1.6.4,2.3c.3.7.6,1.3,1.1,1.8.5.5,1,.9,1.6,1.2.6.3,1.3.4,2.1.4Z"/>
    <path class="st3" d="M559.9,212.2v-15.6h6.6c.9,0,1.7.2,2.5.7.8.4,1.3,1,1.8,1.8.4.8.7,1.6.7,2.5s-.2,1.6-.7,2.4c-.4.7-1,1.3-1.8,1.7-.7.4-1.6.7-2.5.7h-4.2v5.9h-2.4ZM562.3,204h4.5c.4,0,.8-.1,1.2-.3.3-.2.6-.5.8-.9.2-.4.3-.8.3-1.3s-.1-1-.4-1.4c-.2-.4-.6-.7-1-.9-.4-.2-.9-.3-1.5-.3h-3.8v5.1ZM569.1,212.2l-4-7,2.5-.6,4.4,7.6h-2.9Z"/>
    <path class="st3" d="M579.8,212.2v-7.8l.2,1.1-6.3-8.9h2.9l4.8,6.9h-.6c0,0,4.3-6.9,4.3-6.9h2.8l-6,9.2.3-1.5v8h-2.4Z"/>
    <path class="st3" d="M604.1,212.4c-.8,0-1.6-.1-2.4-.3s-1.4-.6-2-1c-.6-.5-1.1-1-1.6-1.7l1.6-1.9c.7,1,1.4,1.8,2.1,2.2.7.4,1.5.6,2.4.6s1.1,0,1.5-.3c.5-.2.8-.4,1.1-.7.3-.3.4-.7.4-1.1s0-.5-.1-.8c0-.2-.2-.5-.4-.6-.2-.2-.4-.4-.7-.5-.3-.2-.6-.3-1-.4-.4-.1-.8-.2-1.3-.3-.8-.2-1.5-.4-2.1-.6-.6-.3-1.1-.6-1.5-1-.4-.4-.7-.9-.9-1.4-.2-.5-.3-1.1-.3-1.7s.1-1.2.4-1.7c.3-.5.7-1,1.1-1.4.5-.4,1.1-.7,1.7-.9.7-.2,1.4-.3,2.1-.3s1.5.1,2.2.3c.7.2,1.3.5,1.8.9.5.4,1,.9,1.3,1.5l-1.7,1.7c-.3-.5-.6-.9-1-1.2-.4-.3-.8-.6-1.2-.8-.4-.2-.9-.3-1.4-.3s-1.1,0-1.5.3c-.4.2-.8.4-1,.7-.2.3-.4.7-.4,1.1s0,.6.2.9c.1.3.3.5.5.7s.6.4,1,.5.9.3,1.5.4c.8.2,1.5.4,2.2.7.6.3,1.2.6,1.6,1,.4.4.8.8,1,1.2.2.5.3,1,.3,1.5,0,1-.2,1.9-.7,2.6-.5.7-1.1,1.3-2,1.7-.8.4-1.9.6-3,.6Z"/>
    <path class="st3" d="M618.4,212.2v-7.8l.2,1.1-6.3-8.9h2.9l4.8,6.9h-.6c0,0,4.3-6.9,4.3-6.9h2.8l-6,9.2.3-1.5v8h-2.4Z"/>
    <path class="st3" d="M634.5,212.4c-.8,0-1.6-.1-2.4-.3s-1.4-.6-2-1c-.6-.5-1.1-1-1.6-1.7l1.6-1.9c.7,1,1.4,1.8,2.1,2.2.7.4,1.5.6,2.4.6s1.1,0,1.5-.3c.5-.2.8-.4,1.1-.7.3-.3.4-.7.4-1.1s0-.5-.1-.8c0-.2-.2-.5-.4-.6-.2-.2-.4-.4-.7-.5-.3-.2-.6-.3-1-.4-.4-.1-.8-.2-1.3-.3-.8-.2-1.5-.4-2.1-.6-.6-.3-1.1-.6-1.5-1-.4-.4-.7-.9-.9-1.4-.2-.5-.3-1.1-.3-1.7s.1-1.2.4-1.7c.3-.5.7-1,1.1-1.4.5-.4,1.1-.7,1.7-.9.7-.2,1.4-.3,2.1-.3s1.5.1,2.2.3c.7.2,1.3.5,1.8.9.5.4,1,.9,1.3,1.5l-1.7,1.7c-.3-.5-.6-.9-1-1.2-.4-.3-.8-.6-1.2-.8-.4-.2-.9-.3-1.4-.3s-1.1,0-1.5.3c-.4.2-.8.4-1,.7-.2.3-.4.7-.4,1.1s0,.6.2.9c.1.3.3.5.5.7s.6.4,1,.5.9.3,1.5.4c.8.2,1.5.4,2.2.7.6.3,1.2.6,1.6,1,.4.4.8.8,1,1.2.2.5.3,1,.3,1.5,0,1-.2,1.9-.7,2.6-.5.7-1.1,1.3-2,1.7-.8.4-1.9.6-3,.6Z"/>
    <path class="st3" d="M647.9,212.2v-13.3h-4.4v-2.3h11.3v2.3h-4.5v13.3h-2.4Z"/>
    <path class="st3" d="M659.1,212.2v-15.6h9.8v2.3h-7.4v11h7.4v2.3h-9.8ZM660.2,205.3v-2.3h7.5v2.3h-7.5Z"/>
    <path class="st3" d="M674.2,212.2v-15.6h2.4l5.7,9.2h-1.1s5.7-9.2,5.7-9.2h2.2v15.6h-2.4v-6.4c0-1.3,0-2.5.1-3.6,0-1.1.2-2.1.3-3.2l.3.8-5.1,7.9h-1.5l-4.9-7.8.2-.9c.2,1,.3,2,.3,3.1,0,1,0,2.3,0,3.7v6.4h-2.4Z"/>
    <path class="st3" d="M699.6,212.4c-.8,0-1.6-.1-2.4-.3s-1.4-.6-2-1c-.6-.5-1.1-1-1.6-1.7l1.6-1.9c.7,1,1.4,1.8,2.1,2.2.7.4,1.5.6,2.4.6s1.1,0,1.5-.3c.5-.2.8-.4,1.1-.7.3-.3.4-.7.4-1.1s0-.5-.1-.8c0-.2-.2-.5-.4-.6-.2-.2-.4-.4-.7-.5-.3-.2-.6-.3-1-.4-.4-.1-.8-.2-1.3-.3-.8-.2-1.5-.4-2.1-.6-.6-.3-1.1-.6-1.5-1-.4-.4-.7-.9-.9-1.4-.2-.5-.3-1.1-.3-1.7s.1-1.2.4-1.7c.3-.5.7-1,1.1-1.4.5-.4,1.1-.7,1.7-.9.7-.2,1.4-.3,2.1-.3s1.5.1,2.2.3c.7.2,1.3.5,1.8.9.5.4,1,.9,1.3,1.5l-1.7,1.7c-.3-.5-.6-.9-1-1.2-.4-.3-.8-.6-1.2-.8-.4-.2-.9-.3-1.4-.3s-1.1,0-1.5.3c-.4.2-.8.4-1,.7-.2.3-.4.7-.4,1.1s0,.6.2.9c.1.3.3.5.5.7s.6.4,1,.5.9.3,1.5.4c.8.2,1.5.4,2.2.7.6.3,1.2.6,1.6,1,.4.4.8.8,1,1.2.2.5.3,1,.3,1.5,0,1-.2,1.9-.7,2.6-.5.7-1.1,1.3-2,1.7-.8.4-1.9.6-3,.6Z"/>
  </g>
  <g>
    <path d="M263.7,782.6l-6.2-15.6h2.7l3.7,9.5c.2.5.3.9.5,1.2.1.4.3.7.4,1,.1.3.2.6.3.9s.2.5.3.8h-.6c.1-.3.2-.7.3-1.1.1-.4.3-.8.4-1.3.2-.5.3-1,.6-1.6l3.5-9.5h2.8l-6.3,15.6h-2.3Z"/>
    <path d="M276.4,782.6v-15.6h9.8v2.3h-7.4v11h7.4v2.3h-9.8ZM277.5,775.8v-2.3h7.5v2.3h-7.5Z"/>
    <path d="M291.4,782.6v-15.6h6.6c.9,0,1.7.2,2.5.7.8.4,1.3,1,1.8,1.8.4.8.7,1.6.7,2.5s-.2,1.6-.7,2.4c-.4.7-1,1.3-1.8,1.7-.7.4-1.6.7-2.5.7h-4.2v5.9h-2.4ZM293.8,774.5h4.5c.4,0,.8-.1,1.2-.3.3-.2.6-.5.8-.9.2-.4.3-.8.3-1.3s-.1-1-.4-1.4c-.2-.4-.6-.7-1-.9-.4-.2-.9-.3-1.5-.3h-3.8v5.1ZM300.7,782.6l-4-7,2.5-.6,4.4,7.6h-2.9Z"/>
    <path d="M308.2,782.6v-15.6h6.5c1,0,1.8.1,2.5.4.7.3,1.2.7,1.5,1.3.3.6.5,1.3.5,2.1s-.2,1.6-.7,2.2c-.5.6-1.1,1-1.9,1.2v-.4c.7.1,1.3.4,1.8.8.5.4.9.9,1.2,1.4.3.6.4,1.2.4,1.9s-.1,1.4-.3,2c-.2.6-.6,1.1-1,1.4-.5.4-1,.7-1.6.9-.6.2-1.4.3-2.2.3h-6.7ZM310.7,773.5h4c.4,0,.8,0,1.2-.3s.6-.4.8-.7c.2-.3.3-.7.3-1.1,0-.7-.2-1.2-.7-1.5-.4-.4-1.1-.5-1.9-.5h-3.7v4.1ZM310.7,780.3h4.2c.6,0,1.1,0,1.5-.3.4-.2.8-.4,1-.8.2-.3.3-.8.3-1.3s-.1-.9-.4-1.2c-.2-.3-.6-.6-1-.7-.4-.2-1-.3-1.6-.3h-4.1v4.5Z"/>
    <path d="M323.1,782.6l6-15.6h2.5l6,15.6h-2.6l-3.6-9.4c0-.1-.1-.4-.3-.8s-.3-.8-.4-1.3c-.2-.5-.3-.9-.4-1.3-.1-.4-.2-.7-.3-.8h.5c0,.2-.2.5-.3.9-.1.4-.3.8-.4,1.2-.1.4-.3.8-.4,1.2s-.2.7-.3.9l-3.5,9.3h-2.5ZM325.8,778.8l.9-2.3h7.1l1,2.3h-9Z"/>
    <path d="M341.7,782.6v-15.6h2.4v13.3h7.3v2.3h-9.7Z"/>
    <path d="M364,782.6v-15.6h6.6c.9,0,1.7.2,2.5.7.8.4,1.3,1,1.8,1.8.4.8.7,1.6.7,2.5s-.2,1.6-.7,2.4c-.4.7-1,1.3-1.8,1.7-.7.4-1.6.7-2.5.7h-4.2v5.9h-2.4ZM366.4,774.5h4.5c.4,0,.8-.1,1.2-.3.3-.2.6-.5.8-.9.2-.4.3-.8.3-1.3s-.1-1-.4-1.4c-.2-.4-.6-.7-1-.9-.4-.2-.9-.3-1.5-.3h-3.8v5.1ZM373.3,782.6l-4-7,2.5-.6,4.4,7.6h-2.9Z"/>
    <path d="M380.9,782.6v-15.6h9.8v2.3h-7.4v11h7.4v2.3h-9.8ZM382,775.8v-2.3h7.5v2.3h-7.5Z"/>
    <path d="M400.7,782.9c-.8,0-1.6-.1-2.4-.3s-1.4-.6-2-1c-.6-.5-1.1-1-1.6-1.7l1.6-1.9c.7,1,1.4,1.8,2.1,2.2.7.4,1.5.6,2.4.6s1.1,0,1.5-.3c.5-.2.8-.4,1.1-.7.3-.3.4-.7.4-1.1s0-.5-.1-.8c0-.2-.2-.5-.4-.6-.2-.2-.4-.4-.7-.5-.3-.2-.6-.3-1-.4-.4-.1-.8-.2-1.3-.3-.8-.2-1.5-.4-2.1-.6s-1.1-.6-1.5-1c-.4-.4-.7-.9-.9-1.4-.2-.5-.3-1.1-.3-1.7s.1-1.2.4-1.7c.3-.5.7-1,1.1-1.4.5-.4,1.1-.7,1.7-.9.7-.2,1.4-.3,2.1-.3s1.5.1,2.2.3c.7.2,1.3.5,1.8.9.5.4,1,.9,1.3,1.5l-1.7,1.7c-.3-.5-.6-.9-1-1.2-.4-.3-.8-.6-1.2-.8-.4-.2-.9-.3-1.4-.3s-1.1,0-1.5.3c-.4.2-.8.4-1,.7-.2.3-.4.7-.4,1.1s0,.6.2.9c.1.3.3.5.5.7s.6.4,1,.5c.4.2.9.3,1.5.4.8.2,1.5.4,2.2.7.6.3,1.2.6,1.6,1,.4.4.8.8,1,1.2.2.5.3,1,.3,1.5,0,1-.2,1.9-.7,2.6-.5.7-1.1,1.3-2,1.7-.8.4-1.9.6-3,.6Z"/>
    <path d="M411.2,782.6v-15.6h6.3c.8,0,1.6.2,2.3.6s1.2,1,1.7,1.7c.4.7.6,1.5.6,2.4s-.2,1.7-.6,2.4c-.4.7-1,1.3-1.7,1.7-.7.4-1.5.7-2.3.7h-3.9v6h-2.4ZM413.6,774.3h3.9c.4,0,.8-.1,1.1-.3.3-.2.6-.5.8-.9.2-.4.3-.8.3-1.3s-.1-.9-.3-1.2c-.2-.4-.5-.7-.8-.9-.3-.2-.7-.3-1.1-.3h-3.9v5Z"/>
    <path d="M433.2,782.9c-1.1,0-2.1-.2-3-.6-.9-.4-1.7-1-2.4-1.7-.7-.7-1.2-1.6-1.6-2.5-.4-1-.6-2-.6-3.2s.2-2.2.6-3.2c.4-1,.9-1.8,1.6-2.5.7-.7,1.5-1.3,2.4-1.7.9-.4,1.9-.6,3-.6s2.1.2,3,.6,1.7,1,2.4,1.7c.7.7,1.2,1.6,1.6,2.6.4,1,.6,2,.6,3.2s-.2,2.2-.6,3.2c-.4,1-.9,1.8-1.6,2.6-.7.7-1.5,1.3-2.4,1.7s-1.9.6-3,.6ZM433.2,780.5c.8,0,1.5-.1,2.1-.4.6-.3,1.2-.7,1.6-1.2.5-.5.8-1.1,1.1-1.8s.4-1.4.4-2.3-.1-1.6-.4-2.3-.6-1.3-1.1-1.8c-.5-.5-1-.9-1.6-1.2-.6-.3-1.3-.4-2.1-.4s-1.5.1-2.1.4c-.6.3-1.2.7-1.6,1.2-.5.5-.8,1.1-1.1,1.8-.3.7-.4,1.5-.4,2.3s.1,1.6.4,2.3c.3.7.6,1.3,1.1,1.8.5.5,1,.9,1.6,1.2.6.3,1.3.4,2.1.4Z"/>
    <path d="M445.4,782.6v-15.6h2.2l9.5,12.8-.4.2c0-.4-.1-.8-.2-1.2,0-.4,0-.9-.1-1.4,0-.5,0-1,0-1.6s0-1.1,0-1.7c0-.6,0-1.2,0-1.9v-5.1h2.4v15.6h-2.2l-9.4-12.3.2-.3c0,.9.1,1.7.2,2.3,0,.6,0,1.2.1,1.6,0,.4,0,.8,0,1.1,0,.3,0,.5,0,.7,0,.2,0,.3,0,.5v6.5h-2.4Z"/>
    <path d="M469.3,782.9c-.8,0-1.6-.1-2.4-.3s-1.4-.6-2-1c-.6-.5-1.1-1-1.6-1.7l1.6-1.9c.7,1,1.4,1.8,2.1,2.2.7.4,1.5.6,2.4.6s1.1,0,1.5-.3c.5-.2.8-.4,1.1-.7.3-.3.4-.7.4-1.1s0-.5-.1-.8c0-.2-.2-.5-.4-.6-.2-.2-.4-.4-.7-.5-.3-.2-.6-.3-1-.4-.4-.1-.8-.2-1.3-.3-.8-.2-1.5-.4-2.1-.6s-1.1-.6-1.5-1c-.4-.4-.7-.9-.9-1.4-.2-.5-.3-1.1-.3-1.7s.1-1.2.4-1.7c.3-.5.7-1,1.1-1.4.5-.4,1.1-.7,1.7-.9.7-.2,1.4-.3,2.1-.3s1.5.1,2.2.3c.7.2,1.3.5,1.8.9.5.4,1,.9,1.3,1.5l-1.7,1.7c-.3-.5-.6-.9-1-1.2-.4-.3-.8-.6-1.2-.8-.4-.2-.9-.3-1.4-.3s-1.1,0-1.5.3c-.4.2-.8.4-1,.7-.2.3-.4.7-.4,1.1s0,.6.2.9c.1.3.3.5.5.7s.6.4,1,.5c.4.2.9.3,1.5.4.8.2,1.5.4,2.2.7.6.3,1.2.6,1.6,1,.4.4.8.8,1,1.2.2.5.3,1,.3,1.5,0,1-.2,1.9-.7,2.6-.5.7-1.1,1.3-2,1.7-.8.4-1.9.6-3,.6Z"/>
    <path d="M479.7,782.6v-15.6h9.8v2.3h-7.4v11h7.4v2.3h-9.8ZM480.8,775.8v-2.3h7.5v2.3h-7.5Z"/>
    <path d="M499.6,782.9c-.8,0-1.6-.1-2.4-.3s-1.4-.6-2-1c-.6-.5-1.1-1-1.6-1.7l1.6-1.9c.7,1,1.4,1.8,2.1,2.2.7.4,1.5.6,2.4.6s1.1,0,1.5-.3c.5-.2.8-.4,1.1-.7.3-.3.4-.7.4-1.1s0-.5-.1-.8c0-.2-.2-.5-.4-.6-.2-.2-.4-.4-.7-.5-.3-.2-.6-.3-1-.4-.4-.1-.8-.2-1.3-.3-.8-.2-1.5-.4-2.1-.6s-1.1-.6-1.5-1c-.4-.4-.7-.9-.9-1.4-.2-.5-.3-1.1-.3-1.7s.1-1.2.4-1.7c.3-.5.7-1,1.1-1.4.5-.4,1.1-.7,1.7-.9.7-.2,1.4-.3,2.1-.3s1.5.1,2.2.3c.7.2,1.3.5,1.8.9.5.4,1,.9,1.3,1.5l-1.7,1.7c-.3-.5-.6-.9-1-1.2-.4-.3-.8-.6-1.2-.8-.4-.2-.9-.3-1.4-.3s-1.1,0-1.5.3c-.4.2-.8.4-1,.7-.2.3-.4.7-.4,1.1s0,.6.2.9c.1.3.3.5.5.7s.6.4,1,.5c.4.2.9.3,1.5.4.8.2,1.5.4,2.2.7.6.3,1.2.6,1.6,1,.4.4.8.8,1,1.2.2.5.3,1,.3,1.5,0,1-.2,1.9-.7,2.6-.5.7-1.1,1.3-2,1.7-.8.4-1.9.6-3,.6Z"/>
  </g>
  <g>
    <path d="M657.4,782.6v-15.6h2.2l9.5,12.8-.4.2c0-.4-.1-.8-.2-1.2,0-.4,0-.9-.1-1.4,0-.5,0-1,0-1.6s0-1.1,0-1.7c0-.6,0-1.2,0-1.9v-5.1h2.4v15.6h-2.2l-9.4-12.3.2-.3c0,.9.1,1.7.2,2.3,0,.6,0,1.2.1,1.6,0,.4,0,.8,0,1.1,0,.3,0,.5,0,.7,0,.2,0,.3,0,.5v6.5h-2.4Z"/>
    <path d="M682.9,782.9c-1.1,0-2.1-.2-3-.6-.9-.4-1.7-1-2.4-1.7-.7-.7-1.2-1.6-1.6-2.5-.4-1-.6-2-.6-3.2s.2-2.2.6-3.2c.4-1,.9-1.8,1.6-2.5.7-.7,1.5-1.3,2.4-1.7.9-.4,1.9-.6,3-.6s2.1.2,3,.6,1.7,1,2.4,1.7c.7.7,1.2,1.6,1.6,2.6.4,1,.6,2,.6,3.2s-.2,2.2-.6,3.2c-.4,1-.9,1.8-1.6,2.6-.7.7-1.5,1.3-2.4,1.7s-1.9.6-3,.6ZM682.9,780.5c.8,0,1.5-.1,2.1-.4.6-.3,1.2-.7,1.6-1.2.5-.5.8-1.1,1.1-1.8s.4-1.4.4-2.3-.1-1.6-.4-2.3-.6-1.3-1.1-1.8c-.5-.5-1-.9-1.6-1.2-.6-.3-1.3-.4-2.1-.4s-1.5.1-2.1.4c-.6.3-1.2.7-1.6,1.2-.5.5-.8,1.1-1.1,1.8-.3.7-.4,1.5-.4,2.3s.1,1.6.4,2.3c.3.7.6,1.3,1.1,1.8.5.5,1,.9,1.6,1.2.6.3,1.3.4,2.1.4Z"/>
    <path d="M695.2,782.6v-15.6h2.2l9.5,12.8-.4.2c0-.4-.1-.8-.2-1.2,0-.4,0-.9-.1-1.4,0-.5,0-1,0-1.6s0-1.1,0-1.7c0-.6,0-1.2,0-1.9v-5.1h2.4v15.6h-2.2l-9.4-12.3.2-.3c0,.9.1,1.7.2,2.3,0,.6,0,1.2.1,1.6,0,.4,0,.8,0,1.1,0,.3,0,.5,0,.7,0,.2,0,.3,0,.5v6.5h-2.4Z"/>
    <path d="M713.2,777.4v-2.3h6.4v2.3h-6.4Z"/>
    <path d="M728.9,782.6l-6.2-15.6h2.7l3.7,9.5c.2.5.3.9.5,1.2.1.4.3.7.4,1,.1.3.2.6.3.9s.2.5.3.8h-.6c.1-.3.2-.7.3-1.1.1-.4.3-.8.4-1.3.2-.5.3-1,.6-1.6l3.5-9.5h2.8l-6.3,15.6h-2.3Z"/>
    <path d="M741.6,782.6v-15.6h9.8v2.3h-7.4v11h7.4v2.3h-9.8ZM742.7,775.8v-2.3h7.5v2.3h-7.5Z"/>
    <path d="M756.7,782.6v-15.6h6.6c.9,0,1.7.2,2.5.7.8.4,1.3,1,1.8,1.8.4.8.7,1.6.7,2.5s-.2,1.6-.7,2.4c-.4.7-1,1.3-1.8,1.7-.7.4-1.6.7-2.5.7h-4.2v5.9h-2.4ZM759.1,774.5h4.5c.4,0,.8-.1,1.2-.3.3-.2.6-.5.8-.9.2-.4.3-.8.3-1.3s-.1-1-.4-1.4c-.2-.4-.6-.7-1-.9-.4-.2-.9-.3-1.5-.3h-3.8v5.1ZM765.9,782.6l-4-7,2.5-.6,4.4,7.6h-2.9Z"/>
    <path d="M773.5,782.6v-15.6h6.5c1,0,1.8.1,2.5.4.7.3,1.2.7,1.5,1.3.3.6.5,1.3.5,2.1s-.2,1.6-.7,2.2c-.5.6-1.1,1-1.9,1.2v-.4c.7.1,1.3.4,1.8.8.5.4.9.9,1.2,1.4.3.6.4,1.2.4,1.9s-.1,1.4-.3,2c-.2.6-.6,1.1-1,1.4-.5.4-1,.7-1.6.9-.6.2-1.4.3-2.2.3h-6.7ZM775.9,773.5h4c.4,0,.8,0,1.2-.3s.6-.4.8-.7c.2-.3.3-.7.3-1.1,0-.7-.2-1.2-.7-1.5-.4-.4-1.1-.5-1.9-.5h-3.7v4.1ZM775.9,780.3h4.2c.6,0,1.1,0,1.5-.3.4-.2.8-.4,1-.8.2-.3.3-.8.3-1.3s-.1-.9-.4-1.2c-.2-.3-.6-.6-1-.7-.4-.2-1-.3-1.6-.3h-4.1v4.5Z"/>
    <path d="M788.4,782.6l6-15.6h2.5l6,15.6h-2.6l-3.6-9.4c0-.1-.1-.4-.3-.8s-.3-.8-.4-1.3c-.2-.5-.3-.9-.4-1.3-.1-.4-.2-.7-.3-.8h.5c0,.2-.2.5-.3.9-.1.4-.3.8-.4,1.2-.1.4-.3.8-.4,1.2s-.2.7-.3.9l-3.5,9.3h-2.5ZM791.1,778.8l.9-2.3h7.1l1,2.3h-9Z"/>
    <path d="M807,782.6v-15.6h2.4v13.3h7.3v2.3h-9.7Z"/>
    <path d="M829.3,782.6v-15.6h6.6c.9,0,1.7.2,2.5.7.8.4,1.3,1,1.8,1.8.4.8.7,1.6.7,2.5s-.2,1.6-.7,2.4c-.4.7-1,1.3-1.8,1.7-.7.4-1.6.7-2.5.7h-4.2v5.9h-2.4ZM831.7,774.5h4.5c.4,0,.8-.1,1.2-.3.3-.2.6-.5.8-.9.2-.4.3-.8.3-1.3s-.1-1-.4-1.4c-.2-.4-.6-.7-1-.9-.4-.2-.9-.3-1.5-.3h-3.8v5.1ZM838.6,782.6l-4-7,2.5-.6,4.4,7.6h-2.9Z"/>
    <path d="M846.1,782.6v-15.6h9.8v2.3h-7.4v11h7.4v2.3h-9.8ZM847.2,775.8v-2.3h7.5v2.3h-7.5Z"/>
    <path d="M866,782.9c-.8,0-1.6-.1-2.4-.3s-1.4-.6-2-1c-.6-.5-1.1-1-1.6-1.7l1.6-1.9c.7,1,1.4,1.8,2.1,2.2.7.4,1.5.6,2.4.6s1.1,0,1.5-.3c.5-.2.8-.4,1.1-.7.3-.3.4-.7.4-1.1s0-.5-.1-.8c0-.2-.2-.5-.4-.6-.2-.2-.4-.4-.7-.5-.3-.2-.6-.3-1-.4-.4-.1-.8-.2-1.3-.3-.8-.2-1.5-.4-2.1-.6s-1.1-.6-1.5-1c-.4-.4-.7-.9-.9-1.4-.2-.5-.3-1.1-.3-1.7s.1-1.2.4-1.7c.3-.5.7-1,1.1-1.4.5-.4,1.1-.7,1.7-.9.7-.2,1.4-.3,2.1-.3s1.5.1,2.2.3c.7.2,1.3.5,1.8.9.5.4,1,.9,1.3,1.5l-1.7,1.7c-.3-.5-.6-.9-1-1.2-.4-.3-.8-.6-1.2-.8-.4-.2-.9-.3-1.4-.3s-1.1,0-1.5.3c-.4.2-.8.4-1,.7-.2.3-.4.7-.4,1.1s0,.6.2.9c.1.3.3.5.5.7s.6.4,1,.5c.4.2.9.3,1.5.4.8.2,1.5.4,2.2.7.6.3,1.2.6,1.6,1,.4.4.8.8,1,1.2.2.5.3,1,.3,1.5,0,1-.2,1.9-.7,2.6-.5.7-1.1,1.3-2,1.7-.8.4-1.9.6-3,.6Z"/>
    <path d="M876.4,782.6v-15.6h6.3c.8,0,1.6.2,2.3.6s1.2,1,1.7,1.7c.4.7.6,1.5.6,2.4s-.2,1.7-.6,2.4c-.4.7-1,1.3-1.7,1.7-.7.4-1.5.7-2.3.7h-3.9v6h-2.4ZM878.8,774.3h3.9c.4,0,.8-.1,1.1-.3.3-.2.6-.5.8-.9.2-.4.3-.8.3-1.3s-.1-.9-.3-1.2c-.2-.4-.5-.7-.8-.9-.3-.2-.7-.3-1.1-.3h-3.9v5Z"/>
    <path d="M898.5,782.9c-1.1,0-2.1-.2-3-.6-.9-.4-1.7-1-2.4-1.7-.7-.7-1.2-1.6-1.6-2.5-.4-1-.6-2-.6-3.2s.2-2.2.6-3.2c.4-1,.9-1.8,1.6-2.5.7-.7,1.5-1.3,2.4-1.7.9-.4,1.9-.6,3-.6s2.1.2,3,.6,1.7,1,2.4,1.7c.7.7,1.2,1.6,1.6,2.6.4,1,.6,2,.6,3.2s-.2,2.2-.6,3.2c-.4,1-.9,1.8-1.6,2.6-.7.7-1.5,1.3-2.4,1.7s-1.9.6-3,.6ZM898.5,780.5c.8,0,1.5-.1,2.1-.4.6-.3,1.2-.7,1.6-1.2.5-.5.8-1.1,1.1-1.8s.4-1.4.4-2.3-.1-1.6-.4-2.3-.6-1.3-1.1-1.8c-.5-.5-1-.9-1.6-1.2-.6-.3-1.3-.4-2.1-.4s-1.5.1-2.1.4c-.6.3-1.2.7-1.6,1.2-.5.5-.8,1.1-1.1,1.8-.3.7-.4,1.5-.4,2.3s.1,1.6.4,2.3c.3.7.6,1.3,1.1,1.8.5.5,1,.9,1.6,1.2.6.3,1.3.4,2.1.4Z"/>
    <path d="M910.7,782.6v-15.6h2.2l9.5,12.8-.4.2c0-.4-.1-.8-.2-1.2,0-.4,0-.9-.1-1.4,0-.5,0-1,0-1.6s0-1.1,0-1.7c0-.6,0-1.2,0-1.9v-5.1h2.4v15.6h-2.2l-9.4-12.3.2-.3c0,.9.1,1.7.2,2.3,0,.6,0,1.2.1,1.6,0,.4,0,.8,0,1.1,0,.3,0,.5,0,.7,0,.2,0,.3,0,.5v6.5h-2.4Z"/>
    <path d="M934.5,782.9c-.8,0-1.6-.1-2.4-.3s-1.4-.6-2-1c-.6-.5-1.1-1-1.6-1.7l1.6-1.9c.7,1,1.4,1.8,2.1,2.2.7.4,1.5.6,2.4.6s1.1,0,1.5-.3c.5-.2.8-.4,1.1-.7.3-.3.4-.7.4-1.1s0-.5-.1-.8c0-.2-.2-.5-.4-.6-.2-.2-.4-.4-.7-.5-.3-.2-.6-.3-1-.4-.4-.1-.8-.2-1.3-.3-.8-.2-1.5-.4-2.1-.6s-1.1-.6-1.5-1c-.4-.4-.7-.9-.9-1.4-.2-.5-.3-1.1-.3-1.7s.1-1.2.4-1.7c.3-.5.7-1,1.1-1.4.5-.4,1.1-.7,1.7-.9.7-.2,1.4-.3,2.1-.3s1.5.1,2.2.3c.7.2,1.3.5,1.8.9.5.4,1,.9,1.3,1.5l-1.7,1.7c-.3-.5-.6-.9-1-1.2-.4-.3-.8-.6-1.2-.8-.4-.2-.9-.3-1.4-.3s-1.1,0-1.5.3c-.4.2-.8.4-1,.7-.2.3-.4.7-.4,1.1s0,.6.2.9c.1.3.3.5.5.7s.6.4,1,.5c.4.2.9.3,1.5.4.8.2,1.5.4,2.2.7.6.3,1.2.6,1.6,1,.4.4.8.8,1,1.2.2.5.3,1,.3,1.5,0,1-.2,1.9-.7,2.6-.5.7-1.1,1.3-2,1.7-.8.4-1.9.6-3,.6Z"/>
    <path d="M945,782.6v-15.6h9.8v2.3h-7.4v11h7.4v2.3h-9.8ZM946.1,775.8v-2.3h7.5v2.3h-7.5Z"/>
    <path d="M964.8,782.9c-.8,0-1.6-.1-2.4-.3s-1.4-.6-2-1c-.6-.5-1.1-1-1.6-1.7l1.6-1.9c.7,1,1.4,1.8,2.1,2.2.7.4,1.5.6,2.4.6s1.1,0,1.5-.3c.5-.2.8-.4,1.1-.7.3-.3.4-.7.4-1.1s0-.5-.1-.8c0-.2-.2-.5-.4-.6-.2-.2-.4-.4-.7-.5-.3-.2-.6-.3-1-.4-.4-.1-.8-.2-1.3-.3-.8-.2-1.5-.4-2.1-.6s-1.1-.6-1.5-1c-.4-.4-.7-.9-.9-1.4-.2-.5-.3-1.1-.3-1.7s.1-1.2.4-1.7c.3-.5.7-1,1.1-1.4.5-.4,1.1-.7,1.7-.9.7-.2,1.4-.3,2.1-.3s1.5.1,2.2.3c.7.2,1.3.5,1.8.9.5.4,1,.9,1.3,1.5l-1.7,1.7c-.3-.5-.6-.9-1-1.2-.4-.3-.8-.6-1.2-.8-.4-.2-.9-.3-1.4-.3s-1.1,0-1.5.3c-.4.2-.8.4-1,.7-.2.3-.4.7-.4,1.1s0,.6.2.9c.1.3.3.5.5.7s.6.4,1,.5c.4.2.9.3,1.5.4.8.2,1.5.4,2.2.7.6.3,1.2.6,1.6,1,.4.4.8.8,1,1.2.2.5.3,1,.3,1.5,0,1-.2,1.9-.7,2.6-.5.7-1.1,1.3-2,1.7-.8.4-1.9.6-3,.6Z"/>
  </g>
  <g>
    <path class="st3" d="M310.2,351.6v-15.6h3.8v12.3h7v3.3h-10.7Z"/>
    <path class="st3" d="M331.8,351.9c-1.2,0-2.3-.2-3.3-.6s-1.8-1-2.6-1.7c-.7-.7-1.3-1.6-1.7-2.6-.4-1-.6-2.1-.6-3.2s.2-2.2.6-3.2c.4-1,1-1.8,1.7-2.6.7-.7,1.6-1.3,2.6-1.7s2.1-.6,3.2-.6,2.2.2,3.2.6,1.8,1,2.6,1.7c.7.7,1.3,1.6,1.7,2.6.4,1,.6,2.1.6,3.2s-.2,2.2-.6,3.2c-.4,1-1,1.8-1.7,2.6-.7.7-1.6,1.3-2.6,1.7s-2,.6-3.2.6ZM331.8,348.3c.6,0,1.2-.1,1.7-.3.5-.2,1-.5,1.3-.9.4-.4.7-.9.9-1.4.2-.5.3-1.2.3-1.8s-.1-1.3-.3-1.8c-.2-.5-.5-1-.9-1.4-.4-.4-.8-.7-1.3-.9-.5-.2-1.1-.3-1.7-.3s-1.2.1-1.7.3c-.5.2-1,.5-1.3.9-.4.4-.7.9-.9,1.4-.2.5-.3,1.2-.3,1.8s.1,1.3.3,1.8c.2.6.5,1,.9,1.4.4.4.8.7,1.3.9.5.2,1.1.3,1.7.3Z"/>
    <path class="st3" d="M351.4,351.9c-1.2,0-2.4-.2-3.4-.6-1-.4-1.9-1-2.6-1.7-.7-.7-1.3-1.6-1.7-2.6-.4-1-.6-2.1-.6-3.2s.2-2.2.6-3.2c.4-1,1-1.8,1.7-2.6.8-.7,1.7-1.3,2.7-1.7s2.2-.6,3.4-.6,1.7.1,2.4.3c.8.2,1.5.5,2.1.9.6.4,1.2.8,1.6,1.3l-2.3,2.4c-.4-.4-.8-.7-1.1-.9-.4-.2-.8-.4-1.3-.6-.4-.1-.9-.2-1.4-.2s-1.3.1-1.8.4c-.5.2-1,.6-1.4,1-.4.4-.7.9-.9,1.5-.2.6-.3,1.2-.3,1.9s.1,1.3.4,1.9c.2.6.6,1.1,1,1.5.4.4.9.8,1.5,1,.6.2,1.2.4,1.8.4s.9,0,1.3-.2c.4-.1.8-.3,1.1-.6.3-.3.5-.6.7-.9.2-.3.3-.7.3-1.1v-.6l.5.8h-4.3v-3h7.3c0,.2,0,.4,0,.7,0,.3,0,.6,0,.8s0,.5,0,.6c0,1-.2,1.9-.5,2.8-.4.8-.9,1.6-1.5,2.2-.7.6-1.4,1.1-2.3,1.4-.9.3-1.9.5-2.9.5Z"/>
    <path class="st3" d="M370,351.9c-1.2,0-2.3-.2-3.3-.6s-1.8-1-2.6-1.7c-.7-.7-1.3-1.6-1.7-2.6-.4-1-.6-2.1-.6-3.2s.2-2.2.6-3.2c.4-1,1-1.8,1.7-2.6.7-.7,1.6-1.3,2.6-1.7s2.1-.6,3.2-.6,2.2.2,3.2.6,1.8,1,2.6,1.7c.7.7,1.3,1.6,1.7,2.6.4,1,.6,2.1.6,3.2s-.2,2.2-.6,3.2c-.4,1-1,1.8-1.7,2.6-.7.7-1.6,1.3-2.6,1.7s-2,.6-3.2.6ZM370,348.3c.6,0,1.2-.1,1.7-.3.5-.2,1-.5,1.3-.9.4-.4.7-.9.9-1.4.2-.5.3-1.2.3-1.8s-.1-1.3-.3-1.8c-.2-.5-.5-1-.9-1.4-.4-.4-.8-.7-1.3-.9-.5-.2-1.1-.3-1.7-.3s-1.2.1-1.7.3c-.5.2-1,.5-1.3.9-.4.4-.7.9-.9,1.4-.2.5-.3,1.2-.3,1.8s.1,1.3.3,1.8c.2.6.5,1,.9,1.4.4.4.8.7,1.3.9.5.2,1.1.3,1.7.3Z"/>
    <path class="st3" d="M389.6,351.9c-1.2,0-2.4-.2-3.4-.6-1-.4-1.9-1-2.6-1.7-.7-.7-1.3-1.6-1.7-2.6-.4-1-.6-2.1-.6-3.2s.2-2.2.6-3.2c.4-1,1-1.8,1.7-2.6.8-.7,1.7-1.3,2.7-1.7s2.2-.6,3.4-.6,1.7.1,2.4.3c.8.2,1.5.5,2.1.9.6.4,1.2.8,1.6,1.3l-2.3,2.4c-.4-.4-.8-.7-1.1-.9-.4-.2-.8-.4-1.3-.6-.4-.1-.9-.2-1.4-.2s-1.3.1-1.8.4c-.5.2-1,.6-1.4,1-.4.4-.7.9-.9,1.5-.2.6-.3,1.2-.3,1.9s.1,1.3.4,1.9c.2.6.6,1.1,1,1.5.4.4.9.8,1.5,1,.6.2,1.2.4,1.8.4s.9,0,1.3-.2c.4-.1.8-.3,1.1-.6.3-.3.5-.6.7-.9.2-.3.3-.7.3-1.1v-.6l.5.8h-4.3v-3h7.3c0,.2,0,.4,0,.7,0,.3,0,.6,0,.8s0,.5,0,.6c0,1-.2,1.9-.5,2.8-.4.8-.9,1.6-1.5,2.2-.7.6-1.4,1.1-2.3,1.4-.9.3-1.9.5-2.9.5Z"/>
    <path class="st3" d="M401.1,351.6v-15.6h10.9v3.2h-7.2v9.1h7.4v3.2h-11.1ZM402.9,345.2v-3.1h8.1v3.1h-8.1Z"/>
    <path class="st3" d="M416.9,351.6v-15.6h3.4l8.2,11.1h-.7c0-.6-.1-1.1-.2-1.5,0-.4,0-.9-.1-1.3,0-.4,0-.9,0-1.3,0-.4,0-.9,0-1.4,0-.5,0-1.1,0-1.7v-3.9h3.7v15.6h-3.4l-8.5-11.5,1.1.2c0,.7.1,1.3.2,1.8,0,.5,0,.9.1,1.3,0,.4,0,.7,0,1,0,.3,0,.6,0,.9,0,.3,0,.6,0,1v5.2h-3.7Z"/>
    <path class="st3" d="M441.4,351.9c-1,0-1.9-.1-2.8-.4-.8-.2-1.6-.6-2.2-1.1-.6-.5-1.2-1-1.7-1.7l2.3-2.6c.7,1,1.5,1.7,2.2,2,.8.3,1.5.5,2.3.5s.8,0,1.1-.2c.3-.1.6-.3.8-.5.2-.2.3-.4.3-.7s0-.4-.2-.6c-.1-.2-.3-.3-.5-.5-.2-.1-.4-.3-.7-.4-.3-.1-.5-.2-.8-.3-.3,0-.6-.2-.9-.2-.9-.2-1.6-.4-2.2-.7-.6-.3-1.2-.6-1.6-1-.4-.4-.7-.9-.9-1.4-.2-.5-.3-1.1-.3-1.8s.2-1.3.5-1.9c.3-.6.8-1.1,1.3-1.5.5-.4,1.2-.7,1.9-1,.7-.2,1.5-.3,2.2-.3s1.9.1,2.6.3c.7.2,1.4.5,1.9.9.5.4,1,.9,1.3,1.4l-2.3,2.2c-.3-.4-.7-.7-1-1-.4-.3-.8-.4-1.2-.6-.4-.1-.8-.2-1.3-.2s-.8,0-1.1.2c-.3.1-.6.3-.7.5-.2.2-.3.4-.3.7s0,.5.2.6.3.3.6.5c.3.1.5.3.9.4.3,0,.7.2,1,.2.8.2,1.6.4,2.2.6.7.3,1.2.6,1.7,1,.5.4.9.8,1.1,1.4.3.5.4,1.1.4,1.8,0,1.1-.3,2-.8,2.8-.5.8-1.2,1.3-2.2,1.7-.9.4-2,.6-3.2.6Z"/>
  </g>
  <g>
    <path class="st3" d="M757.5,351.6v-3.2h2.6v-9.2h-2.6v-3.2h9.1v3.2h-2.7v9.2h2.7v3.2h-9.1Z"/>
    <path class="st3" d="M771.5,351.6v-15.6h3.4l5.7,9.2h-2.4s5.7-9.2,5.7-9.2h3.3v15.6h-3.7v-4.9c0-1.3,0-2.5.1-3.6,0-1.1.2-2.1.3-3.2l.4,1.2-4.3,6.7h-1.5l-4.2-6.7.4-1.2c.2,1,.3,2,.3,3.1,0,1,0,2.3,0,3.7v4.9h-3.7Z"/>
    <path class="st3" d="M790.4,351.6l6.2-15.6h3.2l6.1,15.6h-3.8l-2.9-7.9c-.1-.3-.2-.6-.4-1-.1-.4-.2-.7-.4-1.1s-.2-.7-.3-1.1c-.1-.4-.2-.7-.3-1h.7c0,.3-.2.7-.3,1.1-.1.4-.2.7-.3,1.1-.1.3-.2.7-.4,1-.1.3-.3.7-.4,1.1l-2.9,7.9h-3.7ZM793.4,348.7l1.2-2.9h7.2l1.2,2.9h-9.5Z"/>
    <path class="st3" d="M816,351.9c-1.2,0-2.4-.2-3.4-.6-1-.4-1.9-1-2.6-1.7-.7-.7-1.3-1.6-1.7-2.6-.4-1-.6-2.1-.6-3.2s.2-2.2.6-3.2c.4-1,1-1.8,1.7-2.6.8-.7,1.7-1.3,2.7-1.7s2.2-.6,3.4-.6,1.7.1,2.4.3c.8.2,1.5.5,2.1.9.6.4,1.2.8,1.6,1.3l-2.3,2.4c-.4-.4-.8-.7-1.1-.9-.4-.2-.8-.4-1.3-.6-.4-.1-.9-.2-1.4-.2s-1.3.1-1.8.4c-.5.2-1,.6-1.4,1-.4.4-.7.9-.9,1.5-.2.6-.3,1.2-.3,1.9s.1,1.3.4,1.9c.2.6.6,1.1,1,1.5.4.4.9.8,1.5,1,.6.2,1.2.4,1.8.4s.9,0,1.3-.2c.4-.1.8-.3,1.1-.6.3-.3.5-.6.7-.9.2-.3.3-.7.3-1.1v-.6l.5.8h-4.3v-3h7.3c0,.2,0,.4,0,.7,0,.3,0,.6,0,.8s0,.5,0,.6c0,1-.2,1.9-.5,2.8-.4.8-.9,1.6-1.5,2.2-.7.6-1.4,1.1-2.3,1.4-.9.3-1.9.5-2.9.5Z"/>
    <path class="st3" d="M827.6,351.6v-15.6h10.9v3.2h-7.2v9.1h7.4v3.2h-11.1ZM829.4,345.2v-3.1h8.1v3.1h-8.1Z"/>
    <path class="st3" d="M843.3,351.6v-15.6h3.4l8.2,11.1h-.7c0-.6-.1-1.1-.2-1.5,0-.4,0-.9-.1-1.3,0-.4,0-.9,0-1.3,0-.4,0-.9,0-1.4,0-.5,0-1.1,0-1.7v-3.9h3.7v15.6h-3.4l-8.5-11.5,1.1.2c0,.7.1,1.3.2,1.8,0,.5,0,.9.1,1.3,0,.4,0,.7,0,1,0,.3,0,.6,0,.9,0,.3,0,.6,0,1v5.2h-3.7Z"/>
    <path class="st3" d="M867.8,351.9c-1,0-1.9-.1-2.8-.4-.8-.2-1.6-.6-2.2-1.1-.6-.5-1.2-1-1.7-1.7l2.3-2.6c.7,1,1.5,1.7,2.2,2,.8.3,1.5.5,2.3.5s.8,0,1.1-.2c.3-.1.6-.3.8-.5.2-.2.3-.4.3-.7s0-.4-.2-.6c-.1-.2-.3-.3-.5-.5-.2-.1-.4-.3-.7-.4-.3-.1-.5-.2-.8-.3-.3,0-.6-.2-.9-.2-.9-.2-1.6-.4-2.2-.7-.6-.3-1.2-.6-1.6-1-.4-.4-.7-.9-.9-1.4-.2-.5-.3-1.1-.3-1.8s.2-1.3.5-1.9c.3-.6.8-1.1,1.3-1.5.5-.4,1.2-.7,1.9-1,.7-.2,1.5-.3,2.2-.3s1.9.1,2.6.3c.7.2,1.4.5,1.9.9.5.4,1,.9,1.3,1.4l-2.3,2.2c-.3-.4-.7-.7-1-1-.4-.3-.8-.4-1.2-.6-.4-.1-.8-.2-1.3-.2s-.8,0-1.1.2c-.3.1-.6.3-.7.5-.2.2-.3.4-.3.7s0,.5.2.6.3.3.6.5c.3.1.5.3.9.4.3,0,.7.2,1,.2.8.2,1.6.4,2.2.6.7.3,1.2.6,1.7,1,.5.4.9.8,1.1,1.4.3.5.4,1.1.4,1.8,0,1.1-.3,2-.8,2.8-.5.8-1.2,1.3-2.2,1.7-.9.4-2,.6-3.2.6Z"/>
  </g>
  <g>
    <path d="M892.5,832.3c1.1,1.1,2,2.9,2,4.6,0,3-1.9,5.1-3.3,5.9-1.2.7-3,1.2-4.8,1.2s-3,0-4.2-.1c-.6,0-1.1,0-1.4,0s-.7-.2-.7-.3.3-.3.5-.4c1.3-.2,1.4-.5,1.5-2.4,0-1.2,0-2,0-2.9,0-1.1,0-3.4,0-4.9,0-1.3-.1-1.7-1.3-1.8-.2,0-.5-.2-.5-.4s.3-.3.6-.3h1.1c1,0,3.4-.2,5-.2,2.9,0,4.8,1.2,5.6,2ZM884.9,831.3c-.1,0-.2.2-.2.3,0,.5,0,1.8,0,3.7v3c0,1.4,0,2.5,0,3.4,0,.5.2.7.4.9.3.3,1.1.6,1.4.6.9,0,2-.3,3.1-1.2,1.3-1.1,2-3.1,2-5.1s-.6-3.3-1.7-4.4c-.9-.9-2.5-1.5-4-1.5s-.8,0-1.1.2Z"/>
    <path d="M902.1,842.2c0,0,.2-.4.2-.5v-4.7c0-.1-.1-.4-.4-.5-.3-.1-.6-.2-.8-.3-.1,0-.3-.2-.3-.4s.2-.2.4-.2c.8,0,2.2-.1,2.8-.3.2,0,.4,0,.5,0s.2.3.2.3c0,.8-.1,6.1-.1,6.8s0,.4.3.4c.2,0,.7-.1.9-.1s.2.5.3.5c0,0-.1.2-.3.2-.6,0-1.7.3-2.1.4-.4.1-1,.3-1.1.3s-.2-.1-.2-.3,0-.5,0-.9c0-.1-.1-.2-.1-.2-.5.4-1.2.8-1.5.9-.4.2-.7.3-1.3.3-1,0-1.7-.4-2.1-1.1-.1-.2-.3-.8-.3-1.1,0-1.5,0-3.5,0-4.6,0-.6-.4-.7-.7-.9-.2,0-.4-.3-.4-.4s.1-.2.3-.2c.6,0,2.8-.2,2.9-.2s.2.2.2.3c0,1.6,0,4.7,0,5.7s.2.7.4.9c.3.3.8.4,1.2.4s.8-.1,1.3-.5Z"/>
    <path d="M912.9,836.3c.3.3.5.9.5,1.8s0,3.3,0,3.5c0,.6.4.8.8.8s.5-.2.7-.3c0,0,0,0,.1,0,0,0,0,.2,0,.3,0,.4-1,1.4-2.2,1.4s-1.3-.2-1.6-1c0,0-.1-.1-.2,0-.5.4-1.4.8-1.7.9-.2,0-.7.2-.9.2-.8,0-1.6-.9-1.6-2.1s.2-.8.4-1.1.6-.4.8-.5c.5-.2,2.4-.7,2.9-.9.3,0,.4-.2.4-.3,0-.2,0-1.3,0-1.6,0-.5-.5-1.3-1.4-1.3s-.5,0-.7.1c0,0-.1.3-.1,1s0,.1,0,.2c-.1.1-1.7.8-1.8.8s-.3-.2-.3-.3c0-.6.5-1.2,1.8-2,.8-.5,1.8-.8,2.1-.8,1.3,0,1.9.7,2.2,1.1ZM910.9,842.5c0,0,.2-.3.2-.4,0-.3,0-1.2,0-1.9s0-.2-.1-.2c-.4,0-1.3.3-1.7.5-.3.2-.4.3-.4.8,0,.9.8,1.3,1.2,1.3s.6-.1.8-.3Z"/>
    <path d="M916.1,829.8c.9-.3,1.9-.4,2.7-.9,0,0,.3.1.3.2,0,.7-.2,5-.2,8.1s0,4.4,0,5c0,.5.1.7.9,1,.3.1.4.2.4.4s-.3.3-.6.3c-.5,0-1.7,0-2.1,0s-1.5,0-2,0-.6-.1-.6-.3c0-.2.3-.3.5-.4.7-.2.8-.5.9-1.6,0-.9.1-3.3.1-6.6s0-3.1,0-3.7c0-.2-.1-.4-.5-.7-.3-.2-.4-.3-.4-.4s.1-.3.4-.4Z"/>
    <path d="M936.3,830.4c.5.1,1,.3,1.5.3.1,0,.3.3.3.5,0,.6,0,1.3.1,2,0,.4-.1.8-.4.8s-.3-.3-.4-.6c-.2-.7-.5-1.2-.9-1.5-.9-.8-2-1.2-3.1-1.2-3.3,0-4.9,2.6-4.9,5.8s.3,2.6.7,3.5c1.2,2.3,3.1,3.1,4.7,3.1s1.3,0,2-.5c.8-.4,1.3-1,1.8-1.9.3-.5.4-.7.6-.7s.2.5.2.8c-.1.5-.4,1.4-.6,1.8,0,.2-.4.5-.8.7-.3.1-1.7.6-3.7.6-3.1,0-5.3-1.4-6.2-2.4-.8-.9-1.8-2.4-1.8-4.7s1.4-4.3,2.3-5c1.8-1.5,3.9-1.9,5.7-1.9s2,.1,2.7.3Z"/>
    <path d="M949.4,839.6c0,1.8-1.1,3.1-1.9,3.6-.9.6-1.9.9-2.9.9s-2.1-.4-2.9-1.1c-.9-.7-1.6-2.1-1.6-3.2s.7-2.6,1.4-3.3c.6-.5,1.8-1.2,3.4-1.2s4.4,1.6,4.4,4.4ZM943.6,836.4c-.5.4-.9,1.4-.9,2.8s0,1.5.3,2c.4,1.5,1.4,2.2,2.3,2.2s.6-.2.9-.5c.4-.5.8-1.7.8-2.9s-.2-2.2-.8-3.2c-.4-.5-.9-.8-1.5-.8s-.7.1-1,.5Z"/>
    <path d="M957.2,835.3c0,0,.1-.1.2-.2.1-.6,0-3.4,0-3.9,0-.2,0-.5-.9-.9-.2,0-.3-.2-.3-.2,0-.1.3-.4.4-.4.5,0,2.1-.4,2.6-.6.1,0,.3-.1.4-.1s.2.2.2.4c0,.8-.2,3.3-.2,8s0,3.7,0,4.1c0,1.3.2,1.5.4,1.5s.8,0,1,0,.1.1.1.2c0,.1-.3.5-.4.6-.6,0-1.8.3-2.2.4-.5.2-.8.2-.9.2s-.3-.2-.3-.3,0-.5,0-.8-.1-.2-.2-.1c-.7.6-1.8,1-2.6,1s-1.9-.4-2.5-1c-.8-.8-1.2-2-1.2-3,0-2.2,1.2-3.3,2.3-3.9.8-.5,2.1-.8,2.8-.8s.8,0,1.2,0ZM954,836.6c-.6.6-.8,1.8-.8,2.6,0,1.8,1.2,3.5,2.8,3.5s.7,0,1-.3c0,0,.3-.7.3-1,0-.7,0-2.8,0-3.6,0-.1-.2-.6-.4-.8-.6-.7-1.3-.9-1.7-.9s-.8.2-1.2.6Z"/>
    <path d="M962.4,843.8c-.3,0-.6-.1-.6-.3s.1-.3.6-.4c.5-.1.7-.4.8-.6,0-.3.1-1.8.1-3.3s0-1.6,0-1.9c0-.2-.3-.4-.7-.8-.1-.1-.3-.2-.3-.3,0-.2.2-.3.6-.4.9-.2,2.2-.7,2.5-.8.1,0,.2.2.2.2,0,.7-.1,3.5-.1,4.7s0,1.4,0,2.1c0,.6.3.7.8.9.3.1.5.2.5.4s-.3.3-.6.3-1.3,0-1.7,0c-.7,0-1.7,0-2,0ZM965.6,832.1c0,.7-.7,1.3-1.3,1.3s-.6-.1-.8-.3c-.2-.2-.4-.5-.4-.9s.1-.7.3-.9c.3-.2.7-.4,1-.4.7,0,1.1.8,1.1,1.3Z"/>
    <path d="M968.3,835.9c.4-.1,1.3-.5,1.7-.6s.6-.3.7-.3.2.2.2.3c0,.2,0,.7,0,.9s.1.1.1.1c.8-.6,1.7-1.1,2.7-1.1s1.6.5,1.9.8c.5.5.8,1.5.8,2.5s0,3.5,0,3.8c0,.3.2.6.7.7.4.1.5.2.5.4s-.3.3-.6.3-1.3,0-1.9,0-1.4,0-1.7,0-.6,0-.6-.3.2-.3.5-.4c.5-.2.6-.4.6-1.1s0-3.3,0-3.9-.2-1-.5-1.3c-.2-.2-.8-.4-1.2-.4-.7,0-1.1.2-1.4.4,0,0-.2.3-.2.5,0,.4,0,4.9,0,5.1,0,.3,0,.4.7.7.2,0,.4.2.4.4s-.2.3-.6.3-1.2,0-1.6,0c-.8,0-1.6,0-2,0s-.6-.1-.6-.3.2-.3.4-.3c.7-.2.8-.4.9-1.2,0-.6.1-2.3.1-4.4s-.1-.4-.6-.9c-.2-.2-.2-.2-.2-.3,0-.1.2-.4.4-.5Z"/>
    <path d="M984.5,835.5c.2,0,.4.1.6.1.5,0,2,.1,2.4.2.1,0,.2.1.2.2,0,.3-.4.8-.5.8-.1,0-.7,0-1.2,0-.1,0-.1.1-.1.1,0,.3.1.5.1.9,0,1.1-.4,2-1.2,2.6-.9.7-2.1.8-2.5.8s-.6,0-.8,0c-.1,0-.2,0-.3,0-.2.1-.4.4-.4.5,0,.4.5.8.8.8.9,0,3.3.1,3.9.2.2,0,.7.2,1.1.5.6.5.9,1.2.9,1.9,0,1.7-1.3,2.8-2.2,3.4-1.1.7-2.2.9-3.2.9s-1.9-.2-2.6-.7c-.7-.5-1.1-1.2-1.1-1.9s.4-1,.7-1.2c.4-.3,1.1-.7,1.3-.9,0,0,0-.1,0-.1-.2,0-.6-.2-.9-.4-.5-.3-.8-.9-.8-1.7s0-.2.1-.3c.2-.1,1.4-.8,1.7-1.2,0,0,0-.1,0-.2-.6-.3-1.7-1.1-1.7-2.6s.4-1.7,1.3-2.4c.6-.5,1.5-.8,2.5-.8s1.4.2,2,.3ZM984.7,848.1c.7-.4.9-1.1.9-1.7s-.1-.7-.4-1c-.3-.3-.6-.5-1.2-.5-.7-.1-1.1-.1-2.2-.1s-.8.1-1,.3c-.4.4-.6.9-.6,1.3s.3,1.1.7,1.5c.5.4,1.3.6,2,.6s1.2-.1,1.6-.4ZM981.5,836.2c-.3.4-.5,1-.5,1.8,0,1.3.7,2.7,1.7,2.7s.4-.1.7-.3c.3-.3.6-1.2.6-2.1s-.1-1.2-.5-1.7c-.3-.5-.7-.8-1.1-.8s-.7.2-.8.4Z"/>
    <path d="M1002.3,830.5c.4,0,2.5,0,2.9-.1.3,0,.5-.2.8-.4.3-.2.7-.5.8-.5s.3.2.3.2c0,.5-.2,1.6-.3,2.9,0,1.8,0,3.3,0,3.5s0,.2.1.1c.8-.7,1.7-1.1,2.5-1.1s1.8.4,2.2,1c.4.6.6,1.4.6,2.3,0,1.3,0,2.9,0,3.8,0,.5.3.7.8.9.4.1.6.2.6.4s-.2.3-.6.3c-.6,0-1.2,0-1.7,0-.8,0-1.2,0-2,0s-.5-.1-.5-.3.1-.3.4-.3c.5-.1.6-.4.7-1,0-.5,0-3.1,0-3.5,0-1.1-.3-1.5-.5-1.7-.3-.3-.7-.5-1.3-.5s-1.1.2-1.2.3c0,0-.2.4-.3.7,0,1.1,0,3.9,0,4.6,0,.7.2,1,.7,1.1.3,0,.5.2.5.4,0,.2-.3.3-.6.3s-.9,0-1.9,0-1.4,0-1.8,0-.5-.1-.5-.3.1-.3.6-.4c.6-.2.7-.6.8-1,0-.7.2-3,.2-6.1s0-3.7,0-4c0-.4-.3-.6-.4-.6-.5,0-3.5,0-4.1,0-.1,0-.2.2-.2.3,0,1,0,2.6,0,4.4s0,4.6.1,5.7c0,.7.2,1.1,1.6,1.4.3,0,.5.3.5.4,0,.2-.4.3-.6.3s-2.5,0-3.1,0-2.3.1-2.6.1-.7,0-.7-.2c0-.2.3-.4.5-.4,1.4-.3,1.5-.6,1.5-2.1,0-1.2.2-5.4.2-7s0-1.9,0-2.4-.2-.3-.2-.3c-.4,0-1.9,0-2.3,0s-.9.2-1.2.5c-.2.2-.4.6-.7,1.1-.3.4-.4.6-.5.6-.2,0-.3-.3-.3-.5,0-.4.4-1.8.4-2.8,0,0,.2-.4.3-.4s.3.1.4.3c0,0,.5.3.9.4.5,0,3.1.1,4.6.1s3.5,0,3.8,0Z"/>
    <path d="M1021.1,836.1c.5.5.8,1.1.8,1.8s-.2.5-.5.5h-4.6c-.1,0-.2,0-.2.1,0,.2,0,.5,0,.8,0,.5.3,1.4.7,2,.5.7,1.4,1,2.3,1s1.5-.2,1.9-.7c0-.1.2-.3.3-.3s.2.1.2.3,0,.4-.2.5c-.7,1-1.6,1.8-3.4,1.8s-3.9-1.8-3.9-4.2.9-3.4,2.7-4.2c.5-.3,1.2-.4,1.7-.4.8,0,1.7.3,2.2.9ZM1016.7,837.6c0,.1,0,.2.1.2.5,0,1.2,0,2.2,0s.7-.2.7-.7-.6-1.3-1.2-1.3c-.9,0-1.7.8-2,1.8Z"/>
    <path d="M1032.5,839.6c0,1.8-1.1,3.1-1.9,3.6-.9.6-1.9.9-2.9.9s-2.1-.4-2.9-1.1c-.9-.7-1.6-2.1-1.6-3.2s.7-2.6,1.4-3.3c.6-.5,1.8-1.2,3.4-1.2s4.4,1.6,4.4,4.4ZM1026.6,836.4c-.5.4-.9,1.4-.9,2.8s0,1.5.3,2c.4,1.5,1.4,2.2,2.3,2.2s.6-.2.9-.5c.4-.5.8-1.7.8-2.9s-.2-2.2-.8-3.2c-.4-.5-.9-.8-1.5-.8s-.7.1-1,.5Z"/>
    <path d="M1034.2,836c.8-.3,1.7-.6,2.1-.8.2-.1.4-.3.5-.3.1,0,.3.2.3.3,0,.4,0,.8,0,1.2s.1.1.2,0c.7-.7,1.6-1.3,2.2-1.3.9,0,1.2.6,1.2.9s0,.2-.1.3c-.2.4-.9,1.2-1,1.2,0,0-.3,0-.4,0-.2-.2-.9-.6-1.3-.6s-.4,0-.5.1c-.1.1-.2.2-.2.4,0,.4.1,4.1.1,4.4,0,.7.2,1,.5,1.1.2,0,.7.2.9.3.3.1.4.3.4.3,0,.2-.3.3-.6.3-.6,0-1.7-.1-3-.1s-.9,0-1.4,0-.5,0-.5-.3.3-.3.5-.3c.8-.3.8-.5.8-1.8v-3.5c0-.4,0-.7-.2-.8-.3-.3-.8-.7-.8-.7s0-.3.3-.4Z"/>
    <path d="M1041.6,835.4c.7,0,1.4,0,2.1,0s1.4,0,1.7,0,.5,0,.5.3-.1.3-.5.4c-.6.2-.6.3-.4.9.3,1,1.3,3.4,1.6,4,0,0,.1,0,.2,0,.3-.6,1.3-3.3,1.5-3.8.1-.5,0-.8-.8-1-.3,0-.4-.2-.4-.3,0-.2.3-.3.5-.3.4,0,.9,0,1.2,0s.9,0,1.5,0,.4,0,.4.2-.2.3-.5.4c-.4.1-.7.4-1.1,1-.5.9-2,4.7-2.4,5.6-.7,1.7-1.6,4-2.3,5.7-.2.5-.8.7-1.2.7-.8,0-1.1-.7-1.1-1.2s.3-1,1-1,.7,0,.9,0,.3-.1.4-.4c.2-.3.8-2,.9-2.4,0-.2,0-.4,0-.4,0-.1-.3-.7-.4-.9-.5-1.3-2-4.9-2.6-6-.2-.4-.3-.6-.9-.8-.3,0-.5-.2-.5-.4s.2-.3.5-.3Z"/>
    <path d="M885.7,865.9c-.5,0-.5-.3,0-.3,1.1-.1,1.2-.5,1.6-1.6.2-.6.7-2.4,1-3.6,0,0,0-.2,0-.2-1.1,0-2.6.1-3.1.2-.2,0-.4.1-.5.3-.8.9-2.2,2.5-3,3.4-.8,1.1-.5,1.3.4,1.4.5,0,.4.3,0,.3s-.9,0-1.3,0-1.7.1-2.1.1-.4-.2,0-.3c.8-.1,1.4-.4,2.7-1.8,2.9-3.1,6.1-6.7,9-10,.2-.3.3-.3.4-.3.1,0,.4,0,.7-.5.1-.1.3-.3.3-.3s0,.2,0,.7c-.9,2.8-2.3,8.1-2.8,10.8-.2.9,0,1.2.8,1.3.5,0,.4.3,0,.3-.8,0-1.2,0-1.6,0-.6,0-1.9.1-2.2.1ZM888.5,859.4c.3-.9,1-3.4,1.3-4.3.1-.3,0-.3-.1-.1-1.4,1.6-3.2,3.6-4.1,4.7-.1.1,0,.2,0,.2.5,0,2.2-.1,2.7-.1.1,0,.2-.1.2-.2Z"/>
    <path d="M896.6,852c-.6,1.6-3.4,10.8-3.9,12.4,0,.3,0,.5.1.5.4,0,1.1-.6,1.6-1.3.2-.2.3,0,0,.3-.5.9-1.7,2.2-2.6,2.2s-.5-.3-.5-.5c0-.3.1-.9.2-1.2.5-2,3-9.8,3.5-11.7.1-.5.1-.7-.6-.9-.2,0-.2-.2.1-.2.5,0,1.3-.1,1.7-.2.1,0,.3,0,.3,0,.1,0,0,.3,0,.7Z"/>
    <path d="M900.8,852c-.6,1.6-3.4,10.8-3.9,12.4,0,.3,0,.5.1.5.4,0,1-.6,1.6-1.3.2-.2.3,0,0,.3-.5.9-1.7,2.2-2.6,2.2s-.5-.3-.5-.5c0-.3.1-.9.2-1.2.5-2,3-9.8,3.5-11.7.1-.5.1-.7-.6-.9-.2,0-.2-.2.1-.2.5,0,1.3-.1,1.7-.2.1,0,.3,0,.3,0,.1,0,0,.3,0,.7Z"/>
    <path d="M906,858.6s0,0,.1,0c.3-.5.4-.6.5-.6.1,0,.4.1.5.2,0,0,0,.2,0,.3-.2.5-1.4,3.9-2.2,6.1,0,.1,0,.2.1.2.5,0,1.2-.6,1.8-1.3.1-.1.2-.1.2,0,0,0,0,.2-.1.3-.5,1-1.8,2.2-2.9,2.2s-.5-.1-.5-.3c0-.3.6-1.7,1.2-3.2,0-.1,0-.1,0,0-2.3,2.6-3.8,3.6-4.5,3.6s-.7-.3-.7-.9.4-1.5,1-2.5c.7-1.1,1.8-2.2,2.9-3.1.8-.7,1.8-1.2,2.1-1.2s.3.1.4.2ZM902.6,860.8c-.8.9-1.7,2.7-1.7,3.7s0,.4.3.4c.4,0,.9-.4,1.5-.9,1.3-1.2,2.4-2.8,2.9-4.4,0,0,0-.1,0-.1,0,0-.3-.2-.6-.2-.8,0-1.8.8-2.4,1.6Z"/>
    <path d="M911.5,858.8c0,.2-.2.8-.9,2.3,0,.2,0,.2.1,0,.9-1.2,2.7-3.2,4.3-3.2s.7.4.7.8-.1.7-.4,1.3c-.5,1.3-1.5,3.6-1.8,4.3,0,.2,0,.3.1.3.3,0,1.1-.7,1.7-1.3.2-.2.2,0,0,.3-.8,1.3-2.5,2.5-3.3,2.5s-.4-.4-.3-.6c0-.3,2.3-5.1,2.6-6.1.1-.4,0-.7-.3-.7-.5,0-1.3.5-2.6,2.1-1,1.4-1.9,3.2-2.9,4.9,0,.1-.4.3-.7.3s-.3-.1-.2-.3c0-.1.1-.5.3-.8.6-1.5,2-4.6,2.3-5.4.1-.3,0-.5-.2-.5s-.8.3-1.2.9c-.1.1-.2,0-.2-.1.2-.5.8-1.7,2-1.7s.7.6.7.9Z"/>
    <path d="M929,853.5c.7.6,1,1.3,1,2.3s-.6,2.8-2.5,3.7c-.8.4-2,.6-2.7.6s-.5,0-.5-.1c0-.1,0-.1.4-.1,2.3-.4,3.8-2,3.8-4.2,0-1.9-1.3-2.6-2.5-2.6s-.6.1-.7.5c-.8,2.2-2.9,9.4-3.1,10.4-.3,1.2-.2,1.5.9,1.6.5,0,.5.3,0,.3s-1.3-.1-2.1-.1-1.2,0-1.8,0-.5-.2,0-.3c.9-.1,1.1-.5,1.6-1.8.5-1.6,2.4-7.9,2.9-9.4.3-.9.2-1.1-1-1.2-.5,0-.5-.3,0-.3h1.4c.5,0,1.2-.1,2.2-.1s2.2.3,2.8.8Z"/>
    <path d="M934,858.6s0,0,.1,0c.3-.5.4-.6.5-.6.1,0,.4.1.5.2,0,0,0,.2,0,.3-.2.5-1.4,3.9-2.2,6.1,0,.1,0,.2.1.2.5,0,1.2-.6,1.8-1.3.1-.1.2-.1.2,0,0,0,0,.2-.1.3-.5,1-1.8,2.2-2.9,2.2s-.5-.1-.5-.3c0-.3.6-1.7,1.2-3.2,0-.1,0-.1,0,0-2.3,2.6-3.8,3.6-4.5,3.6s-.7-.3-.7-.9.4-1.5,1-2.5c.7-1.1,1.8-2.2,2.9-3.1.8-.7,1.8-1.2,2.1-1.2s.3.1.4.2ZM930.6,860.8c-.8.9-1.7,2.7-1.7,3.7s0,.4.3.4c.4,0,.9-.4,1.5-.9,1.3-1.2,2.4-2.8,2.9-4.4,0,0,0-.1,0-.1,0,0-.3-.2-.6-.2-.8,0-1.8.8-2.4,1.6Z"/>
    <path d="M939.8,858.4c0,.2-.1.7-.3,1.1-.5,1.2-1.7,4.2-2.2,5.2-.1.3,0,.4,0,.4.3,0,1.2-.8,1.5-1.2s.3,0,.1.2c-.9,1.2-2,1.8-2.6,1.8s-.4-.3-.4-.6c0-.2.1-.8.5-1.6.4-.8,1.2-3,1.9-4.5.1-.2,0-.4,0-.4-.3,0-.8.3-1.4.9-.3.3-.3,0-.2-.2.9-1.2,2-1.8,2.6-1.8s.3.3.4.5ZM940.5,855.2c0,.5-.5.8-.7.8-.4,0-.6-.3-.6-.7s.4-.8.7-.8.6.5.6.7Z"/>
    <path d="M943.9,858.4c0,.2,0,.7-.2,1.2-.4,1.1-1.5,3.8-1.7,4.5-.2.6,0,1,.5,1,1.5,0,3.6-3.2,3.6-5.1,0-.5,0-.7-.3-1.1,0,0-.1-.2-.1-.3,0-.3.4-.7.8-.7s.5.4.5,1.1c0,1.7-1.3,3.9-2.3,5.1-.7.8-1.5,1.4-2.1,1.7-.4.2-.8.3-1,.3-.4,0-.8-.4-.8-1.1,0-.3.2-1,.3-1.4.3-.9,1.1-3,1.6-4.1,0-.2,0-.4,0-.4-.3,0-1.1.6-1.5,1.1-.3.3-.2,0-.1-.2.3-.7,1.6-1.9,2.5-1.9s.3.2.4.4Z"/>
    <path d="M951.3,858.4c0,.2-.1.7-.3,1.1-.5,1.2-1.7,4.2-2.2,5.2-.1.3,0,.4,0,.4.3,0,1.2-.8,1.5-1.2s.3,0,.1.2c-.9,1.2-2,1.8-2.6,1.8s-.4-.3-.4-.6c0-.2.1-.8.5-1.6.4-.8,1.2-3,1.9-4.5.1-.2,0-.4,0-.4-.3,0-.8.3-1.4.9-.3.3-.3,0-.2-.2.9-1.2,2-1.8,2.6-1.8s.3.3.4.5ZM952.1,855.2c0,.5-.5.8-.7.8-.4,0-.6-.3-.6-.7s.4-.8.7-.8.6.5.6.7Z"/>
    <path d="M958.2,860.4c0,2.2-1.5,4.2-2.4,4.9-.8.6-1.4.8-2,.8s-1.6-.7-1.6-2.3.5-2.9,1.5-4.1c1-1.2,2-1.7,2.9-1.7,1.3,0,1.6,1.5,1.6,2.4ZM954.7,860c-.8,1.3-1.4,3.1-1.4,4.5s.2,1.2.7,1.2.8-.3,1.3-1c1-1.3,2-3.8,2-5.2s0-1.3-.5-1.3-1.1.6-1.9,1.8Z"/>
    <path d="M960.2,865.2c0,1.6-2,2.5-2.4,2.6-.3,0-.2,0,0-.2.8-.4,1.6-1.1,1.6-1.8s-.3-.6-.7-.7c-.1,0-.2-.2-.2-.3,0-.4.4-.8.8-.8.8,0,.9.7.9,1.2Z"/>
    <path d="M972.4,853.4c0,.2-.3.9-.8,2.3-.4,1.4-1.8,5.8-2.4,7.9-.5,1.7-.3,1.8.9,1.9.4,0,.5.3,0,.3s-1.3,0-2,0c-1,0-1.5.1-2.3.1s-.4-.2,0-.3c1.2-.1,1.3-.3,1.8-1.5.3-.7.8-2.5,1.8-5.7.6-2,.9-2.9,1-3.5.1-.5.1-.7-.1-.7-.2,0-.7,0-1,0s-.4-.2,0-.3c1-.1,1.8-.3,2.4-.5.2,0,.4-.2.5-.2s.1,0,0,.2Z"/>
    <path d="M982.6,856.5c0,1.9-.9,3.9-2.1,5.5-1.6,2.1-3.2,3.2-4.7,4.1-.7.4-1.1.5-1.2.5s-.2,0-.2,0c0,0,0-.1.1-.1,1.7-1,4.2-3.5,5.4-5.7,0,0,0-.2,0-.2-.9.5-1.5.6-2.2.6-1,0-2.1-.9-2.1-2.8s.6-2.6,1.6-3.7c1-1,2.1-1.4,3-1.4,1.8,0,2.5,1.8,2.5,3.2ZM978.2,854.6c-.8.9-1.3,2.7-1.3,3.8s.6,2.1,1.5,2.1,1-.1,1.4-.4c.3-.2.4-.4.6-.6.4-.7,1-2.6,1-4.1s-.3-2-1.4-2-1.1.3-1.8,1.1Z"/>
    <path d="M991.4,855.4c0,.7-.3,1.2-.8,1.6-.7.7-1.6,1.4-2.5,2.1,0,0,0,.1,0,.1.8,1.2,1.8,2.4,1.8,3.4s-1.1,2.3-1.9,2.7c-.6.3-1.4.6-2.2.6-1.7,0-3-1.1-3-2.3s.1-1.1,1.1-2c.8-.7,1.8-1.4,2.7-2.1,0,0,0-.1,0-.1-.8-1.1-1.4-2.1-1.4-2.9s.5-2.1,1.9-2.9c.7-.4,1.5-.6,2-.6,1.7,0,2.4,1.3,2.4,2.2ZM988.5,863.3c0-1.1-.9-2.3-1.7-3.4,0,0-.1,0-.1,0-2.1,1.6-2.7,2.5-2.7,3.6s.8,2.1,2.5,2.1,2.1-1,2.1-2.2ZM986.2,855.8c0,1.1.8,2.1,1.6,3.1,0,0,0,0,0,0,1.2-.9,2.4-2.2,2.4-3.3s-.5-2-1.9-2-2.1,1-2.1,2.2Z"/>
    <path d="M994.6,858.2c-.1.2,0,.2,0,.2.9-.5,1.7-.6,2.2-.6,1.5,0,2.2,1.3,2.2,2.8s-.8,3.3-2.1,4.4c-1,.8-1.9,1-2.7,1-1.3,0-2.6-1.1-2.6-3.4s1.9-6.2,5.6-8.7c1.5-1,2.9-1.4,3.3-1.4s.3.1,0,.2c-2.5,1-4.9,3.3-6.1,5.5ZM994.2,859.2c-.6.8-1.2,2.6-1.2,4.4s.7,2.2,1.5,2.2,1.3-.5,1.8-1.1c.8-1,1.4-2.8,1.4-4.2s-.4-2.1-1.6-2.1-1.5.4-1.9.8Z"/>
  </g>
  <rect class="st2" x="238.9" y="170.8" width="717.5" height="69.2"/>
  <rect class="st2" x="238.9" y="317.3" width="282.4" height="373"/>
  <rect class="st2" x="675.1" y="317.3" width="282.4" height="373" rx="84.8" ry="84.8"/>
  <rect class="st0" x="272.2" y="402.8" width="115.6" height="31.8"/>
  <rect class="st0" x="272.2" y="522.9" width="115.6" height="31.8"/>
  <rect class="st0" x="330" y="603" width="115.6" height="31.8"/>
  <rect class="st0" x="380.1" y="462.9" width="115.6" height="31.8"/>
  <g>
    <line class="st2" x1="330" y1="437.9" x2="330" y2="519.7"/>
    <polygon points="317.7 447.8 319.9 449.9 330 439 340.1 449.9 342.3 447.8 330 434.6 317.7 447.8"/>
    <polygon points="317.7 509.7 319.9 507.7 330 518.5 340.1 507.7 342.3 509.7 330 522.9 317.7 509.7"/>
  </g>
  <g>
    <line class="st2" x1="421.1" y1="497.2" x2="389.8" y2="536.3"/>
    <polygon points="405.3 497.3 405.8 500.3 420.4 498.1 421.5 512.9 424.5 512.7 423.2 494.7 405.3 497.3"/>
    <polygon points="386.5 520.9 389.5 520.6 390.6 535.4 405.2 533.2 405.6 536.2 387.8 538.8 386.5 520.9"/>
  </g>
  <g>
    <line class="st2" x1="332.6" y1="556.7" x2="390.8" y2="601.1"/>
    <polygon points="333.1 572.5 336 572 333.5 557.4 348.2 556 347.9 553 330 554.8 333.1 572.5"/>
    <polygon points="375.5 604.8 375.2 601.8 389.9 600.4 387.4 585.8 390.3 585.3 393.4 603.1 375.5 604.8"/>
  </g>
  <g>
    <line class="st2" x1="360.3" y1="435.2" x2="378.2" y2="460.2"/>
    <polygon points="356.1 450.4 359.1 450.8 360.9 436.1 375.4 439.1 376 436.1 358.4 432.6 356.1 450.4"/>
    <polygon points="362.4 459.3 363 456.3 377.5 459.3 379.4 444.6 382.4 445 380.1 462.9 362.4 459.3"/>
  </g>
  <rect class="st0" x="723.9" y="370.6" width="138.8" height="184.1" rx="51.2" ry="51.2"/>
  <circle class="st2" cx="793.3" cy="418.7" r="37.6"/>
  <circle class="st2" cx="793.3" cy="478.8" r="37.6"/>
  <circle class="st2" cx="816.3" cy="620.5" r="37.6"/>
  <g>
    <line class="st2" x1="393.3" y1="418.7" x2="752.6" y2="418.7"/>
    <polygon points="403.3 431 405.3 428.8 394.5 418.7 405.3 408.6 403.3 406.4 390.1 418.7 403.3 431"/>
    <polygon points="742.6 431 740.6 428.8 751.4 418.7 740.6 408.6 742.6 406.4 755.8 418.7 742.6 431"/>
  </g>
  <g>
    <line class="st2" x1="380.1" y1="167.6" x2="380.1" y2="110.9"/>
    <polygon points="392.4 157.7 390.2 155.6 380.1 166.5 370 155.6 367.8 157.7 380.1 170.9 392.4 157.7"/>
  </g>
  <g>
    <line class="st2" x1="380.1" y1="747.1" x2="380.1" y2="690.4"/>
    <polygon points="392.4 737.2 390.2 735.1 380.1 746 370 735.1 367.8 737.2 380.1 750.4 392.4 737.2"/>
  </g>
  <g>
    <line class="st2" x1="816.3" y1="747.1" x2="816.3" y2="690.4"/>
    <polygon points="828.6 737.2 826.4 735.1 816.3 746 806.2 735.1 804 737.2 816.3 750.4 828.6 737.2"/>
  </g>
  <g>
    <line class="st2" x1="816.3" y1="167.6" x2="816.3" y2="110.9"/>
    <polygon points="828.6 157.7 826.4 155.6 816.3 166.5 806.2 155.6 804 157.7 816.3 170.9 828.6 157.7"/>
  </g>
  <g>
    <line class="st2" x1="380.1" y1="314.1" x2="380.1" y2="240"/>
    <polygon points="392.4 304.1 390.2 302.1 380.1 312.9 370 302.1 367.8 304.1 380.1 317.3 392.4 304.1"/>
  </g>
  <g>
    <line class="st2" x1="816.3" y1="314.1" x2="816.3" y2="240"/>
    <polygon points="828.6 304.1 826.4 302.1 816.3 312.9 806.2 302.1 804 304.1 816.3 317.3 828.6 304.1"/>
  </g>
  <g>
    <line class="st2" x1="500.2" y1="478.8" x2="720.2" y2="478.8"/>
    <polygon points="510.2 491 512.2 488.8 501.4 478.8 512.2 468.7 510.2 466.5 497 478.8 510.2 491"/>
    <polygon points="710.2 491 708.2 488.8 719 478.8 708.2 468.7 710.2 466.5 723.4 478.8 710.2 491"/>
  </g>
  <g>
    <path d="M462.4,275.8v-10.5h4.5c.6,0,1.2.1,1.7.4.5.3.9.7,1.2,1.2.3.5.5,1.1.5,1.7s-.1,1.1-.5,1.6c-.3.5-.7.9-1.2,1.2-.5.3-1.1.4-1.7.4h-2.9v3.9h-1.6ZM464,270.3h3c.3,0,.5,0,.8-.2.2-.1.4-.3.5-.6s.2-.5.2-.8,0-.7-.2-.9c-.2-.3-.4-.5-.7-.6-.3-.1-.6-.2-1-.2h-2.6v3.4ZM468.6,275.8l-2.7-4.7,1.7-.4,3,5.1h-2Z"/>
    <path d="M472.8,275.8v-10.5h6.6v1.6h-5v7.4h5v1.6h-6.6ZM473.6,271.2v-1.6h5.1v1.6h-5.1Z"/>
    <path d="M482,275.8v-10.5h4.3c.6,0,1.1.1,1.6.4.5.3.8.7,1.1,1.2.3.5.4,1,.4,1.6s-.1,1.1-.4,1.6c-.3.5-.7.9-1.1,1.2-.5.3-1,.4-1.6.4h-2.7v4h-1.6ZM483.6,270.3h2.6c.3,0,.5,0,.7-.2.2-.2.4-.4.5-.6s.2-.5.2-.8,0-.6-.2-.8c-.1-.2-.3-.5-.5-.6-.2-.1-.5-.2-.7-.2h-2.6v3.4Z"/>
    <path d="M491.5,275.8v-10.5h4.5c.6,0,1.2.1,1.7.4.5.3.9.7,1.2,1.2.3.5.5,1.1.5,1.7s-.1,1.1-.5,1.6c-.3.5-.7.9-1.2,1.2-.5.3-1.1.4-1.7.4h-2.9v3.9h-1.6ZM493.2,270.3h3c.3,0,.5,0,.8-.2.2-.1.4-.3.5-.6s.2-.5.2-.8,0-.7-.2-.9c-.2-.3-.4-.5-.7-.6-.3-.1-.6-.2-1-.2h-2.6v3.4ZM497.8,275.8l-2.7-4.7,1.7-.4,3,5.1h-2Z"/>
    <path d="M502,275.8v-10.5h6.6v1.6h-5v7.4h5v1.6h-6.6ZM502.7,271.2v-1.6h5.1v1.6h-5.1Z"/>
    <path d="M514.4,276c-.6,0-1.1,0-1.6-.2-.5-.1-.9-.4-1.3-.7-.4-.3-.7-.7-1.1-1.1l1.1-1.3c.5.7,1,1.2,1.4,1.5.5.3,1,.4,1.6.4s.7,0,1-.2c.3-.1.6-.3.7-.5.2-.2.3-.4.3-.7s0-.3,0-.5c0-.2-.2-.3-.3-.4-.1-.1-.3-.2-.5-.4-.2-.1-.4-.2-.7-.3-.3,0-.6-.2-.9-.2-.5-.1-1-.3-1.4-.4-.4-.2-.7-.4-1-.7-.3-.3-.5-.6-.6-.9-.1-.3-.2-.7-.2-1.2s0-.8.3-1.2c.2-.4.4-.7.8-.9.3-.3.7-.5,1.1-.6.4-.1.9-.2,1.4-.2s1,0,1.5.2c.5.1.8.3,1.2.6.3.3.6.6.9,1l-1.1,1.1c-.2-.3-.4-.6-.7-.8-.2-.2-.5-.4-.8-.5-.3-.1-.6-.2-1-.2s-.7,0-1,.2c-.3.1-.5.3-.7.5-.2.2-.2.5-.2.8s0,.4.1.6c0,.2.2.3.4.5.2.1.4.3.7.4.3.1.6.2,1,.3.5.1,1,.3,1.5.5.4.2.8.4,1.1.7.3.3.5.5.7.8.2.3.2.6.2,1,0,.7-.2,1.3-.5,1.7-.3.5-.8.9-1.3,1.1s-1.2.4-2,.4Z"/>
    <path d="M520.5,275.8v-10.5h6.6v1.6h-5v7.4h5v1.6h-6.6ZM521.3,271.2v-1.6h5.1v1.6h-5.1Z"/>
    <path d="M529.7,275.8v-10.5h1.5l6.4,8.6h-.2c0-.1,0-.4-.1-.7,0-.3,0-.6,0-.9,0-.3,0-.7,0-1.1s0-.8,0-1.2c0-.4,0-.8,0-1.3v-3.5h1.6v10.5h-1.5l-6.3-8.3.2-.2c0,.6,0,1.1.1,1.6,0,.4,0,.8,0,1.1,0,.3,0,.5,0,.7,0,.2,0,.3,0,.5,0,.1,0,.2,0,.3v4.4h-1.6Z"/>
    <path d="M543.6,275.8v-8.9h-2.9v-1.6h7.6v1.6h-3v8.9h-1.6Z"/>
    <path d="M548.4,275.8l4.1-10.5h1.6l4,10.5h-1.7l-2.4-6.3c0,0,0-.2-.2-.5s-.2-.6-.3-.9c-.1-.3-.2-.6-.3-.9,0-.3-.2-.5-.2-.5h.3c0,.2-.1.4-.2.6,0,.3-.2.5-.3.8,0,.3-.2.6-.3.8s-.2.5-.2.6l-2.4,6.3h-1.7ZM550.2,273.2l.6-1.6h4.8l.7,1.6h-6.1Z"/>
    <path d="M561.3,275.8v-8.9h-2.9v-1.6h7.6v1.6h-3v8.9h-1.6Z"/>
    <path d="M567.5,275.8v-1.5h1.7v-7.5h-1.7v-1.5h5v1.5h-1.7v7.5h1.7v1.5h-5Z"/>
    <path d="M579.3,276c-.7,0-1.4-.1-2-.4-.6-.3-1.2-.6-1.6-1.1-.5-.5-.8-1.1-1.1-1.7-.3-.7-.4-1.4-.4-2.2s.1-1.5.4-2.2c.3-.7.6-1.2,1.1-1.7.5-.5,1-.9,1.6-1.1.6-.3,1.3-.4,2-.4s1.4.1,2,.4c.6.3,1.2.7,1.6,1.1.5.5.8,1.1,1.1,1.7.3.7.4,1.4.4,2.1s-.1,1.5-.4,2.1c-.3.7-.6,1.2-1.1,1.7-.5.5-1,.9-1.6,1.1-.6.3-1.3.4-2,.4ZM579.3,274.4c.5,0,1,0,1.4-.3.4-.2.8-.5,1.1-.8.3-.3.6-.8.7-1.2s.3-1,.3-1.5,0-1.1-.3-1.5-.4-.9-.7-1.2c-.3-.3-.7-.6-1.1-.8-.4-.2-.9-.3-1.4-.3s-1,0-1.4.3c-.4.2-.8.5-1.1.8-.3.3-.6.7-.7,1.2s-.3,1-.3,1.5,0,1.1.3,1.5c.2.5.4.9.7,1.2.3.3.7.6,1.1.8.4.2.9.3,1.4.3Z"/>
    <path d="M586.6,275.8v-10.5h1.5l6.4,8.6h-.2c0-.1,0-.4-.1-.7,0-.3,0-.6,0-.9,0-.3,0-.7,0-1.1s0-.8,0-1.2c0-.4,0-.8,0-1.3v-3.5h1.6v10.5h-1.5l-6.3-8.3.2-.2c0,.6,0,1.1.1,1.6,0,.4,0,.8,0,1.1,0,.3,0,.5,0,.7,0,.2,0,.3,0,.5,0,.1,0,.2,0,.3v4.4h-1.6Z"/>
    <path d="M597.4,275.8l4.1-10.5h1.6l4,10.5h-1.7l-2.4-6.3c0,0,0-.2-.2-.5s-.2-.6-.3-.9c-.1-.3-.2-.6-.3-.9,0-.3-.2-.5-.2-.5h.3c0,.2-.1.4-.2.6,0,.3-.2.5-.3.8,0,.3-.2.6-.3.8s-.2.5-.2.6l-2.4,6.3h-1.7ZM599.2,273.2l.6-1.6h4.8l.7,1.6h-6.1Z"/>
    <path d="M609,275.8v-10.5h1.6v8.9h4.9v1.6h-6.5Z"/>
    <path d="M626.4,276c-.7,0-1.4-.1-2-.4-.6-.3-1.1-.6-1.6-1.1-.5-.5-.8-1.1-1-1.7-.2-.7-.4-1.4-.4-2.2s.1-1.4.4-2.1c.3-.6.6-1.2,1.1-1.7.5-.5,1-.9,1.6-1.1.6-.3,1.3-.4,2-.4s1,0,1.5.2c.5.2.9.4,1.3.6.4.3.7.6,1,.9l-1.1,1.1c-.3-.3-.6-.5-.9-.7s-.6-.3-.9-.4c-.3,0-.6-.1-.9-.1-.5,0-.9,0-1.4.3-.4.2-.8.4-1.1.8-.3.3-.6.7-.7,1.2-.2.5-.3,1-.3,1.5s0,1.1.3,1.6c.2.5.4.9.7,1.2.3.3.7.6,1.1.8.4.2.9.3,1.5.3s.7,0,1-.1c.3,0,.6-.2.9-.4.3-.2.5-.4.8-.6l.8,1.3c-.2.3-.5.5-.9.7-.4.2-.8.4-1.3.5-.5.1-1,.2-1.5.2Z"/>
    <path d="M636.8,276c-.7,0-1.4-.1-2-.4-.6-.3-1.2-.6-1.6-1.1-.5-.5-.8-1.1-1.1-1.7-.3-.7-.4-1.4-.4-2.2s.1-1.5.4-2.2c.3-.7.6-1.2,1.1-1.7.5-.5,1-.9,1.6-1.1.6-.3,1.3-.4,2-.4s1.4.1,2,.4c.6.3,1.2.7,1.6,1.1.5.5.8,1.1,1.1,1.7.3.7.4,1.4.4,2.1s-.1,1.5-.4,2.1c-.3.7-.6,1.2-1.1,1.7-.5.5-1,.9-1.6,1.1-.6.3-1.3.4-2,.4ZM636.8,274.4c.5,0,1,0,1.4-.3.4-.2.8-.5,1.1-.8.3-.3.6-.8.7-1.2s.3-1,.3-1.5,0-1.1-.3-1.5-.4-.9-.7-1.2c-.3-.3-.7-.6-1.1-.8-.4-.2-.9-.3-1.4-.3s-1,0-1.4.3c-.4.2-.8.5-1.1.8-.3.3-.6.7-.7,1.2s-.3,1-.3,1.5,0,1.1.3,1.5c.2.5.4.9.7,1.2.3.3.7.6,1.1.8.4.2.9.3,1.4.3Z"/>
    <path d="M644.1,275.8v-10.5h1.5l6.4,8.6h-.2c0-.1,0-.4-.1-.7,0-.3,0-.6,0-.9,0-.3,0-.7,0-1.1s0-.8,0-1.2c0-.4,0-.8,0-1.3v-3.5h1.6v10.5h-1.5l-6.3-8.3.2-.2c0,.6,0,1.1.1,1.6,0,.4,0,.8,0,1.1,0,.3,0,.5,0,.7,0,.2,0,.3,0,.5,0,.1,0,.2,0,.3v4.4h-1.6Z"/>
    <path d="M656,275.8v-10.5h1.5l6.4,8.6h-.2c0-.1,0-.4-.1-.7,0-.3,0-.6,0-.9,0-.3,0-.7,0-1.1s0-.8,0-1.2c0-.4,0-.8,0-1.3v-3.5h1.6v10.5h-1.5l-6.3-8.3.2-.2c0,.6,0,1.1.1,1.6,0,.4,0,.8,0,1.1,0,.3,0,.5,0,.7,0,.2,0,.3,0,.5,0,.1,0,.2,0,.3v4.4h-1.6Z"/>
    <path d="M667.9,275.8v-10.5h6.6v1.6h-5v7.4h5v1.6h-6.6ZM668.6,271.2v-1.6h5.1v1.6h-5.1Z"/>
    <path d="M681.3,276c-.7,0-1.4-.1-2-.4-.6-.3-1.1-.6-1.6-1.1-.5-.5-.8-1.1-1-1.7-.2-.7-.4-1.4-.4-2.2s.1-1.4.4-2.1c.3-.6.6-1.2,1.1-1.7.5-.5,1-.9,1.6-1.1.6-.3,1.3-.4,2-.4s1,0,1.5.2c.5.2.9.4,1.3.6.4.3.7.6,1,.9l-1.1,1.1c-.3-.3-.6-.5-.9-.7s-.6-.3-.9-.4c-.3,0-.6-.1-.9-.1-.5,0-.9,0-1.4.3-.4.2-.8.4-1.1.8-.3.3-.6.7-.7,1.2-.2.5-.3,1-.3,1.5s0,1.1.3,1.6c.2.5.4.9.7,1.2.3.3.7.6,1.1.8.4.2.9.3,1.5.3s.7,0,1-.1c.3,0,.6-.2.9-.4.3-.2.5-.4.8-.6l.8,1.3c-.2.3-.5.5-.9.7-.4.2-.8.4-1.3.5-.5.1-1,.2-1.5.2Z"/>
    <path d="M689.3,275.8v-8.9h-2.9v-1.6h7.6v1.6h-3v8.9h-1.6Z"/>
    <path d="M695.5,275.8v-1.5h1.7v-7.5h-1.7v-1.5h5v1.5h-1.7v7.5h1.7v1.5h-5Z"/>
    <path d="M707.3,276c-.7,0-1.4-.1-2-.4-.6-.3-1.2-.6-1.6-1.1-.5-.5-.8-1.1-1.1-1.7-.3-.7-.4-1.4-.4-2.2s.1-1.5.4-2.2c.3-.7.6-1.2,1.1-1.7.5-.5,1-.9,1.6-1.1.6-.3,1.3-.4,2-.4s1.4.1,2,.4c.6.3,1.2.7,1.6,1.1.5.5.8,1.1,1.1,1.7.3.7.4,1.4.4,2.1s-.1,1.5-.4,2.1c-.3.7-.6,1.2-1.1,1.7-.5.5-1,.9-1.6,1.1-.6.3-1.3.4-2,.4ZM707.3,274.4c.5,0,1,0,1.4-.3.4-.2.8-.5,1.1-.8.3-.3.6-.8.7-1.2s.3-1,.3-1.5,0-1.1-.3-1.5-.4-.9-.7-1.2c-.3-.3-.7-.6-1.1-.8-.4-.2-.9-.3-1.4-.3s-1,0-1.4.3c-.4.2-.8.5-1.1.8-.3.3-.6.7-.7,1.2s-.3,1-.3,1.5,0,1.1.3,1.5c.2.5.4.9.7,1.2.3.3.7.6,1.1.8.4.2.9.3,1.4.3Z"/>
    <path d="M714.6,275.8v-10.5h1.5l6.4,8.6h-.2c0-.1,0-.4-.1-.7,0-.3,0-.6,0-.9,0-.3,0-.7,0-1.1s0-.8,0-1.2c0-.4,0-.8,0-1.3v-3.5h1.6v10.5h-1.5l-6.3-8.3.2-.2c0,.6,0,1.1.1,1.6,0,.4,0,.8,0,1.1,0,.3,0,.5,0,.7,0,.2,0,.3,0,.5,0,.1,0,.2,0,.3v4.4h-1.6Z"/>
    <path d="M729.7,276c-.6,0-1.1,0-1.6-.2-.5-.1-.9-.4-1.3-.7-.4-.3-.7-.7-1.1-1.1l1.1-1.3c.5.7,1,1.2,1.4,1.5.5.3,1,.4,1.6.4s.7,0,1-.2c.3-.1.6-.3.7-.5.2-.2.3-.4.3-.7s0-.3,0-.5c0-.2-.2-.3-.3-.4-.1-.1-.3-.2-.5-.4-.2-.1-.4-.2-.7-.3-.3,0-.6-.2-.9-.2-.5-.1-1-.3-1.4-.4-.4-.2-.7-.4-1-.7-.3-.3-.5-.6-.6-.9-.1-.3-.2-.7-.2-1.2s0-.8.3-1.2c.2-.4.4-.7.8-.9.3-.3.7-.5,1.1-.6.4-.1.9-.2,1.4-.2s1,0,1.5.2c.5.1.8.3,1.2.6.3.3.6.6.9,1l-1.1,1.1c-.2-.3-.4-.6-.7-.8-.2-.2-.5-.4-.8-.5-.3-.1-.6-.2-1-.2s-.7,0-1,.2c-.3.1-.5.3-.7.5-.2.2-.2.5-.2.8s0,.4.1.6c0,.2.2.3.4.5.2.1.4.3.7.4.3.1.6.2,1,.3.5.1,1,.3,1.5.5.4.2.8.4,1.1.7.3.3.5.5.7.8.2.3.2.6.2,1,0,.7-.2,1.3-.5,1.7-.3.5-.8.9-1.3,1.1s-1.2.4-2,.4Z"/>
  </g>
  <g>
    <path d="M546.3,444.8v-10.5h4.5c.6,0,1.2.1,1.7.4.5.3.9.7,1.2,1.2.3.5.5,1.1.5,1.7s-.1,1.1-.5,1.6c-.3.5-.7.9-1.2,1.2-.5.3-1.1.4-1.7.4h-2.9v3.9h-1.6ZM547.9,439.2h3c.3,0,.5,0,.8-.2.2-.1.4-.3.5-.6s.2-.5.2-.8,0-.7-.2-.9c-.2-.3-.4-.5-.7-.6-.3-.2-.6-.2-1-.2h-2.6v3.4ZM552.6,444.8l-2.7-4.7,1.7-.4,3,5.1h-2Z"/>
    <path d="M556.7,444.8v-10.5h6.6v1.6h-5v7.4h5v1.6h-6.6ZM557.5,440.1v-1.6h5.1v1.6h-5.1Z"/>
    <path d="M566,444.8v-10.5h1.6v10.5h-1.6ZM566.7,435.8v-1.6h6.1v1.6h-6.1ZM566.7,440.3v-1.6h5.4v1.6h-5.4Z"/>
    <path d="M575,444.8v-10.5h6.6v1.6h-5v7.4h5v1.6h-6.6ZM575.7,440.1v-1.6h5.1v1.6h-5.1Z"/>
    <path d="M584.2,444.8v-10.5h4.5c.6,0,1.2.1,1.7.4.5.3.9.7,1.2,1.2.3.5.5,1.1.5,1.7s-.1,1.1-.5,1.6c-.3.5-.7.9-1.2,1.2-.5.3-1.1.4-1.7.4h-2.9v3.9h-1.6ZM585.8,439.2h3c.3,0,.5,0,.8-.2.2-.1.4-.3.5-.6s.2-.5.2-.8,0-.7-.2-.9c-.2-.3-.4-.5-.7-.6-.3-.2-.6-.2-1-.2h-2.6v3.4ZM590.4,444.8l-2.7-4.7,1.7-.4,3,5.1h-2Z"/>
    <path d="M594.6,444.8v-10.5h6.6v1.6h-5v7.4h5v1.6h-6.6ZM595.4,440.1v-1.6h5.1v1.6h-5.1Z"/>
    <path d="M603.8,444.8v-10.5h1.5l6.4,8.6h-.2c0-.1,0-.4-.1-.7,0-.3,0-.6,0-.9,0-.3,0-.7,0-1.1s0-.8,0-1.2c0-.4,0-.8,0-1.3v-3.5h1.6v10.5h-1.5l-6.3-8.3.2-.2c0,.6,0,1.1.1,1.6,0,.4,0,.8,0,1.1,0,.3,0,.5,0,.7,0,.2,0,.3,0,.5,0,.1,0,.2,0,.3v4.4h-1.6Z"/>
    <path d="M620,444.9c-.7,0-1.4-.1-2-.4-.6-.3-1.1-.6-1.6-1.1-.5-.5-.8-1.1-1-1.7-.2-.7-.4-1.4-.4-2.2s.1-1.4.4-2.1c.3-.6.6-1.2,1.1-1.7.5-.5,1-.9,1.6-1.1.6-.3,1.3-.4,2-.4s1,0,1.5.2c.5.2.9.4,1.3.6.4.3.7.6,1,.9l-1.1,1.1c-.3-.3-.6-.5-.9-.7s-.6-.3-.9-.4c-.3,0-.6-.1-.9-.1-.5,0-.9,0-1.4.3-.4.2-.8.4-1.1.8-.3.3-.6.7-.7,1.2-.2.5-.3,1-.3,1.5s0,1.1.3,1.6c.2.5.4.9.7,1.2.3.3.7.6,1.1.8.4.2.9.3,1.5.3s.7,0,1-.1c.3,0,.6-.2.9-.4.3-.2.5-.4.8-.6l.8,1.3c-.2.3-.5.5-.9.7-.4.2-.8.4-1.3.5-.5.1-1,.2-1.5.2Z"/>
    <path d="M625.5,444.8v-1.5h1.7v-7.5h-1.7v-1.5h5v1.5h-1.7v7.5h1.7v1.5h-5Z"/>
    <path d="M632,444.8l4.1-10.5h1.6l4,10.5h-1.7l-2.4-6.3c0,0,0-.2-.2-.5,0-.3-.2-.6-.3-.9-.1-.3-.2-.6-.3-.9,0-.3-.2-.5-.2-.5h.3c0,.2-.1.4-.2.6,0,.3-.2.5-.3.8,0,.3-.2.6-.3.8s-.2.5-.2.6l-2.4,6.3h-1.7ZM633.8,442.1l.6-1.6h4.8l.7,1.6h-6.1Z"/>
    <path d="M643.6,444.8v-10.5h1.6v8.9h4.9v1.6h-6.5Z"/>
    <path d="M549,462.9c-.7,0-1.4-.1-2-.4-.6-.3-1.1-.6-1.6-1.1-.5-.5-.8-1.1-1-1.7-.2-.7-.4-1.4-.4-2.2s.1-1.4.4-2.1c.3-.6.6-1.2,1.1-1.7.5-.5,1-.9,1.6-1.1.6-.3,1.3-.4,2-.4s1,0,1.5.2c.5.2.9.4,1.3.6.4.3.7.6,1,.9l-1.1,1.1c-.3-.3-.6-.5-.9-.7s-.6-.3-.9-.4c-.3,0-.6-.1-.9-.1-.5,0-.9,0-1.4.3-.4.2-.8.4-1.1.8-.3.3-.6.7-.7,1.2-.2.5-.3,1-.3,1.5s0,1.1.3,1.6c.2.5.4.9.7,1.2.3.3.7.6,1.1.8.4.2.9.3,1.5.3s.7,0,1-.1c.3,0,.6-.2.9-.4.3-.2.5-.4.8-.6l.8,1.3c-.2.3-.5.5-.9.7-.4.2-.8.4-1.3.5-.5.1-1,.2-1.5.2Z"/>
    <path d="M559.3,462.9c-.7,0-1.4-.1-2-.4s-1.2-.6-1.6-1.1c-.5-.5-.8-1.1-1.1-1.7-.3-.7-.4-1.4-.4-2.2s.1-1.5.4-2.2c.3-.7.6-1.2,1.1-1.7.5-.5,1-.9,1.6-1.1s1.3-.4,2-.4,1.4.1,2,.4,1.2.7,1.6,1.1c.5.5.8,1.1,1.1,1.7.3.7.4,1.4.4,2.1s-.1,1.5-.4,2.1c-.3.7-.6,1.2-1.1,1.7-.5.5-1,.9-1.6,1.1s-1.3.4-2,.4ZM559.3,461.3c.5,0,1,0,1.4-.3.4-.2.8-.5,1.1-.8.3-.3.6-.8.7-1.2.2-.5.3-1,.3-1.5s0-1.1-.3-1.5c-.2-.5-.4-.9-.7-1.2-.3-.3-.7-.6-1.1-.8-.4-.2-.9-.3-1.4-.3s-1,0-1.4.3c-.4.2-.8.5-1.1.8-.3.3-.6.7-.7,1.2-.2.5-.3,1-.3,1.5s0,1.1.3,1.5c.2.5.4.9.7,1.2.3.3.7.6,1.1.8.4.2.9.3,1.4.3Z"/>
    <path d="M566.6,462.8v-10.5h1.5l6.4,8.6h-.2c0-.1,0-.4-.1-.7,0-.3,0-.6,0-.9,0-.3,0-.7,0-1.1s0-.8,0-1.2c0-.4,0-.8,0-1.3v-3.5h1.6v10.5h-1.5l-6.3-8.3.2-.2c0,.6,0,1.1.1,1.6,0,.4,0,.8,0,1.1,0,.3,0,.5,0,.7,0,.2,0,.3,0,.5,0,.1,0,.2,0,.3v4.4h-1.6Z"/>
    <path d="M578.5,462.8v-10.5h1.5l6.4,8.6h-.2c0-.1,0-.4-.1-.7,0-.3,0-.6,0-.9,0-.3,0-.7,0-1.1s0-.8,0-1.2c0-.4,0-.8,0-1.3v-3.5h1.6v10.5h-1.5l-6.3-8.3.2-.2c0,.6,0,1.1.1,1.6,0,.4,0,.8,0,1.1,0,.3,0,.5,0,.7,0,.2,0,.3,0,.5,0,.1,0,.2,0,.3v4.4h-1.6Z"/>
    <path d="M590.4,462.8v-10.5h6.6v1.6h-5v7.4h5v1.6h-6.6ZM591.1,458.1v-1.6h5.1v1.6h-5.1Z"/>
    <path d="M603.9,462.9c-.7,0-1.4-.1-2-.4-.6-.3-1.1-.6-1.6-1.1-.5-.5-.8-1.1-1-1.7-.2-.7-.4-1.4-.4-2.2s.1-1.4.4-2.1c.3-.6.6-1.2,1.1-1.7.5-.5,1-.9,1.6-1.1.6-.3,1.3-.4,2-.4s1,0,1.5.2c.5.2.9.4,1.3.6.4.3.7.6,1,.9l-1.1,1.1c-.3-.3-.6-.5-.9-.7s-.6-.3-.9-.4c-.3,0-.6-.1-.9-.1-.5,0-.9,0-1.4.3-.4.2-.8.4-1.1.8-.3.3-.6.7-.7,1.2-.2.5-.3,1-.3,1.5s0,1.1.3,1.6c.2.5.4.9.7,1.2.3.3.7.6,1.1.8.4.2.9.3,1.5.3s.7,0,1-.1c.3,0,.6-.2.9-.4.3-.2.5-.4.8-.6l.8,1.3c-.2.3-.5.5-.9.7-.4.2-.8.4-1.3.5-.5.1-1,.2-1.5.2Z"/>
    <path d="M611.8,462.8v-8.9h-2.9v-1.6h7.6v1.6h-3v8.9h-1.6Z"/>
    <path d="M618.1,462.8v-1.5h1.7v-7.5h-1.7v-1.5h5v1.5h-1.7v7.5h1.7v1.5h-5Z"/>
    <path d="M629.8,462.9c-.7,0-1.4-.1-2-.4s-1.2-.6-1.6-1.1c-.5-.5-.8-1.1-1.1-1.7-.3-.7-.4-1.4-.4-2.2s.1-1.5.4-2.2c.3-.7.6-1.2,1.1-1.7.5-.5,1-.9,1.6-1.1s1.3-.4,2-.4,1.4.1,2,.4,1.2.7,1.6,1.1c.5.5.8,1.1,1.1,1.7.3.7.4,1.4.4,2.1s-.1,1.5-.4,2.1c-.3.7-.6,1.2-1.1,1.7-.5.5-1,.9-1.6,1.1s-1.3.4-2,.4ZM629.8,461.3c.5,0,1,0,1.4-.3.4-.2.8-.5,1.1-.8.3-.3.6-.8.7-1.2.2-.5.3-1,.3-1.5s0-1.1-.3-1.5c-.2-.5-.4-.9-.7-1.2-.3-.3-.7-.6-1.1-.8-.4-.2-.9-.3-1.4-.3s-1,0-1.4.3c-.4.2-.8.5-1.1.8-.3.3-.6.7-.7,1.2-.2.5-.3,1-.3,1.5s0,1.1.3,1.5c.2.5.4.9.7,1.2.3.3.7.6,1.1.8.4.2.9.3,1.4.3Z"/>
    <path d="M637.1,462.8v-10.5h1.5l6.4,8.6h-.2c0-.1,0-.4-.1-.7,0-.3,0-.6,0-.9,0-.3,0-.7,0-1.1s0-.8,0-1.2c0-.4,0-.8,0-1.3v-3.5h1.6v10.5h-1.5l-6.3-8.3.2-.2c0,.6,0,1.1.1,1.6,0,.4,0,.8,0,1.1,0,.3,0,.5,0,.7,0,.2,0,.3,0,.5,0,.1,0,.2,0,.3v4.4h-1.6Z"/>
    <path d="M652.3,462.9c-.6,0-1.1,0-1.6-.2-.5-.1-.9-.4-1.3-.7-.4-.3-.7-.7-1.1-1.1l1.1-1.3c.5.7,1,1.2,1.4,1.5.5.3,1,.4,1.6.4s.7,0,1-.2c.3-.1.6-.3.7-.5.2-.2.3-.5.3-.7s0-.3,0-.5c0-.2-.2-.3-.3-.4-.1-.1-.3-.2-.5-.4-.2-.1-.4-.2-.7-.3-.3,0-.6-.2-.9-.2-.5-.1-1-.3-1.4-.4-.4-.2-.7-.4-1-.7-.3-.3-.5-.6-.6-.9s-.2-.7-.2-1.2,0-.8.3-1.2c.2-.4.4-.7.8-.9.3-.3.7-.5,1.1-.6.4-.1.9-.2,1.4-.2s1,0,1.5.2c.5.1.8.3,1.2.6.3.3.6.6.9,1l-1.1,1.1c-.2-.3-.4-.6-.7-.8-.2-.2-.5-.4-.8-.5-.3-.1-.6-.2-1-.2s-.7,0-1,.2-.5.3-.7.5c-.2.2-.2.5-.2.8s0,.4.1.6c0,.2.2.3.4.5s.4.3.7.4c.3.1.6.2,1,.3.5.1,1,.3,1.5.5.4.2.8.4,1.1.7.3.2.5.5.7.8.2.3.2.6.2,1,0,.7-.2,1.3-.5,1.7-.3.5-.8.9-1.3,1.1s-1.2.4-2,.4Z"/>
  </g>
</svg>