<?xml version="1.0" encoding="UTF-8"?>
<svg id="Layer_1" xmlns="http://www.w3.org/2000/svg" version="1.1" viewBox="0 0 1196.4 941.8">
  <!-- Generator: Adobe Illustrator 29.8.2, SVG Export Plug-In . SVG Version: 2.1.1 Build 3)  -->
  <defs>
    <style>
      .st0 {
        fill: none;
        stroke: #020202;
        stroke-miterlimit: 10;
      }

      .st1 {
        fill: #c73319;
      }
    </style>
  </defs>
  <g>
    <path d="M348.8,207c2.3,0,3-.1,3.4-.5.5-.4.7-.7,1-.7s.8.5.8.8-.5,2.7-.5,5.4-.4,1.1-.9,1.1-.7-.6-.8-.9c-.6-2.6-1.4-3-2.5-3.1-.6,0-2.5-.2-6-.2s-.5.3-.5.5c-.1,1.1-.2,6.1-.2,8.7s0,6.3.2,8.6c.2,3,.9,3,3,3.9.7.3,1.2.5,1.2.9s-.4.7-1.2.7-3.4-.2-5.9-.2-3.4.1-4.6.1-1.3-.3-1.3-.8.4-.6,1.1-.8c2.9-.8,3.6-.9,3.6-3.7s.1-5.1.1-11.6v-5.4c0-.5-.3-.9-.4-.9-1,0-5.3,0-5.9,0s-1.7.5-2.7,3c-.2.7-.6,1.1-.9,1.1-.7,0-.8-.6-.8-1.6,0-1.3.4-3.1.3-5,0-.4.7-.7.9-.7s.4.1.6.4c.6.5,1.1.7,2.3.7,1.7,0,1.3,0,2.6,0h13.9Z"/>
    <path d="M365.9,217.9c4,0,10.6,0,13.1,0,.1,0,.5-.4.5-.6,0-1.1,0-6.5-.2-7.3,0-.7-1.4-1.2-2.3-1.4-1.4-.4-1.6-.7-1.6-.9,0-.4.4-.7,1.2-.7,1.7,0,3.4.1,4.9.1s3.3-.2,4.1-.2,1.1.3,1.1.7-.3.6-1.4.9c-1.7.4-2.1.9-2.1,1.9,0,1.5-.2,5.2-.2,9s0,7,.2,8.6c.2,2,.7,2.1,2.5,2.6.9.2,1.3.6,1.3,1s-.4.7-1.2.7-2.7-.1-4.3-.1-3.7.1-4.9.1-1.4-.3-1.4-.6.4-.8,1.3-1c2.1-.5,2.4-.9,2.6-2.7.2-1.3.3-4.7.2-6.2,0-1.4-.4-1.5-.5-1.5-6.1,0-12.5,0-13.3.1-.3,0-.5.4-.5.5,0,5.5,0,6.9.1,7.5.2,1.3.7,1.7,3.1,2.4.5.1.9.5.9.9s-.4.6-1.4.6-2.3-.1-4.1-.1-3.7.2-4.9.2-1.3-.2-1.3-.6.5-.8,1.2-1c2.1-.5,2.4-1.1,2.5-2.9.1-1.8.1-6.8.1-12.8s0-4.6-.2-5.1c-.2-.7-.5-1-2.7-1.6-.5-.1-.9-.4-.9-.8s.5-.6,1.3-.6c2.4,0,3.9.2,5,.2s1.8-.1,3.3-.1,1.1.2,1.1.7-.5.7-1,.8c-1.4.4-2,.9-2,2.4s0,4,0,6.6c0,.2.3.5.7.5Z"/>
    <path d="M401.5,207c3.6,0,4.9-.2,5.9-.2s.7,0,.9.4c.2.4.7,3.3.7,4.2s-.4,1-.7,1c-.5,0-.9-.5-1.8-2.3-.6-1.1-1.3-1.4-1.5-1.4-2.3,0-5.5,0-6.1,0s-.4.5-.5.7c-.1,1.1-.2,4.9-.2,7.7s.2,1.1.5,1.1,2,0,2.7,0c2.7-.1,3.2-.6,3.6-1.8.3-.9.6-1.2,1-1.2s.7.6.7,1.6c0,.5-.1,1.2-.1,2s0,2.1,0,2.7c0,1.1-.4,1.4-.7,1.4s-.7-.2-1-1c-.4-1.2-.7-1.6-1.6-1.7-1.7-.1-2.8-.1-4.7-.1s-.5.7-.5,1c0,3.8,0,5.2.1,6.1,0,1.2.3,2,.5,2.1.4.3,1.6.8,4.7.8s2.2,0,3.1-.3c1.1-.3,1.8-1.1,2.7-2.4.7-1.1.9-1.6,1.4-1.6s.6,1.1.5,1.8c-.2,1.2-1.1,3.2-1.3,3.5-.2.6-1.2.8-1.4.8-1.7,0-2.8-.2-10.3-.2s-5.2.2-7,.2-1.5-.2-1.5-.5c0-.5.5-.9,1.4-1.1,2.6-.6,3.1-1,3.2-2.5.1-1.1.2-2.5.2-8.1s0-8.9-.2-9.7c-.1-1.3-.9-1.6-2.6-2-.7-.2-1.1-.6-1.1-.9,0-.5.6-.7,1.1-.7s2.8.2,5.5.2h4.2Z"/>
    <path d="M423.8,206.9c.2,0,2.8.2,4.4.2s3.5-.2,4.3-.2,1.2.2,1.2.7-.4.7-1.1.9c-1.8.4-2.4.8-2.6,2.1-.1.9-.2,2.3-.2,7.8s0,8.9.2,10.4c0,.4.7,1.2,1.6,1.4,1.7.4,5.2.1,5.6,0,1.7-.6,2.7-1.5,3.9-3.9.4-.7.7-1,.9-1,.4,0,.7.7.7,1.3,0,.9-1,3.9-1.3,4.7-.2.6-1,.9-1.8.9-1.4,0-6.5-.2-11.6-.2s-4.3.2-5.2.2-1.3-.4-1.3-.7.5-.8,1.1-.9c2.7-.7,2.9-1.4,3.1-2.4,0-.5.2-3.4.2-8.3,0-7.4,0-8.2-.2-9.3-.1-1.4-.8-1.8-2.2-2.2-.9-.3-1.2-.5-1.2-1s.5-.7,1.1-.7Z"/>
    <path d="M449.5,213c0-3.5-.2-3.9-2.8-4.5-.7-.2-1-.6-1-.9s.7-.6,1.3-.6,2.3.1,4.1.1,3.6-.2,4.8-.2,1,.3,1,.7-.5.7-.9.7c-2.4.6-2.5,1.1-2.6,3.2,0,1.7,0,6.1,0,8.9,0,4.5,0,6.8,0,7.3,0,1.9.6,2.3,3.1,2.9.8.2,1.1.5,1.1.8,0,.5-.9.8-1.4.8s-3.4-.2-4.8-.2-3.9.2-4.6.2-1.1-.3-1.1-.6.5-.7,1-.9c2.1-.7,2.5-1.1,2.6-1.9.1-.9.3-6.9.3-10.2v-5.6Z"/>
    <path d="M462.8,206.9c1,0,5.5.2,5.7.2s.6.4.7.6c.2.6.6,1.6,1.5,3.6.9,2.1,5.7,12.1,6.9,14.3,0,.2.3.1.6-.4.3-.5,6.1-12.2,7.1-14.1.9-1.8,1.3-2.7,1.5-3.4,0-.2.5-.6.7-.6.7,0,4-.2,5.3-.2s1.3.2,1.3.8-.2.6-1.3.8c-2.5.5-3,1.3-3,2,0,6.6.3,13.7.5,16.4.1,3,.9,3.3,2.6,3.9.9.3,1.3.7,1.3.9,0,.4-.4.7-1.2.7s-4.4-.2-5.5-.2-2,.1-3,.1-1.3-.3-1.3-.7.5-.7,1.4-.9c1.5-.4,1.7-.9,1.8-3.1,0-1.1,0-10,0-14s-.5,0-.5,0c-.9,1.6-5.3,11.1-5.9,12.4-.5,1-1.8,3.9-2.2,5.1-.3,1-.9,1.4-1.4,1.4s-.7-.7-1-1.4c-.5-1.1-1.7-4.4-2.1-5.5-1.5-3.7-4.1-9-5.3-11.9,0,0-.4-.4-.4,0-.4,3.6-.7,11.7-.7,13.8s.5,2.7,2.5,3.2c.9.2,1.1.6,1.1.9s-.7.7-1.3.7-2-.1-3.2-.1-3.9.2-4.5.2c-.8,0-1.3-.2-1.3-.7s.3-.7,1.3-.9c1.9-.5,2.7-1.4,3-3.2.5-2.8,1.5-14.8,1.5-15.8,0-2.3-.4-2.8-3.1-3.3-.6,0-1.1-.4-1.1-.7,0-.5.7-.9,1.2-.9Z"/>
    <path d="M501.2,213c0-3.5-.2-3.9-2.8-4.5-.7-.2-1-.6-1-.9s.7-.6,1.3-.6,2.3.1,4.1.1,3.6-.2,4.8-.2,1,.3,1,.7-.5.7-.9.7c-2.4.6-2.5,1.1-2.6,3.2,0,1.7,0,6.1,0,8.9,0,4.5,0,6.8,0,7.3,0,1.9.6,2.3,3.1,2.9.8.2,1.1.5,1.1.8,0,.5-.9.8-1.4.8s-3.4-.2-4.8-.2-3.9.2-4.6.2-1.1-.3-1.1-.6.5-.7,1-.9c2.1-.7,2.5-1.1,2.6-1.9.1-.9.3-6.9.3-10.2v-5.6Z"/>
    <path d="M532.1,207c2.3,0,3-.1,3.4-.5.5-.4.7-.7,1-.7s.8.5.8.8-.5,2.7-.5,5.4-.4,1.1-.9,1.1-.7-.6-.8-.9c-.6-2.6-1.4-3-2.5-3.1-.6,0-2.5-.2-6-.2s-.5.3-.5.5c-.1,1.1-.2,6.1-.2,8.7s0,6.3.2,8.6c.2,3,.9,3,3,3.9.7.3,1.2.5,1.2.9s-.4.7-1.2.7-3.4-.2-5.9-.2-3.4.1-4.6.1-1.3-.3-1.3-.8.4-.6,1.1-.8c2.9-.8,3.6-.9,3.6-3.7s.1-5.1.1-11.6v-5.4c0-.5-.3-.9-.4-.9-1,0-5.3,0-5.9,0s-1.7.5-2.7,3c-.2.7-.6,1.1-.9,1.1-.7,0-.8-.6-.8-1.6,0-1.3.4-3.1.3-5,0-.4.7-.7.9-.7s.4.1.6.4c.6.5,1.1.7,2.3.7,1.7,0,1.3,0,2.6,0h13.9Z"/>
    <path d="M554.6,207.3c.2,0,.5.7.5,1.1s.2,2.3.2,3-.3,1.4-.9,1.4-.6-.6-.7-.9c-.8-2.7-2.5-3.9-5-3.9s-4.1,2-4.1,4,1,3.6,4.6,5.7c4.1,2.3,6.7,4.3,6.7,8.1s-1.8,4.6-3.2,5.5c-1.4.9-3.9,1.6-5.6,1.6s-5-.7-6-1.4c-.2-.2-.4-.4-.6-.8-.5-1-.7-2.7-.7-3.6s.4-1.3.7-1.3c.6,0,.7.5,1,1,1.6,3.5,4.3,4.5,6.4,4.5s4.1-1.3,4.1-4.2-1.1-3.3-5.5-6c-2.4-1.5-5.5-3.8-5.5-7.7s1.6-4.6,3.3-5.6c1.3-.8,3.1-1.3,5-1.3s3.6.6,5.1,1Z"/>
    <path d="M595.7,219.4c0,4.3-2.3,9.1-6.8,11.6-1.8,1-4.2,1.7-6.8,1.7-7.7,0-13.6-5.9-13.6-13.2s1.3-6.6,3.7-9.1c2.5-2.5,6.3-4.3,9.9-4.3,7.6,0,13.7,5.5,13.7,13.2ZM576,210.4c-1.8,1.8-3,4.7-3,8.8s3.8,11.9,10.1,11.9,3.7-.6,5-1.9c1.6-1.6,3.2-4.6,3.2-9.6s-3.8-11.6-9.9-11.6-4.1,1.2-5.4,2.4Z"/>
    <path d="M611.5,207c5.3,0,6.4-.2,6.6-.2.4,0,.7.5.7.8v3.8c0,1.1-.6,1.4-.8,1.4s-.7-.2-.9-1.1c-.5-2-1.1-2.7-2.5-2.8-1.1,0-2.9,0-6.7,0s-.6.5-.6.7c-.1,1.1-.1,6.6-.1,8.7s.2.4.4.4c.9,0,3.6,0,4.9-.2,1.3,0,1.6-.8,1.8-1.6.2-.8.7-1.3,1-1.3s.7.6.7,1.2-.1,2-.1,2.7.2,2.4.2,2.7c0,.8-.3,1.3-.7,1.3s-.6-.3-.9-1c-.5-1-.7-1.8-1.7-2-.5,0-2.4,0-5.2,0s-.4.3-.4.8v6.5c0,1.8.8,2.2,2.5,2.6,1.1.3,1.4.7,1.4,1s-.4.7-1.1.7c-1.2,0-4.1-.2-5.7-.2s-2.3.2-3.6.2-1.1-.1-1.1-.6.6-.8,1.4-1c1.7-.5,2.3-1.1,2.3-2.2.1-1.2.2-3.1.2-8.5s0-7.5,0-9.4c0-1.3-.8-1.6-2.4-2-.6-.2-1.1-.5-1.1-.9s.5-.7,1.3-.7c1.2,0,3.1.2,6.1.2h4.3Z"/>
    <path d="M642.7,207c5.3,0,6.4-.2,6.6-.2.4,0,.7.5.7.8v3.8c0,1.1-.6,1.4-.8,1.4s-.7-.2-.9-1.1c-.5-2-1.1-2.7-2.5-2.8-1.1,0-2.9,0-6.7,0s-.6.5-.6.7c-.1,1.1-.1,6.6-.1,8.7s.2.4.4.4c.9,0,3.6,0,4.9-.2,1.3,0,1.6-.8,1.8-1.6.2-.8.7-1.3,1-1.3s.7.6.7,1.2-.1,2-.1,2.7.2,2.4.2,2.7c0,.8-.3,1.3-.7,1.3s-.6-.3-.9-1c-.5-1-.7-1.8-1.7-2-.5,0-2.4,0-5.2,0s-.4.3-.4.8v6.5c0,1.8.8,2.2,2.5,2.6,1.1.3,1.4.7,1.4,1s-.4.7-1.1.7c-1.2,0-4.1-.2-5.7-.2s-2.3.2-3.6.2-1.1-.1-1.1-.6.6-.8,1.4-1c1.7-.5,2.3-1.1,2.3-2.2.1-1.2.2-3.1.2-8.5s0-7.5,0-9.4c0-1.3-.8-1.6-2.4-2-.6-.2-1.1-.5-1.1-.9s.5-.7,1.3-.7c1.2,0,3.1.2,6.1.2h4.3Z"/>
    <path d="M681.2,219.4c0,4.3-2.3,9.1-6.8,11.6-1.8,1-4.2,1.7-6.8,1.7-7.7,0-13.6-5.9-13.6-13.2s1.3-6.6,3.7-9.1c2.5-2.5,6.3-4.3,9.9-4.3,7.6,0,13.7,5.5,13.7,13.2ZM661.4,210.4c-1.8,1.8-3,4.7-3,8.8s3.8,11.9,10.1,11.9,3.7-.6,5-1.9c1.6-1.6,3.2-4.6,3.2-9.6s-3.8-11.6-9.9-11.6-4.1,1.2-5.4,2.4Z"/>
    <path d="M702.3,217.7c-.3.3-2.1,1.5-2.5,1.7-.2,0-.2.4-.1.6.6,1.1,3.6,5.7,5.5,7.9,2,2.3,3.2,2.8,4.8,3.2.4,0,.6.4.6.6,0,.8-1.9,1-2.4,1-1.8,0-4.2-.2-7.3-4.2-1.5-1.9-3.9-5.5-4.6-6.6-.9-1.3-2-1.4-3.4-1.4s-.6.4-.6.6c0,3.3,0,5.4.2,6.8.1,1.5.7,2,2.5,2.5.8.2,1.1.5,1.1.9s-.7.7-1.3.7c-1,0-3.2-.2-4.6-.2s-2,.2-3.5.2-1.5-.3-1.5-.7.4-.6,1.1-.9c1.6-.5,2.1-.7,2.2-2.8,0-1.5,0-2.8,0-10.2s0-6.7-.2-7.6c0-.8-.7-1.3-2.3-1.6-.7-.1-1.2-.5-1.2-.8,0-.6.8-.8,1.6-.8h3.6c1.6,0,3.2-.2,5.2-.2,3.6,0,5.1.8,6.1,1.6,1.9,1.5,2.5,3.2,2.5,5s-.7,3.3-1.9,4.4ZM694.6,208.4c-.5,0-1.4.2-1.8.3-.2,0-.5.5-.5.8,0,2.3,0,6.7,0,8.7,0,.2.1.4.3.5.9.2,1.7.4,2.5.4s2.9-.7,3.8-1.6c.7-.7,1.4-2,1.4-3.7,0-3-1.6-5.5-5.7-5.5Z"/>
    <path d="M714.4,206.9c1,0,5.5.2,5.7.2s.6.4.7.6c.2.6.6,1.6,1.5,3.6.9,2.1,5.7,12.1,6.9,14.3,0,.2.3.1.6-.4.3-.5,6.1-12.2,7.1-14.1.9-1.8,1.3-2.7,1.5-3.4,0-.2.5-.6.7-.6.7,0,4-.2,5.3-.2s1.3.2,1.3.8-.2.6-1.3.8c-2.5.5-3,1.3-3,2,0,6.6.3,13.7.5,16.4.1,3,.9,3.3,2.6,3.9.9.3,1.3.7,1.3.9,0,.4-.4.7-1.2.7s-4.4-.2-5.5-.2-2,.1-3,.1-1.3-.3-1.3-.7.5-.7,1.4-.9c1.5-.4,1.7-.9,1.8-3.1,0-1.1,0-10,0-14s-.5,0-.5,0c-.9,1.6-5.3,11.1-5.9,12.4-.5,1-1.8,3.9-2.2,5.1-.3,1-.9,1.4-1.4,1.4s-.7-.7-1-1.4c-.5-1.1-1.7-4.4-2.1-5.5-1.5-3.7-4.1-9-5.3-11.9,0,0-.4-.4-.4,0-.4,3.6-.7,11.7-.7,13.8s.5,2.7,2.5,3.2c.9.2,1.1.6,1.1.9s-.7.7-1.3.7-2-.1-3.2-.1-3.9.2-4.5.2c-.8,0-1.3-.2-1.3-.7s.3-.7,1.3-.9c1.9-.5,2.7-1.4,3-3.2.5-2.8,1.5-14.8,1.5-15.8,0-2.3-.4-2.8-3.1-3.3-.6,0-1.1-.4-1.1-.7,0-.5.7-.9,1.2-.9Z"/>
    <path d="M764.7,210.2c2.1,5.9,5.6,14.8,6.5,17.3.9,2.1,1.1,2.3,3.4,3.1.9.3,1.2.7,1.2,1.2s-.4.5-1,.5c-2.2,0-3.7-.2-5.7-.2s-1.8,0-3.2,0-1.1-.2-1.1-.5.2-.8.9-1c1.9-.6,2.1-.9,1.7-2.3-.3-1.1-1.4-3.9-1.8-5.1,0-.2-.6-.6-1.1-.6-.8,0-5.7,0-7,0-.2,0-.6.4-.7.6-.6,1.7-1.7,4.8-1.7,5.7s0,1.1,2,1.7c.5.2.9.3.9.7,0,.4-.5.9-1.4.9s-2.2-.1-3.4-.1-2.1.2-3.7.2-1.4-.2-1.4-.6c0-.4.4-.8,1.2-1,2.1-.5,2.7-1.4,3.2-2.3,1.3-2.7,5.6-13.5,7.6-18.9.1-.3.2-.8.3-1.1,0-.1.2-.4.3-.5.5-.3,1.1-.8,1.5-1.1.2-.2.7-.5.9-.5.4,0,.6,1.1,1.6,3.9ZM764.6,220.1c-.5-2-2.7-7.5-3-8.2-.1-.3-.5-.2-.5,0-.9,2.2-2.1,5.5-3,8.2,0,.2,0,.4.3.4.7,0,5.3.1,6.1,0,.1,0,.2-.2.2-.4Z"/>
    <path d="M778.9,206.9c.2,0,2.8.2,4.4.2s3.5-.2,4.3-.2,1.2.2,1.2.7-.4.7-1.1.9c-1.8.4-2.4.8-2.6,2.1-.1.9-.2,2.3-.2,7.8s0,8.9.2,10.4c0,.4.7,1.2,1.6,1.4,1.7.4,5.2.1,5.6,0,1.7-.6,2.7-1.5,3.9-3.9.4-.7.7-1,.9-1,.4,0,.7.7.7,1.3,0,.9-1,3.9-1.3,4.7-.2.6-1,.9-1.8.9-1.4,0-6.5-.2-11.6-.2s-4.3.2-5.2.2-1.3-.4-1.3-.7.5-.8,1.1-.9c2.7-.7,2.9-1.4,3.1-2.4,0-.5.2-3.4.2-8.3,0-7.4,0-8.2-.2-9.3-.1-1.4-.8-1.8-2.2-2.2-.9-.3-1.2-.5-1.2-1s.5-.7,1.1-.7Z"/>
    <path d="M804.6,213c0-3.5-.2-3.9-2.8-4.5-.7-.2-1-.6-1-.9s.7-.6,1.3-.6,2.3.1,4.1.1,3.6-.2,4.8-.2,1,.3,1,.7-.5.7-.9.7c-2.4.6-2.5,1.1-2.6,3.2,0,1.7,0,6.1,0,8.9,0,4.5,0,6.8,0,7.3,0,1.9.6,2.3,3.1,2.9.8.2,1.1.5,1.1.8,0,.5-.9.8-1.4.8s-3.4-.2-4.8-.2-3.9.2-4.6.2-1.1-.3-1.1-.6.5-.7,1-.9c2.1-.7,2.5-1.1,2.6-1.9.1-.9.3-6.9.3-10.2v-5.6Z"/>
    <path d="M830.3,207.3c.2,0,.5.7.5,1.1s.2,2.3.2,3-.3,1.4-.9,1.4-.6-.6-.7-.9c-.8-2.7-2.5-3.9-5-3.9s-4.1,2-4.1,4,1,3.6,4.6,5.7c4.1,2.3,6.7,4.3,6.7,8.1s-1.8,4.6-3.2,5.5c-1.4.9-3.9,1.6-5.6,1.6s-5-.7-6-1.4c-.2-.2-.4-.4-.6-.8-.5-1-.7-2.7-.7-3.6s.4-1.3.7-1.3c.6,0,.7.5,1,1,1.6,3.5,4.3,4.5,6.4,4.5s4.1-1.3,4.1-4.2-1.1-3.3-5.5-6c-2.4-1.5-5.5-3.8-5.5-7.7s1.6-4.6,3.3-5.6c1.3-.8,3.1-1.3,5-1.3s3.6.6,5.1,1Z"/>
    <path d="M837.7,206.9c1,0,5.5.2,5.7.2s.6.4.7.6c.2.6.6,1.6,1.5,3.6.9,2.1,5.7,12.1,6.9,14.3,0,.2.3.1.6-.4.3-.5,6.1-12.2,7.1-14.1.9-1.8,1.3-2.7,1.5-3.4,0-.2.5-.6.7-.6.7,0,4-.2,5.3-.2s1.3.2,1.3.8-.2.6-1.3.8c-2.5.5-3,1.3-3,2,0,6.6.3,13.7.5,16.4.1,3,.9,3.3,2.6,3.9.9.3,1.3.7,1.3.9,0,.4-.4.7-1.2.7s-4.4-.2-5.5-.2-2,.1-3,.1-1.3-.3-1.3-.7.5-.7,1.4-.9c1.5-.4,1.7-.9,1.8-3.1,0-1.1,0-10,0-14s-.5,0-.5,0c-.9,1.6-5.3,11.1-5.9,12.4-.5,1-1.8,3.9-2.2,5.1-.3,1-.9,1.4-1.4,1.4s-.7-.7-1-1.4c-.5-1.1-1.7-4.4-2.1-5.5-1.5-3.7-4.1-9-5.3-11.9,0,0-.4-.4-.4,0-.4,3.6-.7,11.7-.7,13.8s.5,2.7,2.5,3.2c.9.2,1.1.6,1.1.9s-.7.7-1.3.7-2-.1-3.2-.1-3.9.2-4.5.2c-.8,0-1.3-.2-1.3-.7s.3-.7,1.3-.9c1.9-.5,2.7-1.4,3-3.2.5-2.8,1.5-14.8,1.5-15.8,0-2.3-.4-2.8-3.1-3.3-.6,0-1.1-.4-1.1-.7,0-.5.7-.9,1.2-.9Z"/>
    <path d="M454.5,610.2c-.3-.1-.5-.3-.5-.5,0-.4.2-.6.6-.8.4-.1.7-.2.8-.3,1.6-.3,2.9-.8,3.8-1.5.9-.7,1.3-1.7,1.3-3.1v-29.2c0-1-.1-1.8-.3-2.2-.2-.5-.6-.8-1.1-1.1-.5-.2-1.3-.4-2.4-.6-1.4-.3-2.1-.7-2.1-1.3s.2-.4.5-.5c.3-.1.8-.2,1.3-.2,1.1,0,2,0,2.7,0,.7,0,1.4,0,2,0,.6,0,1.4,0,2.3,0s2,0,2.7,0c.8,0,1.5,0,2.3,0,.8,0,1.8,0,2.9,0s1,0,1.3.2c.3.1.5.3.5.5s-.2.5-.5.8c-.3.2-.9.4-1.6.5-1.6.3-2.9.6-4,1-1.1.4-1.6,1.2-1.6,2.4v29.7c0,1.3.3,2.3.9,2.9.6.6,1.9.9,4,.9h7.8c1.1,0,2.1-.2,3-.5.9-.4,1.5-.7,1.9-1.1.8-.7,1.5-1.4,1.9-1.9.4-.6.9-1.4,1.4-2.6,0-.3.3-.6.5-1.1.3-.5.6-.8.9-.8s.4.1.6.4.2.5.2.8,0,0,0,.2c0,0,0,.1,0,.2-.3,1.1-.6,2.1-.8,3-.2.9-.4,1.7-.6,2.5-.1.8-.3,1.6-.3,2.5,0,.3-.1.5-.2.8-.1.2-.3.3-.7.3-2.1,0-4.1,0-6,0-1.9,0-3.8,0-5.6,0-1.8,0-3.5,0-5.1,0-1.6,0-3.3,0-4.9,0s-2.2,0-3.6,0c-1.3,0-3,.1-4.9.3-.5,0-1,0-1.3-.2Z"/>
    <path d="M503.9,611c-2.4,0-4.5-.5-6.4-1.6-1.9-1.1-3.4-2.6-4.5-4.5-1.1-1.9-1.7-4.1-1.7-6.5s.3-3.5,1-5.2c.7-1.7,1.7-3.2,2.9-4.6,1.3-1.4,2.7-2.5,4.4-3.3,1.7-.8,3.5-1.2,5.4-1.2s4.6.6,6.6,1.8c2,1.2,3.5,2.7,4.7,4.6,1.2,1.9,1.7,4,1.7,6.3s-.5,4.7-1.6,6.9c-1.1,2.2-2.7,4-4.8,5.3-2.1,1.4-4.7,2-7.9,2ZM505.2,609.1c1.4,0,2.7-.3,3.8-.8,1.1-.5,2-1.4,2.6-2.6.5-1,.8-2.1,1-3.5.2-1.4.3-2.7.3-3.9,0-2-.4-4-1.1-5.8-.7-1.9-1.8-3.4-3.1-4.6-1.3-1.2-2.9-1.8-4.7-1.8s-2.2.2-3.1.5c-.9.4-1.7,1-2.5,2-.8,1.1-1.4,2.3-1.6,3.8-.3,1.5-.4,3-.4,4.5s.4,4,1.1,5.9c.8,1.9,1.8,3.4,3.1,4.6,1.3,1.2,2.8,1.8,4.5,1.8Z"/>
    <path d="M532.6,628.3c-3.6,0-6.4-.7-8.5-2-2.1-1.4-3.1-3.2-3.1-5.5s.2-2,.5-2.8c.3-.8.9-1.4,1.6-2,.6-.5,1.4-1.1,2.4-1.9,1-.8,2-1.6,3.1-2.4h2.6c-2,1.4-3.4,2.7-4.2,3.8-.8,1.2-1.2,2.6-1.2,4.3s.7,3.1,2.2,4.3c1.5,1.2,3.3,1.7,5.5,1.7s4.5-.6,6-1.7c1-.8,1.9-1.8,2.5-3.1.6-1.3.9-2.6.9-4.1s-.3-1.7-1-2.3c-.7-.6-1.7-1.1-3.1-1.5-1.4-.4-3.2-.6-5.4-.8-3.9-.3-6.7-.8-8.2-1.6-1.5-.8-2.3-1.9-2.3-3.5s.1-.8.3-1.2c.2-.4.6-.7,1.1-1.2,1-.8,1.7-1.3,2.1-1.7.5-.4.8-.7,1-.9.2-.3.5-.6.7-.9l2.1,1.1c-.9.3-1.7.8-2.3,1.4s-.9,1.1-.9,1.5.3,1.1.9,1.5,1.6.8,2.8,1c1.2.3,2.7.4,4.5.6,3.9.2,6.7.8,8.6,1.9s2.8,2.5,2.8,4.5-.4,3.2-1.2,4.8c-.8,1.6-1.9,3-3.2,4.3-1.3,1.3-2.8,2.3-4.5,3.1-1.7.8-3.3,1.2-5.1,1.2ZM533,603.4c-1.7,0-3.4-.4-4.9-1.3-1.6-.9-2.8-2-3.8-3.5-1-1.4-1.5-3-1.5-4.8s.5-3.7,1.5-5.2c1-1.5,2.4-2.7,4.1-3.5,1.7-.8,3.5-1.3,5.4-1.3s2.3.2,3.2.5c.9.3,1.8.6,2.7.9,1,.3,1.8.5,2.4.5.6,0,1.2,0,1.8,0s1.1,0,1.9,0c.8,0,1.3,0,1.6,0,.5,0,.8.3.8.9s-.2.8-.6,1.2-.4.3-.5.3h-1.7c-1.1,0-1.8.2-1.9.5,0,.2,0,.4-.2.7,0,.3-.1.7-.2,1,0,.4,0,.8,0,1.1,0,2.1-.5,4.1-1.4,5.9-.9,1.8-2.1,3.3-3.7,4.3-1.5,1.1-3.2,1.6-5,1.6ZM533.4,601.2c1.6,0,2.9-.8,4-2.4,1-1.6,1.6-3.6,1.6-6s-.3-2.4-.9-3.4c-.6-1.1-1.3-1.9-2.2-2.6-.9-.7-1.9-1-2.9-1s-1.9.3-2.7,1c-.9.7-1.6,1.6-2.1,2.7-.5,1.1-.8,2.3-.8,3.6s.3,2.8.8,4.1c.5,1.2,1.3,2.2,2.2,3,.9.7,1.9,1.1,3,1.1Z"/>
    <path d="M550.5,610.3c-.4,0-.7,0-.9-.2-.2-.1-.3-.3-.3-.5s.2-.6.5-.7c.3-.1.6-.2,1-.3.9-.2,1.6-.5,2-.8.5-.3.7-.9.7-1.6v-13.7c0-1.1-.2-2.1-.6-3-.4-.9-1.1-1.4-2.2-1.6-.2,0-.4-.1-.5-.3-.1-.1-.2-.3-.2-.6,0-.5.2-.7.6-.8,1.7-.4,3.1-.9,4.2-1.5,1.1-.7,1.9-1.2,2.5-1.6.4-.3.7-.4.9-.4s.4.1.4.3c0,.3,0,1-.2,2-.1,1-.2,2.1-.3,3.3,0,1.2-.1,2.3-.1,3.2v14.6c0,.7.2,1.2.7,1.6.5.3,1.1.6,2,.8.3,0,.7.2,1,.3.3.1.5.4.5.7s-.4.7-1.3.7-1.4,0-1.9,0c-.5,0-.9-.1-1.4-.2-.4,0-1,0-1.8,0s-1.3,0-1.8,0c-.5,0-.9,0-1.4.2-.5,0-1.1,0-2,0ZM555.6,577.6c-.9,0-1.6-.3-2.2-.9-.6-.6-.9-1.4-.9-2.2s.3-1.7.9-2.3,1.4-.9,2.2-.9,1.7.3,2.3.9c.6.6.9,1.4.9,2.3s-.3,1.6-.9,2.2-1.4.9-2.3.9Z"/>
    <path d="M576.6,611c-2.1,0-4-.5-5.7-1.6-1.7-1.1-3-2.5-4-4.4-1-1.9-1.5-4-1.5-6.3s.6-5.2,1.8-7.4c1.2-2.2,2.8-4,4.8-5.3,2-1.3,4.2-2,6.7-2s5.1.7,7.2,2.2c.5.4.8.8.8,1.2s-.1.7-.4,1.1c-.3.4-.7.8-1.1,1-.4.3-.8.4-1.2.4s-.4,0-.6-.2c-.2-.1-.4-.3-.7-.5-.9-.7-2-1.4-3.1-2-1.1-.6-2.1-.9-2.8-.9-2.1,0-3.7,1-5,2.9-1.3,1.9-1.9,4.4-1.9,7.5s.4,3.8,1.3,5.4c.9,1.6,2,2.9,3.5,3.8,1.4.9,3.1,1.4,4.8,1.4s2.3-.2,3.1-.6c.9-.4,1.8-1.1,2.8-2.1,0,0,.2-.2.3-.2.1,0,.2,0,.3,0,.5,0,.7.3.7.9s0,.5-.2.9c-.1.3-.4.7-.7,1.1-.7.8-1.5,1.6-2.4,2.2-.9.6-1.9,1.1-3.1,1.4-1.1.3-2.3.4-3.6.4Z"/>
    <path class="st1" d="M605.5,590.3c-.2,0-.4,0-.6-.3-.2-.2-.3-.3-.3-.5s0-.5.2-.9c.1-.4.3-.7.5-1,.2-.3.5-.5.9-.5h27c.2,0,.4,0,.6.2s.3.3.3.5c0,.4-.2.9-.6,1.5-.4.6-.9.9-1.4.9h-26.5ZM605.5,601.1c-.2,0-.4,0-.6-.3-.2-.2-.3-.3-.3-.5s0-.5.2-.9c.1-.4.3-.7.5-1,.2-.3.5-.5.9-.5h27c.2,0,.4,0,.6.2s.3.3.3.5c0,.5-.2,1.1-.6,1.6-.4.5-.9.8-1.4.8h-26.5ZM610.2,611.3c-.2,0-.4-.1-.6-.3-.2-.2-.2-.4,0-.6l17.2-30.9c.3-.5.7-.8,1.1-.9.4-.1.9-.2,1.5-.2s.4.1.5.4c.1.3,0,.5,0,.7l-17.2,30.9c-.3.4-.6.7-1,.8-.4.1-.9.2-1.4.2Z"/>
    <path d="M651.9,610.2c-.3-.1-.5-.3-.5-.5,0-.4.2-.6.6-.8.4-.1.7-.2.8-.3,1.6-.3,2.9-.8,3.8-1.5.9-.7,1.3-1.7,1.3-3.1v-29.2c0-1-.1-1.8-.3-2.2-.2-.5-.6-.8-1.1-1.1-.5-.2-1.3-.4-2.4-.6-1.4-.3-2.1-.7-2.1-1.3s.2-.4.5-.5c.3-.1.8-.2,1.3-.2,1.1,0,2,0,2.7,0,.7,0,1.4,0,2,0,.6,0,1.4,0,2.3,0s2,0,2.7,0c.8,0,1.5,0,2.3,0,.8,0,1.8,0,2.9,0s1,0,1.3.2c.3.1.5.3.5.5s-.2.5-.5.8c-.3.2-.9.4-1.6.5-1.6.3-2.9.6-4,1-1.1.4-1.6,1.2-1.6,2.4v29.7c0,1.3.3,2.3.9,2.9.6.6,1.9.9,4,.9h7.8c1.1,0,2.1-.2,3-.5.9-.4,1.5-.7,1.9-1.1.8-.7,1.5-1.4,1.9-1.9.4-.6.9-1.4,1.4-2.6,0-.3.3-.6.5-1.1.3-.5.6-.8.9-.8s.4.1.6.4.2.5.2.8,0,0,0,.2c0,0,0,.1,0,.2-.3,1.1-.6,2.1-.8,3-.2.9-.4,1.7-.6,2.5-.1.8-.3,1.6-.3,2.5,0,.3-.1.5-.2.8-.1.2-.3.3-.7.3-2.1,0-4.1,0-6,0-1.9,0-3.8,0-5.6,0-1.8,0-3.5,0-5.1,0-1.6,0-3.3,0-4.9,0s-2.2,0-3.6,0c-1.3,0-3,.1-4.9.3-.5,0-1,0-1.3-.2Z"/>
    <path d="M689.3,610.3c-.4,0-.7,0-.9-.2-.2-.1-.3-.3-.3-.5s.2-.6.5-.7c.3-.1.6-.2,1-.3.9-.2,1.6-.5,2-.8.5-.3.7-.9.7-1.6v-13.7c0-1.1-.2-2.1-.6-3-.4-.9-1.1-1.4-2.2-1.6-.2,0-.4-.1-.5-.3-.1-.1-.2-.3-.2-.6,0-.5.2-.7.6-.8,1.7-.4,3.1-.9,4.2-1.5,1.1-.7,1.9-1.2,2.5-1.6.4-.3.7-.4.9-.4s.4.1.4.3c0,.3,0,1-.2,2-.1,1-.2,2.1-.3,3.3,0,1.2-.1,2.3-.1,3.2v14.6c0,.7.2,1.2.7,1.6.5.3,1.1.6,2,.8.3,0,.7.2,1,.3.3.1.5.4.5.7s-.4.7-1.3.7-1.4,0-1.9,0c-.5,0-.9-.1-1.4-.2-.4,0-1,0-1.8,0s-1.3,0-1.8,0c-.5,0-.9,0-1.4.2-.5,0-1.1,0-2,0ZM694.3,577.6c-.9,0-1.6-.3-2.2-.9-.6-.6-.9-1.4-.9-2.2s.3-1.7.9-2.3,1.4-.9,2.2-.9,1.7.3,2.3.9c.6.6.9,1.4.9,2.3s-.3,1.6-.9,2.2-1.4.9-2.3.9Z"/>
    <path d="M704.7,610.3c-.4,0-.7,0-.9-.2-.2-.1-.3-.3-.3-.5s.1-.6.4-.7c.3-.1.6-.2,1-.3,1-.2,1.7-.5,2.1-.9.4-.4.6-1,.6-1.9v-17.8c-.4,0-.9,0-1.4,0-.5,0-1.2,0-1.8,0-.1,0-.3-.2-.5-.4-.2-.3-.3-.5-.3-.7s0-.2.2-.2.2-.1.3-.2c.8-.4,1.4-.7,2-1,.5-.3,1.1-.6,1.8-.9,0-3.7.5-6.7,1.4-9.1.9-2.4,2.1-4.4,3.5-5.8,1.4-1.4,2.9-2.4,4.5-3.1,1.6-.6,3.1-.9,4.5-.9,2.4,0,4.1.4,5.2,1.1,1.1.7,1.7,1.6,1.7,2.7s-.2,1.5-.6,1.9-.9.6-1.5.6-.7-.1-1-.4c-.3-.3-.7-.6-1.1-1-.5-.5-1.2-1.1-2-1.5-.8-.5-1.9-.7-3.3-.7-2,0-3.6.9-4.9,2.6-1.3,1.7-1.9,4.4-1.9,7.9v5.5c0,.3,0,.4.2.5.1,0,.3.1.5.1h7.9c.2,0,.4,0,.6.2.2.1.3.3.3.5s0,.6,0,.9c0,.3-.2.6-.3.9-.1.3-.3.5-.6.5h-7.2c-.5,0-.8,0-1,.2-.1.1-.2.3-.2.6v17.1c0,.8.3,1.5.8,1.9.5.4,1.7.7,3.3.9,1,.1,1.4.5,1.4,1s-.1.4-.3.5c-.2.1-.5.2-.9.2-1.3,0-2.4,0-3.3-.2-1-.1-2-.2-3.1-.2s-1.3,0-1.8,0c-.5,0-.9,0-1.4.2s-1.2,0-2,0Z"/>
    <path d="M733.8,611c-2.3,0-4.3-.6-6-1.7-1.7-1.1-3.1-2.7-4-4.8-1-2.1-1.4-4.5-1.4-7.2s.6-4.7,1.7-6.6c1.1-2,2.6-3.6,4.4-4.8,1.8-1.2,3.9-1.8,6-1.8s3.2.3,4.5,1c1.3.7,2.3,1.6,3.1,2.8.7,1.2,1.1,2.6,1.1,4.1s-.6,2-1.9,2h-13.3c-.6,0-1,.2-1.2.5-.2.3-.3.9-.3,1.9,0,2,.4,3.9,1.3,5.5.9,1.7,2.1,3,3.5,4,1.5,1,3.1,1.5,4.9,1.5s2.4-.2,3.4-.7c1-.5,1.9-1.2,2.7-2.1.2-.2.3-.3.4-.4,0,0,.2,0,.3,0,.3,0,.5.2.5.6,0,.8-.4,1.7-1.1,2.6-.6.8-1.4,1.5-2.3,2.1-.9.6-1.8,1-2.9,1.4-1.1.3-2.1.5-3.3.5ZM728,591.9h5.7c1,0,1.9,0,2.6,0,.7,0,1.4-.1,2.1-.3.2,0,.3-.2.4-.4,0-.2,0-.6,0-1,0-1.2-.5-2.3-1.6-3.1-1.1-.9-2.3-1.3-3.8-1.3s-1.9.3-2.9.9c-1,.6-1.8,1.3-2.4,2.1-.6.8-.9,1.7-.9,2.5s.3.6.8.6Z"/>
    <path d="M460.4,761.6c-.5,0-1,0-1.3-.2-.3-.1-.5-.3-.5-.5,0-.5.7-.9,2.1-1.1,1.6-.3,2.7-.8,3.3-1.4.6-.7.9-1.8.9-3.3v-26.6c0-1.9-.2-3.3-.7-4.3-.5-1-1.5-1.7-3.1-2-.7-.1-1.2-.3-1.6-.5-.3-.2-.5-.5-.5-.8s.2-.4.5-.5c.3-.1.8-.2,1.3-.2,1.6,0,2.9,0,3.9,0,1.1,0,2.1,0,3.2,0,1,0,2.3,0,3.7,0h7.9c1.3,0,2.5-.1,3.6-.3,1-.2,1.9-.3,2.7-.3s.4,0,.7.1c.3,0,.4.2.4.4,0,.5.1,1.1.2,2,0,.9,0,1.8,0,2.6,0,.8,0,1.4,0,1.7,0,.9-.2,1.3-.6,1.3s-.4,0-.6-.2c-.2-.1-.3-.3-.4-.5-.2-.7-.4-1.3-.6-1.9-.3-.5-.5-.9-.8-1.2-.6-.7-1.2-1.1-2-1.4-.7-.2-1.5-.3-2.3-.3h-8c-1,0-1.6.3-1.8.9-.2.6-.3,1.4-.4,2.2,0,.8,0,1.8,0,2.9v6.6c0,1.1,0,2,0,2.8,0,.3,0,.7,0,.9,0,.3.2.4.5.4,1.3,0,2.7,0,4.1,0,1.4,0,2.5,0,3.2,0s1.7-.3,2.4-.8c.7-.5,1.2-1.1,1.4-1.8,0-.2.3-.4.5-.7.3-.3.5-.4.6-.4s.4,0,.6.3c.2.2.3.4.3.7,0,.7,0,1.3-.1,1.9,0,.5,0,1.1,0,1.6s0,1.3,0,1.9c0,.7,0,1.4.1,2.4,0,.3,0,.5,0,.8,0,.2-.2.3-.5.3-.4,0-.7-.2-1-.6-.2-.4-.4-.7-.5-.9-.3-1-.7-1.6-1.3-2-.6-.4-1.1-.5-1.6-.5s-1.1,0-1.6,0c-.5,0-1,0-1.5,0h-2.1c-.7,0-1.3,0-2,.1-.4,0-.8.2-1.1.4-.3.2-.4.6-.4,1.2,0,1.9,0,3.9,0,5.9,0,2,0,4,.2,6.1,0,1.3.4,2.4,1,3.2.6.8,1.6,1.3,3.2,1.6.7.1,1.2.3,1.6.4.3.2.5.4.5.7s-.2.4-.5.5c-.3.1-.8.2-1.3.2-1.1,0-2,0-2.6-.1-.6,0-1.2-.2-1.6-.2-.5,0-1.1,0-1.9,0s-1.9,0-2.7,0c-.8,0-1.6.1-2.4.2-.8,0-1.8.1-2.9.1Z"/>
    <path d="M501.8,762.2c-2.4,0-4.5-.5-6.4-1.6-1.9-1.1-3.4-2.6-4.5-4.5-1.1-1.9-1.7-4.1-1.7-6.5s.3-3.5,1-5.2c.7-1.7,1.7-3.2,2.9-4.6,1.3-1.4,2.7-2.5,4.4-3.3,1.7-.8,3.5-1.2,5.4-1.2s4.6.6,6.6,1.8c2,1.2,3.5,2.7,4.7,4.6,1.2,1.9,1.7,4,1.7,6.3s-.5,4.7-1.6,6.9c-1.1,2.2-2.7,4-4.8,5.3-2.1,1.4-4.7,2-7.9,2ZM503.2,760.3c1.4,0,2.7-.3,3.8-.8,1.1-.5,2-1.4,2.6-2.6.5-1,.8-2.1,1-3.5.2-1.4.3-2.7.3-3.9,0-2-.4-4-1.1-5.8-.7-1.9-1.8-3.4-3.1-4.6-1.3-1.2-2.9-1.8-4.7-1.8s-2.2.2-3.1.5c-.9.4-1.7,1-2.5,2-.8,1.1-1.4,2.3-1.6,3.8-.3,1.5-.4,3-.4,4.5s.4,4,1.1,5.9c.8,1.9,1.8,3.4,3.1,4.6,1.3,1.2,2.8,1.8,4.5,1.8Z"/>
    <path d="M521.4,761.5c-.4,0-.7,0-.9-.2-.2-.1-.3-.3-.3-.5s.1-.6.4-.7c.3-.1.6-.2,1.1-.3.8-.2,1.4-.5,1.8-.9s.6-.9.6-1.5v-13.5c0-1.1-.2-2.1-.5-3-.3-.8-1-1.4-2.1-1.6-.2,0-.3-.1-.4-.3-.1-.2-.2-.3-.2-.5,0-.4.2-.7.6-.8,1.1-.3,2.2-.8,3.4-1.5,1.2-.7,2.1-1.2,2.8-1.6.3-.2.5-.3.6-.3.1,0,.3,0,.3,0,.2,0,.3.1.3.4s0,.4,0,.9c0,.5,0,1.1,0,1.8,0,.7,0,1.3,0,2,0,0,0,.1.1.1.7-.8,1.4-1.6,2.2-2.2.8-.6,1.7-1.1,2.5-1.5.9-.4,1.7-.6,2.5-.6s1.6.2,2.2.6.9.9.9,1.4-.1.9-.3,1.4c-.2.5-.5.9-.9,1.3-.4.4-.8.6-1.2.6s-.5,0-.8-.2c-.3-.1-.6-.2-.9-.4-.3-.1-.7-.3-1-.4-.3-.1-.7-.2-1-.2-1,0-2,.4-2.9,1.1-.9.7-1.4,2.1-1.4,4.2v12.7c0,.5.3,1,.9,1.4.6.4,1.4.7,2.5,1,.5.1.8.3,1.1.4.3.1.4.3.4.6,0,.5-.4.7-1.3.7-1.3,0-2.2,0-2.9-.2-.7-.1-1.5-.2-2.6-.2s-1.3,0-1.7,0c-.4,0-.9,0-1.4.2-.5,0-1.1,0-2,0Z"/>
    <path d="M542.1,761.5c-.3,0-.6,0-.9-.1s-.4-.3-.4-.6.1-.5.4-.6c.3-.1.6-.3,1-.4.6-.2,1.2-.5,1.8-.7.6-.3.9-.8.9-1.7v-13.5c0-1.1-.1-2.1-.4-3-.3-.9-.9-1.4-2-1.5-.2,0-.3-.1-.4-.3-.1-.1-.2-.3-.2-.6,0-.4.2-.7.5-.8,1.1-.3,2-.6,2.7-.9.7-.3,1.3-.7,1.8-1.1.5-.4,1.2-.8,1.9-1.3,0,0,.2,0,.3-.2,0,0,.2,0,.3,0,.3,0,.4.1.4.4s0,.9-.2,1.8c-.1.9-.2,1.6-.2,2.2s0,.7.1.8h.1c1-.9,2.2-1.9,3.8-2.8s3.6-1.4,6-1.4,2.8.3,3.8,1c1,.7,1.8,1.8,2.5,3.4h.2c1.3-1.2,2.9-2.2,4.6-3.1,1.7-.8,3.6-1.3,5.7-1.3s2.5.4,3.5,1.3c.9.8,1.6,1.9,2.1,3.3.5,1.3.7,2.8.7,4.2v13.4c0,.8.3,1.4.9,1.7.6.3,1.2.5,1.8.7.4.1.8.3,1,.4.3.1.4.3.4.6s0,.4-.3.5c-.2.1-.5.2-1,.2-.8,0-1.5,0-2,0-.5,0-.9-.1-1.3-.2-.4,0-1,0-1.7,0s-1.3,0-1.8,0c-.5,0-.9,0-1.4.2-.5,0-1.2,0-2,0s-.7,0-.9-.2c-.2-.1-.3-.3-.3-.5s.1-.6.4-.7c.3-.1.6-.2,1-.3.7-.2,1.3-.4,1.9-.7.6-.3.9-.9.9-1.7v-13.2c0-1-.2-2-.7-2.9-.5-.9-1.1-1.6-1.8-2.2-.8-.6-1.6-.9-2.5-.9s-2,.1-2.9.4c-.9.3-1.8.7-2.6,1.3-1.2.9-1.8,2.4-1.8,4.5v13c0,.8.3,1.4.9,1.7.6.3,1.3.5,1.9.7.4,0,.8.2,1,.3.3.1.4.4.4.7s-.1.4-.3.5c-.2.1-.5.2-.9.2-.8,0-1.5,0-2,0-.5,0-.9-.1-1.4-.2-.4,0-1,0-1.8,0s-1.3,0-1.8,0c-.5,0-.9,0-1.4.2s-1.2,0-2,0-.6,0-.9-.2c-.3-.1-.4-.3-.4-.5s.2-.6.5-.7c.3-.1.6-.2,1-.3.6-.2,1.2-.5,1.9-.7.6-.3.9-.8.9-1.7v-13.2c0-1-.2-2-.7-2.9-.5-.9-1.1-1.6-1.8-2.2-.8-.6-1.6-.9-2.5-.9s-2,.1-2.9.4c-.9.3-1.8.7-2.6,1.3-1.1.8-1.7,2.4-1.7,4.5v13c0,.8.3,1.4.9,1.7.6.3,1.2.5,1.8.7.3.1.7.2,1,.3.3.1.5.3.5.7s-.1.4-.3.5c-.2.1-.5.2-.9.2-.8,0-1.5,0-2,0-.5,0-.9-.1-1.4-.2-.4,0-1,0-1.8,0s-1.3,0-1.7,0c-.4,0-.9,0-1.4.2-.5,0-1.1,0-2,0Z"/>
    <path class="st1" d="M605,741.5c-.2,0-.4,0-.6-.3-.2-.2-.3-.3-.3-.5s0-.5.2-.9c.1-.4.3-.7.5-1,.2-.3.5-.5.9-.5h27c.2,0,.4,0,.6.2s.3.3.3.5c0,.4-.2.9-.6,1.5-.4.6-.9.9-1.4.9h-26.5ZM605,752.3c-.2,0-.4,0-.6-.3-.2-.2-.3-.3-.3-.5s0-.5.2-.9c.1-.4.3-.7.5-1,.2-.3.5-.5.9-.5h27c.2,0,.4,0,.6.2s.3.3.3.5c0,.5-.2,1.1-.6,1.6-.4.5-.9.8-1.4.8h-26.5ZM609.7,762.5c-.2,0-.4-.1-.6-.3-.2-.2-.2-.4,0-.6l17.2-30.9c.3-.5.7-.8,1.1-.9.4-.1.9-.2,1.5-.2s.4.1.5.4c.1.3,0,.5,0,.7l-17.2,30.9c-.3.4-.6.7-1,.8-.4.1-.9.2-1.4.2Z"/>
    <path d="M672.6,762.2c-3.7,0-6.9-.7-9.4-2-2.5-1.3-4.4-3.2-5.7-5.6-1.3-2.4-1.9-5.2-1.9-8.4v-19.3c0-1.5-.3-2.6-.9-3.3-.6-.7-1.3-1.1-2-1.3-1.4-.4-2.1-.8-2.1-1.4s.2-.4.5-.5c.3-.1.8-.2,1.3-.2,1,0,1.9,0,2.9,0s2,0,3.2,0,1.9,0,2.7,0c.9,0,1.6,0,2.3,0s1,0,1.3.2c.3.1.5.3.5.5s-.2.5-.5.7c-.3.2-.9.4-1.6.6-.5.2-1.1.7-1.7,1.4-.6.8-.9,1.8-.9,3.1v17.7c0,3.4.6,6.1,1.7,8.3,1.1,2.2,2.7,3.8,4.7,4.8,2,1,4.3,1.5,6.8,1.5,4.3,0,7.5-1.5,9.5-4.5,2-3,3-7,3-11.9s0-2.1,0-3.7c0-1.5,0-3.1,0-4.9,0-1.7,0-3.4-.1-5,0-1.1,0-2.1-.3-3.1-.2-1-.5-1.8-.9-2.5s-.9-1.1-1.4-1.3c-.4-.1-.9-.3-1.4-.5-.5-.2-.7-.5-.7-.8s.2-.4.5-.5c.3-.1.8-.2,1.3-.2,1,0,1.8,0,2.4,0,.6,0,1.4,0,2.3,0s1.3,0,1.9,0c.6,0,1.2,0,1.7,0,.5,0,1,0,1.5,0s1,0,1.3.2c.3.1.5.3.5.5,0,.5-.7,1-2.1,1.3-1.1.2-1.9.7-2.3,1.6-.5.8-.7,1.9-.8,3.1-.2,3.6-.3,6.9-.4,9.9,0,3-.1,5.9-.2,8.8,0,3.2-.9,6.1-2.3,8.6-1.5,2.5-3.4,4.5-5.9,5.9s-5.2,2.1-8.3,2.1Z"/>
    <path d="M704.7,762.2c-1.3,0-2.5-.2-3.7-.6-1.1-.4-2.1-1-2.9-1.7-.2-.5-.4-1.2-.5-2.3-.1-1.1-.2-2-.2-2.7,0-.4.3-.6.8-.6s.3,0,.5,0c.1,0,.2.2.3.3.5,2.1,1.4,3.5,2.6,4.4,1.2.9,2.4,1.3,3.6,1.3s2.3-.4,3.1-1.2c.9-.8,1.3-1.8,1.3-3.1s-.4-2.1-1.1-2.9c-.8-.8-2.1-1.8-4-3-1.4-.9-2.6-1.7-3.5-2.5-.9-.8-1.5-1.6-1.9-2.5-.4-.8-.6-1.8-.6-2.8s.3-2.6.9-3.7c.6-1.1,1.6-2,2.8-2.6,1.3-.7,2.8-1,4.7-1s2.3.1,3.2.4c.8.3,1.5.5,1.9.8.3.5.6,1.2.9,2.2.2,1,.3,1.9.3,2.8s-.2.4-.6.4-.5,0-.7-.2c-.2-.1-.4-.2-.5-.4-.5-1.4-1.2-2.4-2-3.2-.8-.7-1.8-1.1-3.1-1.1s-2,.3-2.8.9c-.8.6-1.2,1.6-1.2,2.8s.3,1.8.9,2.6c.6.8,1.8,1.6,3.4,2.6,2.4,1.4,4.3,2.7,5.4,3.9,1.2,1.2,1.8,2.8,1.8,4.8s-.9,4.1-2.6,5.5c-1.7,1.4-3.9,2.1-6.7,2.1Z"/>
    <path d="M729.4,762.2c-2.3,0-4.3-.6-6-1.7-1.7-1.1-3.1-2.7-4-4.8-1-2.1-1.4-4.5-1.4-7.2s.6-4.7,1.7-6.6c1.1-2,2.6-3.6,4.4-4.8,1.8-1.2,3.9-1.8,6-1.8s3.2.3,4.5,1c1.3.7,2.3,1.6,3.1,2.8.7,1.2,1.1,2.6,1.1,4.1s-.6,2-1.9,2h-13.3c-.6,0-1,.2-1.2.5-.2.3-.3.9-.3,1.9,0,2,.4,3.9,1.3,5.5.9,1.7,2.1,3,3.5,4,1.5,1,3.1,1.5,4.9,1.5s2.4-.2,3.4-.7c1-.5,1.9-1.2,2.7-2.1.2-.2.3-.3.4-.4,0,0,.2,0,.3,0,.3,0,.5.2.5.6,0,.8-.4,1.7-1.1,2.6-.6.8-1.4,1.5-2.3,2.1-.9.6-1.8,1-2.9,1.4-1.1.3-2.1.5-3.3.5ZM723.6,743.1h5.7c1,0,1.9,0,2.6,0,.7,0,1.4-.1,2.1-.3.2,0,.3-.2.4-.4,0-.2,0-.6,0-1,0-1.2-.5-2.3-1.6-3.1-1.1-.9-2.3-1.3-3.8-1.3s-1.9.3-2.9.9c-1,.6-1.8,1.3-2.4,2.1-.6.8-.9,1.7-.9,2.5s.3.6.8.6Z"/>
  </g>
  <path d="M533.3,388.4c-.6-1.5.2-3.4-.6-4.7,0,0,.3-.1.3-.1,1-6.1-1.6-7.5-6.7-9.9-10.3-7.1-21.1-13.6-32-20.1-2.2-.6-4.5-4.4-6.6-2.9-3.7,1.4-7.5,3.8-11.1,5.6-6.6,3.6-14.1,6.8-21,10.5-.7.4-1.8,1.6-2.7,1.3-1.6,1.1-4.4,3.3-6.2,3.1-.6,1.1-2.4,1.5-3.5,2.2-.7.8-1.3,1.1-2.4,1.2-1.8.7-1.5,8.2-1,10.1-.6,10.7,0,21.5-.3,32.4.2,5-2.5,11.9,4.3,13.2,3.1,2.3,6.4,3.8,9.7,6.1,9.7,5.5,19.1,11.9,28.8,17.4.3-.1,40.3-19.4,44.5-22.1,6.2-1.9,4.2-8.7,4.8-13.8.4-8.6.4-17,1.4-25.2-.7-1,.2-2.9.2-4.1ZM494.7,355.5c7.4,3.7,14.3,8.5,21.3,13,4.4,3.1,10.3,5.8,13.8,9.5,2.8.6-12.3,5-14.1,6.3,0,0-3.6.9-3.6.9-2.9-5.7-6.6-10.9-10.3-16.2-.2-1.5-14.9-20-7.1-13.6ZM489,352.3c6.7,9.9,13.2,19.7,19.9,29.8.9,1.3,3.6,4.1.2,3.2-10.4.2-22.4-1.5-33.2-1-5.1-.8-11.3-.6-16.9-.9,5.6-8,14.6-15,21.2-22.5.3-1.5,2.2-1.2,2.4-2.7,1.9-1.1,4.3-6.4,6.5-5.9ZM510.8,386.6c-6.1,12-15,22.8-22.1,34.6-.2.7-.4,1-.9,1.2-.3,1.6-1.7,3.6-2.8,4.8-1.2-.3-1.3-2.5-2.3-3.3-7.8-12.1-16.3-26.6-24.4-38.3-1.4-3,4-.3,5.3-1.3,15.6,1.7,31.6,1.2,47.2,2.3ZM444.7,373.8c13.1-6,25.7-14.2,38.8-19.3-8,9.6-17.5,19.5-26.3,28.1-2.6-.7-5.1-2.4-7.5-3.2-.6-.6-1.7-.2-2.1-1.1-1.1-.5-2-.7-3.1-.9-.3,0-1-1.3-1.3-.7-2.6-.8.2-2.6,1.5-2.9ZM441.2,379c-.7-3.6,1.2-1,2.2-2.1,2.9,3.6,9.5,3.9,13.2,6.7.4,3.6-2.8,6.7-4,10.2-.8,1.8-1.1,3.8-2.4,5.3-1.6,6.5-6.5,14.3-7.7,19.8-.7.5-1.5,4.2-1.5,1.4.3-6.9-.5-14.2.7-20.8-1.4-5.9.1-14.1-.4-20.5ZM441.8,423.1c2.6-3.9,3.4-8.4,5.7-12.6,2.5-5.7,4.4-11.5,7.3-16.9,1.1-1.9,2.1-10.5,4.4-5.3,7.5,13.4,17,26.5,24.1,39.6-11.7-.5-24.2-.2-35.7-.7-3.4-.1-8.8,1-5.7-4.1ZM482.5,452.3c-1.5-1-4.4-1.3-5.1-3.3-1.1.2-1.9-.8-2.8-1.3-.5-.2-1.5-.1-1.4-.6-8.7-6.1-19.9-12.2-29.9-18.7-.5-.9,1.1-.4,1.5-.4.7-.4,1.4,0,2.2,0,7-.2,14.6.9,21.1.6,5,0,10.5.7,15.4.3,1.8,1.1.1,8.5,0,11,.4,3.6-.3,7.8-.1,11.3,0,.2-.2,0-.2.3.6.3-.5.7-.8.6ZM523.8,431.8c-9.2,5.2-23.7,11.8-33,16.9-3,1.8-5.1,2.8-6.3,3.6-.6-1.5.8-3.3,0-4.6,1.6-5,.6-11.1,1.4-16.3,0-.4-.4-1.1,0-1.4,0-.3-.4-.9.4-.8,2,.6,4.4,0,6.3.5,6-.7,12.8-.3,18.8,0,.2,0,1,.6,1.3.5,3.1-1.3,7,0,10.2-.2.4.3.7.1,1-.1,3.8,0,1,1.4-.1,2ZM527.4,428.6c-13.3.3-25.7-.9-38.9-1-.5,0-1.3.7-1.2.1-1.6.1-.4-1.1.1-1.7,1.9-2.3,2.8-5,4.8-6.9,5-7.5,9.1-15.3,14.6-22.6.6.6.1-.3.1-.5.1-1,1.1-.8.9-1.7,1.1-1.8,2.2-3.4,3.2-5.3.1-.3.7-2.1,1.2-1.5,4.4,9.2,7.9,18.7,12.2,28,.7,2.1,7.5,13.8,2.8,13ZM530.4,412.9c-.5,1.1.4,12.8-1.1,10.6-2.9-8.7-8-17.2-10.8-26-1.5-3.4-4.5-7.8-4.6-11.3,5.5-2.9,11.9-3.4,17.1-6.4.3,10.2-.3,22.1-.5,33.1Z"/>
  <path class="st0" d="M702.5,396.5l3.7,12.3c-11.9-18-26.5-34.2-43-48.1,1.8,12.4,5.2,26.8,16.7,31.7,6,2.5,12.9,1.7,19.4.8,1.2-.2,2.5-.4,3.4-1.2,1.5-1.5,1.1-4,.4-6-2.1-6.8-4.8-13.5-7.9-19.9,6.5-3.1,14.8-2,20.4,2.6s8,12.6,6.2,19.6c6.4-7.8,10.5-17.4,11.6-27.4-2.5,10.6-5.5,22.1-14.1,28.7-11,8.5-29.3,4.3-35.6-8-2.2-4.4-3-9.9-.7-14.3s8.4-6.8,12.6-4.2c-1.1,9.3-.2,18.8,2.8,27.7,1.5,4.4,4.3,9.3,8.9,9.7,6.9.5,9.9-8.8,8.9-15.7-1.3-9.1-5.3-17.9-11.4-24.8,2.4,8.3,4.8,16.7,7.3,25,.4,1.3.9,2.7,2.1,3.2,1.5.6,3.1-.6,4.3-1.7,5.7-5.5,10.8-11.6,15.3-18.1,7.4,8.8,13.2,18.9,17.2,29.7,3,8.1,3.7,19.4-4,23.2-4.6,2.2-10.2.5-14.3-2.4s-7.5-6.8-11.7-9.8c-1.9-1.3-4.5-2.4-6.4-1.1-1.6,1.1-1.8,3.3-1.9,5.2-.2,4.7-.4,9.4-.6,14.1-.1,3.3-.7,7.4-3.8,8.7-1.8.8-3.9.3-5.8-.3-23.4-7.1-43.6-24.3-54.3-46.3,42.9-5.5,86.3-.9,129.3,3.8-5-2.6-10.1-5.2-15.7-6s-11.8.4-15.5,4.6c-6.7,7.4-5.2,22.3-14.9,24.7-2.8.7-5.8-.1-8.4-1.4-6-3-10.6-8.6-12.2-15.1,0,16.1,4.8,32.3,13.9,45.6,1.2,1.8,3.1,3.8,5.3,3.3,2-.5,2.8-2.8,3.2-4.7,3.2-15.5-.9-32.5-10.9-44.8-2.4-3-5.3-5.8-8.9-6.8-6.8-2-14.2,2.9-17.1,9.4s-2.4,13.9-1.1,20.9c-.1-8.8-6.6-16.4-14.4-20.5-7.8-4.1-16.7-5.2-25.4-6.3-1.4-.2-2.9-.3-4.2.2-1.8.8-2.8,2.8-3.1,4.8-1,5.9,3,12.3,8.9,13.9-5.4.2-10.4,4.5-11.4,9.8,17-8.3,33.5-17.7,49.4-28.1-.2,8-2.7,15.9-7.2,22.6,7.5-6,12.8-14.6,14.8-24,1-4.5.7-10.3-3.4-12.6-4.7-2.7-10.4,1.4-13.7,5.7-9,11.7-12.9,27.3-10.4,41.9,3.7-2.3,5.7-7,4.8-11.2-2.5,7.5-4.2,15.2-5,23.1-5.1-4-11.5-6.2-18-6.2,2.8-22.9,0-46.4-8-68,26.3,9.5,52.6,19.1,78.9,28.6-5.7,12-7.8,25.6-6.2,38.8-12.4,2.2-27.4,3.5-35.4-6.2-6.6-8-5.1-19.6-7.6-29.7-3-12.4-12.9-23-25.2-26.7,5-.3,9-3.9,12.9-6.9,10-7.8,21.5-13.6,33.7-17,4.3-1.2,9-2.1,13.3-1,3.8,1,7.1,3.4,10.5,5.4,8.2,4.7,17.8,6.6,27.2,5.6-12.3,11.4-22.3,25.2-29.3,40.4,13.7-6.6,23.7-18.8,33.3-30.7-1.2.4-2.4.8-3.6,1.2-1.4-1.8-2.2-4.2-2-6.5,10,8.6,7.8,24.3,8.7,37.5.6,9.3,3.3,18.4,7.8,26.5-6.7,1.7-13,4.6-19.2,7.5-14.8,6.9-29.6,13.8-44.4,20.7-1.6.7-3.3,1.5-5.1,1.4-4.6-.2-6.9-5.4-9.2-9.3-3.8-6.3-10.4-10.9-17.6-12.4"/>
</svg>