<?xml version="1.0" encoding="UTF-8"?>
<svg id="Capa_1" xmlns="http://www.w3.org/2000/svg" xmlns:xlink="http://www.w3.org/1999/xlink" version="1.1" viewBox="0 0 500 500">
  <!-- Generator: Adobe Illustrator 29.8.3, SVG Export Plug-In . SVG Version: 2.1.1 Build 3)  -->
  <defs>
    <style>
      .st0 {
        fill: #fff;
      }

      .st1 {
        fill: url(#Degradado_sin_nombre);
      }

      .st2 {
        opacity: .2;
      }
    </style>
    <radialGradient id="Degradado_sin_nombre" data-name="Degradado sin nombre" cx="250.4" cy="263.9" fx="250.4" fy="263.9" r="39.3" gradientTransform="translate(0 499.9) scale(1 -1)" gradientUnits="userSpaceOnUse">
      <stop offset=".4" stop-color="#fff" stop-opacity=".4"/>
      <stop offset=".4" stop-color="#fff" stop-opacity=".5"/>
      <stop offset=".6" stop-color="#fff" stop-opacity=".6"/>
      <stop offset=".8" stop-color="#fff" stop-opacity=".9"/>
      <stop offset=".8" stop-color="#fff"/>
    </radialGradient>
  </defs>
  <g>
    <path class="st0" d="M155.7,72.3c0-7.8,12.7-9.7,19.2-9.7s82.3-4,96-4.5c13.7-.5,59-.8,79.4-.8s58.2,13.2,59.7,38.2c1.5,25.1,5.4,51.9,1.5,65.9-3.9,14-12.4,47.3-30.2,65.1-8.5,8.4-29.7,23.8-40.9,38.7-12.5,16.5-14.7,32.4-19.6,37.3-9.3,9.3-19.9-15.7-16.3-37.2,3.6-21.5,22.5-27.8,22.5-44.2s-21.7-23.2-37.2-23.2-146.6-2.3-156.6-2.3-17.1-8.5-17.1-14,7.7-13.9,12.4-13.9,117.9-.8,117.9-5.4-124.1-3.9-134.1-3.9-14.7-7-14.7-12.4,4.7-15.5,14.7-15.5,140.2-2.3,140.2-6.1-107.6-4-118.5-4-17.8-5.4-17.8-13.2,5.4-14,17.1-14,127.9-1.3,127.9-4.5-76.3-4.8-83.9-4.8-21.5-3.9-21.5-11.6"/>
    <path class="st0" d="M155.7,72.3c0-7.8,12.7-9.7,19.2-9.7s82.3-4,96-4.5c13.7-.5,59-.8,79.4-.8s58.2,13.2,59.7,38.2c1.5,25.1,5.4,51.9,1.5,65.9-3.9,14-12.4,47.3-30.2,65.1-8.5,8.4-29.7,23.8-40.9,38.7-12.5,16.5-14.7,32.4-19.6,37.3-9.3,9.3-19.9-15.7-16.3-37.2,3.6-21.5,22.5-27.8,22.5-44.2s-21.7-23.2-37.2-23.2-146.6-2.3-156.6-2.3-17.1-8.5-17.1-14,7.7-13.9,12.4-13.9,117.9-.8,117.9-5.4-124.1-3.9-134.1-3.9-14.7-7-14.7-12.4,4.7-15.5,14.7-15.5,140.2-2.3,140.2-6.1-107.6-4-118.5-4-17.8-5.4-17.8-13.2,5.4-14,17.1-14,127.9-1.3,127.9-4.5-76.3-4.8-83.9-4.8-21.5-3.9-21.5-11.6"/>
  </g>
  <path class="st0" d="M344.3,427.7c0,7.8-12.7,9.7-19.2,9.7s-82.3,4-96,4.5c-13.7.5-59,.9-79.4.9s-58.2-13.2-59.7-38.3c-1.5-25.1-5.4-52-1.6-65.9,3.9-14,12.4-47.3,30.2-65.1,8.4-8.5,29.7-23.8,40.9-38.7,12.5-16.5,14.7-32.4,19.6-37.3,9.3-9.3,19.9,15.7,16.3,37.2-3.6,21.5-22.5,27.8-22.5,44.2s21.7,23.3,37.2,23.3,146.6,2.3,156.6,2.3,17,8.5,17,14-7.7,14-12.4,14-117.9.8-117.9,5.4,124.1,3.9,134.2,3.9,14.7,7,14.7,12.4-4.6,15.5-14.7,15.5-140.2,2.3-140.2,6.1,107.7,4,118.5,4,17.8,5.4,17.8,13.2-5.4,14-17,14-127.9,1.3-127.9,4.5,76.3,4.8,83.9,4.8,21.5,3.9,21.5,11.6"/>
  <g class="st2">
    <path class="st0" d="M344.3,427.7c0,7.8-12.7,9.7-19.2,9.7s-82.3,4-96,4.5c-13.7.5-59,.9-79.4.9s-58.2-13.2-59.7-38.3c-1.5-25.1-5.4-52-1.6-65.9,3.9-14,12.4-47.3,30.2-65.1,8.4-8.5,29.7-23.8,40.9-38.7,12.5-16.5,14.7-32.4,19.6-37.3,9.3-9.3,19.9,15.7,16.3,37.2-3.6,21.5-22.5,27.8-22.5,44.2s21.7,23.3,37.2,23.3,146.6,2.3,156.6,2.3,17,8.5,17,14-7.7,14-12.4,14-117.9.8-117.9,5.4,124.1,3.9,134.2,3.9,14.7,7,14.7,12.4-4.6,15.5-14.7,15.5-140.2,2.3-140.2,6.1,107.7,4,118.5,4,17.8,5.4,17.8,13.2-5.4,14-17,14-127.9,1.3-127.9,4.5,76.3,4.8,83.9,4.8,21.5,3.9,21.5,11.6"/>
  </g>
  <path class="st0" d="M250.1,232.1c15,0,28.9,4.4,40.6,12.1-8.2-13.8-23.3-23.1-40.6-23.1s-32.4,9.3-40.6,23.1c11.7-7.6,25.6-12.1,40.6-12.1"/>
  <path class="st0" d="M276.8,258.2c-8.3,3.1-17.3,4.8-26.6,4.8s-18.3-1.7-26.6-4.8c7.5,5.4,16.7,8.6,26.6,8.6s19.1-3.2,26.6-8.6"/>
  <path class="st0" d="M260.3,237.6c0,3.2-2.6,5.8-5.8,5.8s-5.8-2.6-5.8-5.8,2.6-5.8,5.8-5.8,5.8,2.6,5.8,5.8"/>
  <path class="st0" d="M250.1,229.8c6.7,0,12.2,5.4,12.2,12.2s-5.5,12.2-12.2,12.2-12.2-5.4-12.2-12.2,5.4-12.2,12.2-12.2M250.1,225.8c-8.9,0-16.2,7.3-16.2,16.2s7.3,16.2,16.2,16.2,16.2-7.3,16.2-16.2-7.3-16.2-16.2-16.2h0Z"/>
  <path class="st1" d="M209.3,244.3c10.4,9.8,13.1,19.2,40.8,18.7s29.1-7.1,40.6-18.7c-11.2-7.6-25.4-12.2-40.7-12.2s-29.5,4.6-40.7,12.2h0Z"/>
</svg>