<?xml version="1.0" encoding="UTF-8"?>
<svg id="Capa_1" xmlns="http://www.w3.org/2000/svg" version="1.1" viewBox="0 0 512 640">
  <!-- Generator: Adobe Illustrator 29.8.2, SVG Export Plug-In . SVG Version: 2.1.1 Build 3)  -->
  <path d="M309.2,311.4c-3.3-5.7-9.6-9-16.1-8.5l-38.9,2.9c4.9-14.6,8.3-27.9,10.3-40.5,1.9-11.9-3.4-24-13.4-30.7-2.5-1.7-5.5-2.1-8.4-1.3-2.9.8-5.2,2.9-6.3,5.6l-24.4,56.3c-2.4,5.5-6,10.5-10.5,14.5-11.3,9.9-23.1,23.2-36,40.6-4.5,6-11.3,10.1-18.8,11.1l-15.3,2.2c-1.9.3-3.2,2-3,4,.2,1.7,1.7,3,3.5,3s.3,0,.5,0l15.3-2.2c9.3-1.3,17.9-6.4,23.5-13.9,12.6-16.9,24-29.9,35-39.5,5.3-4.6,9.5-10.5,12.3-16.9l24.4-56.3c.5-1.1,1.4-1.5,1.9-1.7.5-.1,1.5-.3,2.5.4,7.7,5.2,11.8,14.5,10.4,23.8-2.6,16.4-7.7,34.3-15.6,54.7-.7,1.8.2,3.8,2,4.5,1.8.7,3.8-.2,4.5-2,1.1-2.9,2.2-5.7,3.2-8.5l41.9-3.1c3.8-.3,7.6,1.7,9.5,5l2.8,4.9c1.4,2.4,1.7,5.2,1,7.8-.8,2.7-2.5,4.8-4.9,6.1l-20.1,10.8c-5,2.7-10.3,4.2-16,4.6l-25.6,1.8c-1.7.1-3.2-.6-4.2-1.9-1-1.3-1.3-3-.8-4.6.3-1,1.1-1.8,2.2-2.1l32.4-8.1c1.7-.4,3.4-1.1,4.9-1.9l12.6-6.7c1.7-.9,2.4-3,1.5-4.7-.9-1.7-3-2.4-4.7-1.5l-12.6,6.7c-1.1.6-2.2,1-3.3,1.3l-32.4,8.1c-3.4.9-6.1,3.4-7.2,6.7-1.2,3.8-.5,7.9,2,11,.3.4.6.7,1,1.1-1.7,1.7-2.9,3.8-3.3,6.2l-.5,2.4c-.6,3.4.2,6.9,2.4,9.6.9,1.2,2,2.1,3.3,2.8-1.7,1.9-3,4.2-3.6,6.9-1,4.2-.1,8.7,2.4,12.2.4.6,1,1.2,1.5,1.8-1.6,1.2-2.9,2.7-3.7,4.6-1.6,3.5-1.6,7.4,0,10.8,1.7,3.4,4.8,5.9,8.5,6.7l31.2,6.9c-18.7,16.1-69.6,7.5-109.6-5.5-1.8-.6-3.8.4-4.4,2.2-.6,1.8.4,3.8,2.2,4.4,7.8,2.5,15.6,4.8,23.2,6.7-17.2,3-33.1,7.7-47.7,14.2l-15.1-80.2c-1.3-6.8-7.8-11.2-14.6-10l-19,3.6c-1.9.4-3.7,1.1-5.2,2.3l-.2-1c-.6-3.2-2.4-5.9-5-7.7-2.6-1.8-5.8-2.5-9-1.9l-49.9,9.4c-1.9.4-3.1,2.2-2.8,4.1.4,1.9,2.2,3.2,4.1,2.8l49.9-9.4c1.3-.2,2.6,0,3.8.8,1.1.8,1.8,1.9,2.1,3.2l2.3,12h0s17.1,90.8,17.1,90.8c0,0,0,0,0,0,0,0,0,0,0,0l2.3,12c.2,1.3,0,2.6-.8,3.8s-1.9,1.8-3.2,2.1l-43.7,8.2c-1.9.4-3.1,2.2-2.8,4.1.3,1.7,1.8,2.9,3.4,2.9s.4,0,.7,0l43.7-8.2c3.2-.6,5.9-2.4,7.7-5s2.5-5.8,1.9-9l-.2-1c1.1.3,2.2.5,3.3.5s1.6,0,2.3-.2l19-3.6c3.3-.6,6.1-2.5,8-5.2,1.9-2.8,2.6-6.1,2-9.4l-.7-3.5c19.6-9,42-14.7,66.5-16.9,0,0,.1,0,.2,0,9.3,1.7,18.1,2.8,26.1,3.2,2.9.2,5.6.2,8.3.2,20.3,0,34.4-4.7,42-14,.8.1,1.5.2,2.3.2,2.9,0,5.7-.9,8.1-2.5,3.2-2.2,5.5-5.7,6.1-9.6.6-3.7-.3-7.4-2.4-10.4,5.3-2.3,9.3-7.2,10.1-13.3.6-4.5-.7-9.1-3.6-12.7,1.9-.7,3.6-1.7,5.1-3.1,2.9-2.8,4.5-6.5,4.5-10.5v-10.6c0-5.1-2.6-9.8-7-12.4,0,0,0,0,0,0l4.7-2.5c4.1-2.2,7.1-5.9,8.4-10.4,1.3-4.5.7-9.2-1.6-13.2l-2.8-4.9ZM89.8,382.9c-2.4-.5-4.7.3-6.4,1.8l-1.9-10.4h0c-.3-1.4,0-2.9.9-4.1.8-1.2,2.1-2,3.5-2.3l19-3.6c3-.6,5.9,1.4,6.4,4.4l6.1,32.5c-6.3-9.3-16.1-16.1-27.6-18.3h0ZM287.1,414.3c-.3,2-1.4,3.8-3.1,4.9-1.7,1.1-3.7,1.5-5.7,1.1l-38.5-8.5c-1.6-.4-3-1.4-3.7-2.9s-.7-3.2,0-4.8c1-2.1,3.3-3.4,5.6-3.1l39.1,4.9c2,.2,3.7,1.3,4.9,2.9,1.2,1.6,1.7,3.6,1.4,5.5ZM294.8,390.8c-.7,5.3-5.6,9.1-10.9,8.4l-40.3-5c-2.4-.3-4.4-1.5-5.8-3.5-1.4-2-1.8-4.3-1.3-6.6.9-3.8,4.2-6.4,8.1-6.4s.3,0,.4,0l40.6,2.1c2.7.1,5.2,1.4,7,3.5,1.8,2.1,2.5,4.8,2.2,7.5ZM300.6,354.9v10.6c0,2.1-.8,4-2.3,5.4-1.5,1.4-3.4,2.2-5.5,2.1l-53.7-2.5c-1.5,0-2.7-.7-3.6-1.9-.9-1.1-1.2-2.6-1-4l.5-2.4c.4-2.2,2.3-3.8,4.5-4l25.3-1.8s0,0,0,0h1.6c6.6-.6,12.9-2.4,18.8-5.5l4.5-2.4s0,0,0,0c2.3-1.2,5.1-1.2,7.4.2,2.3,1.4,3.6,3.8,3.6,6.4Z"/>
  <path d="M60.2,380.2c-.4-1.9-2.2-3.1-4.1-2.8l-40.8,7.7c-1.9.4-3.1,2.2-2.8,4.1.3,1.7,1.8,2.9,3.4,2.9s.4,0,.7,0l40.8-7.7c1.9-.4,3.1-2.2,2.8-4.1Z"/>
  <path d="M499.2,334.3l-19.7-44.4c-2.8-6.3-10.3-9.2-16.6-6.4l-1.3.6c.1-2.1-.2-4.2-1.1-6.2l-8.4-18.9c-1.4-3.2-4-5.7-7.3-6.9-3.3-1.3-6.8-1.2-10,.3l-6.3,2.8-4.2-9.1c-2.4-5.2-4.1-10.7-5.1-16.4l-8.3-48.7c-1-6.2-1.1-12.4-.2-18.7,4.5-30.5,9.1-65.2,8.8-90.6,0-3.2-1.5-6.2-4.1-8.1-2.6-1.9-5.9-2.5-9-1.6-7.7,2.2-13.2,8.8-14.2,16.6-.9,7.7-2.8,16.5-5.1,25.8l-3.6-35.6c-.2-2-.7-3.9-1.6-5.7l-20.4-43.1c-2.9-6.1-9.9-9-16.2-6.7-6.2,2.2-9.8,8.8-8.4,15.2,1.5,6.6,2.4,12.6,2.7,18.1l-21.4-20.3c-3.1-2.9-7.3-4.1-11.5-3.2-4.1.9-7.5,3.8-9.1,7.7-1.7,4.4-.9,9.3,2.1,12.9l27.1,32.1c3.2,3.8,5.2,8.4,5.8,13.3l.9,7.7c.2,1.9,2,3.3,3.9,3.1,1.9-.2,3.3-2,3.1-3.9l-.9-7.7c-.8-6.3-3.3-12.1-7.4-16.9l-27.1-32.1c-1.4-1.6-1.7-3.8-.9-5.8.7-1.8,2.2-3,4.1-3.5,1.9-.4,3.7.1,5.1,1.4l45.6,43.3c2.2,2.1,3.9,4.7,4.9,7.6l21.8,60.7c.5,1.4,1.9,2.3,3.3,2.3s.8,0,1.2-.2c1.8-.7,2.8-2.7,2.1-4.5l-2.4-6.6-.9-8.9c.5-2,1-4,1.5-5.9,3.6-14.5,7.1-28.1,8.5-39.7.6-5.1,4.2-9.3,9.2-10.8,1-.3,2,0,2.8.5.8.6,1.3,1.5,1.3,2.5.3,25-4.3,59.3-8.7,89.5-1,6.9-1,14,.2,20.9l8.3,48.7c1.1,6.3,3,12.4,5.6,18.2l4.2,9-68.6,30.5-.9-1.7c-4.3-8.4-10.4-15.8-17.9-21.6l-80.8-62.3c-5.3-4.1-8.5-10.5-8.5-17.2v-25.2c0-1.4.7-2.7,1.8-3.6,1.1-.9,2.6-1.1,4-.8,5.4,1.5,9.7,5.6,11.3,11l1.6,5.4c2,6.9,7,12.5,13.6,15.3l19.8,8.5c5.9,2.5,12.7.7,16.5-4.5l15.8-21.3c3.7-5,3.4-12-.8-16.7l-18.5-20.6c-5.7-6.3-15.2-7-21.7-1.5l-26.6,22.5c-2.3-2-5-3.5-8.1-4.5.1-.2.2-.4.4-.5l33.1-37.4c6.2-7,16.4-9,24.8-4.7l38.5,19.6c7.4,3.7,13.1,10,16.2,17.7l4.1,10.2c.5,1.4,1.9,2.2,3.2,2.2s.9,0,1.3-.3c1.8-.7,2.7-2.8,1.9-4.6l-4.1-10.2c-3.7-9.2-10.6-16.8-19.5-21.3l-38.5-19.6c-11.2-5.7-24.9-3.1-33.2,6.3l-33.1,37.4c-1.3,1.4-2.1,3.1-2.6,4.9-1.3.4-2.5,1-3.7,1.9-2.9,2.2-4.5,5.5-4.5,9.2v25.2c0,8.9,4.2,17.4,11.2,22.8l80.8,62.3c6.6,5.1,12.1,11.7,15.9,19.2l.7,1.4-2.5,1.1c-3.2,1.4-5.7,4-6.9,7.3s-1.2,6.8.3,10l8.4,18.9c.9,2,2.2,3.7,3.9,5l-1.3.6c-3.1,1.4-5.4,3.8-6.6,7-1.2,3.1-1.1,6.6.2,9.6l43.7,98.4c.6,1.3,1.9,2.1,3.2,2.1s1,0,1.4-.3c1.8-.8,2.6-2.9,1.8-4.6l-43.7-98.4c-.6-1.4-.6-2.9-.1-4.3.5-1.4,1.6-2.5,2.9-3.1l102.2-45.4s0,0,0,0h0s11.9-5.3,11.9-5.3c2.8-1.3,6.1,0,7.4,2.8l19.7,44.4c.8,1.8,2.9,2.6,4.6,1.8,1.8-.8,2.6-2.9,1.8-4.6ZM370.7,79.8c-1.4-3.9-3.7-7.4-6.7-10.3l-17.1-16.2c.2-7.9-.7-16.5-3-26.4-.7-3,1-6,3.9-7,3-1.1,6.2.3,7.6,3.1l20.4,43.1c.5,1.1.8,2.2,1,3.4l3.8,37.2s-9.7-26.9-9.7-26.9ZM293.2,137c3.6-3,8.9-2.7,12,.8l18.5,20.6c2,2.2,2.1,5.5.4,7.8l-15.8,21.3c-1.9,2.5-5.2,3.4-8.1,2.2l-19.8-8.5c-4.7-2-8.2-5.9-9.6-10.8l-1.6-5.4c-.6-2-1.4-3.9-2.5-5.6l26.6-22.5ZM454.2,285.3c-.6,1.5-1.7,2.7-3.2,3.4l-14.6,6.5c1.3-3.9.3-8.5-3.3-11.5-8.3-6.9-18.6-10.4-28.9-10.2l33.5-14.9c1.5-.7,3.2-.7,4.7-.1,1.5.6,2.7,1.7,3.4,3.2l8.4,18.9c.7,1.5.7,3.2.1,4.7Z"/>
  <path d="M463.9,308.4c-.8-1.8-2.9-2.6-4.6-1.8-1.8.8-2.6,2.9-1.8,4.6l18.8,42.4c.6,1.3,1.9,2.1,3.2,2.1s1,0,1.4-.3c1.8-.8,2.6-2.9,1.8-4.6l-18.8-42.4Z"/>
  <path d="M36.1,211.5c.9,6.4,6.9,10.9,13.3,10l118.8-17.5c2.2-.3,4.5,0,6.5.9l38.9,17.7c3.7,1.7,7.8-1.3,7.3-5.3l-4.8-38.3c-.1-1.1-.1-2.2,0-3.3l14.7-89.4c1.1-6.7-3.7-12.9-10.4-13.5L28.8,54.6c-7.5-.7-13.7,5.8-12.7,13.3,0,0,20,143.7,20,143.7ZM178,117.2c8.6,0,15.6,7,15.6,15.6s-7,15.6-15.6,15.6-15.6-7-15.6-15.6,7-15.6,15.6-15.6ZM123.5,117.2c8.6,0,15.6,7,15.6,15.6s-7,15.6-15.6,15.6-15.6-7-15.6-15.6,7-15.6,15.6-15.6ZM69,117.2c8.6,0,15.6,7,15.6,15.6s-7,15.6-15.6,15.6-15.6-7-15.6-15.6,7-15.6,15.6-15.6Z"/>
</svg>