<?xml version="1.0" encoding="UTF-8"?>
<svg id="Layer_1" xmlns="http://www.w3.org/2000/svg" version="1.1" viewBox="0 0 1196.4 941.8">
  <!-- Generator: Adobe Illustrator 29.8.2, SVG Export Plug-In . SVG Version: 2.1.1 Build 3)  -->
  <defs>
    <style>
      .st0 {
        fill: #d82a2a;
        opacity: .4;
      }
    </style>
  </defs>
  <path class="st0" d="M1015.6,55.4c-15.4-15.4-36.6-24.9-60-24.9-23.3,0-44.5,8-59.8,21.9-7.7,7-13.9,15.4-18.2,25-4.3,9.6-6.7,20.5-6.7,32.2,0,9.4,2.1,18.7,6,27.4,5.8,13,15.4,24.5,27.5,32.8,12.1,8.3,26.7,13.4,42.5,13.4,9.8,0,18.7-1.4,26.7-4,12-3.9,21.9-10.6,29.8-19.5,7.1-7.9,12.5-17.4,16.6-28.2l4.5,8.5,2.4-7.6-6.2-11.8-11.8,6.2-2.4,7.6,8.1-4.3c-2.4,6.2-5.2,11.9-8.5,17-6.2,9.5-14,17-23.7,22.3-9.7,5.2-21.4,8.1-35.3,8.1-9.7,0-19-2.1-27.4-5.8-12.6-5.5-23.4-14.7-31-25.7-7.6-11-12-23.8-12-36.6,0-11,2.2-21,6.2-29.9,6-13.4,15.9-24.2,28.5-31.8,12.6-7.6,27.9-11.8,44.4-11.8,21.9,0,41.7,8.9,56.1,23.2,14.4,14.4,23.2,34.2,23.2,56.1,0,21.9-8.9,41.7-23.2,56.1-14.4,14.4-34.2,23.2-56.1,23.2H149.5v5.6h806.1c23.4,0,44.7-9.5,60-24.9,15.4-15.4,24.9-36.6,24.9-60,0-23.4-9.5-44.7-24.9-60Z"/>
</svg>