<?xml version="1.0" encoding="UTF-8"?>
<svg id="Capa_1" xmlns="http://www.w3.org/2000/svg" version="1.1" viewBox="0 0 1280 900">
  <!-- Generator: Adobe Illustrator 29.7.1, SVG Export Plug-In . SVG Version: 2.1.1 Build 8)  -->
  <defs>
    <style>
      .st0 {
        fill: none;
        stroke-miterlimit: 10;
        stroke-width: 7.9px;
      }

      .st0, .st1 {
        stroke: #fff;
      }

      .st1 {
        stroke-linejoin: round;
        stroke-width: 5.91px;
      }

      .st1, .st2 {
        fill: #fff;
      }
    </style>
  </defs>
  <g>
    <line class="st0" x1="294.1" y1="379.73" x2="978.96" y2="379.73"/>
    <polygon class="st2" points="960.64 402.35 956.87 398.3 976.84 379.74 956.87 361.17 960.64 357.12 984.96 379.74 960.64 402.35"/>
  </g>
  <circle class="st1" cx="228.47" cy="379.73" r="65.64"/>
  <g>
    <path d="M200.26,394.29v-21.83h-7.88v-5.22h21.79v5.22h-8.12v21.83h-5.8Z"/>
    <path d="M215.72,394.29l10.32-14.72,4.41,3.05-8,11.67h-6.72ZM235.04,394.29l-8.39-12.13-10.74-14.92h7.11l8.19,11.98,10.94,15.07h-7.11ZM231.83,381.74l-4.37-2.94,7.57-11.55h6.72l-9.93,14.49Z"/>
    <path d="M251.58,394.29v-21.83h-7.88v-5.22h21.79v5.22h-8.12v21.83h-5.8Z"/>
  </g>
  <circle class="st1" cx="1050.6" cy="379.73" r="65.64"/>
  <g>
    <path d="M1022.95,394.68c-1.67,0-3.2-.21-4.58-.62-1.38-.41-2.6-1.02-3.67-1.82-1.07-.8-2.03-1.76-2.88-2.9l3.63-4.14c1.26,1.75,2.52,2.94,3.77,3.57,1.25.63,2.61.95,4.08.95.8,0,1.51-.12,2.14-.35.63-.23,1.13-.55,1.49-.95.36-.4.54-.88.54-1.45,0-.41-.09-.79-.27-1.14-.18-.35-.44-.66-.77-.93s-.73-.52-1.2-.73c-.46-.22-.98-.41-1.55-.58-.57-.17-1.19-.3-1.86-.41-1.44-.33-2.71-.74-3.79-1.22-1.08-.48-1.98-1.07-2.71-1.78-.72-.71-1.26-1.51-1.6-2.42s-.52-1.92-.52-3.05.26-2.23.77-3.23c.52-.99,1.23-1.85,2.14-2.57.92-.72,1.97-1.28,3.17-1.66,1.2-.39,2.47-.58,3.81-.58,1.65,0,3.09.18,4.33.54,1.24.36,2.31.9,3.23,1.6.92.71,1.68,1.56,2.3,2.57l-3.67,3.56c-.54-.72-1.13-1.33-1.76-1.82-.63-.49-1.31-.86-2.05-1.1-.73-.24-1.49-.37-2.26-.37-.85,0-1.58.11-2.2.33-.62.22-1.1.54-1.45.97-.35.43-.52.92-.52,1.49,0,.46.12.88.35,1.24.23.36.57.68,1,.95.44.27.97.51,1.58.71.62.21,1.3.39,2.05.54,1.42.28,2.69.66,3.83,1.12,1.13.46,2.11,1.02,2.92,1.68s1.44,1.43,1.87,2.32c.44.89.66,1.89.66,2.99,0,1.83-.44,3.39-1.31,4.68-.88,1.29-2.09,2.27-3.63,2.96-1.55.68-3.35,1.02-5.41,1.02Z"/>
    <path d="M1046.25,394.29l-10.78-27.05h6.14l5.64,14.65c.31.8.57,1.5.79,2.11.22.61.41,1.17.58,1.7.17.53.33,1.04.48,1.55s.31,1.05.46,1.64l-1.12.04c.21-.8.41-1.54.6-2.22.19-.68.42-1.4.7-2.16.27-.76.6-1.64.99-2.65l5.33-14.65h6.11l-10.86,27.05h-5.06Z"/>
    <path d="M1077.36,394.68c-2.09,0-4-.35-5.74-1.06s-3.24-1.69-4.5-2.96c-1.26-1.26-2.24-2.74-2.92-4.44s-1.02-3.54-1.02-5.53.35-3.82,1.06-5.51c.71-1.69,1.71-3.16,3.01-4.41,1.3-1.25,2.83-2.22,4.58-2.92,1.75-.7,3.67-1.04,5.76-1.04,1.44,0,2.82.19,4.13.58,1.31.39,2.51.91,3.59,1.58,1.08.67,1.98,1.44,2.71,2.32l-3.59,3.79c-.67-.64-1.37-1.19-2.09-1.64-.72-.45-1.49-.8-2.3-1.04-.81-.24-1.64-.37-2.49-.37-1.21,0-2.33.22-3.34.66-1.02.44-1.91,1.04-2.69,1.82-.77.77-1.37,1.69-1.8,2.74-.42,1.06-.64,2.2-.64,3.44s.23,2.35.68,3.42c.45,1.07,1.07,2,1.85,2.78.79.79,1.71,1.4,2.76,1.85,1.06.45,2.19.68,3.4.68.88,0,1.69-.13,2.45-.39.76-.26,1.43-.62,2.01-1.1.58-.48,1.03-1.04,1.35-1.68.32-.64.48-1.33.48-2.05v-.93l.77,1.08h-7.73v-4.83h12.52c.03.28.06.63.1,1.04.04.41.06.82.08,1.22.01.4.02.71.02.95,0,1.75-.32,3.36-.95,4.83-.63,1.47-1.51,2.73-2.63,3.79-1.12,1.06-2.44,1.87-3.96,2.45-1.52.58-3.17.87-4.95.87Z"/>
  </g>
</svg>