<?xml version="1.0" encoding="UTF-8"?>
<svg id="Layer_1" xmlns="http://www.w3.org/2000/svg" version="1.1" viewBox="0 0 299.7 306.4">
  <!-- Generator: Adobe Illustrator 29.8.2, SVG Export Plug-In . SVG Version: 2.1.1 Build 3)  -->
  <defs>
    <style>
      .st0 {
        fill: #fff;
      }
    </style>
  </defs>
  <path class="st0" d="M267.6,143.7s0,0,0,0,0,0,0,0c-1.9,0-3.7.4-5.4,1.3l-7.7,3.8c-.5-12.5-3.3-24.6-8.1-36.2-7.9-18.7-21-34.6-37.9-46-17.3-11.7-37.5-17.9-58.5-17.9h0c-14.1,0-27.8,2.8-40.7,8.2-18.7,7.9-34.6,21-46,37.9-1.4,2-2.6,4.1-3.9,6.2l-36,40.9c-2.2,2.3-3.5,5.3-3.5,8.6,0,6.8,5.5,12.3,12.3,12.3s3.7-.4,5.4-1.3l7.8-3.8c.5,12.5,3.3,24.7,8.1,36.2,7.9,18.7,21,34.6,37.9,46,17.3,11.7,37.5,17.9,58.5,17.9s27.9-2.8,40.8-8.2c18.7-7.9,34.6-21,46-37.9,1.4-2,2.6-4.1,3.9-6.2l36-40.9c2.2-2.3,3.5-5.3,3.5-8.6,0-6.8-5.5-12.3-12.3-12.3ZM183.1,135.1l-42.7,49-20.8-21.3,4.8-4.7c1.7-1.7,3.9-2.5,6.1-2.5s4.5.9,6.3,2.6l3,3,24.9-28.6c2-2.3,4.9-3.5,7.8-3.5,2.4,0,4.8.8,6.7,2.5l3.9,3.4ZM68.1,98.1c10.6-15.7,25.7-28.2,43.4-35.7,11.8-5,24.8-7.8,38.4-7.8h0c20.4,0,39.4,6.2,55.1,16.9,15.7,10.6,28.2,25.7,35.7,43.4,0,.2.1.3.2.5h-.1c3.1,7.4,5.3,15.2,6.5,23.4.2,1.5.4,3.1.6,4.6.3,2.6.4,5.3.5,7.9,0,.7,0,1.3,0,2v5.1h.1c0,0,0,0,0,0l3-1.5,3-1.5,10.3-5.1c.9-.4,1.8-.6,2.7-.7,3.3,0,6.3,2.7,6.3,6.3s-.7,3.3-1.9,4.5l-22.9,26-5.6,6.4-7.6,8.7-.3.4-16.7-20.1-2.2-2.6-2.2-2.6-13.5-16.2c-1.2-1.2-1.9-2.8-1.9-4.5,0-3.6,3-6.3,6.3-6.3.9,0,1.8.2,2.7.7l10.4,5.1,3,1.5,2.9,1.4h0s0,0,0,0h.1c0,0,0-4.4,0-4.4v-.6c0-2.9-.2-5.7-.5-8.5-.2-1.4-.4-2.7-.6-4.1-1.5-9.2-4.7-17.7-9.3-25.4-.8-1.3-1.6-2.6-2.4-3.8-8-11.9-19.5-21.4-32.8-27.1-8.9-3.8-18.7-5.9-29-5.9-15.5,0-29.8,4.7-41.7,12.7-10.2,6.9-18.6,16.2-24.3,27.1l-15-18-1.3-1.6c.2-.3.3-.5.5-.8ZM231.6,208.3c-10.6,15.7-25.7,28.2-43.4,35.7-11.8,5-24.8,7.8-38.4,7.8h0c-20.4,0-39.4-6.2-55.1-16.9-15.7-10.6-28.2-25.7-35.7-43.4-3.2-7.5-5.5-15.6-6.7-23.9-.2-1.5-.4-3.1-.6-4.7-.3-3-.5-6-.5-9,0-.3,0-.5,0-.8v-5.1l-3,1.5-3,1.5-10.3,5.1c-.9.5-1.9.7-2.8.7-3.3,0-6.3-2.7-6.3-6.3s.7-3.3,1.9-4.5l23.1-26.2,5.7-6.5,7.7-8.8h0c0-.1,16.7,20,16.7,20l2.2,2.6,2.2,2.6,13.5,16.2c1.2,1.2,1.9,2.8,1.9,4.5,0,3.7-3,6.3-6.3,6.3s-1.9-.2-2.8-.7l-10.3-5.1-3-1.5-2.9-1.4h-.2c0,0,0,4.4,0,4.4v.6c0,2.9.2,5.7.5,8.5.2,1.4.4,2.7.6,4.1,1.8,10.7,5.9,20.6,11.7,29.2,8,11.9,19.5,21.4,32.8,27.1,8.9,3.8,18.7,5.9,29,5.9,15.5,0,29.8-4.7,41.7-12.7,10.1-6.9,18.5-16.2,24.3-27l14.9,17.9,1.4,1.6c-.2.2-.3.5-.5.7Z"/>
  <g>
    <path d="M230.8,205.9l-14.9-17.9c-5.8,10.9-14.1,20.2-24.3,27-11.9,8-26.2,12.7-41.7,12.7-10.3,0-20.1-2.1-29-5.9-13.4-5.7-24.8-15.1-32.8-27.1-5.8-8.6-9.9-18.5-11.7-29.2-.2-1.3-.4-2.7-.6-4.1-.3-2.8-.5-5.6-.5-8.5v-5.1h.2c0,0,2.9,1.5,2.9,1.5l3,1.5,10.3,5.1c.9.5,1.9.7,2.8.7,3.3,0,6.3-2.7,6.3-6.3s-.7-3.3-1.9-4.5l-13.5-16.2-2.2-2.6-2.2-2.6-16.7-20.1h0c0,.1-7.7,8.9-7.7,8.9l-5.7,6.5-23.1,26.2c-1.2,1.2-1.9,2.8-1.9,4.5,0,3.7,3,6.3,6.3,6.3s1.9-.2,2.8-.7l10.3-5.1,3-1.5,3-1.5v5.1c0,.3,0,.5,0,.8,0,3,.2,6,.5,9,.2,1.6.3,3.1.6,4.7,1.2,8.4,3.5,16.4,6.7,23.9,7.5,17.7,20,32.8,35.7,43.4,15.7,10.6,34.8,16.9,55.1,16.9h0c13.6,0,26.6-2.8,38.4-7.8,17.7-7.5,32.8-20,43.4-35.7.2-.2.3-.5.5-.7l-1.4-1.6Z"/>
    <path d="M172.4,129.1c-2.9,0-5.7,1.2-7.8,3.5l-24.9,28.6-3-3c-1.7-1.8-4-2.6-6.3-2.6s-4.4.8-6.1,2.5l-4.8,4.7,20.8,21.3,42.7-49-3.9-3.4c-1.9-1.7-4.4-2.5-6.7-2.5Z"/>
    <path d="M267.6,149.7c-.9,0-1.8.2-2.7.7l-10.3,5.1-3,1.5-3,1.5h0c0,0-.1,0-.1,0v-5.1c0-.7,0-1.3,0-2,0-2.7-.2-5.3-.5-7.9-.2-1.5-.3-3.1-.6-4.6-1.2-8.2-3.4-16-6.5-23.4h.1c0-.2-.1-.3-.2-.5-7.5-17.7-20-32.8-35.7-43.4-15.7-10.6-34.8-16.9-55.1-16.9h0c-13.6,0-26.6,2.8-38.4,7.8-17.7,7.5-32.8,20-43.4,35.7-.2.3-.3.5-.5.8l1.3,1.6,15,18c5.8-10.9,14.1-20.2,24.3-27.1,11.9-8,26.2-12.7,41.7-12.7,10.3,0,20.1,2.1,29,5.9,13.4,5.7,24.8,15.1,32.8,27.1.8,1.2,1.6,2.5,2.4,3.8,4.6,7.7,7.8,16.3,9.3,25.4.2,1.3.4,2.7.6,4.1.3,2.8.5,5.6.5,8.5v5.1h-.1c0,0,0,0,0,0h0s-2.9-1.5-2.9-1.5l-3-1.5-10.4-5.1c-.9-.4-1.8-.6-2.7-.7-3.3,0-6.3,2.7-6.3,6.3s.7,3.3,1.9,4.5l13.5,16.2,2.2,2.6,2.2,2.6,16.7,20.1.3-.4,7.6-8.7,5.6-6.4,22.9-26c1.2-1.2,1.9-2.8,1.9-4.5,0-3.6-3-6.3-6.3-6.3Z"/>
  </g>
</svg>