<?xml version="1.0" encoding="UTF-8"?>
<svg id="Capa_1" xmlns="http://www.w3.org/2000/svg" version="1.1" viewBox="0 0 912 655">
  <!-- Generator: Adobe Illustrator 30.3.0, SVG Export Plug-In . SVG Version: 2.1.3 Build 182)  -->
  <path d="M20.2,31c.3.8,1,1.8,1.2,2,0,0,.8,1,1.2,1.2.5.2.8,0,1.1-.6.2-.4.4-1.5.5-2,0-.2,0-.4,0-.7l.4-5.4s0-.8,0-1.3c0-1.3,0-2.2-.3-3.6-.2-1.5-.4-2.4-.8-3.8-.4-1.5-.7-2.3-1.2-3.5-.4-.9-.6-1.3-1.1-1.9-.5-.6-.6-.7-1.1-1-.4-.2-.9-.1-1.2.2-.3.3-.6.9-.8,1.8-.2.8-.3,1.7-.3,2.9,0,.4,0,1,0,1.5l.4,6.4c0,.3,0,.6,0,1,0,.8.3,2.4.5,3.3.3,1.3.7,2.6,1.1,3.5Z" style="fill: #fff;"/>
  <rect x="166.5" y="124.5" width="188" height="48" rx="3.5" ry="3.5" style="fill: #f2f6f8; stroke: #001446;"/>
  <rect x="159.5" y="116.5" width="188" height="48" rx="3.5" ry="3.5" style="fill: #f2f6f8; stroke: #001446;"/>
  <rect x="151.5" y="106.5" width="188" height="48" rx="3.5" ry="3.5" style="fill: #f2f6f8; stroke: #001446;"/>
  <path d="M221.1,138v-14.1h3v14.1h-3ZM230.2,138.2c-.7,0-1.4-.2-1.9-.5-.5-.3-.9-.8-1.2-1.4-.3-.6-.4-1.3-.4-2.2v-6.2h3.1v5.8c0,.4,0,.8.2,1s.3.5.6.7c.3.2.6.2.9.2s.5,0,.7-.1c.2,0,.4-.2.6-.4.2-.2.3-.3.4-.6,0-.2.1-.4.1-.7v-6h3.1v10.1h-2.9v-2.1c-.1,0,.4-.2.4-.2-.2.5-.4.9-.8,1.3-.4.4-.8.7-1.3.9-.5.2-1,.3-1.6.3ZM243.4,142.4c-.8,0-1.6-.1-2.5-.4-.8-.2-1.5-.6-2-.9l1.1-2.1c.3.2.6.3.9.5.3.1.7.2,1,.3.4,0,.7.1,1.1.1.6,0,1.2,0,1.6-.3s.7-.5.9-.9c.2-.4.3-.9.3-1.4v-1.7h.6c0,.5-.3.9-.7,1.2-.3.3-.8.6-1.3.8-.5.2-1,.3-1.6.3-.9,0-1.7-.2-2.5-.6-.7-.4-1.3-1-1.7-1.8-.4-.8-.6-1.6-.6-2.6s.2-1.9.6-2.7c.4-.8,1-1.4,1.7-1.8.7-.5,1.5-.7,2.4-.7s.7,0,1.1.1c.4,0,.7.2,1,.4.3.1.6.3.8.5.2.2.4.4.6.6.2.2.3.5.3.7l-.6.2v-2.3h3v9.3c0,.8-.1,1.6-.4,2.2-.2.6-.6,1.2-1.1,1.6-.5.5-1,.8-1.7,1-.7.2-1.4.3-2.3.3ZM243.4,135.6c.5,0,.9-.1,1.3-.3.4-.2.6-.5.8-.9.2-.4.3-.9.3-1.4s-.1-1-.3-1.4c-.2-.4-.5-.7-.8-.9-.4-.2-.8-.3-1.3-.3s-.9.1-1.3.3c-.4.2-.6.5-.8.9-.2.4-.3.9-.3,1.4s0,1,.3,1.4c.2.4.5.7.8.9.4.2.8.3,1.3.3ZM255.2,138.2c-.8,0-1.6-.2-2.3-.7-.7-.5-1.2-1.1-1.6-1.9-.4-.8-.6-1.7-.6-2.7s.2-1.9.6-2.7c.4-.8.9-1.4,1.6-1.8.7-.5,1.5-.7,2.3-.7s.9,0,1.3.2c.4.1.8.3,1.1.6.3.2.6.5.8.9.2.3.4.7.5,1h-.6v-2.5h3v10.1h-3.1v-2.4h.7c-.1.3-.3.7-.5,1s-.5.6-.8.8-.7.4-1.1.6c-.4.1-.8.2-1.3.2ZM256,135.6c.5,0,.9-.1,1.2-.3.3-.2.6-.5.8-.9.2-.4.3-.9.3-1.4s0-1-.3-1.4c-.2-.4-.5-.7-.8-.9-.3-.2-.7-.3-1.2-.3s-.9.1-1.2.3c-.3.2-.6.5-.8.9-.2.4-.3.9-.3,1.4s0,1,.3,1.4c.2.4.4.7.8.9.3.2.7.3,1.2.3ZM264,138v-10.1h2.9v3.3c.1,0-.4-.6-.4-.6.2-.5.4-1,.7-1.5.4-.4.8-.8,1.2-1,.5-.3,1-.4,1.5-.4s.4,0,.6,0c.2,0,.4,0,.6.1l-.8,3.4c-.1,0-.3-.2-.6-.2-.2,0-.5,0-.7,0s-.5,0-.8.2c-.2,0-.4.2-.6.4-.2.2-.3.4-.4.6,0,.2-.1.5-.1.8v5.1h-3.1Z" style="fill: #001446;"/>
  <rect x="313.5" y="221.5" width="188" height="48" rx="3.5" ry="3.5" style="fill: #f2f6f8; stroke: #001446;"/>
  <rect x="306.5" y="213.5" width="188" height="48" rx="3.5" ry="3.5" style="fill: #f2f6f8; stroke: #001446;"/>
  <rect x="298.5" y="203.5" width="188" height="48" rx="3.5" ry="3.5" style="fill: #f2f6f8; stroke: #001446;"/>
  <path d="M368.7,235v-12.6h3v12.6h-3ZM367,227.6v-2.7h6.8v2.7h-6.8ZM379.1,235.2c-.8,0-1.6-.2-2.3-.7-.7-.5-1.2-1.1-1.6-1.9-.4-.8-.6-1.7-.6-2.7s.2-1.9.6-2.7.9-1.4,1.6-1.8c.7-.5,1.5-.7,2.3-.7s.9,0,1.3.2c.4.1.8.3,1.1.6.3.2.6.5.8.9.2.3.4.7.5,1h-.6v-2.5h3v10.1h-3.1v-2.4h.7c-.1.3-.3.7-.5,1s-.5.6-.8.8-.7.4-1.1.6c-.4.1-.8.2-1.3.2ZM379.9,232.6c.5,0,.9-.1,1.2-.3.3-.2.6-.5.8-.9.2-.4.3-.9.3-1.4s0-1-.3-1.4c-.2-.4-.5-.7-.8-.9-.3-.2-.7-.3-1.2-.3s-.9.1-1.2.3c-.3.2-.6.5-.8.9-.2.4-.3.9-.3,1.4s0,1,.3,1.4c.2.4.4.7.8.9.3.2.7.3,1.2.3ZM387.9,235v-10.1h2.9v3.3c.1,0-.4-.6-.4-.6.2-.5.4-1,.7-1.5.4-.4.8-.8,1.2-1,.5-.3,1-.4,1.5-.4s.4,0,.6,0c.2,0,.4,0,.6.1l-.8,3.4c-.1,0-.3-.2-.6-.2-.2,0-.5,0-.7,0s-.5,0-.8.2c-.2,0-.4.2-.6.4-.2.2-.3.4-.4.6,0,.2-.1.5-.1.8v5.1h-3.1ZM400.9,235.2c-1.1,0-2.1-.2-2.9-.7-.8-.5-1.5-1.1-1.9-1.8-.5-.8-.7-1.7-.7-2.7s.1-1.5.4-2.1c.3-.6.6-1.2,1.1-1.7.5-.5,1-.8,1.6-1.1.6-.3,1.3-.4,2.1-.4s1.4.1,1.9.4c.6.3,1.1.6,1.5,1.1.4.5.8,1,1,1.6s.3,1.3.3,2v.8h-8.1l-.4-1.7h6l-.3.4v-.4c0-.3-.1-.6-.3-.8-.2-.3-.4-.5-.7-.6-.3-.1-.6-.2-.9-.2s-.9.1-1.3.3c-.3.2-.6.5-.8.9-.2.4-.3.8-.3,1.4s.1,1,.3,1.5c.2.4.6.7,1,.9.5.2,1,.3,1.6.3s.8,0,1.1-.2c.3-.1.7-.3,1.1-.6l1.4,2c-.4.3-.8.6-1.3.8-.4.2-.9.4-1.4.5-.5.1-.9.2-1.4.2ZM411,235.2c-.8,0-1.6-.2-2.3-.7-.7-.5-1.2-1.1-1.6-1.9-.4-.8-.6-1.7-.6-2.7s.2-1.9.6-2.7c.4-.8.9-1.4,1.6-1.8.7-.5,1.5-.7,2.3-.7s.9,0,1.3.2c.4.1.8.3,1.1.6.3.2.6.5.8.9.2.3.4.7.5,1h-.6v-2.5h3v10.1h-3.1v-2.4h.7c-.1.3-.3.7-.5,1-.2.3-.5.6-.8.8-.3.2-.7.4-1.1.6-.4.1-.8.2-1.3.2ZM411.8,232.6c.5,0,.9-.1,1.2-.3.3-.2.6-.5.8-.9.2-.4.3-.9.3-1.4s0-1-.3-1.4c-.2-.4-.5-.7-.8-.9-.3-.2-.7-.3-1.2-.3s-.9.1-1.2.3c-.3.2-.6.5-.8.9-.2.4-.3.9-.3,1.4s0,1,.3,1.4c.2.4.5.7.8.9.3.2.7.3,1.2.3Z" style="fill: #001446;"/>
  <path d="M237.9,51.5v1-1ZM244.9,58.5h1-1ZM244.2,105.2c.4.4,1,.4,1.4,0l6.4-6.4c.4-.4.4-1,0-1.4-.4-.4-1-.4-1.4,0l-5.7,5.7-5.7-5.7c-.4-.4-1-.4-1.4,0-.4.4-.4,1,0,1.4l6.4,6.4ZM208,52.5h29.9v-2h-29.9v2ZM243.9,58.5v46h2v-46h-2ZM237.9,52.5c3.3,0,6,2.7,6,6h2c0-4.4-3.6-8-8-8v2Z" style="fill: #a0a7b9;"/>
  <path d="M385.4,131.8v-1h0v1ZM392.4,138.8h1-1ZM391.7,202.5c.4.4,1,.4,1.4,0l6.4-6.4c.4-.4.4-1,0-1.4-.4-.4-1-.4-1.4,0l-5.7,5.7-5.7-5.7c-.4-.4-1-.4-1.4,0-.4.4-.4,1,0,1.4l6.4,6.4ZM340,132.8h45.4s0-2,0-2h-45.4s0,2,0,2ZM391.4,138.8v63h2v-63h-2ZM385.4,132.8c3.3,0,6,2.7,6,6h2c0-4.4-3.6-8-8-8v2Z" style="fill: #a0a7b9;"/>
  <path d="M756.1,365.2c.4.4,1,.4,1.4,0l6.4-6.4c.4-.4.4-1,0-1.4s-1-.4-1.4,0l-5.7,5.7-5.7-5.7c-.4-.4-1-.4-1.4,0-.4.4-.4,1,0,1.4l6.4,6.4ZM755.8,242v122.5h2v-122.5h-2Z" style="fill: #a0a7b9;"/>
  <path d="M625.2,229.5c.4-.4.4-1,0-1.4l-6.4-6.4c-.4-.4-1-.4-1.4,0-.4.4-.4,1,0,1.4l5.7,5.7-5.7,5.7c-.4.4-.4,1,0,1.4.4.4,1,.4,1.4,0l6.4-6.4ZM487.5,229.8h137v-2h-137v2Z" style="fill: #a0a7b9;"/>
  <rect x="20" y="28" width="187" height="47" rx="3" ry="3" style="fill: #f2f6f8; stroke: #001446; stroke-width: 2px;"/>
  <path d="M80.1,59.2c-1,0-1.9-.2-2.6-.5-.7-.3-1.3-.7-1.8-1.3l1.8-1.6c.4.4.8.7,1.3.9.5.2,1,.3,1.4.3s.3,0,.5,0c.1,0,.3,0,.3-.2.1,0,.2-.2.2-.2,0-.1,0-.2,0-.3,0-.3-.1-.4-.3-.6-.1,0-.3-.1-.6-.2-.3,0-.6-.2-1-.3-.6-.2-1.1-.3-1.6-.5-.4-.2-.8-.5-1.1-.7-.3-.3-.4-.6-.6-.9-.1-.3-.2-.7-.2-1.1s.1-.9.3-1.3c.2-.4.5-.7.9-1,.4-.3.8-.5,1.3-.6.5-.2,1-.2,1.5-.2s1.1,0,1.6.2c.5.1,1,.3,1.4.5.4.2.8.5,1.2.8l-1.6,1.8c-.2-.2-.5-.4-.8-.6-.3-.2-.6-.3-.9-.4-.3-.1-.6-.2-.8-.2s-.4,0-.5,0c-.1,0-.3,0-.4.2-.1,0-.2.1-.2.2,0,0,0,.2,0,.3s0,.2,0,.4c0,.1.2.2.3.3.1,0,.3.2.6.3.3,0,.7.2,1.1.3.6.2,1.1.3,1.5.6.4.2.8.4,1,.7.2.2.4.5.5.8.1.3.2.6.2.9,0,.6-.2,1.2-.6,1.7-.4.5-.8.9-1.5,1.2-.6.3-1.4.4-2.2.4ZM90.9,59.2c-1.1,0-2.1-.2-2.9-.7-.8-.5-1.5-1.1-1.9-1.8-.5-.8-.7-1.7-.7-2.7s.1-1.5.4-2.1c.3-.6.6-1.2,1.1-1.7.5-.5,1-.8,1.6-1.1.6-.3,1.3-.4,2.1-.4s1.4.1,1.9.4c.6.3,1.1.6,1.5,1.1.4.5.8,1,1,1.6.2.6.3,1.3.3,2v.8h-8.1l-.4-1.7h6l-.3.4v-.4c0-.3-.1-.6-.3-.8-.2-.3-.4-.4-.7-.6-.3-.1-.6-.2-.9-.2s-.9.1-1.3.3c-.3.2-.6.5-.8.9-.2.4-.3.8-.3,1.4s.1,1,.3,1.5c.2.4.6.7,1,1,.5.2,1,.3,1.6.3s.8,0,1.1-.2c.3-.1.7-.3,1.1-.6l1.4,2c-.4.3-.8.6-1.3.8-.4.2-.9.4-1.4.5-.5.1-.9.2-1.4.2ZM97.2,59v-10.1h2.9v3.3c.1,0-.4-.6-.4-.6.2-.5.4-1,.7-1.5.4-.4.8-.8,1.2-1,.5-.3,1-.4,1.5-.4s.4,0,.6,0c.2,0,.4,0,.6.1l-.8,3.4c-.1,0-.3-.2-.6-.2-.2,0-.5,0-.7,0s-.5,0-.8.2c-.2,0-.4.2-.6.4-.2.2-.3.4-.4.6,0,.2-.1.5-.1.8v5.1h-3.1ZM109.9,59l-4.2-10.1h3.4l2.5,7.5h-.7c0,0,2.6-7.5,2.6-7.5h3.3l-4.4,10.1h-2.4ZM118.5,59v-10.1h3v10.1h-3ZM120,46.9c-.6,0-1-.1-1.3-.4-.3-.3-.5-.7-.5-1.2s.2-.8.5-1.1c.3-.3.8-.4,1.3-.4s1,.1,1.3.4c.3.3.5.6.5,1.1s-.2.8-.5,1.1c-.3.3-.8.4-1.3.4ZM128.8,59.2c-1,0-1.8-.2-2.6-.7-.8-.5-1.4-1.1-1.8-1.9-.4-.8-.7-1.7-.7-2.7s.2-1.9.7-2.7c.5-.8,1.1-1.4,1.8-1.9.8-.5,1.6-.7,2.6-.7s1.7.2,2.5.5c.8.3,1.4.8,1.8,1.3l-1.7,2c-.2-.2-.4-.4-.6-.6-.2-.2-.5-.3-.8-.4-.3-.1-.6-.2-.9-.2-.5,0-.9.1-1.3.3-.4.2-.7.5-.9.9-.2.4-.3.8-.3,1.3s.1.9.3,1.3c.2.4.5.7.9.9.4.2.8.3,1.3.3s.6,0,.9-.1c.3,0,.5-.2.8-.4.2-.2.5-.4.7-.6l1.6,2c-.4.5-1,1-1.8,1.3-.8.3-1.6.5-2.5.5ZM134.9,59v-10.1h3v10.1h-3ZM136.4,46.9c-.6,0-1-.1-1.3-.4-.3-.3-.5-.7-.5-1.2s.2-.8.5-1.1c.3-.3.8-.4,1.3-.4s1,.1,1.3.4c.3.3.5.6.5,1.1s-.2.8-.5,1.1c-.3.3-.8.4-1.3.4ZM145.6,59.2c-1.1,0-2-.2-2.8-.7-.8-.5-1.5-1.1-1.9-1.9-.5-.8-.7-1.7-.7-2.7s.2-1.9.7-2.7c.5-.8,1.1-1.4,1.9-1.9.8-.5,1.8-.7,2.8-.7s2,.2,2.8.7c.8.5,1.5,1.1,1.9,1.9.5.8.7,1.7.7,2.7s-.2,1.9-.7,2.7c-.5.8-1.1,1.4-1.9,1.9-.8.5-1.7.7-2.8.7ZM145.6,56.6c.5,0,.9-.1,1.2-.3.4-.2.6-.5.8-.9.2-.4.3-.8.3-1.3,0-.5,0-1-.3-1.3-.2-.4-.5-.7-.8-1-.4-.2-.8-.3-1.2-.3s-.9.1-1.2.3c-.4.2-.6.5-.8,1-.2.4-.3.8-.3,1.3,0,.5,0,1,.3,1.3.2.4.5.7.8.9.4.2.8.3,1.2.3Z" style="fill: #001446;"/>
  <path d="M733.4,188.2c-1,0-1.9-.2-2.6-.5-.7-.3-1.3-.7-1.8-1.3l1.8-1.6c.4.4.8.7,1.3.9.5.2,1,.3,1.4.3s.3,0,.5,0c.1,0,.3,0,.3-.2.1,0,.2-.2.2-.2,0-.1,0-.2,0-.3,0-.3-.1-.4-.3-.6-.1,0-.3-.1-.6-.2s-.6-.2-1-.3c-.6-.2-1.1-.3-1.6-.5-.4-.2-.8-.5-1.1-.7-.3-.3-.5-.6-.6-.9-.1-.3-.2-.7-.2-1.1s.1-.9.3-1.3c.2-.4.5-.7.9-1,.4-.3.8-.5,1.3-.6.5-.2,1-.2,1.5-.2s1.1,0,1.6.2c.5.1,1,.3,1.4.5.4.2.8.5,1.2.8l-1.6,1.8c-.2-.2-.5-.4-.8-.6-.3-.2-.6-.3-.9-.4s-.6-.2-.8-.2-.4,0-.5,0c-.1,0-.3,0-.4.2-.1,0-.2.1-.2.2,0,0,0,.2,0,.3s0,.2,0,.4c0,.1.2.2.3.3.1,0,.3.2.6.3.3,0,.7.2,1.1.3.6.2,1.1.3,1.5.6.4.2.8.4,1,.7.2.2.4.5.5.8.1.3.2.6.2.9,0,.6-.2,1.2-.6,1.7-.4.5-.8.9-1.5,1.2-.6.3-1.4.4-2.2.4ZM740.3,188v-12.6h3v12.6h-3ZM738.5,180.6v-2.7h6.8v2.7h-6.8ZM751.7,188.2c-1.1,0-2.1-.2-2.9-.7-.8-.5-1.5-1.1-1.9-1.8-.5-.8-.7-1.7-.7-2.7s.1-1.5.4-2.1c.3-.6.6-1.2,1.1-1.7.5-.5,1-.8,1.6-1.1.6-.3,1.3-.4,2.1-.4s1.4.1,1.9.4c.6.3,1.1.6,1.5,1.1.4.5.8,1,1,1.6.2.6.3,1.3.3,2v.8h-8.1l-.4-1.7h6l-.3.4v-.4c0-.3-.1-.6-.3-.8-.2-.3-.4-.5-.7-.6-.3-.1-.6-.2-.9-.2s-.9.1-1.3.3c-.3.2-.6.5-.8.9-.2.4-.3.8-.3,1.4s.1,1,.3,1.5c.2.4.6.7,1,.9.5.2,1,.3,1.6.3s.8,0,1.1-.2c.3-.1.7-.3,1.1-.6l1.4,2c-.4.3-.8.6-1.3.8-.4.2-.9.4-1.4.5-.5.1-.9.2-1.4.2ZM758.1,192.2v-14.3h2.9v2.3c.1,0-.5-.2-.5-.2,0-.4.3-.8.6-1.1.3-.3.8-.6,1.3-.8.5-.2,1.1-.3,1.7-.3.9,0,1.6.2,2.3.7.7.4,1.2,1.1,1.6,1.8.4.8.6,1.7.6,2.7s-.2,1.9-.6,2.7c-.4.8-.9,1.4-1.6,1.9-.7.4-1.4.7-2.3.7s-1.1-.1-1.6-.3c-.5-.2-1-.5-1.3-.9-.4-.4-.6-.8-.7-1.2l.7-.3v6.7h-3.1ZM763.3,185.6c.5,0,.9-.1,1.2-.3.3-.2.6-.5.8-.9.2-.4.3-.9.3-1.4s0-1-.3-1.4c-.2-.4-.5-.7-.8-.9-.3-.2-.7-.3-1.2-.3s-.9.1-1.2.3c-.3.2-.6.5-.8.9-.2.4-.3.9-.3,1.4s0,1,.3,1.4c.2.4.5.7.8.9.3.2.7.3,1.2.3ZM774,188.2c-1,0-1.9-.2-2.6-.5-.7-.3-1.3-.7-1.8-1.3l1.8-1.6c.4.4.8.7,1.3.9.5.2,1,.3,1.4.3s.3,0,.5,0c.1,0,.3,0,.3-.2.1,0,.2-.2.2-.2,0-.1,0-.2,0-.3,0-.3-.1-.4-.3-.6-.1,0-.3-.1-.6-.2s-.6-.2-1-.3c-.6-.2-1.1-.3-1.6-.5-.4-.2-.8-.5-1.1-.7-.3-.3-.4-.6-.6-.9-.1-.3-.2-.7-.2-1.1s.1-.9.3-1.3c.2-.4.5-.7.9-1,.4-.3.8-.5,1.3-.6.5-.2,1-.2,1.5-.2s1.1,0,1.6.2c.5.1,1,.3,1.4.5.4.2.8.5,1.2.8l-1.6,1.8c-.2-.2-.5-.4-.8-.6-.3-.2-.6-.3-.9-.4s-.6-.2-.8-.2-.4,0-.5,0c-.1,0-.3,0-.4.2-.1,0-.2.1-.2.2,0,0,0,.2,0,.3s0,.2,0,.4c0,.1.2.2.3.3.1,0,.3.2.6.3.3,0,.7.2,1.1.3.6.2,1.1.3,1.5.6.4.2.8.4,1,.7.2.2.4.5.5.8.1.3.2.6.2.9,0,.6-.2,1.2-.6,1.7-.4.5-.8.9-1.5,1.2-.6.3-1.4.4-2.2.4Z" style="fill: #001446;"/>
  <rect x="642.8" y="214" width="30.7" height="26" rx="3" ry="3" style="fill: #cee8f5; stroke: #001446; stroke-width: 2px;"/>
  <path d="M659.4,233h-2.1v-5.8c0-.2,0-.4,0-.6,0-.2,0-.5,0-.7,0-.2,0-.5,0-.7,0,0-.2.2-.3.3-.2.1-.3.3-.4.4l-1.1.9-1-1.3,3.2-2.6h1.7v10Z" style="fill: #001446;"/>
  <path d="M679.6,227.3v1h0v-1ZM691.7,228c.4-.4.3-1,0-1.4l-7-6.2c-.4-.4-1.1-.4-1.5,0-.4.4-.3,1,0,1.4l6.2,5.5-5.5,5.5c-.4.4-.3,1,0,1.4.4.4,1.1.4,1.5,0l6.2-6.2ZM674.6,228.3h5.1v-1.9h-5.2v1.9ZM679.7,228.3h11.3v-1.9h-11.4v1.9Z" style="fill: #a0a7b9;"/>
  <path d="M729.3,227.3v1h0v-1ZM741.3,228c.4-.4.3-1,0-1.4l-7-6.2c-.4-.4-1.1-.4-1.5,0-.4.4-.3,1,0,1.4l6.2,5.5-5.5,5.5c-.4.4-.3,1,0,1.4.4.4,1.1.4,1.5,0l6.2-6.2ZM724.3,228.3h5.1v-1.9h-5.2v1.9ZM729.3,228.3h11.3v-1.9h-11.4v1.9Z" style="fill: #a0a7b9;"/>
  <path d="M778.9,227.3v1h0v-1ZM791,228c.4-.4.3-1,0-1.4l-7-6.2c-.4-.4-1.1-.4-1.5,0-.4.4-.3,1,0,1.4l6.2,5.5-5.5,5.5c-.4.4-.3,1,0,1.4.4.4,1.1.4,1.5,0l6.2-6.2ZM773.9,228.3h5.1v-1.9h-5.2v1.9ZM779,228.3h11.3v-1.9h-11.4v1.9Z" style="fill: #a0a7b9;"/>
  <path d="M828.6,227.3v1h0v-1ZM840.7,228c.4-.4.3-1,0-1.4l-7-6.2c-.4-.4-1.1-.4-1.5,0-.4.4-.3,1,0,1.4l6.2,5.5-5.5,5.5c-.4.4-.3,1,0,1.4.4.4,1.1.4,1.5,0l6.2-6.2ZM823.6,228.3h5.1v-1.9h-5.2v1.9ZM828.7,228.3h11.3v-1.9h-11.4v1.9Z" style="fill: #a0a7b9;"/>
  <rect x="692.5" y="214" width="30.7" height="26" rx="3" ry="3" style="fill: #cee8f5; stroke: #001446; stroke-width: 2px;"/>
  <rect x="742.1" y="214" width="30.7" height="26" rx="3" ry="3" style="fill: #cee8f5; stroke: #001446; stroke-width: 2px;"/>
  <rect x="841.5" y="214" width="30.7" height="26" rx="3" ry="3" style="fill: #cee8f5; stroke: #001446; stroke-width: 2px;"/>
  <rect x="791.8" y="214" width="30.7" height="26" rx="3" ry="3" style="fill: #cee8f5; stroke: #001446; stroke-width: 2px;"/>
  <path d="M710.8,233h-7v-1.5l2.5-2.5c.5-.5.9-1,1.2-1.3.3-.4.5-.7.7-1,.1-.3.2-.6.2-.9s-.1-.7-.3-.9c-.2-.2-.5-.3-.9-.3s-.8,0-1.1.3c-.4.2-.7.4-1.1.8l-1.1-1.4c.3-.2.6-.5.9-.7.3-.2.7-.4,1.1-.5.4-.1.9-.2,1.5-.2s1.2.1,1.7.4c.5.2.8.6,1.1,1,.3.4.4.9.4,1.4s-.1,1.1-.3,1.5c-.2.5-.5.9-1,1.4-.4.4-.9.9-1.5,1.5l-1.3,1.2h0c0,0,4.4,0,4.4,0v1.8Z" style="fill: #001446;"/>
  <path d="M760.1,225.2c0,.5,0,.9-.3,1.2-.2.3-.5.6-.8.8-.3.2-.7.4-1.1.5h0c.8.1,1.4.4,1.8.8.4.4.6.9.6,1.6s-.1,1.1-.4,1.6c-.3.5-.7.8-1.3,1.1-.6.3-1.4.4-2.3.4s-1.1,0-1.5-.1c-.5,0-.9-.2-1.3-.4v-1.8c.4.2.9.4,1.3.5.5.1.9.2,1.3.2.8,0,1.3-.1,1.6-.4.3-.3.5-.6.5-1.1s0-.5-.2-.7c-.1-.2-.4-.3-.7-.4-.3,0-.8-.1-1.5-.1h-.8v-1.6h.8c.6,0,1.1,0,1.4-.2.3-.1.5-.3.7-.5.1-.2.2-.4.2-.7s-.1-.6-.3-.8c-.2-.2-.6-.3-1.1-.3s-.6,0-.9.1c-.3,0-.5.2-.7.3-.2.1-.4.2-.6.3l-1-1.5c.4-.3.9-.5,1.4-.7.5-.2,1.2-.3,1.9-.3s1.8.2,2.4.6c.6.4.9,1,.9,1.8Z" style="fill: #001446;"/>
  <path d="M811.5,230.9h-1.2v2.1h-2.1v-2.1h-4.3v-1.5l4.4-6.5h1.9v6.3h1.2v1.6ZM808.2,229.3v-1.7c0-.2,0-.3,0-.6,0-.2,0-.4,0-.7,0-.2,0-.4,0-.6,0-.2,0-.3,0-.4h0c0,.2-.2.4-.3.5,0,.2-.2.4-.3.5l-1.8,2.8h2.4Z" style="fill: #001446;"/>
  <path d="M857.1,224.2c.8,0,1.5.2,2,.7.5.4.7,1.2.7,2.1v5h-2.1v-4.5c0-.5,0-1-.3-1.2-.2-.3-.5-.4-.9-.4-.6,0-1.1.2-1.3.6s-.3,1.1-.3,1.9v3.6h-2.1v-7.6h1.6l.3,1h.1c.2-.3.4-.5.6-.6.2-.2.5-.3.8-.4.3,0,.6-.1.9-.1Z" style="fill: #001446;"/>
  <path d="M715.4,594v-11.2h4.8c.7,0,1.3.2,1.9.5.6.3,1,.8,1.3,1.3.3.6.5,1.2.5,1.9s-.2,1.4-.5,2c-.3.6-.8,1-1.3,1.3-.5.3-1.2.5-1.9.5h-2.1v3.7h-2.7ZM718.1,587.9h1.8c.2,0,.4,0,.6-.2.2-.1.3-.3.5-.5s.2-.4.2-.7,0-.5-.2-.7c-.1-.2-.3-.3-.5-.4-.2-.1-.4-.2-.6-.2h-1.8v2.7ZM728.7,594.1c-.7,0-1.4-.2-1.9-.6-.6-.4-1-.9-1.3-1.6-.3-.7-.5-1.4-.5-2.3s.2-1.6.5-2.3c.3-.7.8-1.2,1.4-1.6.6-.4,1.2-.6,2-.6s.8,0,1.1.2c.3.1.6.3.9.5.3.2.5.4.7.7.2.3.3.6.4.9h-.5v-2.1h2.5v8.5h-2.6v-2h.6c0,.3-.2.6-.4.8-.2.3-.4.5-.7.7-.3.2-.6.4-.9.5-.3.1-.7.2-1.1.2ZM729.4,592c.4,0,.7,0,1-.3.3-.2.5-.4.7-.8.2-.3.2-.7.2-1.2s0-.9-.2-1.2c-.2-.3-.4-.6-.7-.8-.3-.2-.6-.3-1-.3s-.7,0-1,.3c-.3.2-.5.4-.7.8-.2.3-.2.7-.2,1.2s0,.9.2,1.2c.2.3.4.6.7.8.3.2.6.3,1,.3ZM739,594.2c-.8,0-1.6-.1-2.2-.4-.6-.3-1.1-.6-1.5-1.1l1.6-1.3c.3.3.7.6,1.1.7.4.1.8.2,1.2.2s.3,0,.4,0c.1,0,.2,0,.3-.1,0,0,.2-.1.2-.2,0,0,0-.2,0-.3,0-.2,0-.4-.3-.5,0,0-.3-.1-.5-.2-.2,0-.5-.2-.9-.3-.5-.1-.9-.3-1.3-.4-.4-.2-.7-.4-.9-.6-.2-.2-.4-.5-.5-.7-.1-.3-.2-.6-.2-.9s0-.8.3-1.1c.2-.3.4-.6.8-.8.3-.2.7-.4,1.1-.5.4-.1.8-.2,1.3-.2s.9,0,1.3.2c.4.1.8.3,1.2.4.4.2.7.4,1,.7l-1.3,1.5c-.2-.2-.4-.3-.7-.5-.2-.1-.5-.3-.7-.4-.3,0-.5-.1-.7-.1s-.3,0-.4,0c-.1,0-.2,0-.3.1,0,0-.1.1-.2.2,0,0,0,.2,0,.3s0,.2,0,.3c0,0,.2.2.3.2.1,0,.3.1.5.2.2,0,.6.2,1,.3.5.1.9.3,1.3.5.4.2.7.4.9.6.2.2.3.4.4.6,0,.2.1.5.1.8,0,.5-.2,1-.5,1.5-.3.4-.7.7-1.2,1-.5.2-1.1.4-1.8.4ZM747.2,594.1c-.7,0-1.4-.2-1.9-.6-.6-.4-1-.9-1.3-1.6-.3-.7-.5-1.4-.5-2.3s.2-1.6.5-2.3c.3-.7.8-1.2,1.4-1.6.6-.4,1.2-.6,2-.6s.8,0,1.1.2c.3.1.6.3.9.5.3.2.5.4.7.7.2.3.3.6.4.9h-.5v-2.1h2.5v8.5h-2.6v-2h.6c0,.3-.2.6-.4.8-.2.3-.4.5-.7.7-.3.2-.6.4-.9.5-.3.1-.7.2-1.1.2ZM747.9,592c.4,0,.7,0,1-.3.3-.2.5-.4.7-.8.2-.3.2-.7.2-1.2s0-.9-.2-1.2c-.2-.3-.4-.6-.7-.8-.3-.2-.6-.3-1-.3s-.7,0-1,.3c-.3.2-.5.4-.7.8-.2.3-.2.7-.2,1.2s0,.9.2,1.2c.2.3.4.6.7.8.3.2.6.3,1,.3ZM760.4,594v-10.6h2.6v10.6h-2.6ZM758.9,587.7v-2.2h5.7v2.2h-5.7ZM769,594.2c-.6,0-1.2-.1-1.6-.4-.4-.3-.8-.7-1-1.2-.2-.5-.4-1.1-.4-1.8v-5.2h2.6v4.9c0,.3,0,.6.2.9.1.2.3.4.5.6.2.1.5.2.8.2s.4,0,.6-.1c.2,0,.4-.2.5-.3.1-.1.2-.3.3-.5,0-.2.1-.4.1-.6v-5.1h2.6v8.5h-2.4v-1.7c-.1,0,.4-.2.4-.2-.1.4-.3.8-.6,1.1-.3.3-.7.6-1.1.8-.4.2-.9.3-1.3.3ZM782.2,594v-10.6h2.6v10.6h-2.6ZM780.7,587.7v-2.2h5.7v2.2h-5.7ZM790.9,594.1c-.7,0-1.4-.2-1.9-.6-.6-.4-1-.9-1.3-1.6-.3-.7-.5-1.4-.5-2.3s.2-1.6.5-2.3c.3-.7.8-1.2,1.4-1.6.6-.4,1.2-.6,2-.6s.8,0,1.1.2c.3.1.6.3.9.5.3.2.5.4.7.7.2.3.3.6.4.9h-.5v-2.1h2.5v8.5h-2.6v-2h.6c0,.3-.2.6-.4.8-.2.3-.4.5-.7.7-.3.2-.6.4-.9.5-.3.1-.7.2-1.1.2ZM791.6,592c.4,0,.7,0,1-.3.3-.2.5-.4.7-.8.2-.3.2-.7.2-1.2s0-.9-.2-1.2c-.2-.3-.4-.6-.7-.8-.3-.2-.6-.3-1-.3s-.7,0-1,.3c-.3.2-.5.4-.7.8-.2.3-.2.7-.2,1.2s0,.9.2,1.2c.2.3.4.6.7.8.3.2.6.3,1,.3ZM798.3,594v-8.5h2.4v2.8c.1,0-.4-.5-.4-.5.1-.5.3-.9.6-1.2.3-.4.6-.7,1-.9.4-.2.8-.3,1.3-.3s.4,0,.5,0c.2,0,.3,0,.5.1l-.7,2.8c-.1,0-.3-.1-.5-.2-.2,0-.4,0-.6,0s-.5,0-.7.1c-.2,0-.4.2-.5.3-.1.1-.3.3-.3.5,0,.2-.1.4-.1.7v4.3h-2.6ZM804.7,597.4l-1-2c.5,0,.9,0,1.2-.2.3-.1.5-.3.6-.6.1-.3.2-.7.2-1.2v-7.8h2.6v8.4c0,.8-.1,1.4-.4,1.9-.3.5-.7.9-1.2,1.1-.5.2-1.2.4-1.9.4ZM807,583.8c-.5,0-.9-.1-1.1-.3-.3-.2-.4-.6-.4-1s.1-.7.4-.9c.3-.2.6-.4,1.1-.4s.9.1,1.1.4c.3.2.4.5.4,1s-.1.7-.4,1c-.3.2-.6.4-1.1.4ZM814.6,594.2c-.9,0-1.8-.2-2.4-.6-.7-.4-1.2-.9-1.6-1.6-.4-.7-.6-1.4-.6-2.3s.1-1.2.3-1.8.5-1,.9-1.4c.4-.4.8-.7,1.4-.9.5-.2,1.1-.3,1.7-.3s1.1.1,1.6.3c.5.2.9.5,1.3.9.4.4.6.8.8,1.4.2.5.3,1.1.3,1.7v.7h-6.8l-.4-1.4h5.1l-.3.3v-.3c0-.3-.1-.5-.3-.7-.1-.2-.3-.4-.6-.5-.2-.1-.5-.2-.8-.2s-.8,0-1.1.3c-.3.2-.5.4-.7.7-.1.3-.2.7-.2,1.2s0,.9.3,1.2c.2.3.5.6.9.8.4.2.8.3,1.4.3s.7,0,1-.2c.3-.1.6-.3.9-.5l1.2,1.7c-.3.3-.7.5-1.1.7-.4.2-.8.3-1.2.4-.4,0-.8.1-1.2.1ZM820.6,594v-10.6h2.6v10.6h-2.6ZM819.1,587.7v-2.2h5.7v2.2h-5.7ZM829.3,594.1c-.7,0-1.4-.2-1.9-.6-.6-.4-1-.9-1.3-1.6-.3-.7-.5-1.4-.5-2.3s.2-1.6.5-2.3.8-1.2,1.4-1.6c.6-.4,1.2-.6,2-.6s.8,0,1.1.2c.3.1.6.3.9.5.3.2.5.4.7.7.2.3.3.6.4.9h-.5v-2.1h2.5v8.5h-2.6v-2h.6c0,.3-.2.6-.4.8-.2.3-.4.5-.7.7-.3.2-.6.4-.9.5s-.7.2-1.1.2ZM830,592c.4,0,.7,0,1-.3.3-.2.5-.4.7-.8.2-.3.2-.7.2-1.2s0-.9-.2-1.2c-.2-.3-.4-.6-.7-.8-.3-.2-.6-.3-1-.3s-.7,0-1,.3c-.3.2-.5.4-.7.8-.2.3-.2.7-.2,1.2s0,.9.2,1.2c.2.3.4.6.7.8.3.2.6.3,1,.3ZM841.9,597.5v-12h2.4v1.9c0,0-.4-.1-.4-.1,0-.4.3-.7.5-1,.3-.3.6-.5,1.1-.7.4-.2.9-.3,1.4-.3.7,0,1.4.2,1.9.6.6.4,1,.9,1.3,1.6.3.7.5,1.4.5,2.3s-.2,1.6-.5,2.3c-.3.7-.8,1.2-1.3,1.6-.6.4-1.2.6-2,.6s-.9,0-1.4-.3c-.4-.2-.8-.4-1.1-.7-.3-.3-.5-.6-.6-1l.6-.2v5.6h-2.6ZM846.3,592c.4,0,.7,0,1-.3.3-.2.5-.5.7-.8.2-.3.2-.7.2-1.2s0-.8-.2-1.2c-.2-.3-.4-.6-.7-.8-.3-.2-.6-.3-1-.3s-.7,0-1,.3c-.3.2-.5.4-.7.8s-.2.7-.2,1.2,0,.9.2,1.2.4.6.7.8c.3.2.6.3,1,.3ZM856.4,594.2c-.9,0-1.7-.2-2.4-.6-.7-.4-1.2-.9-1.6-1.6-.4-.7-.6-1.4-.6-2.3s.2-1.6.6-2.3c.4-.7.9-1.2,1.6-1.6.7-.4,1.5-.6,2.4-.6s1.7.2,2.4.6c.7.4,1.2.9,1.6,1.6.4.7.6,1.4.6,2.3s-.2,1.6-.6,2.3c-.4.7-.9,1.2-1.6,1.6-.7.4-1.5.6-2.4.6ZM856.4,592c.4,0,.7,0,1-.3.3-.2.5-.5.7-.8.2-.3.2-.7.2-1.1,0-.4,0-.8-.2-1.1-.2-.3-.4-.6-.7-.8-.3-.2-.6-.3-1-.3s-.7,0-1,.3c-.3.2-.5.5-.7.8-.2.3-.3.7-.2,1.1,0,.4,0,.8.2,1.1.2.3.4.6.7.8.3.2.7.3,1,.3ZM862.7,594v-8.5h2.4v2.8c.1,0-.4-.5-.4-.5.1-.5.3-.9.6-1.2.3-.4.6-.7,1-.9.4-.2.8-.3,1.3-.3s.4,0,.5,0c.2,0,.3,0,.5.1l-.7,2.8c-.1,0-.3-.1-.5-.2-.2,0-.4,0-.6,0s-.5,0-.7.1c-.2,0-.4.2-.5.3-.1.1-.3.3-.3.5,0,.2-.1.4-.1.7v4.3h-2.6ZM879.1,594.2c-.9,0-1.8-.2-2.4-.6-.7-.4-1.2-.9-1.6-1.6-.4-.7-.6-1.4-.6-2.3s.1-1.2.3-1.8.5-1,.9-1.4c.4-.4.8-.7,1.4-.9.5-.2,1.1-.3,1.7-.3s1.1.1,1.6.3c.5.2.9.5,1.3.9.4.4.6.8.8,1.4.2.5.3,1.1.3,1.7v.7h-6.8l-.4-1.4h5.1l-.3.3v-.3c0-.3-.1-.5-.3-.7-.1-.2-.3-.4-.6-.5-.2-.1-.5-.2-.8-.2s-.8,0-1.1.3c-.3.2-.5.4-.7.7-.1.3-.2.7-.2,1.2s0,.9.3,1.2c.2.3.5.6.9.8.4.2.8.3,1.4.3s.7,0,1-.2c.3-.1.6-.3.9-.5l1.2,1.7c-.3.3-.7.5-1.1.7-.4.2-.8.3-1.2.4-.4,0-.8.1-1.2.1ZM884.4,594v-11.8h2.6v11.8h-2.6ZM715.8,614v-10.6h2.6v10.6h-2.6ZM714.3,607.7v-2.2h5.7v2.2h-5.7ZM725.4,614.2c-.9,0-1.7-.2-2.4-.6-.7-.4-1.2-.9-1.6-1.6-.4-.7-.6-1.4-.6-2.3s.2-1.6.6-2.3c.4-.7.9-1.2,1.6-1.6.7-.4,1.5-.6,2.4-.6s1.7.2,2.4.6c.7.4,1.2.9,1.6,1.6s.6,1.4.6,2.3-.2,1.6-.6,2.3-.9,1.2-1.6,1.6c-.7.4-1.5.6-2.4.6ZM725.4,612c.4,0,.7,0,1-.3.3-.2.5-.5.7-.8.2-.3.3-.7.2-1.1,0-.4,0-.8-.2-1.1-.2-.3-.4-.6-.7-.8-.3-.2-.6-.3-1-.3s-.7,0-1,.3c-.3.2-.5.5-.7.8-.2.3-.3.7-.2,1.1,0,.4,0,.8.2,1.1.2.3.4.6.7.8.3.2.7.3,1,.3ZM731.7,614v-8.5h2.4v2.8c.1,0-.4-.5-.4-.5.1-.5.3-.9.6-1.2.3-.4.6-.7,1-.9s.8-.3,1.3-.3.4,0,.5,0c.2,0,.3,0,.5.1l-.7,2.8c-.1,0-.3-.1-.5-.2-.2,0-.4,0-.6,0s-.5,0-.7.1c-.2,0-.4.2-.5.3-.1.1-.3.3-.3.5,0,.2-.1.4-.1.7v4.3h-2.6ZM739,614v-8.5h2.4v1.7c0,0-.4.2-.4.2.1-.4.3-.7.6-1,.3-.3.7-.6,1.1-.8.4-.2.9-.3,1.3-.3s1.2.1,1.6.4c.4.3.8.6,1,1.2.2.5.3,1.1.3,1.9v5.2h-2.6v-5c0-.3,0-.6-.1-.8s-.2-.4-.4-.5c-.2-.1-.4-.2-.7-.2-.2,0-.4,0-.6.1-.2,0-.4.2-.5.3-.1.1-.3.3-.3.4,0,.2-.1.4-.1.6v5.1h-2.6ZM749.3,614v-8.5h2.6v8.5h-2.6ZM750.5,603.8c-.5,0-.9-.1-1.1-.3-.3-.2-.4-.6-.4-1s.1-.7.4-.9c.3-.2.7-.4,1.1-.4s.9.1,1.1.4c.3.2.4.5.4,1s-.1.7-.4,1c-.3.2-.6.4-1.1.4ZM759.9,617.5v-5.6h.6c0,.4-.2.7-.3.9-.2.2-.4.5-.7.7-.3.2-.6.3-.9.5-.3.1-.7.2-1.1.2-.7,0-1.4-.2-2-.6-.6-.4-1-.9-1.4-1.6-.3-.7-.5-1.4-.5-2.3s.2-1.6.5-2.3c.3-.7.8-1.2,1.3-1.6.6-.4,1.2-.6,1.9-.6s.8,0,1.2.2c.4.1.7.3,1,.5.3.2.5.4.7.7.2.2.3.5.3.8h-.6c0,0,0-1.9,0-1.9h2.4v12h-2.6ZM758.1,612c.4,0,.7,0,1-.3.3-.2.5-.4.7-.8.2-.3.2-.7.2-1.2s0-.9-.2-1.2c-.2-.3-.4-.6-.7-.8-.3-.2-.6-.3-1-.3s-.7,0-1,.3c-.3.2-.5.4-.7.8-.2.3-.2.7-.2,1.2s0,.9.2,1.2c.2.3.4.6.7.8.3.2.6.3,1,.3ZM767.7,614.2c-.6,0-1.2-.1-1.6-.4-.4-.3-.8-.7-1-1.2-.2-.5-.4-1.1-.4-1.8v-5.2h2.6v4.9c0,.3,0,.6.2.9.1.2.3.4.5.6.2.1.5.2.8.2s.4,0,.6-.1c.2,0,.4-.2.5-.3.1-.1.2-.3.3-.5,0-.2.1-.4.1-.6v-5.1h2.6v8.5h-2.4v-1.7c-.1,0,.4-.2.4-.2-.1.4-.3.8-.6,1.1-.3.3-.7.6-1.1.8-.4.2-.9.3-1.3.3ZM779.1,614.2c-.9,0-1.8-.2-2.4-.6-.7-.4-1.2-.9-1.6-1.6-.4-.7-.6-1.4-.6-2.3s.1-1.2.3-1.8c.2-.5.5-1,.9-1.4.4-.4.8-.7,1.4-.9.5-.2,1.1-.3,1.7-.3s1.1.1,1.6.3c.5.2.9.5,1.3.9.4.4.6.8.8,1.4.2.5.3,1.1.3,1.7v.7h-6.8l-.4-1.4h5.1l-.3.3v-.3c0-.3-.1-.5-.3-.7-.1-.2-.3-.4-.6-.5-.2-.1-.5-.2-.8-.2s-.8,0-1.1.3c-.3.2-.5.4-.7.7-.2.3-.2.7-.2,1.2s0,.9.3,1.2c.2.3.5.6.9.8.4.2.8.3,1.4.3s.7,0,1-.2c.3-.1.6-.3.9-.5l1.2,1.7c-.3.3-.7.5-1.1.7-.4.2-.8.3-1.2.4-.4,0-.8.1-1.2.1ZM785.1,614v-10.6h2.6v10.6h-2.6ZM783.6,607.7v-2.2h5.7v2.2h-5.7ZM794.7,614.2c-.9,0-1.8-.2-2.4-.6-.7-.4-1.2-.9-1.6-1.6-.4-.7-.6-1.4-.6-2.3s.1-1.2.3-1.8c.2-.5.5-1,.9-1.4.4-.4.8-.7,1.4-.9.5-.2,1.1-.3,1.7-.3s1.1.1,1.6.3c.5.2.9.5,1.3.9.4.4.6.8.8,1.4s.3,1.1.3,1.7v.7h-6.8l-.4-1.4h5.1l-.3.3v-.3c0-.3-.1-.5-.3-.7-.1-.2-.3-.4-.6-.5-.2-.1-.5-.2-.8-.2s-.8,0-1.1.3c-.3.2-.5.4-.7.7-.2.3-.2.7-.2,1.2s0,.9.3,1.2c.2.3.5.6.9.8.4.2.8.3,1.4.3s.7,0,1-.2c.3-.1.6-.3.9-.5l1.2,1.7c-.3.3-.7.5-1.1.7-.4.2-.8.3-1.2.4-.4,0-.8.1-1.2.1Z" style="fill: #001446;"/>
  <rect x="626.5" y="370.5" width="262" height="184" rx="5.5" ry="5.5" style="fill: #f2f6f8; stroke: #001446;"/>
  <path d="M626,538h263v13.5h-263v-13.5Z"/>
  <path d="M626,547c0-2.2,1.8-4,4-4h255c2.2,0,4,1.8,4,4v5.5c0,2.2-1.8,4-4,4h-255c-2.2,0-4-1.8-4-4v-5.5Z"/>
  <path d="M836,461.3c-1.7,0-3,1.5-3,3.3v74.3h-1.4v-68.2l-39.8,15.6c-.4.2-.9-.2-.9-.7s0-.3.1-.4c0-.1.2-.2.3-.3l40.2-15.8v-3.4h-40c-.2,0-.4,0-.5-.2-.1-.1-.2-.3-.2-.5s0-.4.2-.5.3-.2.5-.2h40c0-2.4,1.8-4.4,4-4.4h2v-7.7c0-.6.5-1.1,1-1.1h14.6c4.8,0,8.7,3.8,9.4,8.8h2.1c2.2,0,4,2,4,4.4v74.7h-1.4v-74.3c0-1.8-1.4-3.3-3-3.3h-28.3ZM861.2,459.8c-.7-4.1-4-7.3-8-7.3h-14.2v7.3h22.1Z" style="fill-rule: evenodd;"/>
  <path d="M840.6,466.4c-1.7,0-3,1.5-3,3.3v8.8c0,1.8,1.4,3.3,3,3.3h19c1.7,0,3-1.5,3-3.3v-8.8c0-1.8-1.4-3.3-3-3.3h-19ZM841.1,467.9c-1.1,0-2,1-2,2.2v7.9c0,1.2.9,2.2,2,2.2h18.2c1.1,0,2-1,2-2.2v-7.9c0-1.2-.9-2.2-2-2.2h-18.2ZM747.6,538.9h1.4v-74.3c0-1.8,1.4-3.3,3-3.3h28.3c1.7,0,3,1.5,3,3.3v74.3h1.4v-74.7c0-2.4-1.8-4.4-4-4.4h-2.1c-.7-5-4.6-8.8-9.4-8.8h-14.6c-.3,0-.5.1-.7.3-.2.2-.3.5-.3.8v7.7h-2c-2.2,0-4,2-4,4.4h-40c-.2,0-.4,0-.5.2-.1.1-.2.3-.2.5s0,.4.2.5c.1.1.3.2.5.2h40v3.4l-40.2,15.8c-.1,0-.2.1-.3.3,0,.1-.1.3-.1.4,0,.5.5.9.9.7l39.8-15.6v68.2ZM755.1,459.8h22.1c-.7-4.1-4-7.3-8-7.3h-14.2v7.3Z" style="fill-rule: evenodd;"/>
  <path d="M626,515.4v1.5h66.8c1,0,1.9-.4,2.6-1.1v23h1.4v-74.7c0-2.4-1.8-4.4-4-4.4h-66.8v1.5h66.4c1.7,0,3,1.5,3,3.3v47.5c0,1.8-1.4,3.3-3,3.3h-66.4ZM882.9,516.9c-1,0-1.9-.4-2.6-1.1v23h-1.4v-74.7c0-2.4,1.8-4.4,4-4.4h6.1v1.5h-5.7c-1.7,0-3,1.5-3,3.3v47.5c0,1.8,1.4,3.3,3,3.3h5.7v1.5h-6.1Z"/>
  <path d="M751.5,469.5c-.1-.1-.2-.3-.2-.5s0-.3.2-.5l5.6-6.1c0,0,.1-.1.2-.1,0,0,.2,0,.2,0s.2,0,.2,0c0,0,.1,0,.2.1l3.6,3.9h14.2c1.7,0,3,1.5,3,3.3v8.8c0,1.8-1.4,3.3-3,3.3h-19c-1.7,0-3-1.5-3-3.3v-6.6l-2.2-2.4ZM755.1,478v-4.7l4.8,5.2c0,0,.1.1.2.1,0,0,.2,0,.2,0s.2,0,.2,0c0,0,.1,0,.2-.1l5.6-6.1c0,0,.1-.1.1-.2,0,0,0-.2,0-.3s0-.2,0-.3c0,0,0-.2-.1-.2l-3.4-3.7h12.4c1.1,0,2,1,2,2.2v7.9c0,1.2-.9,2.2-2,2.2h-18.2c-1.1,0-2-1-2-2.2ZM764.8,472.1l-4.4,4.8-7.3-7.9,4.4-4.8,7.3,7.9Z" style="fill-rule: evenodd;"/>
  <path d="M701.1,455.1c0-.3,1.1-10.9,4.5-17.8,2.9-5.6,7.5-6.4,14.8-6.5,7.1,0,12.8,1.1,15.9,6.4,3,6.9,5.8,17.1,5.8,17.1l9.9,7.3,4.5,1.2c1.8.5,2.7,2.4,2,4.1-.2.4-.5.8-.9,1.1-.4.3-.9.4-1.3.4l-7.9-.4-15.1-8.2,2.6,43.1-.3,29.8,3,1.2c.7.3,1.3.8,1.7,1.4.4.6.6,1.4.6,2.1v.2h-17.9l.3-3.4c-.3-.2-.5-.4-.6-.7s-.2-.6-.2-.9l.3-24.4-1.8-23.9-1.7,23.9v24.5c0,.3,0,.6-.2.9-.1.3-.3.5-.6.7l.3,3.4h-17.6c0-1.5.8-2.8,2.2-3.4l3.1-1.5-.4-29.9,1.2-22.7-1.1,4.4s0,0,0,0c0,0,0,0,0,0-2.3.6-4.6-1.2-4.5-3.5l.3-6.2s-.7-11.4-.7-19.7Z" style="fill: #fff;"/>
  <path d="M702.3,455.8s1-10.8,4.2-17.6c2.7-5.5,7.1-6.1,14-6.2,6.7,0,12.1,1,15,6.2,2.8,6.8,5.4,16.6,5.4,16.6l10.5,7.7,5.1,1.5c.4.1.7.3.9.6.2.3.3.7.2,1.1,0,.4-.3.7-.6.9-.3.2-.7.3-1,.3l-7-.5-14.4-7.8-3.4-13.1c0,0,0-.1-.1-.1,0,0-.1,0-.2,0,0,0-.1,0-.2,0,0,0,0,.1,0,.2l1.1,13,.6,5.8.6,10.7,1.8,27.4-.3,30.8,4.1,1.7c.3.1.6.4.8.7.2.3.3.7.3,1v.7s-15.5,0-15.5,0l.4-4.2c-.1,0-.3,0-.4,0-.1,0-.2-.1-.3-.2,0,0-.2-.2-.2-.3,0-.1,0-.2,0-.4l.2-24.6-2.4-28.2c0-.1,0-.3-.2-.4-.1,0-.2-.1-.4-.1-.1,0-.3,0-.4.1-.1,0-.2.2-.2.4l-2.3,28.2v24.8c0,.1,0,.2-.1.3,0,0-.1.2-.2.3,0,0-.2.1-.3.2-.1,0-.2,0-.3,0l.4,4.2h-15.3c0-1,.6-1.9,1.5-2.3l3.9-1.9-.4-30.8,1.4-27.5.5-10.6.6-5.7,1-13.1c0,0,0-.1,0-.2,0,0,0,0-.2,0,0,0-.1,0-.2,0,0,0,0,0,0,.2l-1.2,9.6-1.8,20-2,8.4s0,0,0,0c0,0,0,0,0,0-1.4,0-2.5-1.1-2.4-2.5l.3-5.9-.7-19.3h0Z"/>
  <path d="M718.4,430.4c.8.3,2.2.4,2.5.4,0,0,1.7,0,2.6-.4,1.1-.4,1.7-.8,2.4-1.7.5-.6.9-1.7,1.1-2.2,0-.2.1-.4.2-.6l.8-4.8s0-.7,0-1.1c0-1.1-.1-1.7-.6-2.7-.4-1-.8-1.5-1.6-2.3-.9-.8-1.5-1.1-2.6-1.5-.9-.3-1.4-.4-2.3-.4-1,0-1.4,0-2.3.4-.9.3-1.9.9-2.6,1.5-.7.6-1.2,1.4-1.6,2.3-.4.9-.6,1.7-.6,2.7,0,.4,0,.8,0,1.1l1,4.8c0,.2.1.5.2.7.2.6.6,1.6,1.1,2.2.6.7,1.4,1.4,2.3,1.7Z" style="fill: #fff;"/>
  <path d="M718.8,429.3c.6.2,1.8.3,2.1.3,0,0,1.4,0,2.2-.3.9-.4,1.4-.7,2-1.5.4-.5.7-1.4.9-1.9,0-.2.1-.4.1-.6l.7-4.2s0-.6,0-1c0-.9-.1-1.5-.5-2.3-.4-.9-.7-1.3-1.4-2-.7-.7-1.3-1-2.2-1.3-.7-.3-1.2-.3-2-.3-.8,0-1.1,0-1.9.3-.8.3-1.6.8-2.2,1.3-.6.6-1,1.2-1.4,2-.3.8-.5,1.5-.5,2.3,0,.3,0,.7,0,1l.8,4.1c0,.2.1.5.2.7.2.5.5,1.4.9,1.9.5.6,1.2,1.2,2,1.5Z"/>
  <path d="M677.4,422.6c0,0,0,.2,0,.3v.3c0,.2-.1.3-.2.5,0,.2,0,.3-.1.5l-.7,3.7h0c-.2.6-.5,1.1-.9,1.5-.4.4-.9.7-1.5.8-.2,0-.3,0-.4.1-.1,0-.3,0-.5,0-.6,0-1.2,0-1.7,0-.2,0-.3,0-.5,0-.1,0-.3,0-.4-.1-.8-.2-1.6-.8-2-1.5-.1-.2-.3-.5-.3-.8h0c0,0-.7-3.8-.7-3.8,0-.2,0-.3-.1-.5,0-.2,0-.3-.1-.5v-.3c0,0,0-.2,0-.3,0-.2,0-.4,0-.5,0,0,0-.1,0-.2,0-.1,0-.2,0-.3v-.4c0,0,0,0,.1,0,0,0,0,0,0,0,.2-.7.6-1.3,1.1-1.9.5-.5,1-.9,1.6-1.2.6-.3,1.3-.4,2-.5h.6c.7,0,1.4.2,2,.4.6.3,1.2.7,1.7,1.2.5.5.9,1.2,1.1,1.9,0,0,0,0,0,0,0,0,0,0,0,0v.4c0,.1.1.2.1.3,0,0,0,.1,0,.2,0,.2,0,.4,0,.5Z" style="fill: #fff;"/>
  <path d="M692,535.1l-.2.5h-12.2c0,0-.7,0-.7,0h-.2l-.2-3c0-.4,0-.7,0-1.1,0-.3,0-.6,0-.9v-.6s0-.3,0-.3v-.2s-1.1-11.5-1.1-11.5l-.5-5.8-.3-2.9-.2-2.9c0-.2,0-.5,0-.7v-.7c0,0-.3-1.5-.3-1.5l-.4-2.9-.7-5.8c-.4-3.9-.9-7.8-1.3-11.6v-.5h-2.7v.5c-.4,3.9-.9,7.8-1.3,11.6l-.7,5.8-.4,2.9-.2,1.5v.7c-.1.2-.1.5-.2.7l-.2,2.9-.3,2.9-.5,5.8-1.1,11.5v.2s0,0,0,0v.9c0,.3,0,.6,0,.9,0,.4,0,.7,0,1.1l-.2,3h-13.1c0,0-.1-.4-.1-.4l5.9-2.2h.2c0,0,0-.3,0-.3l1.3-2.7.3-.6h-1.2c.1-4.5.2-9,.3-13.4l.2-6.9v-1.7c0-.6,0-1.2,0-1.7v-3.5c.1,0,.7-13.9.7-13.9,0-2.3.2-4.6.4-6.9,0-1.2.1-2.3.2-3.5l.2-3.4.4-3.5.4-3.5.4-3.5.4-3.5h0c0,0,0-3.1,0-3.1,0-1,0-2,0-3v-3c0,0-.1-3-.1-3v-.6h-1.6v.5c-.1.8-.2,1.6-.3,2.3,0,.8-.2,1.6-.3,2.3l-.5,4.7c0,.2,0,.4,0,.6v.6c0,0-.2,1.2-.2,1.2l-.2,2.3-.2,2.3-.2,2.3c-.3,3.1-.6,6.2-.9,9.3l-.5,4.6-.4,3.3h-.7l-1.9-4.8,1-3.4.2-.6h-1.3v-6.7c0-.1,0-.3,0-.4,0-1.8,0-3.5.1-5.3v-3.2c0-.5.1-1.1.1-1.6,0-.5,0-1,.1-1.6,0-.5.2-1,.3-1.5v-.4c0,0,.2-.4.2-.4,0-.3.1-.5.2-.8l.7-3.2c.5-2.1,1-4.2,1.5-6.3l.4-1.6c0-.1,0-.2,0-.4,0-.1,0-.2.1-.3,0-.2.2-.4.3-.7.2-.4.5-.8.8-1.2.1-.2.3-.4.5-.5,0,0,.2-.2.3-.3h.1c0-.1.2-.3.2-.3h.1c0-.1.1-.2.1-.2,0,0,.2-.1.3-.2.2-.1.4-.3.6-.4.4-.3.9-.5,1.4-.7,1-.4,2-.8,3-1,1.7-.4,3.5-.6,5.3-.6h2.2c1.8,0,3.6.2,5.4.6,1,.3,2,.6,3,1,.5.2.9.5,1.4.7.2.1.4.3.6.4.1,0,.2.1.3.2h.1c0,.1.1.2.1.2h.2c0,.1.1.3.1.3,0,0,.2.2.3.3.2.2.3.4.5.5.3.4.5.8.8,1.2.1.2.2.4.3.7,0,.1,0,.2.1.3,0,.1,0,.2,0,.4l.4,1.6c.5,2.1,1,4.2,1.5,6.3l.7,3.2c0,.3.1.5.2.8v.4c.1,0,.2.4.2.4.1.5.2,1,.3,1.5,0,.5.1,1,.1,1.6,0,.5,0,1.1,0,1.6v3.2c.1,1.8.2,3.5.2,5.3v7.2c0,0-1.3,0-1.3,0l.2.6,1,3.4-1.9,4.8h-.7l-.3-3.3-.5-4.7c-.3-3.1-.6-6.2-.9-9.3l-.2-2.3-.2-2.3-.2-2.3v-1.2c-.1,0-.2-.6-.2-.6,0-.2,0-.4,0-.6l-.5-4.7c0-.8-.2-1.6-.3-2.3,0-.8-.2-1.6-.2-2.3v-.5h-1.7v.6s0,3,0,3v3.1c-.1,1-.2,2-.2,3v3c0,0,0,0,0,0h0c0,0,.4,3.5.4,3.5l.4,3.5.4,3.5.4,3.5.2,3.4c0,1.2.1,2.3.2,3.5.1,2.3.3,4.6.4,6.9l.6,13.9v3.5c.2.6.2,1.2.2,1.7v1.7s.2,6.9.2,6.9c0,4.5.2,8.9.3,13.4h-1.2s.3.6.3.6l1.3,2.7v.2c0,0,.3,0,.3,0l5.9,2.3Z" style="fill: #fff;"/>
  <path d="M678.8,421.8c0-.2,0-.3,0-.5v-.5c0,0,0,0-.1-.1h0c-.3-1.2-.9-2.2-1.8-3.1-.9-.8-2-1.4-3.2-1.7-1.5-.3-3-.2-4.4.5-.9.4-1.7,1-2.3,1.7-.6.7-1,1.6-1.3,2.5h0c0,0,0,.1,0,.2v.5c0,.2,0,.3-.1.5,0,0,0,.1,0,.2,0,.2,0,.5,0,.7,0,.1,0,.2,0,.3v.3c.2.6.3,1.3.5,1.9l.5,2.4v.4c0,0,.1.1.1.1.3,1.1,1.1,2,2.2,2.6.3.2.7.3,1.1.5.2,0,.4,0,.6.1.2,0,.4,0,.6,0,.7,0,1.4,0,2.1,0,.2,0,.4,0,.6,0,.2,0,.4,0,.6-.1.4-.1.8-.3,1.1-.5.7-.4,1.3-.9,1.7-1.6.2-.3.4-.7.5-1h0c0-.1.6-2.9.6-2.9.1-.6.3-1.3.4-1.9v-.3c0-.1.1-.2.1-.3,0-.2,0-.5,0-.7,0,0,0-.1,0-.2ZM671.9,417.5h.6c.7,0,1.4.2,2,.4.6.3,1.2.7,1.7,1.2.5.5.9,1.2,1.1,1.9,0,0,0,0,0,0,0,0,0,0,0,0v.4c0,.1.1.2.1.3,0,0,0,.1,0,.2,0,.2,0,.4,0,.5,0,0,0,.2,0,.3v.3c0,.2-.1.3-.2.5,0,.2,0,.3-.1.5l-.7,3.7h0c-.2.6-.5,1.1-.9,1.5-.4.4-.9.7-1.5.8-.2,0-.3,0-.4.1-.1,0-.3,0-.5,0-.6,0-1.2,0-1.7,0-.2,0-.3,0-.5,0-.1,0-.3,0-.4-.1-.8-.2-1.6-.8-2-1.5-.1-.2-.3-.5-.3-.8h0c0,0-.7-3.8-.7-3.8,0-.2,0-.3-.1-.5,0-.2,0-.3-.1-.5v-.3c0,0,0-.2,0-.3,0-.2,0-.4,0-.5,0,0,0-.1,0-.2,0-.1,0-.2,0-.3v-.4c0,0,0,0,.1,0,0,0,0,0,0,0,.2-.7.6-1.3,1.1-1.9.5-.5,1-.9,1.6-1.2.6-.3,1.3-.4,2-.5h0Z"/>
  <path d="M693.4,534.8v-.4l-.4-.2c-.5-.2-1.1-.4-1.6-.6l-1.6-.6-3.1-1.1-1.3-1.9h.7v-14.2c-.1,0-.2-6.9-.2-6.9v-1.7c0-.6,0-1.2,0-1.7v-3.5c-.1,0-.3-6.9-.3-6.9l-.2-6.9v-1.7c0-.3,0-.6,0-.9v-.9c0,0-.3-3.5-.3-3.5l-.4-6.9h0s-2-13.9-2-13.9l.3-10.4.4,3.1.5,4.6c0,.2,0,.4,0,.6v.6s.1,1.2.1,1.2l.2,2.3c.1,1.6.3,3.1.4,4.7l.7,9.3.4,4.7.4,4.7v.4h3v-.3c0,0,2-6.3,2-6.3h0c0-.1,0-.2,0-.2l-.9-2.9h.8v-4.1c0-3.1,0-6.2,0-9.2v-3.2c0-.5,0-1.1,0-1.6,0-.5,0-1.1,0-1.7,0-.5-.1-1.1-.2-1.6,0-.3-.1-.5-.2-.8,0-.3-.1-.5-.2-.8l-.7-3.2-1.3-6.3-.3-1.6c0-.1,0-.3,0-.4,0-.1,0-.3-.1-.4,0-.3-.2-.5-.3-.8-.2-.5-.5-1-.9-1.5-.2-.2-.4-.5-.6-.7-.1-.1-.2-.2-.3-.3l-.2-.2h-.2c-.4-.5-.9-.9-1.4-1.2-.5-.3-1-.6-1.5-.9-1-.5-2.1-.9-3.3-1.3-2.3-.6-4.6-.9-7-.9-2.4,0-4.7.3-7,.9-1.1.3-2.2.7-3.3,1.3-.5.3-1,.5-1.5.9-.5.3-1,.7-1.4,1.1h-.2c0,.1-.2.3-.2.3-.1.1-.2.2-.3.3-.2.2-.4.4-.6.7-.3.5-.6,1-.9,1.5-.1.3-.2.5-.3.8,0,.1,0,.3-.1.4,0,.1,0,.3,0,.4l-.3,1.6-1.3,6.3-.7,3.2c0,.3-.1.5-.2.8,0,.3-.1.5-.2.8-.1.5-.2,1.1-.2,1.6,0,.6,0,1.1,0,1.7s0,1.1,0,1.6v3.2c0,3.1,0,6.2,0,9.2v4.1h.8l-.9,2.9h0c0,.1,0,.2,0,.2l1.9,6.2v.3h2.6s.5,0,.5,0v-.4s.4-4.7.4-4.7l.4-4.7.7-9.3c.1-1.6.3-3.1.4-4.7l.2-2.3v-1.2c0,0,.1-.6.1-.6,0-.2,0-.4,0-.6l.5-4.6.4-3.1.3,10.4-2,13.8h0s-.4,6.9-.4,6.9l-.2,3.5v.9c0,.3,0,.6,0,.9v1.7c0,0-.3,6.9-.3,6.9l-.2,6.9v3.5c-.1.6-.1,1.2-.1,1.7v1.7s0,6.9,0,6.9v13.9c-.1,0-.1.3-.1.3h.7l-1.3,1.9h.2c0,0-.3.2-.3.2v-.2c.1,0-2.9,1.1-2.9,1.1l-1.6.6c-.5.2-1.1.4-1.6.6l-.4.2v3.1h16.2v-7.8s0,0,0,0h0c0,0,0,0,0,0l2.2-23.3c0-.2,0-.5,0-.7v-.7c0,0,.3-1.4.3-1.4l.4-2.9.8-5.8,1.3-9.9,1.3,9.9.8,5.8.4,2.9.2,1.5v.7c.1.2.1.5.2.7l2.2,23.3h0s0,0,0,0h0s0,3.5,0,3.5v4.2h16.2v-2.7ZM691.8,535.7h-12.2c0,0-.7,0-.7,0h-.2l-.2-3c0-.4,0-.7,0-1.1,0-.3,0-.6,0-.9v-.6s0-.3,0-.3v-.2s-1.1-11.5-1.1-11.5l-.5-5.8-.3-2.9-.2-2.9c0-.2,0-.5,0-.7v-.7c0,0-.3-1.5-.3-1.5l-.4-2.9-.7-5.8c-.4-3.9-.9-7.8-1.3-11.6v-.5h-2.7v.5c-.4,3.9-.9,7.8-1.3,11.6l-.7,5.8-.4,2.9-.2,1.5v.7c-.1.2-.1.5-.2.7l-.2,2.9-.3,2.9-.5,5.8-1.1,11.5v.2s0,.3,0,.3v.6c0,.3,0,.6,0,.9,0,.4,0,.7,0,1.1l-.2,3h-13.1c0,0-.1-.4-.1-.4l5.9-2.2h.2c0,0,0-.3,0-.3l1.3-2.7.3-.6h-1.2c.1-4.5.2-9,.3-13.4l.2-6.9v-1.7c0-.6,0-1.2,0-1.7v-3.5c.1,0,.7-13.9.7-13.9,0-2.3.2-4.6.4-6.9,0-1.2.1-2.3.2-3.5l.2-3.4h0s0-.1,0-.1h0c0,.1.4-3.3.4-3.3l.4-3.5.4-3.5.4-3.5h0c0,0,0-3.1,0-3.1,0-1,0-2,0-3v-3c0,0-.1-3-.1-3v-.6h-1.6v.5c-.1.8-.2,1.6-.3,2.3,0,.8-.2,1.6-.3,2.3l-.5,4.7c0,.2,0,.4,0,.6v.6c0,0-.2,1.2-.2,1.2l-.2,2.3-.2,2.3-.2,2.3c-.3,3.1-.6,6.2-.9,9.3l-.5,4.6-.4,3.3h-.7l-1.9-4.8,1-3.4.2-.6h-1.3v-6.7c0,0,0-.4,0-.4,0-1.8,0-3.6.1-5.3v-3.2c0-.5.1-1.1.1-1.6,0-.5,0-1,.1-1.6s.2-1,.3-1.5v-.4c0,0,.2-.4.2-.4,0-.3.1-.5.2-.8l.7-3.2c.5-2.1,1-4.2,1.5-6.3l.4-1.6c0-.1,0-.2,0-.4,0-.1,0-.2.1-.3,0-.2.2-.4.3-.7.2-.4.5-.8.8-1.2.1-.2.3-.4.5-.5,0,0,.2-.2.3-.3h.1c0-.1.2-.3.2-.3h.1c0-.1.1-.2.1-.2,0,0,.2-.1.3-.2.2-.1.4-.3.6-.4.4-.3.9-.5,1.4-.7,1-.4,2-.8,3-1,1.7-.4,3.5-.6,5.3-.6h2.2c1.8,0,3.6.2,5.4.6,1,.3,2,.6,3,1,.5.2.9.5,1.4.7.2.1.4.3.6.4.1,0,.2.1.3.2h.1c0,.1.1.2.1.2h.2c0,.1.1.3.1.3,0,0,.2.2.3.3.2.2.3.4.5.5.3.4.5.8.8,1.2.1.2.2.4.3.7,0,.1,0,.2.1.3,0,.1,0,.2,0,.4l.4,1.6c.5,2.1,1,4.2,1.5,6.3l.7,3.2c0,.3.1.5.2.8v.4c.1,0,.2.4.2.4.1.5.2,1,.3,1.5,0,.5.1,1,.1,1.6,0,.5,0,1.1,0,1.6v3.2c.1,1.8.2,3.5.2,5.3v7.2c0,0-1.3,0-1.3,0l.2.6,1,3.4-1.9,4.8h-.7l-.3-3.3-.5-4.7c-.3-3.1-.6-6.2-.9-9.3l-.2-2.3-.2-2.3-.2-2.3v-1.2c-.1,0-.2-.6-.2-.6,0-.2,0-.4,0-.6l-.5-4.7c0-.8-.2-1.6-.3-2.3,0-.8-.2-1.6-.2-2.3v-.5h-1.7v.6s0,3,0,3v3.1c-.1,1-.2,2-.2,3v3c0,0,0,0,0,0h0c0,0,.4,3.5.4,3.5l.4,3.5.4,3.5.4,3.5h0c0-.1,0,0,0,0h0s.2,3.4.2,3.4c0,1.2.1,2.3.2,3.5.1,2.3.3,4.6.4,6.9l.6,13.9v3.5c.2.6.2,1.2.2,1.7v1.7s.2,6.9.2,6.9c0,4.5.2,8.9.3,13.4h-1.2s.3.6.3.6l1.3,2.7v.2c0,0,.3,0,.3,0l5.9,2.3-.2.5Z"/>
  <path d="M661.8,460.3h0s0,0,0,0h0Z" style="fill: #fff;"/>
  <path d="M672.2,424.4c-2.2,0-4.4-.5-6.3-1.6l.8-1.2c1.7.9,3.6,1.4,5.6,1.4,2,0,3.9-.5,5.6-1.4l.8,1.2c-1.9,1.1-4.1,1.6-6.3,1.6Z"/>
  <path d="M679.1,417.6c-1.4-.5-2.8-1.2-4.1-2-1-.6-1.9-1.2-2.8-1.9-.9.7-1.8,1.3-2.8,1.9-1.3.8-2.7,1.4-4.1,2l1.3,3h11.2l1.3-3Z" style="fill: #fff;"/>
  <path d="M677.8,421.3h-11.2c-.2,0-.3,0-.4-.1-.1,0-.2-.2-.3-.3l-1.3-3c0,0,0-.2,0-.3,0,0,0-.2,0-.3,0,0,0-.2.2-.2,0,0,.2-.1.3-.2,1.4-.5,2.7-1.2,4-1.9.9-.6,1.8-1.2,2.7-1.8.1-.1.3-.2.5-.2s.4,0,.5.2c.9.7,1.8,1.3,2.7,1.8,1.3.8,2.6,1.4,4,1.9,0,0,.2,0,.3.2,0,0,.1.1.2.2,0,0,0,.2,0,.3,0,0,0,.2,0,.3l-1.3,3c0,.1-.2.2-.3.3-.1,0-.3.1-.4.1ZM667.1,419.9h10.2l.8-1.9c-1.2-.5-2.4-1.1-3.5-1.8-1.1-.6-1.9-1.2-2.4-1.6-.5.4-1.3.9-2.4,1.6-1.1.7-2.3,1.3-3.5,1.8l.8,1.9Z"/>
  <rect x="643" y="575" width="49" height="49" style="fill: none;"/>
</svg>