<svg xmlns="http://www.w3.org/2000/svg" id="Layer_1" viewBox="0 0 752.7 605.1"><defs><clipPath id="clippath"><path d="M660.3 302c32.7 5.7 68.1-22.9 65.8-53.3-.7-9.7-4.6-19-9.6-27.5a98 98 0 0 0-58-45.3c-16.3-4.3-33.4-10.5-51.1 6.4 12.3-11.9 32.4-25.3 33.4-48.4q.5-14-4.3-27.2c-14.7-40.8-49.5-70.9-98.3-71-35.9-.1-78.5-13-113.1-5.8-32.9 6.8-61.9 36.9-55.6 66.7-41.3-22.2-94.6-16.7-141.3-3-24.9 7.3-50.7 18-64.8 38.3s-9.5 52.1 14.5 60.3c-28.3-1.4-57.6.8-83.8 11.5s-49 30.9-56.5 56.1c-10.2 34.2 10 70.3 39.8 91.9s67.5 31.8 104.2 41.5c-29.4 2.5-55.2 27.1-56.5 53.9-1.1 22.3 12.8 42.7 29.5 58.5 38.7 36.4 96.8 55.5 152.8 48s108.3-42.3 131.2-90c-1.8 16.9 9.9 32.8 25.5 41.5s34.5 11.5 52.9 12.6c37.4 2.3 75.4-1.1 112-10.1 27.5-6.8 55.8-17.7 72.7-38.9a88 88 0 0 0 17.9-52.2c2-44.5-20.9-88.6-59.5-114.7Z" class="cls-1"/></clipPath><clipPath id="clippath-1"><path d="M76.5 473.8c-9.1 1.1-18.1 6.2-21.5 14.6s1 19.7 9.9 21.7c-7.7-.6-10.6 11.5-5.2 17s14 5.9 21.8 6c11 0 23.5-.6 30.6-8.8 9.8-11.4 3.3-33.5-4.2-41.7s-22.2-9.8-31.3-8.7Z" class="cls-1"/></clipPath><clipPath id="clippath-2"><path d="M53.4 557.1c-6.9-1.9-25.6.5-26.9 9.6s14.1 12.2 22.5 9.9 12.1-15.6 4.4-19.5" class="cls-1"/></clipPath><style>.cls-1,.cls-2,.cls-3,.cls-4{fill:none}.cls-2{stroke:#c73319;stroke-width:2px}.cls-2,.cls-3,.cls-4{stroke-miterlimit:10}.cls-3{stroke:#4d4d4d}.cls-4{stroke:#333}.cls-8{fill:ivory}</style></defs><g style="clip-path:url(#clippath)"><path d="M33.5 22.6h697.2v535.2H33.5z" class="cls-8"/><path d="M722.3 426.3h.4c5.2.8 5.8.2 5.6-5.2q-.5-10.2-1.2-20.2a3 3 0 0 0-.7-1.9q-1.8-2.4-4.3-4a6 6 0 0 0-6.9.7l-1.7 1.5q-1 .8-1.8-.2-1.4-2.9-4.4-2.8a9 9 0 0 0-6.9 4.1 12 12 0 0 0-2 6.8c-.3 6.3-.9 12.6-.9 18.9q0 2.4 2.1 2.6c2.6.4 5.3 0 7.9.1 4 .3 8 0 12.1.1q1.3 0 2.5-.7M405.5 389.8a70 70 0 0 0-6.5 21.1l-1 8.8q-.4 2.2 1.9 2.5 5.7.6 11.5.8a63 63 0 0 0 10.6-.7c1.6-.3 1.9-.7 1.7-2.5-.7-5.4-1.1-10.8-2.4-16q-1.5-6-4.5-11.4a7 7 0 0 1-.7-4.9c.7-2.8.8-5.6 1.4-8.4q.6-2.8-2.3-2.7h-8.1c-2.8-.1-2.8 0-2.5 2.7q.3 5.3 1.1 10.5M181.6 413.9c2.1-.7 4.3-.2 6.5-.3h5.8c1.4 0 2.1-.4 1.9-2.2l-1.9-15.2q-.2-1.7-1.7-1.5H173q-2.1 0-2.3 2.2l-2.1 14.7c-.3 1.7.2 2 1.5 2h9q1.2-.1 2.3.4M373.3 192.2c1.4 1.5.9 3.5 1.2 5.3q.9 6.3 1.5 12.5.1 1.5 1.9 1.6c2.1 0 4.1-.7 6.3-.5 1.2.1 1.3-.8 1.2-1.7q-.4-12-1-24-.4-6.6-.5-13.2c0-3.5-.4-4.1-3.8-4.1h-15c-3.2 0-3.6.9-3.8 4.1q-.4 10.9-1.2 21.8l-.9 14.9c-.1 1.6.8 2.2 1.9 2.4 2.3.4 4.7.2 7.1.3 1.2 0 1.5-1 1.6-1.8q1.2-7.4 1.7-14.9-.1-.7 0-1.3c2-2.4 1-5.3 1.2-7.9M667.3 178.3c-5.9-.1-10 3-12.7 8.2a15 15 0 0 0 .6 15.3c3.3 5.1 8 8.1 14.1 7q9-1.3 12.1-10.5c3-10-4.8-20.3-14-20M268.5 309.3c-3.2.8-5 3.4-6.2 6.2a17 17 0 0 0-.3 13.4c2 4.7 6.5 9 12.7 9.3a14 14 0 0 0 14.5-12c1.6-9.6-4.4-18.1-13.6-18.4-2.4 0-4.9 0-7.1 1.3M356.4 502.6v4.8q.1 1.4-1.1 2c-3.2 1.4-6.6 0-8.4-3.3l-1-1.6q-1.7-2.1-3.3-.2a15 15 0 0 0-3.5 11.6l.6 4.8q.4 2.2 2.5 2c1.4 0 2.9.4 3.4-1.7.2-1-.3-2.3.8-3.1 1.3 0 2.3 1 3.3 1.8a12 12 0 0 0 8.4 3.1c4-.1 8.1.4 11.9-1.7 2.1-1.2 2.6-3.5.8-5.3a8 8 0 0 0-4.2-2.3c-3.8-.8-6.8-3.1-10.2-4.7M425.9 216.6q-1.6-2.7-4-4.8c-3.2-3.2-6.1-6.8-9.6-9.7q-2.2-2-2.3-5.1-.4-5.3-4.6-8.1c-2.9-1.9-8.3-.9-9.3 1.8-1.4 3.6-1.2 10.8 4.2 11.9 6.4 1.3 9.3 6.7 13.7 10.4 2.1 1.8 3.8 4.2 5.9 6.1q4.7 4.1 6-2.2M377.6 414.6q3.3 0 6.5-.6 1.8-.3 1.7-2.2v-2.9c.3-3.3-1.4-5.3-4-6.8-3.4-2-6.8-3.7-10.8-3.5q-1.7-.1-1.7 1.8.2 3.1-2.7 2.9-3.3.1-3.3-2.9 0-.8-.2-1.6-4-.6-7.4 1l-5.6 2.4c-2.4 1-3.1 2.1-3.1 4.8v2.2c-.2 3.8.7 5.3 5.6 5.4q.8.2 1.7 0M413.4 460.6c1-.8 2.3-.2 3.3-.6.4-.2 1.1 0 1.2-.5q.8-3.1 0-5.9c-.6-1.5-1.8-2.7-3.7-2.7h-10.6l-2.9-.2c-2.2-.3-2.9-1.3-3.4-3.7-.4-2.2 0-4.4-.2-6.6q.2-1.4-.6-2.9c-.9-1.5-2.8-2.1-4-1.1a7 7 0 0 0-2.5 5.5v12.3c0 5.1 1.3 5.7 6 5.8 5.7 0 11.4-.4 17.1.4M130.6 220.5c3.6 4.3 2.8 9.3 1.9 14.3l-.6 3.7c-.6 3.4 1 5.8 3.1 8.2s4.4 4.7 5.2 8.1c1.2 4.6 1.7 9.4 2.4 14.1.3 1.8-.9 3.1-2.7 3.3q-2.8.4-3.5-2.6-1.1-4.8-2.1-9.7-1.3-5-5.6-7.5M419.3 157c2.1 0 4.2-.6 6.2-.9q2-.4 1.4-2.4a63 63 0 0 0-3.6-11.4 12 12 0 0 0-8-6.4c-6.6-1.7-13.1-2-19 2.8-2.8 2.3-3.9 5.6-5.2 8.8a35 35 0 0 0-1.7 5.5c-.4 2.3-.7 2.5 1.6 3.1q2.7.9 5.6.9M292.9 372.6c3-.6 6 0 9.2-.4 0-2.6-.9-4.9-1.2-7.3q-.8-4.3-1.7-8.6c-.4-2.3-1.2-2.9-3.3-2.9h-10.6c-3.5 0-3.7.4-4.4 4-.9 4.2-1.4 8.6-2.5 12.8-.5 1.8-.2 2.2 1.6 2.2h10.8q1-.2 1.9.2M317.2 512.5c2.3.2 4.5-.5 6.7-1.1 1.2-.4 2-1.1 1.5-2.8-1-3.4-1.7-6.9-3.1-10.1a10 10 0 0 0-6.9-6q-1.2-.1-2.1.5c-1.2.4-2.6.7-3.1-1.1-1.6-6-9.6-7.2-14.6-2.6a13 13 0 0 0-4 8.8q-.6 5.4-.8 10.8c0 1.6 0 2.6 1.9 2.9q2.2.6 4.6.8M694.2 297.2c0 .4 0 1.1.4 1.1 1.7-.3 3.2.7 4.8.7q2.4 0 3.5-2 .7-1.4-.1-2.9-.7-1.6-1.9-1.5c-3.9 0-6.9-2.4-10-4.5q-2.1-1.4-4-3.2c-3.3-3.5-11.5-2-14 1.3-1.9 2.6-1.9 5.4-1.3 8.6 1.6 8 5 15.4 7.6 23.1q1.3 3.5 4.3 1.1.4-.4.8-.4M234.5 310c-7.7-5.4-18.7-1.1-21.2 8.4-2.2 8.4 1.5 17.3 10 19.5s16.8-4.1 18.2-12.2c1.2-7-2.3-11.4-6.5-15.6M646.9 291.7c-2.1.4-4.4 0-6.5.9-5.3 1.9-7.7 6.3-6.9 12.1q0 1.4 1.5 1.3h23.5q1 0 1.5-.9c1.1-3-.5-8.5-3.1-10.5-2.1-1.7-4.5-3-7.3-2.7q-1.1.1-2.3-.2M529.2 540.4c2.4-.5 4.9-.1 7.3-.2q1.3.2 2.7-.4-.7-7.2-2.1-14.5c-.3-1.3-.9-1.5-1.9-1.5h-12.9c-.9 0-1.5.1-1.7 1.3q-1.2 6.6-2 13.4c-.2 1.2.7 1.8 1.8 1.8h6.5q1-.1 2.1.3M351.2 553.1c.6 2.4-.2 4.7-.5 7s-.2 2.6 1.9 2.6h12.7q2.3.2 2.1-2.2-.8-10.7-1-21.3-.2-2.3-2.3-2.6c-3.3-.6-6.5 0-9.8 0-1.5 0-2.9 3.3-2.7 5q.7 5.6-.3 11.2M334.3 155.2c.6 1 .4 1.9.3 3.1-.6 4-1 8.1 0 12.1q.7 2.6 2.5 4.6c2.8 3.2 3.4 7 3.7 11 .2 2.6.1 5.3.6 7.9q.5 1.7-.4 3c-.9 1.1-2.1 2.1-3.5 1.7q-2-.6-2.4-3.2c-.6-3.7-.6-7.5-1.1-11.2a7 7 0 0 0-1.7-4.2c-1.6-1.5-2.3-4-4.6-4.9M337 472.7c-.2 4.3.3 8.5.2 12.8q0 2.3 2.1 2.2l12.3.2q9.7.2 19.4.2c3.3 0 3.3-.1 3.3-3.5V473c2.5-4.7.8-9.8 1-14.7 0-1.4-.9-1.3-1.9-1.3-5.9 0-11.8.3-17.7.1s-11.7.4-17.5-.5q-2.4-.3-2.3 2.2v11.9q-.1 1.9 1.9 2c5 1 10.1.8 15.2 1.3M596.1 201.6q.5-2 .2-4c0-1.2-1-1.5-2-1.8-2.8-1-5.7-.3-8.6-.8q-.5 0-1.4-.4-.1-4.8-1.3-9.7c-1.3-4.8-3.1-6.2-7.5-6.8-3.9-.5-7.1 1.5-8.6 5.7a42 42 0 0 0-2.5 17.6c.2 2.1-.3 4.2 0 6.4 1.7.5 3.4.2 5 .2h24.8q1.7-.1 1.8-1.6c0-1.5.6-3.1 0-4.6M361.2 251.1q-.8.1-1.5.5c-3.3 1-3.3 1-3.3 4.6v8.1q0 1.9 1.7 2 2.5.2 5 .3h26.7q6.1.1 10.8-3.8c3.1-2.7 6.1-6 9.5-7.9 4.2-2.4 3.8-5.7 3.6-9.2-.2-2.7.3-5.5-.5-8.1-1.4-5-3.3-9.5-8.1-11.9a8 8 0 0 0-3.7-.9h-27.3q-2.3-.2-2.1 2.2c.2 2.4-.2 4.8.2 7.3M426.8 189.5q-.6 3.8-.9 7.7c-.2 5.5 2.9 7.3 7.7 7.6q5 .2 10 0 2.6 0 2.7-2.4c0-6.4 1-12.9-.2-19.3-.8-4.4-1.7-6.4-7.3-5.2-1.9.4-3.6.1-5.4 0-4-.1-7.1 1.7-10 4.2a12 12 0 0 0-2.1 2.4c-.9 1.2-2.6 2.3-2.2 4 .6 2.5 3.3 4 6 4h.6M183.3 162.7c1.9 1.4 1.6 3.8 2.1 5.7.2.8-.6 1.3-1 2-2.2 3.5-5 6.6-6 10.8-.8 3.2-.9 6.6-1.7 9.9l-.8 3.7c-.4 2 .8 4 2.5 4.4 1.5.4 3.6-1.3 3.9-3.3q.7-5.6 2.5-10.8a15 15 0 0 1 5.8-8.1M536.7 89.7c-.6 1 .4 1.9.2 2.9 0 .5.2.9-.2 1.6-1.6 2.5-1 5.3 0 7.9s3.2 4.6 3.7 7.5q1.4 6 2.3 12.3l.6 4c.4 2.3-.5 4.1-2.1 4.4q-3.1.6-4.2-3.1-.9-3.5-1-7c-.3-4-1.2-7.7-3.8-10.8l-.6-.7-.7-.2q-.7 1-.9 2-1.7 7.2-6.5 12.5c-1.5 1.8-2.1 4.1-3.5 6q-1.4 1.8-2.9.8c-1.1-.7-2.1-1.6-1.7-3.5q1.1-4.5 3.6-8.1c2.7-4.1 3.9-8.8 4.6-13.7q.5-2.3.8-4.6a42 42 0 0 1 3-12.7M154.2 230.6c1.5 1.3.8 3.1.8 4.6 0 8.4-1.9 16.5-3.9 24.6q-.1.9-.2 1.8c-.5 2.7-.2 3.7 1.7 4.2q3.4 1.2 4.3-2.4 2.3-8.3 4.4-16.5.1-1.4 1.3-2.2M122.7 400.1c-.7 7.6-.3 15.2-.4 22.9q0 1.9 1.9 2 8.1 1 16.2.5 2.6 0 5.2-.4 1.3-.1 1.3-1.6v-22c0-.6-.4-1.1-.2-1.8M281.5 158.3q.5.6.5 1.1c-.9 2.1-.5 4.3-.9 6.4-.5 2.6.8 4.3 2 6.2q1 1.3 2.1 2.4c3.9 4 4.5 9.3 5.4 14.5l.8 5.7c.2 1.2.3 2.6-.7 3.8q-1.5 1.7-3.4 1.2-1.9-.7-2.1-2.9l-2-11.3a8 8 0 0 0-1.6-3.5c-1.3-1.7-2.4-3.7-4.1-5.1-.8-.6-.7-1.7-.6-2.6" class="cls-4"/><path d="M169.8 225.1c-.5 1.1.2 2.1.5 3.1.9 2.7.1 5.3.2 7.9q.5 12 3.6 23.5.5 1.5.6 3.1.2 3.3-2.5 4.2c-1.4.4-2.9-.7-3.5-2.6-1.2-3.8-2-7.9-3.4-11.6-1-2.7-1.2-5.7-2.8-8.2-.6-.9 0-2.6.1-3.9M312.4 424.3c-1.9-.9-3.9 0-5.8 0-4.1 0-8.1.2-12.1-1.1q-.6 0-.8-.3c-2.8-2.5-5.2-.9-7.5.9q-1.5.9-2.2 2.6c.2 3.6 3.1 3.9 5.6 4.4 3 .6 6.1 1.2 9.1.9 3.5-.3 7.1-.4 9.8-3.5 1.2-1.4 3.2-1.9 4.2-3.7.6-1.1 2.1-.6 3.1-1.1l2.3-.9q2.1-.9 1.5-3.3-1.3-5.5-2.9-11c-1.1-3.7-3.5-5-6.9-5-2.8 0-5.6-.2-8.3.2-3.5.6-6.4 3.2-7.7 8.6q-1.1 4.7-1.9 9.4M662.3 343.2q6.5-2.3 6.9-9.7a41 41 0 0 0-.5-8.6c-.4-2-.7-2.5-2.9-2.7-2.7-.3-5.4.3-8.1 0q-1.6 0-1.9 1.5c-.6 4.3-1.4 8.5-.6 12.9.7 3.5 2.3 6 6 6.4q.5 0 .8.4M622.8 457.7c.8-3.8.6-7.6.6-11.4q-.1-1.4-1.6-1.3h-29.2q-1.3 0-1.4 1.1v9.7q0 .4.6.9M226.2 154.6c-2.3 3.8-3.5 8-4.4 12.3q-.1.7 0 1.3c1 1.6.5 3.2.4 4.9q-.3 3.1-.4 6.4c0 3.5-2.4 6-4 8.8q-1.6 3-2.8 6.2-.9 2.8 1.4 4.2c1.1.6 2.9.2 3.7-1.1 2.4-4.2 5.5-7.9 7.1-12.5q1.2-3.6 1.6-7.3c.2-1.1.2-2.3 1.1-3.1M403 500.8c.2-3.3.5-6.6-1.7-9.4-1.8-2.3-4.3-2.8-6.7-1.5q-1 .7-1.3 2c-1.3 3-3.3 4.8-6.6 4.6q-1.4 0-2.9.3c-2.4.2-3.7 2.5-3.1 5.4q.7 4 .6 7.9 0 1.4.6 2.5 4.8-.3 4.8-3.4M371.6 295.5q-.4 3.3-1 6.4c-.4 2.2 0 4.5-.2 6.8-.4 3.1-.2 6.3-.6 9.5-.3 2.2.1 2.7 2.3 2.8 5.8.4 11.5 1 17.3.5 1.1-.1 2.1-.2 2.1-1.8q0-11.7-.6-23.3M671.3 271.5c-4.1-.6-6.1-3.6-7.1-7.5l-2.3-7.5c-1.3-3.9-3.2-5.3-7.1-5.5-4.6-.2-4.6-.2-4.6-5.1 0-1.5-.5-3.2.5-4.6q.5-.1.7.2c7.4 1.4 7.3 1.4 12.5-4.6l5.2-6.2q2.2-2.6 0-4.6c-1.2-1.2-2.9-.9-4.1.9q-1.8 2.4-3.8 4.8c-2.8 3.8-5.1 4.4-9.1 2.2-2.4-1.4-5.3-1.8-7.5-3.4h-.4c-3.2.5-6.5.4-9.2 2.9a6 6 0 0 0-1.7 2.9 31 31 0 0 0-.8 14.9c.9 3.9 3.2 7.2 6.9 8.4 2.5.9 5.4.8 8.1.6h2.1c4-.8 5.5 1.7 6.7 5.1q.7 2 1.2 4 .4 2.7 3 2.4 3.7 0 7.3-.9M133.1 351.3c-.2-4.6-.2-9.3-.8-13.8q-.6-4.4-4.8-4.6-2.7-.2-5.4.2-4.4 1-4.7 5.9-.2 5.4-.5 10.8-.3 2.3 1.9 2.2h12.5c.9 0 1.8-.6 2.7-.2M603.8 314c-.8 5.3-.2 10.7-.4 15.9 1.1 1.1 2.3.3 3.4.3 5.2.2 10.4-.3 15.6.2q1.8.1 1.7-1.8c-.5-4.8 0-9.7-.2-14.5M460.9 439.3c.3 4 1.1 8.1 1 12.1l-.4 8.8q-.1 1-1.4 1.1c-6.5 0-12.9.5-19.4 0q-1.9 0-1.9-2-.1-1.9.2-3.7.5-1.7-.8-3.1M591.1 361.9q.7.4 1 1c.5 2.7 2.4 2.5 4.2 2.5l5.2-.3q2-.2 2.5-2.1c1.3-3.7 2.6-7.5 3.1-11.4.5-3.6-.3-6.3-4.7-7.2q-4.2-1-8.5.2a7 7 0 0 0-4.6 8.8c.7 2.8 1.8 5.5 2.1 8.5" class="cls-4"/><path d="M171.2 231.5c1.4.6 1.7 2.1 2.2 3.3q.8 1.8 1.9 3.5.8 1.3 2.3.7 1.7-.6 1.7-2.4-.2-2.3-1.1-4.4-2.5-7.3-5.8-14.3-1.4-3-4.4-4.2c-8.7-3-15.2.5-18.3 9.9a48 48 0 0 0-2.5 13c0 1.6.4 2.6 2.1 2.7 1.5 0 2.8-.3 2.7-2.2-.1-3.5 1.8-6.5 2.2-9.9q.4-2.3.5-4.6M458.6 385.6v16.5c0 4.7 0 4.6-4.6 4.9q-7 .3-13.7 0c-1.6 0-1.9-.7-1.9-2.2q.1-9.6.7-19.1M450.1 335.7c-4.5.4-7.9-2.7-11.7-4.4a16 16 0 0 0-7.5-1.6q-5.8.1-11.7 0c-1.2 0-2.7-.4-2.7 1.7 0 1.8.5 2.4 2.5 2.6 1.3.1 2.7.2 3.9 1.1q.6.5 1.6.3 2.4-.4 5-.3M397.6 149.1c0 2.6-.5 5.2-.4 7.7q.1 6.8.2 13.6 0 1.6 1.5 1.8l2.1.2h14.6l1.7-.1c1.7-.1 2.1-1 2.1-2.7.1-6.2-.6-12.5-.4-18.7q-.2-.7-.2-1.3M541.1 396.2c-1.4-3-1.2-6.3-1.9-9.5-.4-2.1-.6-4.2-2-6-1.8-2.3-5.5-2-6.9 0a13 13 0 0 0-2.2 7.9c.2 3.8.8 7.6.8 11.4q0 2.1.5 4.2c.5 3 1.7 3.7 5.1 4.2q11.3 1.6 22.5 1.3M684.2 430c-2.2 1.3-4.7 1.2-7.1 1.3q-4.4.2-8.7 0c-2.4-.1-4 .2-4.7 3.8-.8 3.9-.4 7.6 2.4 10.8q1.7 1.6 3.6 1c1.2-.3 1.1-1.7 1.2-2.8l.1-3.1c2.1-.5 4.2 0 6.3-.5q.8 2.3.6 4.5 0 2.2 1.9 2.2 2.5.2 5.2-.2v-10.3c.1-3.5-.7-6.9-.1-10.3M135.2 506.7c0-4.7-1.5-9.1-2.7-13.6q-.4-1.8-2.1-1.6-4.3 0-8.7 0-2.4-.1-2.9 2.2c-1.2 4.2-2.9 8.3-3.5 12.8 0 .4.6.5.8.5 6.2 0 12.4.4 18.5-.2l.4-.1M613.8 506.5c3.4 0 6.8.7 10.2.5 1.1 0 2.5.4 2.7 2.1.2 1.5-.8 2.2-1.9 2.9-2.9 1.7-6.2 2-9.4 2.2q-6.6.4-12.9-1.7a27 27 0 0 0-11.2-1.5M120.2 244.8c1.1 0 1.1.9 1 1.6q0 4.8-1.1 9.7-.7 2-2 3.8c-1.8 2.4-3.8 4.7-4.6 7.9q-.7 2.4 1.7 4c1.3.9 2.4.4 3.3-.7 1.7-2 2.8-4.5 4.6-6.6 2.8-3.3 4.2-7.4 5.5-11.6.3-1.1-.3-2-.2-3.1M268.9 173.3q1 6-2.3 11-3.1 4.3-5.6 9a3.6 3.6 0 0 0 2.9 5.1q.9 0 1.5-.7c4.2-5.8 9-11.3 10.8-18.7q.1-1.2.9-2M137.5 459.5c.5-4.2 0-8.4-.6-12.5-.4-2.6-.7-3-3.3-3.3q-6.4-.8-12.9 0c-2.5.3-3.3 1.2-3.3 3.9 0 3.8-.4 7.6-.4 11.4M716.7 307.1q.3 1.7-1 2.9a20 20 0 0 0-3.9 6.4c-1.1 3 .4 5.2 3.5 5q4.3-.3 7.2-3.6c2.7-3 4.9-6.4 5.6-10.5.9-5.2.7-10.3-3.1-14.5a7 7 0 0 1-1.9-4.4c-.1-2.6-1-3.2-3.5-2.9-1 .1-1.9-.4-2.9-.2M478 481.2c.8-1.4 2.2-1.5 3.5-1.5h3.1c1.1 0 2.3-.3 2.5-1.7.1-1.3.3-2.7-1.4-3.6a13 13 0 0 0-9.8-.6q-3.3 1-6.4 2.5a10 10 0 0 0-5.3 4.7c-1.6 3.4-4.6 5-8 5.8M273.1 557.3q-3.4-.2-6.7-1.5-1.5-.6-1.2-2c1.3-5.3 2.5-10.7 5.4-15.4 1.7-2.7 4.3-3.4 6.9-4.1.7-.2 1.6.4 2.3 1q3 2.4 6.6 1.6 1.7-.5 2.9-1.6 1.2-.8 2.7-.3 2.6.8 4.7 2.1c2.5 1.5 3.6 4.2 4.4 7q1.2 4.7 2.5 9.5.6 2-1.6 2.7-3.1 1.2-6.5 1.1M624.6 283.2c-.6-2.9.7-5.5 1.3-8.1.7-3 1.2-6 .3-9-2-6.9-6.1-10.1-13.3-10.9q-6.6-.6-12.1 3.5M391.6 305.6q3-.4 5.6-1.6c1.8-.7 2.2-1.5 1.4-3.3-2.6-5.8-5.3-11.7-11.4-14.2a16 16 0 0 0-17.3 3.4c-2.7 2.6-4 6-6 9.1q-.9 1.8 1.4 2.4 2.4.4 4.8 1.1M386.2 343.2q4-1.9 4.4 2.9 1 10.8 0 21.5-.3 3.6-1.9 7a21 21 0 0 0-1.4 12.8M452.4 351a20 20 0 0 0-11.5 2.3 31 31 0 0 1-15 3.3c-3.5-.1-7.1.2-10.6-.2q-4-.4-4.4-4.4M571.1 456.8c1.5 2.7.5 3.4-2.5 5.2a25 25 0 0 1-16.2 3.5q-4.3-.5-8.5-1.3-6.3-1.2-12.1 1.1M237.9 157.9q3.7 5.1 10 5.4 2.6-.2 5.2.7c.9.4 2.2 0 2.4-1.3q.6-2.1-1.5-3.1-3.3-1.2-6.8-2.2a9 9 0 0 1-5.8-6.5q-1.9-5.8-7.2-7-3.6-.5-7.1 1.6a30 30 0 0 0-8.7 7.5c-1.3 1.7-1.3 4-1.7 6.1s-.3 4.3-.9 6.4q-.3 1.7.5 3c.8 1.9 2.6 2.1 4.3.7.3-.3.5-.8 1-.7M486.3 378.1c-3.1-.4-3.9 1.2-3.5 3.7q1.7 9.5 3.3 19.1.9 5 4.8 8.3a7 7 0 0 1 2.5 6.4c-.1 1.4.4 2.8.2 4.2M180.2 312.6c-2.6-1.6-3.4-4.3-3.9-7a248 248 0 0 0-3.8-19.1q-.3-1.4-.9-2.6c-.4-.9-.8-1.7-1.9-1.5s-1.2 1-1.5 2q-1 3.8-.2 7.5.3 1.4 0 2.6M508 417.7q-.5-2.3-.6-4.6c-.2-2.1-.2-4.3 1-6.1 2.8-4.1 3.4-8.9 4.1-13.6l.8-6.4q.5-2-1.4-3.1c-1.3-.6-2 .2-2.7.9-1 .9-1.3 2.2-1.8 3.5-1 2.4-1.3 5.3-4.4 6.6-2.6 1.1-3.7 4-4 7.1M543.6 489.6a21 21 0 0 0-3.9 12.1c.1 3.6 3.8 6.8 7.7 7q3.3.3 5.8-2c3.2-2.9 2.6-6.5 1.4-9.9q-2.7-7.1-6.2-14.1c-.3-.7-.6-1.4-1.8-1.6a19 19 0 0 0-3 8.2M297.7 503v8.6c0 3.6-.5 7.2-.4 10.8 0 1.4.3 1.9 1.7 2 3.5.2 7 .6 10.4.3 2.2-.2 4.3.1 6.5-.3 1-.2 1.5-.4 1.5-1.6q-.2-9.7-.8-19.3M440.9 248q.1-6.6-.8-13.2c-.4-2.7-1.3-5.1-4-6.1-1.9-.7-5 1.2-6.4 3.7q-.8 1.3-.9 3.1c0 4.8-.3 9.6 0 14.3.6 7 .1 14.1.3 21.1" class="cls-4"/><path d="M237.7 156.1q.6 1.1 0 2c-1.7 2.3-1.7 5.1-2.5 7.7q-.5 1.8.7 3.1c1.7 2.1 2.9 4.5 4.6 6.6 2.5 3.2 2.8 6.9 3.1 10.8l.5 8.8q.2 3.3-2.6 4-3 .6-3.5-2.6-.8-4.2-1-8.6c-.2-3-.6-5.8-2.6-8.1-1.4-1.6-2.4-3.8-4.2-5-1-.7 0-1.8-.8-2.3M194 155.2c.7 2.3.7 4.8 1.5 7.2 2 5.3 2.4 11.1 4 16.6q1.5 5.3 4.4 9.9l2.5 4.4q1.7 3-.6 4.6c-1.1.8-3.6.2-4.6-1.3q-1.9-3.1-4-5.9-4.5-5.3-5.8-12.3c-.1-.8-1-1.4-.8-2.4M431.2 492.7c-.7 0-1.1.5-1.7.7-2.3.6-2.4.8-1.9 3 .5 2 .5 4.1 1 6.2q.7 3.6 4 3.9t6.4-.2q1.8-.2 2.3-2.3.5-2.6.8-5.2l.8-5.2c-1.5-1-3.2-.4-4.8-.7-2.3-.3-4.6.1-6.9-.3M260.8 436c1.2-1.6 1-3.8 2-5.6a9 9 0 0 1 2.2-3.2 14 14 0 0 0 4.6-6.8c1.2-4 3.4-7.5 5.2-11.2l1.1-2.8c.5-1.2-.3-1.7-.9-2.2q-1-.7-2.1.2-.8.8-1.3 2c-1.1 2.2-2.6 4.1-3.1 6.6M569.9 158.7c.2 2.7-.4 4.2-4.6 4.3-6.3.2-12.7.7-19-1-2.8-.8-5.3-2.2-8.1-2.9a13 13 0 0 0-6.5-.2" class="cls-4"/><path d="M182.1 154.3q0 2.4.6 4.6 1 3.2-.8 6.1-2.2 3.7-5 7.1c-.9.9-1.8 1.5-2.9.8q-1.9-1.3-.9-3.5c.7-1.5 1.1-3.2 2.1-4.3 2.4-2.7 2.5-6 2.7-9.3 0-2.2.1-4.4 1.3-6.4 2.8-4.7 6.2-6.3 11-4.2 5.1 2.2 8.7 6.4 12.5 10.4q3.1 3.3 5.2 7.5.8 1.2.2 2.6c-.6 1.3-1.9 1.8-2.9.9a30 30 0 0 1-4.4-5.5q-2.2-2.9-5.2-4.8-.3 0-.8 0M376.4 371.5q-1.2-4-4.6-6.2-1-.6-1.5-1.9-1.4-4.5-4.5-7.9-.4-.5-1-.7c-2.4-.7-3.9.5-3.1 3.1 1.6 5.1 2.7 10.3 4.2 15.4a8 8 0 0 0 2.7 4.2q4.6 3.9 3.7 9.9M462.8 453.5q1 1.2 1.3 2.9.8 2.8 3.3 1.8c3.9-1.3 4.4-2 3.5-5.9l-3.7-17.8c-.9-4.4-3.5-6.8-7-8.8-4.5-2.5-9.2-2.7-14.1-2.5-1.7 0-3 1.4-4.6 2q-1.7 1-3.5 2c-2.9 1.4-4.2 4.2-4.8 7.2l-3.8 20.4q-.4 1.8 1.4 2.7 2.1.8 4.2 1.3M377.2 411.6v22.6c0 1.5-.1 2.3-1.9 2.5q-9.4.8-19 .1c-1 0-1.9-.6-1.9-2.2q0-11.5-.2-23.1c0-.3.5-.6 0-.9M343.3 396.6c.2-1.7-.5-3.3-.7-5.1-.3-3.8 1.2-7.2 1.8-10.8q1.4-8.2 2.4-16.5c.1-1.2 0-2.2-1.3-2.6-1-.3-1.6.4-2.3 1.1-1.1 1.1-1.1 3-2.7 3.7M493.2 500.8q-.1 3.5-3.1 3.9c-6.1.5-12.2 1.1-18.3-.2q-2.3-.4-4.4-1.6c-3.8-2.2-7.9-1.7-11.9-1.7M333.7 253.3l-1-2.9q-2.1-4.4-.3-9 1.5-4 1.3-8.6l.2-7.7q.1-2-1.5-2.8c-1.1-.4-2.2.5-2.6 1.3q-1 1.4-1.4 3.2a13 13 0 0 1-3.5 7.1c-1.7 1.8-1.7 4.2-1.7 6.6 0 .6.7.4 1 .7M675.9 409.4q.2 4-3.1 3.9c-6.4-.2-12.8.9-19.2-.8q-1.7-.4-3.1-1.2c-3.7-2.2-7.7-2.1-11.7-1.7M133.7 321.9q.3-1.6.2-3.3-.2-4.1 2.5-7.3c1.8-2 3.1-4.6 4.3-7l4.9-9.4q.5-1.1.4-2.2-.2-3-2.9-1.8-2.1 1.1-3.3 3.1-1 2-3 2.8M600.7 161.4q.2-3.1-2.3-4.6c-2.3-1.3-3.2-3.6-3.9-6q-.4-2.2-1.7-4-1.2-1.2-2.5-.8-1.3.5-1.5 2.3c-.6 4.7.6 9.1 1.5 13.6q.2 1.4 1 2.7a10 10 0 0 1 1.5 9q-.2 1.5 0 3.1M406.2 246.7c-1.3-1.9-1.8-4.1-2.6-6.2-1.7-4.4-5.2-6-9.1-7q-4.7-1-9.6-.4c-4.2.4-8.4.5-12.5 1.3-4.4.8-9.4 6.1-10.2 10.8-.5 2.8-.9 5.5-.4 8.4q.1 1.8 1.7 2c9.8 1.1 19.7 1 29.6.7 1.7 0 3-1.3 4.3-1.9q4-1.8 7.6-4.4 1.5-1 1.1-2.9M533.2 75.4c-.3-1.1-1.3-1.6-1.9-2.4a7 7 0 0 1-.6-6.6q1.4-3.3 4.9-3.1t4.8 4.2c.7 2.3 0 5.1-1.7 6.4a10 10 0 0 1-4.8 1.9q-4 .3-7.1 2.9c-4.1 3.3-5.7 8.2-7.7 12.8q-1.5 3.6-2.5 7.3-.7 3.3 1.2 4.2c1 .4 2.5-.6 3.3-2.4.6-1.2.8-2.6 1.7-3.7q.5-.8 1.4-1.1M167.3 371.5c.1-2.3-.8-4.5-.7-6.8q0-2.9 1.2-5.2 3-6.6 2.1-13.9c-.5-3.3-.5-6.7-1-10.1-.3-2.6-1.7-4.1-4.1-2.4M402.8 510.9c-.2 1.6 1.2 2 2.1 2.6 3.9 2.4 7 .5 7.3-4.4q.6-6 1-11.9c0-1.4 0-2.7-1.7-3.1-1.9-.5-2.8.2-3.6 2s-.5 4.1-1.6 6M606.1 419q2.1-.4 4.2-.2 2 .2 1.9-2-.4-7-1.1-14.1a75 75 0 0 0-1.4-9.5q-.4-2.4-2.3-3.7c-4.3-2.8-4.9-3.9-10-.9q-1.1.8-2.3 0c-3.7-3-6.1-1.2-9.8 1.4a5 5 0 0 0-2 3.7c-.4 6-.3 12.1-1.4 18q-.3 2.6-.9 5-.5 1.9 1.3 2 2.4.3 4.8.2M262.5 275.5c.5.7-.2 1.6.4 2-1.3 1.6-3 1.8-4.8 1.7q-4.5 0-9-.2-3.6-.5-6.9-2.2a27 27 0 0 0-15-3.7M472 174.6q.2-.9-.2-1.5c-1.9-2.5-2.1-5.5-1.8-8.4a56 56 0 0 0-3.6-24c-1.1-3.2-1.9-3.6-4.4-2.6M451.1 374.6c1.6 1.3 3.5.7 5.2.8q5.1.5 10.2.5 2.5 0 2.7 2.4.3 3.2.2 6.4c0 2.5-1.8 3.4-3.7 4q-3.3.9-6.9.9" class="cls-4"/><path d="m445.9 375.7 2.3-.5q2 .2 3.1-1.7c.4-.9 1.4-.9 2.1-1.3q1.5-.8 1.2-2.4c-.2-1.2-1.2-1.2-2.1-1.1-2.4.2-4.8-.6-7.1.5q-6.3 2.8-11.2 7.8c-2.8 2.8-3.2 7-2.6 11.1q.4 1.8 2.2 2.5 2 .9 4.4 1.3M636.3 385.2c-.2-3.1.6-6.1 2.8-8.1 4-3.6 5.9-8.1 6.9-13.3q.7-3.5 2.2-6.6c.4-.8.8-2-.3-2.8q-1.4-.9-2.7.2c-2 1.4-2.6 3.9-4.1 5.8q-.6 1-1.3 1.4c-3.8 1.4-5 4.9-6.2 8.4M682.9 337.7c0 4-1.4 7.7-3 11.2a37 37 0 0 0-2.8 10.2q-1 6.6-.7 13.4c.1 2.2.3 3.9 2.4 4.8M292.7 465.2c.6 2.8-1.7 4.7-4.8 4.8a51 51 0 0 0-12.9 2c-2.4.6-4.8.1-7.1-.3a12 12 0 0 0-9.8 2.7M556.5 142c.4-1.7 2-1.6 3.1-2.2 1.7-.8 2.2-2.5 1.3-4.2-.7-1.3-1.5-1.3-2.5-.8-5.6 2.4-11.4 4.3-16.9 7.2-2.7 1.4-5.5 3.1-8.7 2.8M121.7 295.9q-1 0-1.5-.9-1.2-1.7-2.7-3.1c-.8-.9-1.8-1.5-2.9-.8q-1.7 1.2-1.2 3.3.1 1.4.6 2.6c1.8 4.7 3.5 9.5 7.3 13 3 2.7 2.3 6.4 2.2 9.9l-.1 1.5M567.1 273.9c0-3.9.6-7.2 4.3-9.3 2.2-1.3 3.4-3.8 4.4-6.3q1.6-4.4 4.4-8.2c1.3-1.7 1.1-3.4-.4-4.3-1.3-.8-2.5.2-3.5.7a8 8 0 0 0-3 3.2c-1 1.8-2.2 3.2-4.6 3.4-3.3.3-4.8 3.2-6 6.1M208.5 277.9c.8 2.7.7 5.6.8 8.4 0 3.6.5 7.2.5 10.8q.2 1.7-1.5 1.8c-5.8.4-11.7.1-17.5.2q-1.5.1-1.7-1.7c0-4.8.6-9.6.6-14.5q0-2.8.7-5.7M244.5 358.8c-1-.8-.7-2.1-1-3.1v-1.1c-.4-.9-.7-2-1.9-2.2-1.3-.2-1.8 1.1-2 2-1.6 5.2-3 10.6-1.2 16q1.8 6-.7 11.4c-.2.4 0 .9-.4 1.1M695 336.8q0 3.3-.7 6.4-.7 3.9 1.1 7.3a81 81 0 0 1 5.7 15.8q.3 2-1.1 3.1c-.9.7-1.5 0-2.3-.6-2.2-1.8-3.9-3.9-3.9-7.1M306.4 221.8c-3.4.9-3.8 1.6-2.5 5.3q3 7.8 6.7 15.4 1.9 4.1 5.6 6.4c2.8 1.7 4.1 4.4 5 7.5q.1.3.4.7M628 485.9q.1.8-.6.9a54 54 0 0 1-12.7 1q-4.8-.2-8.5 2.7-2.5 1.6-4.8 3.3c-2.8 2.2-6.1 2.3-9.4 2.4M295.2 281c-.1-2.4-.5-4.9-2.9-5.9-3.2-1.2-4.2-4.3-5.8-6.9q-1-1.7-2.3-3.1-1-.8-2.1-.4t-1.3 2.1a18 18 0 0 0 1.8 7.9l2.6 6.2q1 2.6 3 4.3a6 6 0 0 1 2.2 5.1c0 1.3.6 2.5.5 3.7M550.9 239.2q-.7 0-1.2-.5-3.7-1.2-3.2 2.9.1 1 .7 2a58 58 0 0 1 3.9 15.4q.2 1.6.8 3.1 1.9 4.3 1 9c-.1.5.5 1 0 1.5M616.3 142l.8.2q3.1.2 2.5 3.3a76 76 0 0 1-6.9 19.6q-1 1.7-2.5 3.3a16 16 0 0 0-3.5 9.3M188.5 496q-2 1.3-4.4 2.2a6 6 0 0 0-3.8 3.9 19 19 0 0 1-8.6 11.3 21 21 0 0 0-5.9 5.6l-1.9 2.2c-2.1 2.8-4.8 1.8-5.2-1.5M185.2 484.3c-1.6 2.5-4.3 3.5-6.7 4.8q-3.8 1.9-7.9 3.1-2.3.7-4.6-.3-3.3-1-6.1.9-3.7 2.3-7.3 4.8-2.8 2.2-1.9 3.9c.6 1.2 2.6 1.5 4.4.6q1.6-.6 2.9-1.7c1.1-1.1 2.7-.9 4-1.5 1-.4 1.4.8 2.1 1.3 2 1.6 3.6 3 6.5 1.1M161.7 297.5q-1.4.1-2.3-1.1-1.4-1.7-3.3-2.7c-.7-.3-1.4-.8-2.1-.2-1 .8-.7 1.8-.3 2.9q.9 2 2 3.7 2.7 4 4.3 8.6a7 7 0 0 0 4.4 4.4c3 1 5.6 2.6 7.1 5.7M535.7 76.1c1.9 2.1 3.8 4.4 4.5 7.3q2 7.9 7.5 13.4 2.3 2.6.7 4.4-1.5 1.7-3.1.2c-2.5-2.2-4.5-4.8-7.1-6.8q-.4-.5-1-.6M624.4 350c-2.3-.5-3.1 0-3.3 2.4-.4 6.8-1 13.6 1.8 20.1q2 4.7.6 9.6l-.4 2.7M192.1 217.7l-.6-.4q-1.4-1.2-2.9-.8c-1.4.6-1 2.1-.8 3.2l1.6 12.3c.4 2.9 1.7 5.4 2.4 8.1s1.1 5.1.4 7.7v1.5M307.2 259.2c3.6.7 3.6 1.1 3 5.3q-1 7.3-3 14.4a16 16 0 0 1-1.9 4.7c-1.7 3.1-2.9 6.4-1.9 10.1M443.6 535.1c.9-2.9 2-5.8 1.7-9q-.2-2.9-1.5-5.3c-.8-1.3-1.8-2.5-3.5-2.4q-2.9.5-3.7 3.5-1.5 4.7-1.1 9.7.5 5.5 6.7 4.1a2 2 0 0 0 1.3-.6" class="cls-4"/><path d="M571.5 251.7c-1.4-2.5-1.1-5.2-1-7.9q.5-5.3 1.6-10.6c.2-1.2.4-2.9-1.2-3.2-1.2-.2-2.5-.4-3.4 1.4a18 18 0 0 0-1.5 6.7c-.1 1.2 0 2.5-1.1 3.3-1.2 1 0 2.6-1 3.5M450.7 159.4c-.2-.4 0-.9-.4-1.1-2.2-1.6-4-3.9-6.3-5.3-.7-.4-1.4-.8-2.2 0q-1 1-.8 2.4c.2 1.5 1.1 2.6 1.9 3.7a40 40 0 0 0 9.9 10.6 11 11 0 0 1 4.8 6.8q.4 1.6 1.4 2.9M254.7 413.3c1-2.4 0-4.8 0-7.3 0-1.2-.4-2.8-2-2.8q-2.4 0-2.5 3.1c0 4.9-.3 9.8 1.4 14.5q1.9 5.4-1.8 10.1M589.4 397q-1 6.9-1.2 13.9-.3 3.9-.6 7.7 0 3.8-.5 7.5 0 1.5 1.4 1.6l7.1.6q4.3.2 8.7 0 2 .1 1.9-2 0-5-.9-9.9c-.7-3.4-.5-6.8-.8-10.1 0-1-.3-2 0-3.1M249.3 263.4h6c.7 0 1.3 0 1.7-.9.7-1.2 2.1-1.8 2.7-3.2-1.3-2.5-3.6-2.3-5.7-2.3-5.8-.2-11 2-16.1 4.8-4.8 2.6-11.1-.5-13.1-6.1-.3-.8 0-2-1.5-2M147.3 406.7c2.6 0 5.1-.8 7.7-1.2 1-.1 1.9-.7 1.5-2.4q-1.4-7.4-6-12.9a13 13 0 0 0-10.7-4.5M653.4 397.9q3.6 0 4.3-4.6 0-1.1.6-2.2c2 .2 3.6-1.3 5.5-1.8q1.8-.6 1.7-2.8c-.2-1.9-1.5-2.6-2.9-2.6-4.7 0-9.3.1-12.7 4.3q-1.7 2-3.3 4-2.7 3.9-7.3 3.5M324.9 377.9c-2.2-1.6-4-3.9-6.5-5-1.1-.5-2.4-1.1-3.3.2q-1.2 2 .2 3.7c3.7 4.5 6.2 10 11.6 12.8 2.8 1.5 3.1 4.5 3.1 7.4M276.2 143.6c-.3-1.1-1.3-1.6-1.9-2.4a6.3 6.3 0 0 1 1.7-8.3c1.9-1.6 5.4-1.1 6.8 1.1 1.7 2.6 1.7 7-1.2 8.8q-1.1.5-1.8 1.5c-1.3-.3-2.6-.9-3.8-.3-2.7 1.2-5.4 2.2-7.1 5-2.2 3.6-3 7.7-3.7 11.9q-.9 4.5-.9 9.2 0 3 2.1 3.3c2.3.3 2.8-.2 3.3-2.6q1.4-6.3 2.1-12.8M665 147.3c-2.8-.3-5.5-.4-7.9-2.4-3.3-2.7-7.4-3.8-10.8-6.4l-4-3c-.6-.4-1.8-1.2-2.7 0q-1 1.3-.4 3.1c.6 2 2.4 2.6 3.6 4 .5.6.7 1.4 1.7 1M138.5 384.3q-2.3 2.6-5.4 1.5c-2.2-.9-4.1-.2-6.1.5l-3.3 1.2c-5.6 1.6-7.5 6.5-9.1 11.6l-1.1 4.2c-.3 1.3-.3 1.9 1.3 2.3 2.4.5 4.8.3 7.1 1M205.4 249.8c-.4-3.4-.6-6.9 1.5-9.9q2.7-4 4.8-8.6 1.2-3 2.3-6.4.5-1.2-.8-2.2c-.9-.6-1.4-.3-2.1 0q-1.1.7-1.7 2.2-.7 1.7-2 3.1M352 308.2c-2.2-.5-4.4 0-6.7-.2-1.2 0-1.3.9-1.7 1.8q-2.5 7-4.4 14.3.5.7 1.3.7H357q2-.2 1.4-2a99 99 0 0 0-4.1-13.4q-.6-1.6-2.1-1.3M128.1 219.6q-.7-1.2-1.7-2c-1.6-1.5-1.7-5.4-.4-7.5s3.9-3.3 5.8-2.9c2.2.6 4.3 3.2 4.6 5.7.2 2.2-1.6 4.8-3.9 6-1.5.7-3.2.6-4.5 1.1-2.6 1-5.5 2.3-6.9 5.3a70 70 0 0 0-6.2 17.8q-.2 1.4 0 2.8c.2 1.2 1.2 1.6 2.1 2q1.2.3 1.9-.8.5-1 1.2-1.8M223.1 494.7c3.6 1 3.6 1 3.1 4.8a35 35 0 0 1-5.6 17.4c-2.3 3.1-1.7 6.8-1.7 10.3M704 445.4q.4 7.6.2 15.2-.2 2.7 2.3 2.5h14.2c2.2 0 2.8-.5 3.3-3.1M629.8 177c-2.2-2-3.2-2.2-5-.2-3.9 4.4-8.2 8.3-11.7 13.2q-2.2 2.8-2.4 6.6c0 3.5-1.7 6.4-3.8 9M157.3 358.8q-1.7-2-3.8-3.7a15 15 0 0 1-3.5-4.8 9 9 0 0 0-4.2-4.5q-1-.5-2.1 0c-.9.5-.8 1.5-.6 2.2l1 2.7q1.9 4 3.4 8.1a13 13 0 0 0 3.7 5.5c2.8 2.3 3.7 5.5 4.2 9M565.5 417.3c-.2-3.6.1-7.2-.3-10.8-.2-1.8.3-3.8 0-5.7-.6-4.6-1.6-5.8-6-5.9a58 58 0 0 0-17.1 1.4q-5 1.3-7.9 6.1M491.1 147.8q-5 1.7-1.2 5.5 6.1 6 12.1 12.3c1.8 2 4.4 2.7 6.7 4q3.9 1.8 5.4 5.9M249.3 211.3q-.5-.7-.8-1.5-1.6-2.3-3.7-.6c-4.5 3.5-9.5 6.1-14.2 9.4-2.6 1.9-4.9 4-6.1 7.3q-1.1 2.8-3.1 5.1M325.6 143.6c-1-1.5-2.3-2.8-2.5-4.8q-.6-5.5 3.8-6.6c2.8-.8 5.9 1.4 6.5 4.7.8 3.9-2 7.2-6.1 7.3-4.5 0-8.1 2.2-9.9 6.4a30 30 0 0 0-3 13.8q0 2.1.7 4.2c.4 1.4 1.4 2.4 2.9 2.2 1.5-.3 2.6-1.1 2.5-3-.1-2.1.3-4.2.2-6.4q0-3.1 1.2-5.9M445.3 297.9c4.2.5 8.3.1 12.5.2 1 0 2 .1 2 1.3 0 1 .6 2.2-.8 2.9q-1.3.7-2.7 1.1c-3.4.6-6.8.3-10.2.4q-1-.1-1.7 0c-.6.3-1.6.3-1.5 1.5 0 1.1.6 1.3 1.5 1.6 1.8.6 3.7.6 5.4 1.2 1.4.4 2.3 1 2.1 2.7s-1.5 1.6-2.7 1.8q-5 .8-10 0-1.8-.2-3.5-.9c-2.8-1-5.6-1.9-8.5-.9M595.9 201.6c-10.3.5-20.7 0-31 .2M238.1 509.2c3.6.1 6.4 2.3 9.1 4.3 4.8 3.6 10.4 4.8 15.9 6.3l1.3.4q3.2 1 3.9-2.6M625.9 460.8c-3.4-3.8-8-5-12.5-6.1a42 42 0 0 0-15-.3q-7.5 1.1-12.5 7.3c-.9 1-.6 2.9.6 3.7 2 1.4 4.3 1.8 6.6 2.1 6.6.8 13.2.4 19.8.3 4.3 0 8.4-1.1 11.7-4.5.7-.8.6-2 1.6-2.5M273.9 547.4q-.6 6.8-.4 13.6 0 2.3 2.1 2.2h15.8c1 0 1.9-.6 2.9-.5.7 0 .8-.8.8-1.5 0-3.7.2-7.5-.3-11.2-.2-1.3 0-2.6-.2-4M394.3 553.1q-.8 0-1.3-.8a9 9 0 0 0-5.4-4.4c-1.5-.5-2-2-2.9-3.1q-1.1-1.7-2.5-3.3-1-.9-1.9-.6c-.8.4-1.6 1-1.5 2.1v1.3c1.8 6.1 3.7 12.2 9.4 15.8q2.4 1.5 3.7 4M679.2 491.8c3.1 1.3 3.3 2.4 1 5.1q-5.1 6-11 11.2-2.2 1.8-4.8 2.6c-3.2 1.2-6 5.1-5.8 8.1M170.2 461.2a28 28 0 0 0 3.4-5.5c2.2-4.3-.9-9.4-5-10.1a36 36 0 0 0-13.5 1c-2 .5-3.1 2.6-3.4 4.9-.4 3.4 2.3 8.1 5.2 8.8M596.3 267.3c2.6.5 5.3.3 7.9 1.5 4.9 2.2 7.7 5.7 7.6 11.3 0 1.4 1.1 3.1-.4 4.1-1.1.8-2.5.2-3.7.2h-25.2q-2.2 0-2.1-2.2c-.2-8.2 4.6-13.8 12.5-14.3q1.5-.2 2.9-.7M494.9 352.9c-.2 2.5-.9 3.4-3.5 4.2a26 26 0 0 1-17.5-.8q-3.6-1.3-7.3-2.3M287 385c-.8.5-1.7.2-2.5.4q-2.8.8-2.3 3.6c.2 1.3 1.1 1.1 1.9 1.1h11.2c1.2 0 2.3 0 2.3-1.8a3 3 0 0 0-2.5-2.9c-2.6-.4-5.3.1-7.9-.4M665.4 161.4c-4.5-.8-8.4 1.3-12.3 3.1-4.6 2.1-9.1 1.3-13.8.6-1.9-.3-1.7-2.1-2.3-3.3M655.2 480.6c-1.6.3-2.1 1.9-2.4 3.1-1 3.9-2.7 7.7-3.1 11.8q-.2 1.3-.1 2.4c.9 5.1-1.1 9.2-3.8 13.2M644.8 230.2c.7-.9 1.7-1.2 2.5-1.9 1.6-1.5 2.2-5.8 1-7.7-1.4-2.3-3.4-3.8-6.4-2.4-3.9 1.7-4.8 7.7-1.7 10.6l1.7 1.8M236.6 144.5c1-.9 2.3-1 3.4-1.9 2.3-1.9 2.9-5.6 1.6-7.5-1.7-2.7-5.2-4-7.5-2.6-2.7 1.5-3.7 4.8-2.8 7.7.5 1.4 1.9 2 2.1 3.5M335.3 272.4q-1.2.3-2.5.2c-6.6.4-12.6 6.8-13.8 13.2v2.2h31.4a12 12 0 0 0-2.9-9.7 16 16 0 0 0-11-5.7q-.6 0-1-.2M125 367c1.4.8 3.1 0 4.6.7q1.8.6 1.8 2.3c0 1.4-1.2 1.5-2.2 1.5h-7.9l-1-.2c-1-.1-2-.4-2-1.6 0-1.4 1-1.7 2-2 1.4-.3 3-.2 4.4-.7M703.8 162.7c.5 2.5 0 3.5-2.3 3.9-4.8.9-9.4 1.2-14.2-.8a24 24 0 0 0-11.4-1.9M213.7 455.5q1 .9 1.7 2a4 4 0 0 1-2.3 3.2q-1.6.8-1.5 2.7 0 2.1-2.4 3.1a30 30 0 0 1-10.2 2.1c-2.6 0-5.2-.9-7.7-1.6-2.1-.6-4.2-1.6-6.4-1.8M186.6 144c.2-1.1 1.1-1.6 1.7-2.4 1.7-2.3 1.3-5.8-.8-8.1a5 5 0 0 0-6.9-.2 6 6 0 0 0-1.3 7.7c1 1.7 2.6 2.4 4 3.5M205.2 360.6h.4c1.8-2.3 4.6-3.3 6.2-5.7q1-1.5-.2-3.1c-.8-1-1.5-.7-2.5 0-3.5 2.4-7.3 4.4-10.6 7.1q-2.4 2.1-4.6 4.6a9 9 0 0 1-7.7 3.3h-4.4M232 543.6c1.6-.2 2.2-1.6 3.2-2.7a9 9 0 0 0 2.1-4.4c.2-1.5-.8-2.3-1.7-2.8q-1.4-.7-2.7.6l-1.9 2.6a17 17 0 0 1-6.4 5.9q-2.3 1.5-5 .9c-3.4-.9-6.5.8-9.8 1.4l-2.1.3M269.7 298.8q1.1-.2 2.3-.2c1.2 0 2.5.1 2.7-1.7q.3-4-2.3-4.3-4-.4-7.9.4c-1.3.3-1.2 1.2-.8 2.2 1.6 4.7 3 9.4 5 13.8M511.1 442.1c-.9-1.2-.8-2.6-1.2-4q-1.5-5.6-7.1-5.5c-1.5 0-3-.3-4.4 0a8 8 0 0 0-5.6 5.7q-.8 2.7-.7 5.7c.2 5.1-.6 10.2-.4 15.4 0 1.6.5 2 1.9 2 5.5 0 11-.6 16.5-.7q2.1.1 1.7-3.1-.5-7-.8-14.1-.2-.6.2-1.3M500.1 332.9c-.6-.9-2-.2-2.5-1.5l1.2-4c1.1-3.9-1.4-7.2-4.7-7-1.8 0-2.6 1.1-3.3 2.7-1.1 2.4-1.8 5.1-3.9 6.8q-3 2.7-5.1 6.2c-.7 1-2 2.2-.9 3.9q1.5 2.4 4 2.2 6.3.2 12.7-.2.8.1.6-.7M163.1 210.4c1.6-1.3 3.6-1.8 4.2-4.4q.9-3-.9-5.1c-1.3-1.5-3.1-1.6-4.8-1.3s-2.9 2.5-3.1 4.3c-.4 3.6 1.8 5.1 4.4 6.4M209.6 282.3q3.4-.1 6.5-1.6a33 33 0 0 0-3.4-11.3c-1.4-3-3.7-5.3-6.9-5.9q-4.5-1-9.2-.3c-7.4 1-10.5 6.6-12.5 13.2q-.7 1.9-1.1 4.1c1.5 2.2 4.2 1.4 6.3 2.5M618 496.2c5.1-.7 10.1-1.2 15-3.1 1-.4 3.5.9 4 2 .4 1-.4 2.6-1.9 3.5-2.6 1.7-5.6 2-8.6 2.6q-4.6.7-8.8 3.1c-.8.5-1.5.8-1.6 1.8M303.1 312.2c-1.5 3.5-1.3 7.3-1.7 11-.4 3.6-.2 7.2-.4 10.8q-.3 2.9-1.6 5.5c-.2.4-.9.7-.4 1.3M319.7 327.6q1.3-.1 2.1-1.1 1.7-1.5 3.8-2.4c1.2-.6 2.4-.7 3.3.6s.4 2.3-.2 3.3c-1.3 2.4-3.6 3.7-5.6 5.3-3 2.3-5.9 4.8-9.5 6.1-2.4.8-3.8 3.3-4.6 5.8M280.6 459.5h14.6q4.2 0 3.3-3.3-1.2-3-2.5-5.9c-.7-1.8-2.7-1.4-4.1-1.3q-6.4.5-12.9.4-3.2-.1-6.2.9M512.8 205.8q.3 13.6.2 27.3M453.2 283.6a16 16 0 0 0-14.6 2.5 41 41 0 0 0-11 10.6" class="cls-4"/><path d="M279.9 144.5c2.5 2.1 3.8 4.9 4.8 8.1 1.1 3.5 4.2 4.9 7.2 6.2l4.2 1.7c1.3.6 2.2 1.7 1.8 3.1-.4 1.6-1.9 1.9-3.3 1.5-2.7-.9-5.5-1.4-8.2-2.3-1.8-.6-2.5-2.7-4.4-3.1M265.2 301.4c-2.2.5-4.4.2-6.7.2h-15.6q-1.7-.2-3.1.7M573.8 501.3q.3 13.2.2 26.4M251 230c1.6 2.3 1.5 3.4-.4 5.1l-3.5 2.9c-2.9 2.4-6.1 3.3-9.6 1.9-4.1-1.6-6.7.5-9 3.8M621.3 200.3q4.6-1.6 9.4-.5c1.2.3 2.8-.4 3.9-1.2q1.7-1.2 3.5-1.8 2-.7 3.1.9c.6 1.1 0 2.2-.8 3-2.3 2.4-5.1 3.9-7.5 6.2-2.7 2.5-6.2 2.8-9.6 3.5a9 9 0 0 0-5.8 3.3M547.6 195.9c.5 1.4 0 2.8 0 4.2v19.8c0 .7.6 1.5 0 2.2M475.5 206c1.9.7 3.8.9 5.6 1.9 3.6 2 4.6 5.4 4.8 9.3 0 1.2.2 2.5-.3 4h-34c-1.5-6 .5-11.9 6.2-14.1q1.9-.9 4-1c4.5 0 9 .3 13.5-.1M516.7 478.4c-1.5-.3-1.3 1.1-1.4 1.8q-1 5.3-1.7 10.8c-.1 1.2-.6 2.5-.4 3.7q0 1.6 1.2 2.6c1.8 1.2 8.2 1.3 10-.4 2.7-2.5 2.4-5.5 1.8-8.7-.6-3-1.7-5.9-2.5-8.9M509.9 159.8c-1.2-1.7-.8-3.6 0-5 1.7-2.9 2.2-6.2 3.8-9.1q.5-1.2 1.1-2.4c.5-.7 1.2-1.7 2-1.3s2 1.2 1.9 2.6c-.2 4.3.7 8.5.9 12.7a11 11 0 0 0 4.8 9.2l.8.9M601.1 536.6c.6-2.2-.1-4.4 0-6.6q-.1-1.4-1.8-1.5-3.9-.1-7.7.4c-1.2.2-1.7.5-1.7 1.8q0 2.8-.2 5.7M728.3 445l-24.4.1c-2.3 0-4.6.4-6.9-.1M476.8 481c.4.2.8-.3 1.3.4q2.3 2.5 5.6 2.2 5.9 0 11.7.5 4.4.2 2.7 4.6l-.2.7M234.8 444.5c.8-.2 1.4.5 1.8.9 2.2 2.4 4.8 4.3 6.9 6.8 1.6 1.8 1.6 4 1.8 6.2q-.1 1.4-1.6 1.3c-5.8 0-11.7.4-17.5-.3h-.6M261.2 364.7l1.2.4q2.7.7.6 2.8c-3.1 3.3-5.9 7-9.4 9.8a19 19 0 0 0-6 10M236.4 411.6q1.8 2.4-.2 5.3a37 37 0 0 1-11.9 10.9 18 18 0 0 0-5.4 5.6M645.5 448.9V474M475.3 205.8c.2-3.5-.4-6.9-.4-10.3q0-2-1.9-2.7c-2.7-.9-5.5-1.5-8.3-.8q-3.9 1-4.1 5-.3 4.4.1 8.8M660.5 391.1c.7 1.6 2.2 1.5 3.5 1.5h12.9c3.3 0 4.2 1.3 3.1 4.8M586.1 284.9c.2 3.7 2.7 5.7 5.4 6.5 5.2 1.4 9.3 1.3 13.3-3.8q1-1.2.8-2.6M327.4 172.8c0 1.2.2 2.4-.6 3.6-.7 1.1-.7 2.6-.9 3.9q-.5 5.2-3.6 9.2-2.8 3.7-5.3 7.6-1.4 2.1-3.2 1.4c-2.1-.8-2.7-2.7-1.9-4.5q2-4.4 5-8.3 2.7-3.8 2.4-8.4-.1-2.5.5-4.8.3-1.2-.3-2.2M330.3 144a24 24 0 0 1 9.6 8.3c2.1 2.6 5.4 3.5 8.3 4.6q1.7.5 2.7 2c.7 1.4-.1 2.8-1.7 2.8q-2 0-4-.3c-3.6-.7-7.1-1.7-10.2-4M413.4 296.4v23.7M276.8 444.8q-2.8-.4-5.4.9a50 50 0 0 0-7.9 5c-1.2 1-2.4 2-2.7 3.7a5 5 0 0 1-3.7 4.4c-.4.1-.3.6-.6.7M294.9 253.5c-.7-.1-1-.8-1.5-1.1-.7-.5-1.4-1.3-2.5-.7q-1.4 1-1.3 2.6c0 4.7.2 9.4-.4 14.1-.1.8 0 1.8-1 2.2M238.9 493.8c2.1.4 4.1 1.2 6.2 1.1q2 .1 3.6-1.3c3.4-3.3 7.5-4.3 12.1-3.8 2.4.3 4.9 0 7.3.2q1 0 1.9.5 1.3.7 1.3 2.4c.1 1.2-.7 1.6-1.5 2q-2 .9-4.2.9-1.7 0-2.9 1.1M633.8 492.7q1-3.7-1.9-4.2-.8 0-1.2.3c-2.6 2.4-6 2-9 2.8a18 18 0 0 1-7.3.3M637.7 241.4q0 4 .5 8.1c.2 2.6 1 4.1 4.3 4.4q1.7.1 3.3.5 2.7.4 2.5 3.1c-.4 4.8.1 9.5-.4 14.3M376.4 356.6c-1-1.9-.2-4-.1-5.9q.2-3.6-.2-7-.4-2.7-2.6-2.8c-1.6 0-2.2 1.3-2.5 2.8a18 18 0 0 0-.4 4.6c.1 3.4-.2 6.7.2 10.1q.3 1.8-.8 3.1M221.2 374.2c.8 2.6.6 3-1.7 4.4-3 1.8-6.5 2.1-9.8 3.1q-5.6 1.5-11.2 0c-5.4-1.5-10.8-1.3-16.3-1.3M641.1 359.7c-1.2-.9-1.2-2.2-1.3-3.5q-.5-6-.7-11.9-.1-4.9-4.5-2.6-.3.2-.6.2M327 230.4c-1.9-1.6-2.2-4.2-2.9-6.4a70 70 0 0 1-1.9-7.9c-.3-1.6-.8-3.2-2.5-3.7s-2.3 1.1-3.3 2M209.8 366.3q5.8-1 11.4-2.5c1.4-.3 3.1-.5 3.8-2.3q1.1-2.6-1.5-2.6c-2.8-.1-5.6.7-8.3 1.1s-5.7 1.2-8.5.2M559.2 449.8c5-1.3 10.1-2.6 14.6-5.5q1.8-1.2 1.4-3.3c-.3-1.2-2.2-1.8-3.5-1.1a39 39 0 0 1-10.4 3.5q-2.2.4-4.4.3c-1.9 0-3.7 1-5.6 1.5q-1 .2-2.1.2M326.6 288.4a8 8 0 0 0 10 7.4c3.4-.8 6.3-2.9 6.9-7.1M603 149.5c1-4.2 2.2-8.4 2.8-12.7.3-2-.7-2.7-1.8-3.5-.8-.6-2.4.7-2.9 2.2-1.5 4.5-1.9 9.3-3.3 13.8-.5 1.6-.5 3.4-1.9 4.6M319.3 328.5c-.2-5.3 2.2-9.5 5-13.6l1.7-2q.8-1 .3-2c-.4-.8-1.4-1-2.2-.7a6 6 0 0 1-2.9.6M204.1 507c-.8-2.2.7-4.2.7-6.4q0-3-2-5c-1.4-1.5-3-.8-3.3 1.5-.6 7.2-1.6 14.5 2.9 20.9 2.2 3.1 2.1 6.8 2.5 10.3q0 .4.2.7M392.8 531.8q-1-.6-1.7-1.5-2.4-2.7-3.7.9c-.9 2.6-.4 5.4-.3 8.1.1 2.4.3 4.9-1 7.1M160.8 499.9c.2 2.2-1 3.8-2.1 5.3-2.5 3.3-5.5 6-8.3 9q-1.5 1.3-1.3 3.5.5 1.6 1.7 1.9 1 .4 1.9-.8 3.5-3.7 6.8-7.5M334.7 369.4c.6-4.1-1.5-7.6-2.3-11.4-.3-1.5-.4-3.2-1.4-4.4-.6-.6-1-1.7-2.1-1.3a3 3 0 0 0-1.9 2.4q-.3 2.3 0 4.4.1 1.4-.5 2.4M455.3 153c-.6-4.2-2.1-8-3.6-11.9-.6-1.5-2.2-2-3.7-1.3q-2 1-1 3.5c1.4 3.7 2.1 7.6 3.2 11.4.3 1 0 1.9 0 2.9M311.4 442.8c-.1 4.5.3 8.9.2 13.4 0 3 .3 3.1 3.1 3.3q3.7.1 7.6.2.4-9.4.3-18.3M542.6 176.3v11.4q.1 2.6 1.1 5.1t3.5 2.8c1.2.2 3.5-1.7 4.2-3.3 1.3-3.1.6-6.3.5-9.5l-.1-6.6M564.4 241.6c-1.3-1.6-.8-3.5-1-5.3l-.6-5.7q-.2-2.4-2.1-2.8c-1.6-.2-2.2 1.1-2.7 2.4-.4 1-.4 2.2-1.1 3.1M135.2 300.3c-.2-.9.4-1.6.8-2.2 1.1-1.4.9-3.1 0-4.1-1.6-1.6-1.5-3.6-1.8-5.6q-.9-4.7-4.8-5.3c-3.1-.4-4.3 1.1-4.9 4.2-.3 1.6-.4 3-1.4 4.5-1 1.7-2.4 4.6-.1 6.9q.3.4.2 1.1M117.9 465.3l10.8.7c3.9.2 7.8.5 11.7-.4 2.5-.5 3-1.6 2.3-4.2q-.3-1.6-1.9-1.6-8.2.1-16.5-.2-5.4-.3-10.7-.2l-.3 2c0 1.7.1 3.1 2.3 3.1q1 .1 2.1.8M351 541q-2 0-4-.4-1.8-.4-1.9 1.7l.6 6.4c.4 3.1 2.6 4 5.2 4.4M627.5 312.6c-3.8 1.9-7.8.8-11.7.8q-5.8-.2-11.7 0c-1.1 0-2.3.2-3.3-.4M154.2 332.6c-2.8-1.3-3.4-.9-3.8 2.4q-.6 5.7.2 11.4.3 1.7-.6 3.1M569.9 481.9c.6 4 0 7.9-.4 11.9-.4 3.3 1.2 6.3 4.2 7 1.8.4 5.2-1.8 5.2-5q0-6.7-.2-13.4M719.2 286c0 3.2-.6 5.9-3.1 8.2a19 19 0 0 0-4.6 7.4q-.6 1.6-.4 3.3-.1 3.9 3.4 2.5c1.8-.6 3.6-1 4.4-3.1M556.9 443.4c0-1.3 1.1-1.5 1.9-2q1.5-.7 1.2-2.2-.5-1.6-2.3-1.3c-3.3.4-6.7.2-10 .9-3 .6-5.9 1.8-7.7 4.4a14 14 0 0 1-8.2 5.7M266 303.2q-8.7 9-16.7 18.9-.4.5-.6 1.1M508.8 186.9c-.7 4.5-.4 8.9-.4 13.4q0 2 1.4 3.5c1.1 1.1 2.2 2 4 1.4q3.1-1 3.5-4.2.5-6.8 0-13.6M552.2 142.9c1.8-.4 3.6-1.6 5.4 0 .3.3.9 0 1.4 0h12.1q4.8 0 2.7 4.6M236.6 292.8c0 2.9 1.3 5.5 2.3 8.1q3.3 8.8 5.9 17.8.8 2.2 1.5 4.4M204.3 208c2 2.5 1.7 5.4 1.7 8.4v8.1q-.1 1.2.4 2.2 1.1 1.5.4 3.3M429.5 248.4q3-.5 6.3-.2c3.9.5 7.8.2 11.7.2q3.3-.1 6.5.4c1.7.3 2 1.7 2 2.9.1 6.2.7 12.3.4 18.5M519.9 437.1q-.3 3.5-.2 7 0 2.7-1.3 5c-1.4 2.8-4.1 2.7-6.6 2.7M485.1 330.4c-1.2-.8-2.4-.2-3.5 0a42 42 0 0 0-14.8 7.2M422.6 335.7c-.7.9-1.7.9-2.7.9h-12.3q-2.9 0-2.9 2.2 0 2.4 2.5 2.5 1.8.1 3.5.4c4.4.4 8.8.3 13.1.7M211.6 499.3q.9-5.8 1-11.7 0-3.2-2.3-3.5c-1.3-.2-2.8 1.2-2.9 3.1-.1 2.8-.7 5.6-.9 8.4q0 2.1-1.5 3.7M252.5 354.8c-.3-1-.6-1.8 0-2.9.3-.6.3-1.7 0-2.4a2 2 0 0 0-1.8-1.2q-1.2 0-1.7 1.3l-2 4.9c-.6 1.6-1.1 3.1-2.3 4.5q-1.4 1.8-.2 4.4c1 2.1 2.4 4.2 2.4 6.8M649.8 430.9q.3 5.6.2 11.2.1 1.8-.6 3.5c-.9 1.7-3.3 3.2-4.4 2.9a6 6 0 0 1-3.7-5.3q0-4.5.4-9c.1-1-.3-1.9-.2-2.9M586.3 303.4a21 21 0 0 1 1.2 11.1c-.4 2.4-1.4 4.4-3.7 5.2-2.8.9-5.7-.9-6.7-4.2-.8-2.8-.2-5.4.2-8.1.2-1.5.9-2.9.9-4.4M395.7 460.4c-.2 4.1-1.2 8-1.7 12.1q-.1 1.1 0 2.2c1.3.7 2.7.3 4.1.4M703.4 407.6v18.5M231.8 398.6c-1.1-.8-1-2.9-2.9-2.9-2.8 0-5.5.3-7.7 2.3-4.1 3.8-4.9 8.8-3.8 14.3 4.2 1.5 5.8 3.4 5.6 6.8M296.6 453.8a41 41 0 0 1-13.1.4q-2.1 0-4.2.2M724.6 149.1v18M363.3 456.4c-.1-2.3-.4-2.5-2.5-2.7q-4.5-.2-9-.2c-1.9 0-2.5.6-2.9 2.8M483.6 438.4q-1 4.7.6 9c1.1 3.2 2.3 4.5 5.2 4.2.6 0 1.3-.3 1.9.2M260.2 392.7a66 66 0 0 1-2.7 15.2q-.4 1.5-1.9 2.2" class="cls-4"/><path d="m640.2 182 1.7 1.3q1.4 1.5 0 2.9a38 38 0 0 0-6.4 6.9c-1.3 1.7-3 3.4-2.9 5.9M497.2 374.4c2.4-2.1 3.2-2 4.4 1.1q2.3 6.5 3.3 13.4.2 1 .9 1.5M329.3 371.1q-1-4-2.2-7.9c-.7-2.3-2.6-3.9-4.1-5.7q-1.2-1-2.5-.2-1 .6-.7 2.2.2 1.3.6 2.4c1.9 3.8 2.5 8.1 3.9 12.1q.6 1.4-.2 2.9M598 245.1c-2.8-2-4.9-4.8-7.5-7l-3.9-3.6q5.1-5.5 10.8-10.2 1.3 1.8 1 3.5c-.2 2.2 0 2.4 2.1 2.4h9.8M316.8 460.1q0 8.8.2 17.6M721.7 408.5c-.6 2.2 0 4.4 0 6.6q0 5.5.6 11M720.2 180.7q-.5 5.4 0 10.8c.2 1.5.3 3 1.6 4 2.7 2 5.5.8 6.3-2.6.4-1.8.1-3.7.2-5.5v-6.2M260.6 495.5c.1.3-.3.6.2.9 4.4 2.4 8.7 4.9 13.3 6.6q1.4.5 2.7 1.3 2.7 1.6.6 3.9l-1 1.1M727.7 133.2q-.4 5.9 0 11.7c.1 1.5 0 3-1.8 3.6-1.5.5-2.9 0-3.2-1.2a17 17 0 0 1-.5-4.6q0-4.7.2-9.5M558.8 148.2c4.9 0 9.7.2 14.6-.4q1.6 0 2.9 1.3 1.5 1.6 0 3-1.2 1.3-3.1 1.4-7.7.1-15.4-.1M363.6 136.3c-2.1 1.3-2.8 2.6-3 6.2a15 15 0 0 1-3.8 10.1M236 460.4v16.7M548 524.6v9.2q.1 3.6 3.3 5.3c2.4 1.3 5.6-1.1 5.9-4.2 0-.7-.7-1.9.8-2M423.2 347.1q-2.4-.5-4.8-.2c-3.6.3-7.2-.3-10.8-.4-1.3 0-2.8-.9-3.7-2.1q-.6-.9 0-1.7l1.5-1.8M253.5 275c2.8.2 5.7.5 8.5 0 2-.4 4.3-.2 5.6-2.1.2-1-.4-1.6-.4-2.3-.1-1-.8-1.9-2-1.5a36 36 0 0 1-14.6 1.5M201 459.5q6-1.4 11.7-3.8c1.4-.5 1.8-1.9.8-3q-1.4-2-4-1.2-3.7 1.5-7.5 2.8-1.4.3-2.7.8M256 219.9q1.7 2.4 0 4.4a27 27 0 0 1-11.7 8.4c-1.1.3-2.2.6-3.1 0q-3-1.8-6.3-1.5M374.1 472.7c-5.2.8-10.4.7-15.6 1.3M375.3 341.4v-.2c.7-1.1.3-3.2 1.9-3.4 1.7-.3 2.2 1.9 3.3 2.8.6.5.4 1.6.4 2.4-.1 4.7.5 9.4.5 14.1M694.6 143.8c1.2-.5 2.4-.1 3.5 0 2.6.4 5.2.3 7.7.8 1.5.3 2 1.4 2.4 2.5s-.2 2-1 2.9q-.7.6-1.5.4h-6.2" class="cls-4"/><path d="M612.5 238.5c-3.7.5-7.5.1-11.2.2-2.6 0-2.8 0-2.7 2.9.1 1.6-.9 3.2-.2 4.8M446.6 255.5q-.5 8 0 16.3M503 132.4q3.7 6 6.7 12.3c.7 1.5.9 3.3 2.2 4.4M364.9 142q0-1.8 1.6-2.9c1.8-1.5 3.3-3.4 5.3-4.7q2.6-1.5 2.9 1.7-.1.9.4 1.8 2.5 3.8 0 7.1c.9 3.2-1.2 4.7-3.1 6.4q-1.6 1.3-3.3 2.2-3.5 1.8-5.4 5.5M724.2 197c-.1 4.5.4 9.1.2 13.6q0 1.2-.2 2.4M307.2 147.4c-5.4.7-10.8.2-16.2.3M234.1 543q1 1 2.3.9h7.1q4.2-.1 2.9 4.2M574.6 444.3c1.8 1.4 1.9 2.3.6 4.2a9 9 0 0 1-4.4 3q-6 2.4-12.5 3.8M489.5 391.3c.4-2.7-.8-5.1-1.2-7.7-.5-2.7-1.8-5.2-1.5-8.1.2-1.5.2-3 1.9-3.3 1.9-.3 2.3 1.1 2.7 2.6 1.4 4.6 2.3 9.3 3.7 13.9M483 489.6c4.8 0 9.6-.4 14.4 0 1.7.2 2.8 1.5 2.7 2.8-.1 1.5-2 3.2-3.3 3.1-4.7-.3-9.4-.7-14.2-.2q-.2 0-.4-.2M224.8 362.5c.9.6 2.1.6 2.1 2.2q.1 2.3-1.7 3.5-.2.4-.6.4c-5.1-.5-9.7 2.2-14.6 2.9h-.2M413.4 460.8c.5 5.2 1.9 10.2 2.5 15.4M630 357.9c-.6-4.4-.3-8.8-.6-13.2-.1-2.1 1.5-3.5 3.1-3.3q1.7 0 1.7 2v8.8c0 1.8.8 3.5.2 5.3M130.2 385.8c.4 2 .8 4 2.5 5.3 1.4 1.1 3.2 1.3 4.4.2a8 8 0 0 0 2.5-5.5c0-.6-.6-.6-.8-.9M381 340.3l.2-.2c.8-.9 1.7-1.9 2.9-1.5 1.3.4 1 1.9 1.3 3 1 4.2.4 8.5.6 12.8q0 2.2.2 4.4M265.8 392.2c-1.1 5.2-1.8 10.5-3.7 15.4M311.2 318.8q.8-4 2.3-7.7.4-.7.3-1.3c-.3-1.4 0-3.3-1.8-3.7s-2.1 1.5-2.7 2.8c-1 2.3-1 5.1-2.9 7M643 143.6q-1.2.8-2.7.7c-2.2 0-4.5-.3-6.7.4q-2.8 1-1.9 3.8.4 1.1 1.3 1.1c3.1 0 6.1.2 9.2-.2M455.3 292.4c1.2-3.6 1.1-5-3.3-4.9h-6.9M152.3 159.2c4.7.1 9.4-.3 14.2.2M690 364.5q-.4 3.1-.4 6.4.2 3.2-.2 6.4-.8 2.8 1.9 3.1.6.1.4.9M202.7 447.2c-1.8.6-3.8.7-4.6 2.7a28 28 0 0 1-7.7-1q-1.7-.6-3.6-.2M230.4 444.1c-.7 4.2-2.2 8.2-3.4 12.3-.2.9-.7 1.7-.6 2.6M451.1 140.1c.5-1 0-2.1 0-3.1 0-1.1-.2-2.3 1.3-2.6 1.3-.3 2.5.7 2.8 1.6q2.6 7.3 4.2 14.9M217.3 403.9c-2.6-1.2-3.3-1.1-4.3 1.6-1.4 3.6-2.7 7.3-1.7 11.4 1 4.4-.5 8.2-3.1 11.6M271.4 394.4c-2.2 4.8-4 9.9-6.2 14.7M532 408.5c-1.2 4.9-1.8 9.9-3.1 14.7M694.6 298.6q-.3 1.4.4 2.4c1.8 3 2.8 6.4 4.3 9.5 1.8 3.7.8 5-2.9 4.8M564.9 406.5c-2.6 1-5 2.5-7.7 2.7q-.2 8 .4 15.5M155.8 346.5c-.8-4.4-.6-9-1.2-13.4-.1-1.1.4-2.2.5-3.3 0-.6.9-1.7 2-1.5q1.9.4 2.3 2.2 1 8 1.1 16M319.5 227.3c.1-1.8-.7-3.4-1.1-5q-.9-3-1.8-6c-.4-1.8-1.7-2.9-2.9-4-1.2-1-1.7-.1-2.3.7q-.7 1.1-1.3 2.5c2 3.2 2.8 7 3.9 10.5.3 1 .9 1.9.9 3.1 0 .7.6.4 1 .4M201.9 209.3c.1.3-.3.4-.2.7.6 4.6-.1 9.2-.2 13.8M164.4 462.1q.8 7.9.6 15.8M431.6 478a21 21 0 0 0-.4 14.5M181.4 414.2c-.1 4.8.4 9.7.2 14.5M626.7 312.6q-.5-1.2-1.4-2.2-5.4-4.3-10.4-9-1.3-1.3-2.5-.2c-3.5 3.3-7.4 6-10.6 9.7q-.6.4-.9 1.3-.4 1.7-2 1.5M233.7 549c3.5-.5 7.1 0 10.6-.4 1.4-.2 2.8-.7 4 .8.5.7 1.1 1.4.8 2.2q-.6 1.6-2.3 1.8-7-.2-13.7-.2" class="cls-4"/><path d="M694.8 366.3c-1.4 1.3-.8 3.1-1 4.6a28 28 0 0 0-.3 5q.1 2.8-1.9 4.6M671.1 483.7c-2.4-2.4-2.5-2.5-4.8 0q-3 3-5.7 6.3c-.6.8-1.2 1.8-2.5 1.6M204.1 208.8c-1 0-2 .4-3.2-.3s-2.9.8-3.3 2.3c-.7 2.6-.3 5.3-.4 7.9q0 2.5-.2 5.1M331.4 547.9c1.8-.1 2-1.8 2.5-3.1a8 8 0 0 0-2.3-9q-1.7.6-1.9 2.6c-.3 3-.5 5.9 1.1 8.6q1 1.8.8 3.7 0 5.8-.2 11.7M438.4 477.5c-.3 1.4.4 2.5.9 3.7 1.4 3.9.4 7.7-.4 11.4M124.8 352.6c.1 4.5-.2 8.9.2 13.4q-.2.4-.2.9M241.2 324.7c-3.3-.5-6.5-.1-9.8-.2q-2 .2-4-.8c.9-2.7 2.5-5 3.8-7.5q3.2-5.8 6.6-11.5.5-1 1.5-1.5M325.4 536.9c0 2.9.8 5.9-.4 8.8-1 2.3-1.8 3.1-4 4-4.1-3.4-5.2-8-5.2-13.2M298.9 266.5c.4 0 1 .3 1.1-.7q.8-5.7 1.2-11.4c0-1.2-1.2-3.7-2.3-3.9-1.4-.3-2 .9-2.8 1.9q-1.1 1.7-.9 3.3c.1 4-.4 8.1.2 12.1M666.9 403.4c4.4.6 8.8-.1 13.1.4 1 .1 2.5-1.1 2.5-3.1 0-1.7-1.2-3.2-2.9-3-4.3.4-8.6 0-12.9.2M439.3 438.4l-1 13.2q-.1.8-.7 1.1-1.2 1.5-1.2 3.4c0 1.2-1 1.9-1.3 3M424.3 351.8h-9.2q-2.6 0-5.2-.4-3.8-.4-2.5-4.4M662.1 343.6v13.8M349.3 325.4V339M612.8 151.7q2.1-5.7 3.5-11.7c.4-1.8-.5-3.4-1.8-3.7-1.2-.3-3 1-3.4 2.4-1.3 4.1-2.1 8.4-3.4 12.5M314.7 320.1q1.9-4.3 5-7.7c1.7-1.7 1.3-3.9 1.4-6 0-1.8-1.5-2.4-2.8-1.3q-1.5 1.5-2.7 3.3-.7.8-1.5 1.1M686.3 305.6c-.1 3.4 1.6 6.2 2.7 9.2l1.7 3.8q1 1.8 2.3 1.4c1.1-.4 2.8-.4 2.9-2.3 0-1.3.3-2.5-.5-3.8a43 43 0 0 1-4.8-11M574.2 153.7c1.2 4.1-.8 4.8-4.2 4.7-4.4-.1-8.8.2-13.1-.2M681.5 362.8q-.2 6.4-.8 12.7c-.1 1.3.9 2.8 2.1 2.8 1.1 0 2 0 2.8 1.3 1.1 1.6 2.6.9 3.9 0M296 459.9c1 3.2-.5 5.4-3.5 4.9a45 45 0 0 0-11 0h-1.7M258.5 359.2c-.2-1.2.4-2.2.6-3.3s1.1-2.5-.2-3.2q-2-1-3.9.4a10 10 0 0 0-4.4 6.1c0 .4-.5.6-.6.9M441.4 255.3v10.8c0 .8.2 1.6-.4 2.2M573.8 481.9c.7 3.8.5 7.6.2 11.4v1.5M573.7 450.5c1.6 3.6 1.5 4.5-2.6 6.1q-6 2.4-12.3 3.6M159.6 329.9c2.8-1.3 5.3.2 4.9 3.4-.4 3.5 1 6.8.8 10.3l.1 2.4M248.9 323.4c1.9 2.1 2.2 3.4 1 4.8q-1.5 1.8-3.5.9-2.2-1.2-1.6-3.7c.3-1.3 1.2-2.3 2.7-2.2h1M195.6 263.8q.4 2 1.6 3.8c1.5 1.8 3.4 1.6 4.6 0a7 7 0 0 0 1.6-3.8M257 263.4c1.6 1 3.2 0 4.8.2 1.2.1 2.4-.1 3.5.2q3.7 1 1.5 4.4l-.4.9M497.2 496c.9 1.6.2 2.6-1 3.3a7 7 0 0 1-4.2 1.2q-5.4-.3-10.8 0M559.2 245.4c-.7-3.7-1.9-7.2-2.1-11 0-1.5-2.3-3.1-3.9-3.1q-2.1 0-2.3 3.3c-.1 4.8 1.5 8.9 4 12.8M512.8 188.6v10.3q-.1 1.4 1.1 1.1M619.4 273.1c1.1 3.7 1.9 7.5 3.5 11.3 1.9-1.4 3.8-1.4 5.9-1.2M320.7 549.8q-.3 6.3.1 12.5M117.7 465.6a179 179 0 0 0-1.2 12.8M254.5 214.8q-5.8 4.2-11.7 8.4M552.2 521.5q.3 6.2.4 12.3" class="cls-4"/><path d="M685.9 365q-.5 4.5-.6 9a9 9 0 0 1-1 4.2M547.2 176.3v12.3M263.9 510q4.5 1.1 8.5 3.3c1.7.9 4.1-.4 4.2-2.4 0-1.4-1-1.8-2.1-2.2-3.3-1.2-6.5-2.8-9.8-3.9M626.3 188.6q1.5-.6 2.5-2c2.3-2.9 5-5.3 7.3-8.1.7-.9 2.9-.9 3.5-.2 1 1.1.8 2.8-.4 4q-5.1 5.2-9.8 10.8M334.5 362.8c1.5-1.7.6-3.8 1-5.7.4-1.8.9-2.4 2.3-2.2 1 .2 1.3 1.1 1.4 1.8.1 1.3.7 2.4.5 3.7-.4 3.4 1.1 6.9 0 10.3M212.9 485.4c2.3-2 2.7-1.8 4 1.1.9 2 .7 4 .5 5.9q-.3 4.2-1 8.4M429.9 254.2q5.6.1 11 .5c4.1.3 8.2.7 12.3.1q1.2-.2 2.3-.6M316.6 442.1q0 6 .4 12.1M646.1 430.9c-.5 3.9 0 7.9-.4 11.9M287 372.9c-.2 4 .5 7.9 0 11.9M490.5 372.6c2.4-2.3 6.1-1.2 6.6 2.4q1 5.7 2.4 11.2l-.2.2M292.9 372.9c-.1 4 .3 7.9-.2 11.9M581.9 320.3V332M400.3 528.5c-.7-1-1.4-2.1-2.7-2.2-2-.2-2.8.9-3.8 3.7-1.6 4.5-.6 9-.6 13.4M137.7 466.5q.9 5.7 1 11.4M696.3 143.4a6 6 0 0 0-1.5-5.9q-2.6-2.8-5.2-.2a34 34 0 0 1-7.7 7M639.4 260.3c-.5 2.9 0 5.9-.2 8.8q.1 1.2-.2 2.4M408.9 275.7q-.1 6-.6 11.9c-.1 2.3 0 4.6 1.7 6.4 1.4 1.4 2.9 2.6 5 1.8s3-2.5 3.5-4.6c.6-2.4-.2-4.7 0-7q.1-3.3 0-6.6M680.2 404.1c.5 3.5-1.2 5.5-4.6 4.9-3.6-.7-7.1-.3-10.6-.5M224.6 368.9c.8 2.6-.5 5-3.1 5-3.4 0-6.3 1.6-9.4 2.5-.7.2-1.5 0-1.9.9M629.2 344.7c-3.1-.6-3.7-.1-4 3.3q-.5 6.7 0 13.4M123.2 233.7a46 46 0 0 0-2.6 11M321.4 536c-.2 2.8.5 5.7-1 8.4q-.6 1.4-1.7 2.4M353.9 238.1c-2.7 0-5.3-.7-7.9-1.1l-2.5-.2M241 218.1q4.2-2 7.2-5.5 1.5-1.6 3.4-2 2.9-.8 2.9 2.3 0 1.6 1 2.9 1.9 2.3-.4 4.1-4 3.4-8.1 6.6-.9.7-1.9.6M198.5 443.4a17 17 0 0 0-8.8 3.3q-.7.6-1 1.3M256.4 368.3c.4-.4.8-1.1 1.3-1.3 2.8-1.1 3.9-4 5.6-6.2q1-1-.2-2.2c-.8-.8-1.7-.4-2.3-.1-2.7 1-4.7 3.1-6.5 5.4M197.1 208.2c-2.2.2-3.1 1.8-3.5 3.7q-1.3 6.7-.9 13.6M655.5 479.7c.2 1.6 1.8 2.2 2.1 3.7q.7 3.1.2 6.2-.4 2 .8 3.5c2.2 2.4 1.9 5.1 1.2 7.9M681.1 307.8c.6 3.5 2.3 6.7 3.4 10.1s4 3.9 6.4 1.6M459.5 298.3c1.6-2.4.8-4.3-1.6-5.1s-4.7-.2-7.1-.5c-1.8-.3-3.8-.1-5.6-.5M309.9 215.7q-3.9-1.5-3.5 2.6 0 2.7 1.2 5.1c1.3 2.2 1.6 4.8 2.5 7.2.3.8 1 1.5.9 2.5M502.2 150.8a64 64 0 0 0-5.9-6.8c-1.7-1.9-1.2-4.1-1.1-6.2 0-.9 1-1.9 2.4-1.4 1.1.4 2.3.7 2.9 1.8 1.6 3 3.7 5.7 5.2 8.8q.2.5.2 1.1M455.5 135.7c2-1.8 2.8-1.7 4.6.2 1.5 1.6 2.1 3.7 2.6 5.8.6 2.4 1.3 4.9 1.3 7.5M247 553.6v2q0 2.4-2.3 2.7c-4 .4-8.1 0-12.1.2M338.9 425.2c-1.6 1-3.5.7-5.2 1l-4.8.7M724.4 180.3c-.4 3.5-.1 7-.2 10.6M221 502.6q1.9-6.3 1.4-12.7 0-2.5-2.7-2.2-1 0-1.9.4M211.2 462.3q-.6-.4-1.2-.2c-2.7 1.2-5.7 1.4-8.5 2.2M636.1 178.3c-2.2-2.8-4.9-2.8-6.9 0q-3.5 4.7-7.1 9.2M415.5 389.6c-3.2.8-6.5.5-9.8.2M639 321.4q.3 5 .2 10.1M519.9 498.6c-.1 3.4.4 6.7.2 10.1M444.1 424.3c2 3.1 3.3 6.7 5.8 9.8 2.6-3.2 4.2-6.7 6.3-9.8M246 292.8c-5.1-.3-10.3-.9-15.4 0M301.6 254.2h.4c1.5-.2 3.4-1 4.3.7a6 6 0 0 1 0 5.5c-1.1 2.2-1.1 4.8-1.7 7.2q-.3.8-.4 1.5M498.2 342.1c1.3 2.7.3 4.8-2.5 5.1l-7.5.9M642.1 155.4c-3.1.6-6.1-.2-9.2 0-1.3 0-2.2-1.1-3.1-1.9 0-1.9 1.3-2.8 2.1-4M556.9 523.5c.4 2.3.1 4.7.2 7 0 .8-.2 1.6.2 2.4M632.5 420.6c-2.9 2-6.1 3.5-9 5.7M490.1 168q-4.4.6-8.7 0M413 253.1c.9 1.6.1 3.2.2 4.8v4.2M169.4 298.1c-.4-2.1-1.1-4-3.3-4.6-1.2-.3-2.6-.7-3.5.4a4 4 0 0 0-.4 4.1l2.7 5.1M394.9 256.1c.4 2.2 0 4.4.2 6.6 0 .8-.2 1.6.2 2.4M672.9 462.1c-.6 0-1 0-1.1.9q-.5 3.6-1.2 7M154.6 437.7c.3 2.9-.6 5.9 0 8.8M602.6 378.1c.3 2.9 1.4 5.8.8 8.8M352.8 182.5v8.8M230.2 401c.8-.2.9-1 1.2-1.6q.8-1.4 2.1-.8 1.8.8 1.4 2.6a48 48 0 0 1-5.2 10.1c-.3.5-.6 0-.8.2M524.5 246.7l4.6 8.6M672.1 498.4q2.6-2.7 5.4-5.3a5 5 0 0 0 1.8-3.3c.2-1 .3-2.3-.8-2.9q-1.4-.7-2.7.5l-3.8 4-3.5 3.5" class="cls-4"/><path d="M413.4 277.5q0 4.4-.2 8.7M352.4 224q-4.2 1.2-8.1 3.3M494.9 142h-.2c-1.3 0-2.7-1.3-3.8.6-.7 1.3 0 4 1 5.5 1.7 2.3 4.1 3.9 6 5.9.3.3.6 0 .9.2M676.7 486.7v-1.1c0-1.5-.3-2.7-1.7-3.3-.7-.3-3.6.8-3.9 1.8-1.3 3-3.5 5.2-5.6 7.5M330.6 415.1c2.2.4 4.2 1.5 6.3 2.2q1.2.6 2.5.5M632.8 155.7v1.8c0 2.4 2.6 4.6 4.8 3.9 1.9-.6 3.6-.3 5.4-.2M392 266.9c.6 2.8-.3 5.6 0 8.4M406.6 367.6c-.4 2.8-.1 5.6-.2 8.4M502 461.7q.4 4.1 1 8.1M538.8 409.6c0 2.7-.5 5.4-.6 8.1M165.6 513.1c-1.9.3-2.9 1.7-3.9 3.1a20 20 0 0 1-5.2 4.9c-2.7 1.6-2.7 1.7-4.3-1.1M586.9 353.9c-2.6 1.8-2.9 2.8-1 5.4 1.2 1.7 2.5 3.5 5 2.7M234.5 403.9c1.7 1.8 3 3.6 1.9 6.4q-.3.9-1 1.4-2.2 1.7-4 3.9l-.2.1.1.1M198.5 327.7c-1.3 3.7-3.9 6.6-5.4 10.2a75 75 0 0 1-4.4 9q-.8 1.5-1.1 3.6c-2.4-2-1.5-4.7-2.1-6.9M194.8 314q-4 6.8-7.7 13.6-.4.6-.4 1.3M198.1 328c-1.2-.9-2.5-.2-3.7 0-2.9.5-5.8 1.4-8.7 1.3M195.2 346.5a27 27 0 0 1-6.4 3.6h-.9M96.4 491.7c-3.9 0-7.6-1.4-11.5-1.6q-5-.3-10-1-1.7-.2-3.8.2c1.1-2.9 3.9-3 5.8-4.3M108.1 483.5q-7.8-1.4-15.4-2.6h-1.4M96 491.4c.4-1.5-.7-2.4-1.3-3.5-1.5-2.6-3.3-4.9-4.2-7.8M77.6 495q-3.1-2-5.6-4.8c-.3-.3 0-.6-.2-.8M466.6 324.3c-2.4-.1-4.9.3-7.3-.2M473.8 410q-2.7 2.8-5.2 5.7-1 .8-.8 2M360.5 266.9c-.5 2.5 0 5-.2 7.5M706.7 156.3c-2.4-.8-4.7.3-7.1.2M353.3 474c.6 2.3 1.2 2.8 2.9 2.7 1.3 0 1.6-1 1.9-2q.4-1.6-1-2.4-1.3-1-2.5 0-.9.5-1.3 1.5M261 514.2q3 .7 5.6 2c3.2 1.5 4.7 1.2 6.7-2M663.2 462.1c.5 2.5 1.4 4.9 1.9 7.5M592.8 208.4v5.3c0 .9-.4.9-1.1.9M162.2 279.9q.8 3.6 1.1 7.3M413 243.6c-2.4.7-4.3 2.3-6.7 3.1" class="cls-4"/><path d="M707.3 150.4c1.2 1.8 1.8 3.5-.1 5.3-.8.7 0 2.2-.2 3.5-.4 2-2 3.4-3.8 3-2-.4-3.9-.8-5.8-.2-.4.1-.6-.4-1-.4M416.6 369.1c0 2.4-.5 4.7-.6 7M497.8 347.1c1.1 2.1.7 3-1.2 4.2s-4 .9-6.1 1.3c-1 .2-2.2-.2-2.9.9M258.5 267.1c-2.2.2-4.5 0-6.7.4M591.5 467.8q-.4 3.5 0 7M468.8 533.1c-1.8 0-3.4.8-5.2.9h-1.5M536.7 250.2c-.5 2.3.3 4.8-.8 7M301.4 142c2.5 1.2 4.8 3.8 5 5.7 0 .6.3 1.3-.2 1.7-1.7 1.4-2.6 3.5-4.4 4.9M464.9 521.5q-2.3 2-4.4 4.2a4 4 0 0 1-2.1 1.3M591.3 379.5c0 2.6-1.1 4.9-1 7.5M525.5 509.4q-6-.4-12.1-.2M176 429.4c4-.5 8.1 0 12.1 0M557.6 409.1q-.4-1-.4-2 0-3-2.9-3.1M161.9 152.2c.8 1.9 2.6 2.7 3.8 4.2q2.1 2.6 0 5.1-1.7 2.3-3.5 4.2M230.2 477.5h12.1M682.5 467.4c-2.2 1.6-3.4 4.2-5.4 5.9M686.7 291.1c-.6 3.9-2.1 5.2-6.2 4.6M647.1 285.4v6.2M616.7 467.8c.5 2.2.4 4.4.8 6.6M254.7 534.9c-1.3-.4-2 .8-2.9 1.4l-2.7 1.9M374.9 137.9a43 43 0 0 0-5.4 4.2M435.1 477.5c0 1.9-.5 3.8-.4 5.7M156.3 285.2q1.6 3 3.6 5.7M434.5 241.8q-.2 2.9-.2 5.7M456.4 221.8v5.5M229.3 404.3q-1.4 3-3.5 5.5M567.4 208.4q-.4 3.6.2 7M341.2 246q2.6 2.4 5 5.1M479.7 221.8v5.1M342.2 434.9c-1.6.6-2.4 2.1-3.7 3.1-.6.4-1 1.1-1.7 1.3M168.5 478.4c-2.8 0-5.6-.3-8.3.2M502.8 133.1c-2.3.4-2.4 2.5-2.9 4.3M623.4 405q1.2-.1 2.3.6 1.9 1.5 3.9 2.6M246.4 528.5q-2.3 2-4.8 3.7M341.4 213q-2 2.3-3.7 4.6M605.9 135q1-.7 1.7-1.5 2.5-2.4 3.3 1.1.1 1.4.8 2.4M408.9 286.3q4.5.4 9.2.2M344.7 339.5q4.7.2 9.4-.2M586.3 332.4h-8.7M596.1 262.7c.6 1.5-.2 3 0 4.5M303.3 313.1c1.6.3 3.1 2.1 3.1 4q0 1.8-.2 3.5M550.9 502.8c-1.4-.2-2.6.5-4 .4M664.8 358.1c-2.3-.8-4.6 0-6.9 0M481.3 422.3c-1-.7-2 0-2.9.2s-1.7.9-2.7.6M313.9 478.4l7.1-.2M323.3 563c-2-.3-4.1-.6-6 .2M727.9 167.1c-2.3.8-4.7.3-7.1.2M335.1 563q-3.7-.4-7.5 0M371.8 168.6c.5 2 0 4 .4 5.9M402.4 501.1c1.3-.1 2.3.7 3.5.9.8.1.9 1.4.8 2.3M726.9 213.5c-1.9-.2-3.8.3-5.6-.2M558.8 321.2c-.5-2.5-1.1-5 0-7.5 2.2-5.2 2.6-10.9 3.4-16.5q.3-2 .2-4c0-1.3-.3-2.6-1.9-2.8q-1.9-.2-2.7 1.9-.6 1.4-1 2.9c-.3 3.1-2.1 5.2-4.2 7q-4.2 3.7-3.9 9.5M537.6 299q-1-5.8-3.5-11a3 3 0 0 0-3.1-1.6c-1.5.2-1.4 1.9-1.2 3.2.2 1.9 1.1 3.5 1.7 5.3q2 5.7 3.3 11.4 1.3 6 5.7 9.8 3.8 3.1 4.2 8.2 0 .5.4 1.1" class="cls-4"/><path d="M554.4 299.9c-1.4-1.7-1.6-3.9-2.3-5.9q-1.8-5.8-4.2-11.2c-1.1-2.3-2.9-2.3-4.4-.5-.8 1-.2 1.8 0 2.6q1.5 5 3.3 9.7M533.4 286.9q1-1.2.4-2.6-.7-1.7.3-3c.4-.6 1.4-1.3 2-.8.8.6 2.1.7 2.4 2.1q1.1 5.8 3.1 11.2.8 1.7.8 3.5M538.8 282.1c1.7-2.3 3-.5 4.4.4M109.2 542.9c-.5-2.5-1.1-5 0-7.5 2.2-5.2 2.6-10.9 3.4-16.5q.3-2 .2-4c0-1.3-.3-2.6-1.9-2.8q-1.9-.2-2.7 1.9-.6 1.4-1 2.9c-.3 3.1-2.1 5.2-4.2 7q-4.2 3.7-3.9 9.5M87.9 520.7q-1-5.8-3.5-11a3 3 0 0 0-3.1-1.6c-1.5.2-1.4 1.9-1.2 3.2.2 1.9 1.1 3.5 1.7 5.3q2 5.7 3.3 11.4 1.4 6 5.7 9.8 3.8 3.1 4.2 8.2 0 .5.4 1.1" class="cls-4"/><path d="M104.8 521.6c-1.4-1.7-1.6-3.9-2.3-5.9q-1.8-5.7-4.2-11.2c-1.1-2.3-2.9-2.3-4.4-.5-.8 1-.2 1.8 0 2.6q1.5 5 3.3 9.7M83.8 508.7q1-1.2.4-2.6-.7-1.7.3-3c.4-.6 1.4-1.3 2-.8.8.6 2.1.7 2.4 2.1.6 3.9 1.9 7.5 3.1 11.2q.8 1.7.8 3.5M89.2 503.8c1.7-2.3 3-.5 4.4.4M450.1 336.4c-.1-.9.5-1.1 1-.8.9.4 1.8.1 2.7.2M706.3 181.6q-7 3-10 10.3-1.2 2.7-.7 5.7.7 2.5-1 4.4l-9 10.7q-1 1.2-1.1 2.6 0 1.8 1.3 2.3 1 .5 2.3-.5c2.6-2.3 4.6-5.3 6.9-7.9l1.4-1.8c2.1-3 4.6-4.5 8.3-5 5.2-.7 8.2-4.8 9.8-10q.7-2.2.8-4.3a7 7 0 0 0-6.8-6.7h-2.1M663.2 189.3c-1.5 1.5-2.1 3.8-1 5.7q1.5 3 4.1 5.1c.6.4 1.1.8 1.9 0q2.2-1.8 3.9-4c1-1.5.9-3.2.8-4.8s-1.4-1.8-2.5-1.7q-.9 0-1.7.8c-1 1.2-2.1.7-2.9 0q-1.1-1.2-2.5-1.1M492.2 183.6c-.5-2.6-2.4-3.1-4.6-3.3-3.1-.3-4.6 2-5 5.1-.3 2.5.8 4.7 2.3 6.6q2.3 2.8 5 5.3 2.4 2.5 4.8-.2 2.7-2.5 5-5.5c1.3-2.1 2.8-4.4 1.9-7.2q-1.1-3.8-5-4c-.7 0-4.3.7-4.3 3.3M529.5 189.7c-2.5.6-3.8 2.7-4.5 4.9a25 25 0 0 0 .3 16.6c2.6 2.3 2.4 5.5 2.3 8.6v9.9c0 2 1 2 2.3 2s2.3 0 2.3-2v-38.3l-.2-1.3q-1-.3-2.3-.4M215.7 138c0-3.9 1-7 4.7-9.3s5.3-6.7 6.7-10.8c1.1-3.4 2.1-6.8 4.4-9.7q.3-.4.4-.9c0-1.2.8-2.5-.6-3.5s-2.8-.4-3.9.3a9 9 0 0 0-3 3.5c-1.1 1.9-3.1 2.9-3.8 5q-.4.8-1.3.9c-5.3.9-8.1 4.4-9.6 9.2M201.7 108.6v-9.4c0-1.3-1.3-3.3-3.1-4.7-2.4.9-2.4 3.2-2.5 5.1-.4 6.2.2 12.4.5 18.6q.2 4.7 2.6 9c1.4 2.5 1.5 5 1.1 7.7v1.3M207.8 108.2q0-8.8.9-17.8c0-1.1-1.4-3.5-2.4-3.7s-1.5.5-2 1.3c-1.3 2.2-1.4 4.6-1.7 7q0 1.5-.9 2.6" class="cls-4"/><path d="M221.2 110.4c-1-1.2-.7-2.6-.7-3.9 0-4.8.9-9.5.9-14.3q0-1.1-.2-2.2-1.3-3-3.7-.9c-2.6 2.3-2.2 5.6-2.8 8.6s-.3 6.2-1.1 9.2M215.9 90.6c-.8-.6-.7-1.4-.6-2.2a5 5 0 0 0-.9-3.1q-1.7-2-3.5.2c-.8 1-1 2.4-2 3.3M617.9 70.5a11 11 0 0 1-3.3-8.5q.3-3.2-.7-6.1c-1.1-3.3-3.8-5-7.2-5.7a9 9 0 0 0-5.1 0c-1.6.5-3.4-.1-5-.4q-3.6-.6-4.8 2c-.8 1.9 0 4.4 1.8 5.4q.3.2.9.3" class="cls-4"/><path d="M624.3 71.6h-.4c-2.1-.6-4.4-1.8-6.3-.5a14 14 0 0 0-5.5 7.8c-.9 2.8-.8 5.7-1.3 8.5q-.7 4.1-3.7 4c-1.6 0-2.2-1.1-2.9-2.2-2-3.6-1.5-7.2-.7-11q-1.2-.7-2.8-.2-3.7.9-7.2-.5-5.6-2.1-1.8-6.8M591.8 56.4c-2.7 2.7-2.8 3.8-1.1 6.6 1 1.7 2.6.6 3.8 1.3" class="cls-4"/><path d="M590.7 63.9c-2.6 3.1-2 4.9 2.4 7.2M99.6 184.8c3.7-.6 6.3-2.3 7.6-5.9q2-5.2 5.4-9.9c1.6-2.2 2.2-4.7 3.2-7.2.5-1.2 1.1-2.2 2.5-1.9 1.3.2 1.6 1.4 1.7 2.6.4 3-1 5.7-1.7 8.4-.7 2.5 1 4.7 3.8 4.8s5.4-.3 8.1-.2q2 0 4 .9c1.6.7 1.9 1.8 1.7 3.3-.5 2.8-1.7 3.7-5.3 3.8-2.8 0-5.6.6-8.5.5M134 195c2.2 2.1.2 5.2-2.6 5.2l-9.2-.1a45 45 0 0 1-12.2-1.9q-2-.4-4.1.6-.8.4-1.7.4" class="cls-4"/><path d="M130.1 178q-3.5 0-6.6 1.1-3.5 1.1-2 3.9.5 1.1-.2 1.8-1.5 1.7-.2 3.6c.9 1.1 1.7 1.7 3.4 1.5 3.3-.4 6.6-1.2 10-1.2 1.3 0 1.5-1.5 2.1-2.5q.5-1-.3-1.8-1-.6-1.7-1.2" class="cls-4"/><path d="M135 188.9c1.8 2.3 1.6 3.5-.5 5.4-1.1 1-2.4.5-3.6.6q-3.2.2-6.4 0c-1.3 0-2.4 0-3-1.4q-.8-1.8.8-3.1.3-.1.2-.4M120.1 186.4c-2.3.3-4.3 1.6-6.6 1.8M122.2 195c-2.2 1.4-1 3.1-.4 4.7M419.7 115.8a26 26 0 0 1-11.4 2.4q-12.3.6-24.5-1l-11.4-1.8q-3-.3-6.1-.4c-1.7-.1-3.5-.1-5-.9q-.8-.3-1.3.2c-1.3.7-2 2.9-1.7 5.3.2 1.7 1.5 2.3 2.9 2.4 3.4 0 6.7 1.1 10.1 1.3 1.6.1 3.3 0 4.6-1.3 1.5-1.5 3.4-.5 5-.2a88 88 0 0 0 29.4.6q4.2-.6 8.1-2.2c2.6-1 2.5-1.9 2.1-4.4-1.2-6.7-6.2-7.9-11.5-9.2q-6-1.6-11.5-4.9c-2.9-1.7-5.3-4-8.5-5.1M365.1 93.2q1.8.7 3.1-.9 1.1-1.6 3.1-2.2c1.2.4 1.4 2.2 2.9 2.5 1-.4 1.6-1.4 2.3-2 1.6-1.4 3.2-1.1 3.9.9q.5.5.6 1.3.1.5.5 1.1c-2.8 5.1-9.6 7.9-17 5.5q-3.4-1.3-2.8 2.4" class="cls-4"/><path d="M372.1 115.1c0-5.5-3.7-11.4-8.1-12.9-2.5-.9-3.4-.3-3.7 2.4-.4 3.1.2 6.1.2 9.2M385.7 100.6l2-2.9c1.3-1.8.5-3.6-1.8-3.7-1.5 0-2.9-.4-4.4-.3M392.5 99.8c-.8 2.3-3 3.6-3.9 5.7M398 102.8c-1.3 1.2-3.3 1.6-3.9 3.5M292.5 224.9c.9-1.5.3-3.1.4-4.6v-6.1c0-3-1.9-4.8-4.8-4.8h-14.5c-2.8 0-4.9 1.8-5 4.6v10.5c0 2.8-.3 5.5-.1 8.3.2 4.3 2.1 6.1 6.4 6.2 4.5.1 8.9-.8 13.4.1 1.5.3 4.5-2.6 4.5-4.3 0-3.2.3-6.4-.2-9.6M292.2 224.9H269M281.9 232.1h-4.4M273.8 239.3c-.5 1.5.5 2.8.4 4.2M288.3 239.3c-.5 1.2 0 2.5-.2 3.7M258.5 119.4c.5 4.3.2 8.5 0 12.8 0 1.2.3 2.3.1 3.4s-.3 1.9-1.5 2.2-1.8-.4-2.3-1.3q-1.7-2.9-3-6.1-2.7-6.3-4.8-12.9a73 73 0 0 1-2.9-17.9c-.1-2.5 1.4-4.8 3.3-6.6.7-.6 1.6-1.1 2.8-.4q1.3.6 2.7.9c3.5 1.2 4.8 4 5.3 7.4q1.2 9.2.1 18.4M249.1 90.4c4.2-4 4.7-8.7 1.4-12.7-3.2 2.4-4.1 4.8-2.9 8.3q.6 1.6.5 3.2" class="cls-4"/><path d="M240.7 78.9a12 12 0 0 0 2.1 7.2c1.2 1.9 2.7 3.6 5.3 3.6.8 0 1.4 1.1 1 2.1M241 79.1c1.5.9 3 1.7 3.8 3.3q.5 1 1.9 1.1M246.8 113.9q3.6-.7 7.1-2.2M251.9 102c2 .4 4 .4 6 .9M251.7 128.5l3.6-1.6M104 272.5c-1.7-.4-3.5-.1-5.7-.3v23.2c-14.1-.2-28 .6-42 .6-.3-8.1.3-16-.3-23.9-2.4-.6-4.8.6-7-.3" class="cls-4"/><path d="M74.4 294c.5-1.4.3-2.8.2-4.2-.3-4.3 0-8.6-.2-13.2H65c-1.4 0-1.3 1-1.3 2v16.9M49.7 271.4c2.1-2.6 5-4.2 7.5-6.4q8.8-7.3 17.7-14.5.4-.4 1.3-.7c6.5 5.4 13.7 9.9 20 15.6 2.3 2.1 5.1 3.8 7 6.4M82.3 272.5q-.7 0-.7.7v10.3h9.6v-11h-8.8M542.6 30.1c-.5 2.4 1 4.2 2.1 6 2.6 4.5 4.5 9.3 6.8 13.9.8 1.6 1.7 3.3 1.9 5.3 0 1 .9 2 1.4 3q1.3 2.4.4 5.3c-1.3 3.6-.2 7.1 2.3 10l1.6 1.6a4.6 4.6 0 0 0 6.1.5c2.4-1.8 2.8-3.5 1.4-6.2q-1.6-3-4.1-5l-3.6-3.3a5 5 0 0 1-1.5-4.4 4 4 0 0 0-.4-2.4q-1.1-3-1.5-6.1c-.7-4.2-3-7.6-5.6-10.8-1.8-2.2-3.5-4.7-6-6.3q-.5-.4-.9-.3" class="cls-4"/><path d="M551.6 51.1c-2.4.3-4.8-.2-7.1-.5q-4.6-.5-9.1-.9c-1.3 0-2.5-.5-3.8-.4q-.7 0-1.4.3.9 2 3 2.5a39 39 0 0 0 15.7 3.5c1.5 0 2.9.7 4.4 0M557.6 55.8a17 17 0 0 1 7.7 4.6 9 9 0 0 0 6.5 2.8c2 0 3.7-2 4-3.9.3-2.6-.9-4.3-2.7-5.7-2.2-1.7-4.6-2.8-7.4-1.9q-4.2 1.6-8.2.1-.4-.2-.8.1" class="cls-4"/><path d="M566.2 54.2c-1.5.5-.8 1.7-.6 2.3a8 8 0 0 0 4.2 4.1q1.8.7 3-.8t0-3a7 7 0 0 0-6.4-2.7M559.5 66.7c-1.6.8-1.8 1.1-1.4 2.8q.9 4.3 4.1 4.6c1.9.1 3.2-1.5 2.3-3.1-1.1-2-2-4.3-4.8-4.3M338.3 102.1c-.2-2.7-1.9-4.4-3.9-5.8-4.7-3.3-10.5 0-11.5 4.7q-.7 4.6 1.7 8.5 4.4 7 11.4 11.4.2.3.6.3.3.2.7 0c3.6-3 7.5-6 10.5-9.9q3.6-4.5 3-10.3c-.5-3.5-3.9-5.6-6.8-4.6a9 9 0 0 0-4.7 3q-.3.7-1 1M586 112.3q.6.8.4 1.9-.2 4.8.1 9.6.1 2.3 2.3 1.6 2.3-.6 2.3-2.9c-.3-9.3 0-18.6-.1-27.9 0-2.9 0-5.8-.9-8.6q-.7-2.4-3-2.5-5.8-.2-11.6-.6-3.7-.1-5.1 3.5-1 3.3-1.4 6.7-.6 3.9-.7 7.8c0 1.1-.9 1.7-1.7 2.3q-3.4 2-6.9 3.4-.8.4-1.6.9c-.9.6-1.5 1.5-1 2.7.3.6-.2 1.2-.2 1.9v13.1c0 1.6.6 2 2.4 2q2.3 0 2.1-2v-7.4c0-1.6 0-1.5 1.6-1.4q3.7.3 7.4.4 1.1.1 2.3.3c.8 0 .7.7.7 1.3v10.3c0 1.5.3 1.8 1.9 1.9h1.4q1.3 0 1.3-1.3.2-5.4-.1-10.8-.2-1.2.8-1.9c2.4-1.3 4.4-3.3 7-4.3.6-.2.5-.8.8-1.2" class="cls-4"/><path d="M586.6 95.2c-.7 2.8-.4 5.7-.4 8.6q0 1.7-1.3 2.7c-2.3 1.9-5 3.1-7.6 4.6-1.6.9-3.2.7-4.7.4l-4.3-.4q-5.4-.5-10.8-.7M307.3 117.6c0 .7-.6 1.3-.4 1.8.3.7.1 1.9 1.5 1.9q2.2-.1 2.6-2V93.2c0-2.6-.7-5-3.3-6.2a9 9 0 0 0-3.7-.6c-5.5.1-10.9-.5-16.4-.3-5 .1-8.1 3.4-8.3 8.3v8.7q0 1 .4 1.9" class="cls-4"/><path d="M278.9 97.6c-2.7.5-5.2 1.7-7.7 2.7q-2.2 1-2.2 3.5v18c0 1.9 2.4 3.5 4.1 2.7q.8-.4.9-1.5c0-2.2 0-2.2 2.3-2.2 3 0 5.9.5 8.8.7l11.7.6" class="cls-4"/><path d="M298 104.5c-3.5-.5-7.1-.5-10.7-.9l-2.7-.1c-2.1-.2-3.7.8-5.3 2q-1.4 1-3 1.7c-1.6.9-2.5 3.1-1.9 4.7q.3.7 1.1.7 4.3.2 8.6.6l12.7.9M304.8 97.1v5.6q.2 1.1-1 1.8l-3.6 2.2c-2.2 1.2-2.8 3-2.8 5.3v13.7q0 1.9 1.8 1.4c2.3-.5 2.8-1 2.7-3.3q-.1-1.7 1.2-2.4c1.2-.7 2.1-2 3.7-2M466 60.2c-1.9.4-3.7 0-5.6 0q-2.3-.1-2.3-2.7v-4c0-2.6-1.4-4.6-4.4-4.4q-7.9.4-15.7.1c-2.7 0-4.7 1.9-4.7 4.6v4.4q-.2 2-2 2-1.4.3-2.9.3c-2.5-.3-4.3 1.5-4 4q.1 3 0 5.9 0 1.6 1.6 1.6h5.6c4.3.2 8.6-.2 12.8 0q6.5 0 12.8 0c1.8 0 3.6-.3 5.4.1q1.5.1 3.1-.5 1-.3.9-1.3l-.2-4.1.2-4q0-2-1-3.8-1.4-2.9-1.6-6.1c-.4-4.6 0-9.1 0-13.7q0-5.9.2-11.7a5 5 0 0 0-.9-3.1q-1.4-2-4-1.9h-11.4c-3.5 0-7-.3-10.6-.1q-3.1-.1-4.8 2.6a3 3 0 0 0-.4 1.6v11.3M400.5 52.4q.8.4 1.3 1.2c1.2 2.1 3.4 2.4 5.4 2.7q4.5.5 9 .3 1.3 0 2.4-.6c1-.5 1-1.5.8-2.4-.2-1.2-1.4-2.1-2.7-2.1h-4.8c-4.5 0-4.2-.3-5.6-4.6q-.7-2.3-1.1-4.4-.6-2.7-2.9-4.1c-1.6-1.2-3.4-.9-5-.2q-2.8 1.2-4.6 3.8a49 49 0 0 0-6.6 15c-.6 2 .2 4.1.9 6.1q1.6 4.4 3.1 9 .6 1.5-.6 2.6-3.1 2.4-5.9 5.3-1 .8-1.3 2.1-.3 1.8 1.3 2.9c1 .6 1.9.2 2.7-.2 1.6-.7 2.6-2.1 3.8-3.2q2.6-2.3 5.3-4.5 1.8-1.6 1.4-4-.4-3-.3-6.1" class="cls-4"/><path d="M397.8 59.5c2.1 1.5 4.7 1.8 7 2.7q1.3.4 2.5.9c2.3 1.1 2.9 3.3 3 5.7v11.1q0 1.6-1.3 2.7t-2.9.5-1.6-2.7V71c0-3.1-.1-2.6-2.3-3.2-2-.6-4-1.6-6.3-1.2M466.1 66.3l-41.4.3M476.5 73.6q-.2-.8-.1-1.7.1-12.7.1-25.5l-.1-3c-.3-2.5-2.4-4.3-5-3.3q-1.4.3-2.7 1.1M428.4 72.3c-.3 3.3 0 6.6-.1 9.8q.1 1.2 1.4 1.1c1 0 2.1 0 2.2-1.2.4-3.2 1.2-6.4 1.5-9.7M459 72.3l1 6.7q.1 1 .9 1.6 1.7-.1 1.8-2l.1-6.3M425.7 36.5q-.8.6-1.9.4l-7-.1M452.5 36.1c-1.4.5-2.9 0-4.3 0q-1.6 0-3.1.3M425.2 41.7h-7.3M399.6 48.1q0 .6.3 1.1.6 2.3-.5 4.8-1.2 2.4-1.7 5.1s-.1.5-.4.2M421.7 30.5l3.5 4.6c.5.6.5 1.7 1.4 2M449.3 31.9l1.9 1.9q1 .8 1.5 2.1c.2.6.7 1.2 1.5 1M405.1 24.9a6 6 0 0 0-4.3 4.4q-.2 1.3.1 2.6c1 2.8 3.7 4.4 6.9 3.8 2.3-.4 4-2.7 4-5.6s-2-5.3-5.3-5.3h-1.3M471.7 28.7a4 4 0 0 0-3.3 2.9q-.8 2.5 1 4.3 2 2.1 4.8.8 2.2-1 2.3-3.5 0-4.4-4.7-4.4M153.1 102.4c-1.8.8-3.8.6-5.7 1.2a13.2 13.2 0 0 0-8 18.3c2.1 4.5 6 7 10.5 8.7q5.3 2.1 11 1.7c6.4-.6 12.4-2.4 16-8.5 3.9-6.8 1.3-13.6-5.1-17.4-2.4-1.4-5-1.6-7.6-1.6-.8 0-1.2.6-1.8.9" class="cls-4"/><path d="M169.8 105.3c.7-1.6 2.3-2.3 3.2-3.7q1-1.1 1.4-2.5c-1.4-1.2-4.4-1.2-6.2.2-2 1.4-4.1 2.7-4.5 5.5M159.9 99.6c-1.5.7-2.9-.7-4.4-.4q-.5-.1-1-.1c-.7.3-1.7 0-2 1-.1.7 1 2.5 1.8 2.7q3.3.7 5.5 3.2M165 101.5c-.7-.8-.5-1.7-.5-2.7 0-2-1-3.5-2.1-3.6-1.1 0-2.3 2-2.3 3.7q.2 1.2.8 2.2c.4 1.5.6 3 1.4 4.4M162 105.6c-1.8 0-2.6 1.6-3.7 2.7l-1.1 1.2M604.3 100.8q2.5.7 5 .7 6.9 0 13.8-.2 1.5 0 1.7-1.4c.1-.7.2-1.5-.8-2q-2.2-1-4.6-1.3c-4.1-.3-8.2-.5-12.3.5-2.6.6-2.7 1.1-3.1 3.7-1 6.7.1 13.5-.2 20.2q0 3.3 2.9 4.1a26 26 0 0 0 15.3-.4q2-.7 2.2-2.9c.3-5.6 1.1-11.1.9-16.7 0-.9-.2-1.8.4-2.6" class="cls-4"/><path d="M624.5 101.2q1 1.2 2.6 1.4 3.8.6 5.5 4.1 1.5 3.3-.7 5.9-2.6 3-6.5 2.5M483.2 105.5c.5 3 .2 6 .4 9 .2 3.7 2.1 5.3 5.3 6.1a22 22 0 0 0 11.4.2c2.2-.6 2.8-1.3 3.1-3.5q.2-2 .8-4c.5-1.4-.4-3 0-4.6.7-2.9.1-5.8.7-8.8.3-1.7-.3-4-.9-5.9q-.8-1.4-2.2-1.7-2-.7-4.1-.7c-3.4 0-6.9-.5-10.3.4q-4.4 1.1-4 5.7c.2 2.5-.4 5-.2 7.5" class="cls-4"/><path d="M484.1 95.4a25 25 0 0 0 16.2 2q2-.4 3.7-1.6M504.7 113c2-.2 3.1-1.7 3.4-3.3.6-2.6.8-5.3-.3-7.9a3 3 0 0 0-2.4-2M454.7 122.1q3.8.5 7.6.1c2.4-.2 4.9.1 7.3-.3q1.4-.1 1.2-1.4c.1-6.4.6-7.9-.4-14.1-.4-2.9-2.7-7.9-5.8-8-5.5-.2-10.4 0-15.9.2-.7 0-3.8.9-4 1.1-1.8 2.1-2.4 2.1-3.9 4.5-1.5 2.2-1.5 4.6-1.3 7q.3 3 1.8 5.8a12 12 0 0 0 3.4 4q3 2.5 6.1 0a10 10 0 0 0 4.2-7.8c0-2.9-.5-6.8-1.1-8.6s-1.7-3.8-3.4-4.3-4.6-1-6.2.5" class="cls-4"/><path d="M446.4 108.6c-1.9 1.2-2 3.8-.2 5q1.4 1 2.3-.5c1-1.8.1-4-1.7-4.5M455.1 113.1c-.4 2.6-.7 7.6-.5 8.9M554.2 371.1q-2.4-2.7-5.9-3.7-1.1-.3-2.2-.9c-2.9-1.4-5.5-.5-6.8 2.4-1.2 2.7-.4 6.3 2 7.9q6.4 4.2 13.6 2c3.2-1 4.1-4 3.4-7.2-1.3-5.6-5.7-6.8-10.2-8-1.6-.4-2.5 1-3.5 1.9M566.9 362.8q.3-.4.7-.6c.9-.5.9-2.3 2.6-1.6 1.6.7 2 2.1 2.1 3.5.2 3-1.9 4.4-4.1 6-2.8 2-6.2 1.6-9.2 2.6" class="cls-4"/><path d="M569.8 360.2c-.6-1.9-2.2-2.3-3.7-3.1a14 14 0 0 0-9-1.1q-6.5 1.2-9.2 7.3" class="cls-4"/><path d="M560.8 356.2c-.4 1.1-1.3 2-1.8 3.1q-.6 1-.2 2.2M566 357.6a8 8 0 0 1-3.1 3.9M40.4 305c-2.6 0-4.8 1.2-7 2.4a14 14 0 0 0-7.5 12.5q-.4 6-1.2 11.8-.6 4 3.5 3.5 2.1-.1 4.2-.2M57.5 335H63c2.5 0 2.5-.3 2.4-2.8-.2-5.5-1.4-10.8-2.2-16.2q-.9-5-5.1-7.6c-2.2-1.4-4.3-3.1-7.2-2.9" class="cls-4"/><path d="M32.9 318.8v18c7.8-.2 15.2.2 22.6-.2q2.1 0 1.7-2c-.8-4.8-.2-9.7-.7-14.5 0-.4.2-.9-.2-1.3M39.7 305.6c.4 1.7.8 3.5 2.2 4.8 3.1 2.8 7.4 1.4 8.3-2.8l.4-2q-1.2-1.4-2.8-.4-3.7 2.2-7.2-.9M493.8 232.5c2.6-3 5.5-3 7.7 0 1.1 1.6.9 3.7-.7 4.8-1.3 1-2.6 2-2.1 3.7.6 2.1 2.4 3.3 4.3 3.7 4.5.9 8.1 2.9 10.5 6.9a88 88 0 0 0 6.6 9.4q2.4 2.6 5.7 4.4l3.1 2q2.1 1.2 1.3 3.5-1 2.5-3.7 2.1c-1.7-.3-3.1-1.3-4.6-2.1q-3.2-2-6.6-3.7c-2.4-1.1-3.7-3.3-5.3-5.2-.6-.7-1-1.6-2.1-2.1-1.9 2.9-2.6 6.3-3.8 9.5q-.8 2.3.7 4c2.4 3.1 4.6 6.4 7.5 9.2 3.3 3.2 3.9 7.4 4.1 11.6.2 3.9 1.3 7.6 1.6 11.4.1 1.5.8 3.1 3 2.6.6-.1.9.4 1.3.5.6.2 1.4.8 1.1 1.7q-.3 1.2-1.7 1.3-4.7.4-9.2-.3c-1.8-.2-2.3-1.9-2.6-3.5l-2.6-13.8a7 7 0 0 0-2.2-4.4c-3.1-2.6-5.7-5.7-8.8-8.3" class="cls-4"/><path d="M502.8 245q-1.2 4.3-5 2.2-.7-.2-1.3-.7c-2-2.2-4.2-1.8-6.6-.7-3.4 1.6-7.1 2-10.1 4.6a18 18 0 0 0-5.6 7.8q-2.4 6.8-4.7 13.8-1 3.3 2.4 4.6 2.2 1 3.5-2.2c1.3-3.4 2.4-6.9 4.4-10.1q2.4-3.7 6.4-5.2" class="cls-4"/><path d="M487.3 257.5q-.8 1-.5 2.6c.4 2.6-.4 5.2-.6 7.9q-.9 8.4-1.5 16.9-.5 5.1-3.7 9-4.1 5.1-8 10.5-.6 1-1.1 2.3 3 4.4 8.1 5.9 1.3.6 2.2-.5c.6-.8 0-1.4-.4-2l-1.1-1.1q-1.7-1.4 0-2.9c3.5-3.2 6.5-7 9.9-10.3a9 9 0 0 0 3.2-5.7q.5-4.7 2.2-9v-.9M730.8 241.4c-3.4.8-5.3 3.3-6.5 6.2a16 16 0 0 0-.3 13.3c2.1 4.7 6.8 9 13.4 9.3 6.8.3 13.8-3.9 15.2-11.9 1.7-9.6-4.7-18.1-14.4-18.4-2.6 0-5.1 0-7.5 1.3M695.1 242a15 15 0 0 0-22.3 8.3c-2.3 8.4 1.6 17.2 10.5 19.4a16 16 0 0 0 19.1-12.2c1.3-7-2.4-11.4-6.9-15.6" class="cls-4"/><path d="M732.1 230.8q1.2-.2 2.4-.2c1.3 0 2.7.1 2.9-1.7q.4-4-2.4-4.3-4.2-.4-8.3.4c-1.3.3-1.3 1.2-.9 2.2q2.4 7 5.3 13.8M727.3 233.5c-2.3.5-4.7.2-7 .2h-16.4q-1.8-.2-3.3.7M728.2 235.2q-9.2 9-17.6 18.8-.4.5-.6 1.1" class="cls-4"/><path d="M697.3 224.9c0 2.9 1.4 5.5 2.5 8.1 2.5 5.8 4.3 11.8 6.3 17.8q.9 2.2 1.6 4.4M702.1 256.7c-3.4-.5-6.9-.1-10.3-.2q-2.2.2-4.2-.8c.9-2.6 2.6-5 4-7.5q3.4-5.8 7-11.4.6-1 1.5-1.5M710.2 255.4c2 2.1 2.3 3.4 1.1 4.8a3 3 0 0 1-3.7.9q-2.3-1.2-1.7-3.7c.3-1.3 1.2-2.3 2.8-2.2h1.1M707.1 224.9c-5.4-.3-10.8-.9-16.2 0M18.7 245.5c-.2 4.2.3 8.5.2 12.7q-.1 2.3 2.2 2.2l12.9.2q10.2.2 20.4.2c3.4 0 3.5-.1 3.5-3.5v-11.6c2.7-4.7.8-9.8 1.1-14.7 0-1.4-1-1.3-2-1.3q-9.3.2-18.6.1c-6.1-.2-12.3.4-18.4-.5q-2.4-.3-2.4 2.2v11.8q0 1.8 2 2c5.3 1 10.7.8 16 1.3M46.4 229.2c-.2-2.3-.5-2.5-2.6-2.7q-4.7-.2-9.4-.2c-2.1 0-2.7.6-3.1 2.8" class="cls-4"/><path d="M57.8 245.5c-5.5.8-11 .7-16.4 1.3M35.8 246.8c.6 2.3 1.3 2.7 3.1 2.7 1.4 0 1.6-1 2-2q.4-1.6-1.1-2.4-1.4-1-2.6 0-.9.5-1.3 1.5M85 327.2a66 66 0 0 0-6.8 21l-1.1 8.8q-.4 2.3 2 2.4 6 .5 12.1.8 5.6.1 11.2-.7c1.7-.3 2-.7 1.8-2.5-.8-5.3-1.2-10.7-2.5-16q-1.6-6-4.7-11.4a6 6 0 0 1-.7-4.9c.7-2.8.8-5.6 1.5-8.3q.5-2.8-2.4-2.6h-8.5c-2.9-.1-2.9 0-2.7 2.7q.3 5.3 1.1 10.5" class="cls-4"/><path d="M95.6 327c-3.4.8-6.9.5-10.3.2M86.1 305.1c-.4 2.8-.1 5.6-.2 8.3M96.7 306.6c0 2.4-.5 4.7-.7 7M504.9 45.9c.2.4.7.8.5 1.1-1 2-.5 4.3-.9 6.4-.5 2.6.9 4.3 2.1 6.1q1 1.3 2.2 2.4c4.2 4 4.8 9.3 5.7 14.5l.8 5.7c.2 1.2.3 2.6-.8 3.8q-1.5 1.7-3.5 1.2-2-.7-2.2-2.9-1-5.7-2.1-11.3a9 9 0 0 0-1.6-3.5c-1.4-1.7-2.5-3.7-4.3-5.1-.8-.6-.7-1.7-.7-2.6M491.7 60.8q1 6-2.4 11a78 78 0 0 0-5.9 9c-1.2 2.3.5 4.9 3.1 5.1q1 0 1.5-.7c4.5-5.8 9.5-11.3 11.4-18.6q.2-1.2.9-2M499.3 31.2c-.3-1.1-1.4-1.5-2-2.4-1.6-2.6-1.2-6 1.7-8.3 2-1.6 5.7-1.1 7.2 1.1 1.8 2.6 1.8 7-1.3 8.8q-1.2.5-1.9 1.5c-1.4-.3-2.8-.9-4-.3-2.8 1.2-5.7 2.2-7.5 5a31 31 0 0 0-3.9 11.8q-.9 4.5-.9 9.2 0 3 2.2 3.3c2.4.3 3-.2 3.5-2.6q1.4-6.3 2.2-12.7" class="cls-4"/><path d="M503.3 32.1c2.6 2.1 4 4.9 5.1 8.1 1.2 3.5 4.4 4.9 7.6 6.2l4.4 1.7q2.3 1 1.9 3.1c-.4 1.5-2 1.9-3.4 1.5-2.8-.9-5.8-1.4-8.6-2.3-1.9-.6-2.7-2.7-4.6-3.1M532 35.1c-5.7.7-11.4.2-17.1.3" class="cls-4"/><path d="M525.9 29.7c2.7 1.2 5 3.8 5.2 5.7 0 .6.3 1.3-.2 1.7-1.8 1.4-2.8 3.5-4.6 4.8M323.2 64.4c2.5-.5 5.1-.1 7.7-.2q1.4.2 2.9-.4-.9-7.2-2.2-14.5c-.3-1.3-.9-1.5-2-1.5H316c-1 0-1.5.1-1.8 1.3q-1.3 6.6-2.1 13.4-.1 1.8 1.9 1.8h6.8q1.1-.1 2.2.3M323 64.6c-.4 5-.2 9.9-.2 14.9q0 2.8.2 5.5M316.4 85.7c1.2-.8 2.5-.5 3.7-.4q3.9.3 7.7.1c1.2 0 2.1.7 3.3.5M158.4 180.9c-1.4 3.7-4.1 6.6-5.7 10.2a95 95 0 0 1-4.6 9q-.8 1.5-1.1 3.6c-2.5-2-1.6-4.7-2.2-6.9M154.4 167.2q-4.2 6.7-8.1 13.6-.3.6-.4 1.3M157.9 181.2c-1.3-.9-2.6-.2-3.9 0-3.1.5-6.1 1.4-9.2 1.3" class="cls-4"/><path d="M154.9 199.6a32 32 0 0 1-6.8 3.6h-.9M552.5 337.4h-21.9q-2.4.1-2.2-2.3c0-2.1.5-4.2-.6-6.6-6.2 4.6-11.5 9.8-17.4 15q8.6 8.2 17.9 14.6" class="cls-4"/><path d="M554 348.9h-22.8c-2.6 0-2.8.2-2.8 2.9 0 2 .4 4-.4 6M110.1 226.3q0 .4-.4.9c-6.6 6.5-12.8 13.5-19.5 19.9-.5.5-1.1 1.1-1.7.8-.9-.3-1-1.3-.9-2.2.4-3.3 0-6.6.3-10 0-1.8-.6-2.2-2.2-2.2q-7.2.2-14.3 0M111.4 226.1q-.8.1-1.6-.6L91 206.4c-.7-.8-1.4-1.6-2.6-1.5-1.5 2.9-.7 6-.8 9.1q.2 1.8.2 3.8c-.1 1-.4 2-1.7 2-4.8-.1-9.7.3-14.5-.2M378 43.8c-.5-.5-1.2-.2-1.7-.2h-34c-.7 0-1.5-.3-2.2.4-1 7.9 2 17.8 10.6 21.6 3.6 1.6 7.2 1.7 10.9 1.4a17 17 0 0 0 14.3-9 23 23 0 0 0 2.6-13.9" class="cls-4"/><path d="M365.9 66.8q.4 1.4.2 2.7 0 2.4-2.4 2.2H355c-2.9 0-3.3-.4-3.1-3.3q.2-.8.5-1.5M510.8 362.6q-2.8.6-3.6 3.5c-.6 2.7.7 6 4.2 5.9q4-.1 4.8-3.2c.8-3.9-1.6-6.3-5-6.2h-.4M440.9 94.8c1.3-1.5.4-3.2-1.6-3.4s-3.4.8-4.9 2.1c-2.5 2.2-5.5 4-8.2 5.9.7 0-.1.8.5.7-.9-1.6-3.5-2.8-5.5-2.5q-.6 0-1.1.5-.4.4-.5 1.2c-.2 1.5.3 4 1.7 4.8s3.4 0 4.7-.9q1-.6 1.2-1.5c.3-1.4-1.2-2.5-2.5-3.2-4.1-2.2-8.7-5.1-13.3-4.4-1.8.3-3.7 2.3-3.1 4.1q.2.6.7 1.1c1.2 1.2 3.2 1.6 4.8.8s2.4-2.7 1.8-4.3-2.7-2.5-4.2-1.7l12-5.9q1.3-.8 3-1c1.7-.2 2.2.4 2.7 1.3s-.2 2.3-1.2 2.4" class="cls-4"/></g><g style="clip-path:url(#clippath-1)"><path d="M41 462.2h88.8v82.2H41z" style="fill:#fffff1"/><path d="M103.4 500.4a70 70 0 0 0-6.5 21.1l-1 8.8q-.4 2.2 1.9 2.5 5.7.5 11.5.8a63 63 0 0 0 10.6-.7c1.6-.3 1.9-.7 1.7-2.5-.7-5.4-1.1-10.8-2.4-16q-1.5-6-4.5-11.4a7 7 0 0 1-.7-4.9c.7-2.8.8-5.6 1.4-8.4q.6-2.8-2.3-2.7H105c-2.8-.1-2.8 0-2.5 2.7q.3 5.3 1.1 10.5M68.7 514.2q-4 1.7-4.3-3a103 103 0 0 1 .5-21.5q.5-3.7 2-7 2.9-6.1 1.7-12.7M79.1 486.1q1.2 4 4.4 6.3 1 .6 1.5 2 1.4 4.4 4.4 8 .4.5 1 .7c2.4.8 3.9-.5 3.2-3-1.5-5.1-2.5-10.3-3.8-15.5a9 9 0 0 0-2.6-4.2q-4.4-4-3.5-10" class="cls-3"/><path d="M78.8 501c.9 2 0 4 0 5.9 0 2.4-.3 4.7 0 7.1q.3 2.8 2.5 2.8c1.6 0 2.3-1.2 2.6-2.7q.5-2.2.5-4.6c0-3.4.3-6.7 0-10.1 0-1.1 0-2.3.9-3.1" class="cls-3"/><path d="M79.5 516.2v.2c-.7 1.1-.4 3.2-2 3.4s-2.1-1.9-3.2-2.9c-.6-.5-.4-1.6-.4-2.4.2-4.7-.3-9.4-.2-14.1M73.9 517.2l-.2.2c-.8.9-1.7 1.8-2.9 1.4-1.3-.5-1-1.9-1.3-3-.9-4.3-.2-8.5-.3-12.8q.1-2.2-.1-4.4M113.4 500.2c-3.2.8-6.5.5-9.8.2M104.4 478.2c-.4 2.8-.1 5.6-.2 8.4M55 506.6c1.2 3.7 1.1 7.6 2.1 11.4q1.4 4.8 2.2 9.8.4 1.7 1.4 3.5c-3.1-.1-4.1-2.7-5.9-4.1M43.5 498.1c.9 5.1 1.4 10.3 2.4 15.5q.1.7.5 1.3M54.9 507.1c-1.5 0-2.1 1.4-2.9 2.3-2 2.2-3.7 4.7-6 6.5M64.1 523.4a27 27 0 0 1-2.8 6.8c-.2.4-.5.2-.7.5M114.4 479.7c0 2.4-.5 4.7-.6 7" class="cls-3"/></g><path d="M425.2 29.9c-32.9 6.8-61.9 36.9-55.6 66.7-41.3-22.2-94.6-16.7-141.3-3-24.9 7.3-50.7 18-64.8 38.3S154 184 178 192.2c-28.3-1.4-57.6.8-83.8 11.5s-49 30.9-56.5 56.1c-10.2 34.2 10 70.3 39.8 91.9s67.5 31.8 104.2 41.5c-29.4 2.5-55.2 27.1-56.5 53.9-1.1 22.3 12.8 42.7 29.5 58.5a191 191 0 0 0 152.8 48c56-7.5 108.3-42.3 131.2-90-1.8 16.9 9.9 32.8 25.5 41.5s34.5 11.5 52.9 12.6c37.4 2.3 75.4-1.1 112-10.1 27.5-6.8 55.8-17.7 72.7-38.9a88 88 0 0 0 17.9-52.2c2-44.5-20.9-88.6-59.5-114.7 32.7 5.7 68.1-22.9 65.8-53.3-.7-9.7-4.6-19-9.6-27.5a98 98 0 0 0-58-45.3c-25.3-6.6-35.4-8.2-51.3 6.8 18.1-19.1 30.7-22.2 33.7-48.8 1-9.2-1.2-18.4-4.3-27.2-14.7-40.8-49.5-70.9-98.3-71-35.9-.1-78.5-13-113.1-5.8ZM107.7 482.5c-7.6-8.3-22.2-9.8-31.3-8.7s-18.1 6.2-21.5 14.6 1 19.7 9.9 21.7c-7.7-.6-10.6 11.5-5.2 17s14 5.9 21.8 6c11 0 23.5-.6 30.6-8.8 9.8-11.4 3.3-33.5-4.2-41.7Z" class="cls-2"/><g style="clip-path:url(#clippath-2)"><path d="M23.7 551.6h35.9v28.3H23.7z" class="cls-8"/><path d="M41.6 568.7c-.5-2.6-2.4-3.1-4.6-3.3-3.1-.3-4.6 2-5 5.1-.3 2.5.8 4.7 2.3 6.6q2.3 2.8 5 5.3 2.4 2.5 4.8-.2 2.7-2.5 5-5.5c1.3-2.1 2.8-4.4 1.9-7.2-.8-2.4-2.4-4-5-4-.7 0-4.3.7-4.3 3.3" class="cls-4"/></g><path d="M52.7 557.1c-6.9-1.9-25.6.5-26.9 9.6s14.1 12.2 22.5 9.9 12.1-15.6 4.4-19.5Z" class="cls-2"/></svg>