<?xml version="1.0" encoding="UTF-8"?>
<svg id="Capa_2" data-name="Capa 2" xmlns="http://www.w3.org/2000/svg" viewBox="0 0 317.62 319.36">
  <defs>
    <style>
      .cls-1 {
        fill: #f2f2f2;
        stroke: #0c0c0c;
        stroke-miterlimit: 10;
        stroke-width: 7px;
      }
    </style>
  </defs>
  <g id="Layer_1" data-name="Layer 1">
    <path class="cls-1" d="M248.47,272.31c67.49-44.71,85.96-135.68,41.24-203.17C245,1.65,154.04-16.81,86.55,27.9,19.05,72.62.59,163.58,45.3,231.07c9,13.58,19.87,25.18,32.05,34.67-6.81,10.95-16.02,20.65-27.47,28.23-11.6,7.69-24.3,12.41-37.21,14.36,27.7,11.88,60.65,10.02,87.66-7.87,5.82-3.86,11.06-8.26,15.7-13.1,42.49,15.89,91.73,11.92,132.44-15.05Z"/>
    <g>
      <polygon points="70.64 129.53 66.08 129.53 66.08 112.3 70.64 112.3 70.64 107.27 55.66 107.27 55.66 112.3 60.23 112.3 60.23 129.53 55.66 129.53 55.66 134.57 70.64 134.57 70.64 129.53"/>
      <polygon points="109.6 134.57 113.62 134.57 120.64 113.93 114.87 113.93 111.05 126.66 106.75 116.9 103.48 116.9 99.32 126.72 95.48 113.9 89.71 113.93 96.61 134.57 100.59 134.57 105.06 123.62 109.6 134.57"/>
      <path d="M128.91,133.55c1.38.94,2.92,1.4,4.64,1.4.96,0,1.87-.15,2.73-.45.86-.3,1.63-.7,2.32-1.21.59-.43,1.08-.93,1.5-1.46v2.73h5.58v-20.63h-5.5v2.74c-.4-.55-.85-1.05-1.38-1.49-.64-.52-1.38-.93-2.22-1.23-.85-.3-1.77-.45-2.79-.45-1.79,0-3.39.46-4.8,1.36-1.4.91-2.52,2.17-3.33,3.78-.82,1.61-1.23,3.46-1.23,5.54s.4,3.93,1.21,5.54c.81,1.61,1.9,2.89,3.28,3.82ZM130.58,121.11c.44-.88,1.05-1.58,1.81-2.09.77-.51,1.66-.76,2.67-.76s1.95.25,2.73.76c.78.51,1.38,1.2,1.81,2.09.43.88.64,1.91.64,3.08s-.21,2.24-.64,3.14c-.43.9-1.03,1.59-1.81,2.09-.78.49-1.69.74-2.73.74s-1.91-.25-2.67-.74c-.77-.49-1.37-1.19-1.81-2.09-.44-.9-.66-1.94-.66-3.14s.22-2.2.66-3.08Z"/>
      <path d="M155.86,134.57h2.73v-12.4c0-.55.11-1.05.33-1.52.22-.47.52-.88.9-1.25.38-.36.83-.64,1.36-.84.53-.19,1.11-.29,1.74-.29.78-.03,1.44.1,1.97.39.53.29.93.74,1.19,1.36.26.62.39,1.4.39,2.34v12.21h5.54v-12.64c0-1.85-.27-3.4-.8-4.66-.53-1.26-1.33-2.2-2.38-2.83-1.05-.62-2.36-.94-3.92-.94-1.14,0-2.24.23-3.28.7-1.04.47-1.93,1.09-2.67,1.85-.18.19-.35.38-.5.58l-.1-2.71h-5.3v20.63h2.81Z"/>
      <polygon points="181.13 134.57 186.66 134.57 186.66 118.89 190.92 118.89 190.92 113.93 186.66 113.93 186.66 108.71 181.13 108.71 181.13 113.93 177.27 113.93 177.27 118.89 181.13 118.89 181.13 134.57"/>
      <path d="M224.53,113.93l-4.33,12.17c-.2.62-.39,1.2-.58,1.75-.05-.17-.09-.32-.14-.49-.19-.58-.4-1.1-.6-1.54l-5.03-11.9h-6.28l9.32,20.55-3.86,9.05h5.62l3.55-8.97,8.66-20.63h-6.32Z"/>
      <path d="M254.72,129.77c.94-1.61,1.4-3.46,1.4-5.54s-.47-3.93-1.4-5.54c-.94-1.61-2.23-2.88-3.88-3.8-1.65-.92-3.52-1.38-5.6-1.38s-3.98.46-5.64,1.38c-1.65.92-2.95,2.19-3.9,3.8-.95,1.61-1.42,3.46-1.42,5.54s.47,3.93,1.42,5.54c.95,1.61,2.25,2.88,3.9,3.8,1.65.92,3.53,1.38,5.64,1.38s3.95-.46,5.6-1.38c1.65-.92,2.94-2.19,3.88-3.8ZM249.86,127.25c-.46.9-1.09,1.6-1.89,2.11-.81.51-1.72.76-2.73.76s-1.96-.25-2.77-.76c-.81-.51-1.44-1.21-1.91-2.11-.47-.9-.69-1.9-.66-3.02-.03-1.14.19-2.16.66-3.04.47-.88,1.1-1.59,1.91-2.11.81-.52,1.73-.78,2.77-.78s1.92.25,2.73.76c.81.51,1.44,1.21,1.89,2.11.45.9.67,1.92.64,3.06.03,1.12-.19,2.13-.64,3.02Z"/>
      <path d="M275.76,131.7l.13,2.86h5.27v-20.63h-5.54v12.36c0,.57-.1,1.11-.31,1.6-.21.49-.5.92-.88,1.29-.38.36-.82.64-1.33.84-.51.19-1.06.29-1.66.29-.83,0-1.53-.18-2.11-.55-.57-.36-1.01-.89-1.33-1.58s-.47-1.5-.47-2.44v-11.82h-5.54v12.71c0,1.74.29,3.23.88,4.47.58,1.24,1.42,2.18,2.5,2.85,1.08.66,2.37.99,3.88.99,1.17,0,2.26-.22,3.28-.66,1.01-.44,1.88-1.05,2.61-1.83.23-.24.42-.5.61-.75Z"/>
      <polygon points="51.82 146.71 46.29 146.71 46.29 151.93 42.42 151.93 42.42 156.89 46.29 156.89 46.29 172.57 51.82 172.57 51.82 156.89 56.07 156.89 56.07 151.93 51.82 151.93 51.82 146.71"/>
      <path d="M76.69,152.89c-1.65-.92-3.52-1.38-5.6-1.38s-3.98.46-5.64,1.38c-1.65.92-2.95,2.19-3.9,3.8-.95,1.61-1.42,3.46-1.42,5.54s.47,3.93,1.42,5.54c.95,1.61,2.25,2.88,3.9,3.8,1.65.92,3.53,1.38,5.64,1.38s3.95-.46,5.6-1.38c1.65-.92,2.94-2.19,3.88-3.8.94-1.61,1.4-3.46,1.4-5.54s-.47-3.93-1.4-5.54c-.94-1.61-2.23-2.88-3.88-3.8ZM75.71,165.25c-.46.9-1.09,1.6-1.89,2.11-.81.51-1.72.76-2.73.76s-1.96-.25-2.77-.76c-.81-.51-1.44-1.21-1.91-2.11-.47-.9-.69-1.9-.66-3.02-.03-1.14.19-2.16.66-3.04.47-.88,1.1-1.59,1.91-2.11.81-.52,1.73-.78,2.77-.78s1.92.25,2.73.76c.81.51,1.44,1.21,1.89,2.11.45.9.67,1.92.64,3.06.03,1.12-.19,2.13-.64,3.02Z"/>
      <path d="M133.57,172.57v-12.52c0-1.85-.27-3.41-.8-4.68-.53-1.27-1.33-2.23-2.4-2.87-1.07-.64-2.41-.96-4.02-.96-.68,0-1.36.1-2.07.31-.7.21-1.38.49-2.03.86-.65.36-1.24.81-1.75,1.33-.42.42-.77.89-1.07,1.38-.29-.7-.63-1.3-1.04-1.79-.6-.71-1.33-1.24-2.18-1.58-.86-.34-1.82-.51-2.89-.51-.7,0-1.4.11-2.11.33-.7.22-1.36.53-1.99.92-.62.39-1.18.86-1.66,1.4-.14.15-.25.33-.37.49l-.08-2.75h-5.34v20.63h5.58v-12.36c0-.55.1-1.05.31-1.52.21-.47.49-.88.86-1.23.36-.35.8-.62,1.31-.82.51-.19,1.06-.29,1.66-.29.73,0,1.34.16,1.83.47.49.31.87.77,1.13,1.38.26.61.39,1.35.39,2.2v12.17h5.58v-12.32c0-.55.1-1.06.31-1.54.21-.48.5-.9.88-1.25.38-.35.82-.62,1.33-.82.51-.19,1.06-.29,1.66-.29.78,0,1.42.15,1.91.45.49.3.87.75,1.13,1.35.26.6.39,1.37.39,2.3v12.13h5.54Z"/>
      <path d="M160.52,172.57v-20.63h-5.5v2.74c-.4-.55-.85-1.05-1.38-1.49-.64-.52-1.38-.93-2.22-1.23-.85-.3-1.77-.45-2.79-.45-1.79,0-3.39.46-4.8,1.36-1.4.91-2.52,2.17-3.33,3.78-.82,1.61-1.23,3.46-1.23,5.54s.4,3.93,1.21,5.54c.81,1.61,1.9,2.89,3.28,3.82,1.38.94,2.92,1.4,4.64,1.4.96,0,1.87-.15,2.73-.45.86-.3,1.63-.7,2.32-1.21.59-.43,1.08-.93,1.5-1.46v2.73h5.58ZM152.64,167.42c-.78.49-1.69.74-2.73.74s-1.91-.25-2.67-.74c-.77-.49-1.37-1.19-1.81-2.09-.44-.9-.66-1.94-.66-3.14s.22-2.2.66-3.08c.44-.88,1.05-1.58,1.81-2.09.77-.51,1.66-.76,2.67-.76s1.95.25,2.73.76c.78.51,1.38,1.2,1.81,2.09.43.88.64,1.91.64,3.08s-.21,2.24-.64,3.14c-.43.9-1.03,1.59-1.81,2.09Z"/>
      <polygon points="178.98 160.91 188.56 151.93 181.26 151.93 173.42 159.87 173.42 143.71 167.89 143.71 167.89 172.57 173.42 172.57 173.42 166.11 175.31 164.34 181.85 172.57 188.52 172.57 178.98 160.91"/>
      <path d="M209.52,154.41c-.87-.92-1.9-1.64-3.1-2.16-1.2-.52-2.5-.78-3.9-.78-1.51,0-2.91.27-4.19.8-1.29.53-2.4,1.29-3.33,2.26s-1.66,2.13-2.18,3.45c-.52,1.33-.78,2.79-.78,4.41,0,2.05.46,3.87,1.38,5.46.92,1.59,2.22,2.83,3.9,3.74,1.68.91,3.63,1.36,5.87,1.36.94,0,1.88-.12,2.85-.35.96-.23,1.9-.58,2.81-1.03.91-.45,1.74-1.02,2.5-1.7l-2.65-3.71c-.86.7-1.66,1.2-2.42,1.48-.75.29-1.59.43-2.5.43-1.33,0-2.48-.25-3.45-.76s-1.73-1.22-2.26-2.13c-.3-.52-.51-1.09-.64-1.72h14.7l.04-1.72c.05-1.46-.16-2.81-.62-4.08-.47-1.26-1.14-2.35-2.01-3.28ZM199.69,156.89c.79-.44,1.76-.66,2.91-.66.78,0,1.48.16,2.11.49.62.33,1.14.77,1.54,1.33.4.56.63,1.19.68,1.89v.16h-9.47c.1-.45.24-.87.42-1.25.42-.86,1.02-1.51,1.81-1.95Z"/>
      <polygon points="239.41 146.71 233.87 146.71 233.87 151.93 230.01 151.93 230.01 156.89 233.87 156.89 233.87 172.57 239.41 172.57 239.41 156.89 243.66 156.89 243.66 151.93 239.41 151.93 239.41 146.71"/>
      <path d="M264.86,152.44c-1.05-.62-2.36-.94-3.92-.94-1.14,0-2.24.23-3.28.7-1.04.47-1.93,1.09-2.67,1.85-.16.17-.31.34-.45.52v-10.87h-5.46v28.86h5.54v-12.4c0-.55.11-1.05.33-1.52.22-.47.52-.88.9-1.25.38-.36.83-.64,1.36-.84.53-.19,1.11-.29,1.74-.29.78-.03,1.44.1,1.97.39.53.29.93.74,1.19,1.36.26.62.39,1.4.39,2.34v12.21h5.54v-12.64c0-1.85-.27-3.4-.8-4.66-.53-1.26-1.33-2.2-2.38-2.83Z"/>
      <path d="M293.93,161.76c.05-1.46-.16-2.81-.62-4.08-.47-1.26-1.14-2.35-2.01-3.28-.87-.92-1.9-1.64-3.1-2.16-1.2-.52-2.5-.78-3.9-.78-1.51,0-2.91.27-4.19.8-1.29.53-2.4,1.29-3.33,2.26s-1.66,2.13-2.18,3.45c-.52,1.33-.78,2.79-.78,4.41,0,2.05.46,3.87,1.38,5.46.92,1.59,2.22,2.83,3.9,3.74,1.68.91,3.63,1.36,5.87,1.36.94,0,1.88-.12,2.85-.35.96-.23,1.9-.58,2.81-1.03.91-.45,1.74-1.02,2.5-1.7l-2.65-3.71c-.86.7-1.66,1.2-2.42,1.48-.75.29-1.59.43-2.5.43-1.33,0-2.48-.25-3.45-.76s-1.73-1.22-2.26-2.13c-.3-.52-.51-1.09-.64-1.72h14.7l.04-1.72ZM281.47,156.89c.79-.44,1.76-.66,2.91-.66.78,0,1.48.16,2.11.49.62.33,1.14.77,1.54,1.33.4.56.63,1.19.68,1.89v.16h-9.47c.1-.45.24-.87.42-1.25.42-.86,1.02-1.51,1.81-1.95Z"/>
      <path d="M149.21,190.89c-1.42-.92-3.02-1.38-4.82-1.38-.86,0-1.69.13-2.5.39-.81.26-1.55.62-2.22,1.07-.59.4-1.07.85-1.48,1.34v-10.61h-5.58v28.78h5.23l.13-2.33c.43.49.94.95,1.54,1.34.7.46,1.48.81,2.34,1.07.86.26,1.74.39,2.65.39,1.77,0,3.35-.46,4.76-1.38,1.4-.92,2.5-2.19,3.3-3.8.79-1.61,1.19-3.46,1.19-5.54s-.4-3.93-1.21-5.54c-.81-1.61-1.92-2.88-3.33-3.8ZM147.7,203.37c-.44.9-1.05,1.6-1.81,2.11-.77.51-1.67.76-2.71.76s-1.95-.25-2.73-.76c-.78-.51-1.38-1.21-1.81-2.11-.43-.9-.64-1.94-.64-3.14s.21-2.21.64-3.12c.43-.91,1.03-1.61,1.81-2.11.78-.49,1.69-.74,2.73-.74s1.95.25,2.73.74c.78.49,1.38,1.2,1.81,2.11.43.91.64,1.95.64,3.12s-.22,2.24-.66,3.14Z"/>
      <path d="M175.88,192.41c-.87-.92-1.9-1.64-3.1-2.16-1.2-.52-2.5-.78-3.9-.78-1.51,0-2.91.27-4.19.8-1.29.53-2.4,1.29-3.33,2.26s-1.66,2.13-2.18,3.45c-.52,1.33-.78,2.79-.78,4.41,0,2.05.46,3.87,1.38,5.46.92,1.59,2.22,2.83,3.9,3.74,1.68.91,3.63,1.37,5.87,1.37.94,0,1.88-.12,2.85-.35s1.9-.58,2.81-1.03c.91-.45,1.74-1.02,2.5-1.7l-2.65-3.71c-.86.7-1.66,1.2-2.42,1.48-.75.29-1.59.43-2.5.43-1.33,0-2.48-.25-3.45-.76-.98-.51-1.73-1.22-2.26-2.13-.3-.52-.51-1.09-.64-1.72h14.7l.04-1.72c.05-1.46-.16-2.81-.62-4.08-.47-1.26-1.14-2.35-2.01-3.28ZM166.05,194.89c.79-.44,1.76-.66,2.91-.66.78,0,1.48.16,2.11.49.62.33,1.14.77,1.54,1.33.4.56.63,1.19.68,1.89v.16h-9.47c.1-.45.24-.87.42-1.25.42-.86,1.02-1.51,1.81-1.95Z"/>
      <path d="M198.79,192.13c-.32-.33-.67-.65-1.07-.95-.72-.52-1.52-.93-2.42-1.23-.9-.3-1.83-.45-2.79-.45-1.82,0-3.44.46-4.86,1.38-1.42.92-2.53,2.2-3.35,3.82-.82,1.62-1.23,3.46-1.23,5.52s.41,3.96,1.23,5.56c.82,1.6,1.94,2.86,3.35,3.78,1.42.92,3.04,1.38,4.86,1.38.96,0,1.88-.14,2.75-.41s1.65-.65,2.34-1.13c.56-.39,1-.83,1.38-1.29l.12,2.44h5.27v-28.86h-5.58v10.42ZM198.33,203.43c-.44.91-1.05,1.63-1.83,2.15-.78.52-1.69.78-2.73.78s-1.94-.26-2.71-.78c-.77-.52-1.36-1.23-1.79-2.15-.43-.91-.64-1.98-.64-3.2s.21-2.25.64-3.16c.43-.91,1.03-1.62,1.79-2.15.77-.52,1.67-.78,2.71-.78s1.95.26,2.73.78c.78.52,1.39,1.24,1.83,2.15.44.91.66,1.96.66,3.16s-.22,2.29-.66,3.2Z"/>
    </g>
  </g>
</svg>